<svg width="18" height="21" viewBox="0 0 18 21" fill="none" xmlns="http://www.w3.org/2000/svg">
<path fill-rule="evenodd" clip-rule="evenodd" d="M8.6653 16.8028L2.73395 20.0522C2.26037 20.2983 1.67694 20.1241 1.41587 19.6586V19.6586C1.34034 19.5144 1.29959 19.3545 1.29688 19.1918V4.79361C1.29688 2.04762 3.17331 0.949219 5.87353 0.949219H12.2168C14.8346 0.949219 16.7934 1.97439 16.7934 4.61055V19.1918C16.7934 19.4515 16.6903 19.7007 16.5066 19.8843C16.3229 20.068 16.0738 20.1712 15.814 20.1712C15.6484 20.1686 15.4855 20.1278 15.3381 20.0522L9.3701 16.8028C9.15019 16.684 8.88521 16.684 8.6653 16.8028Z" stroke="#151718" stroke-width="1.5" stroke-linecap="round" stroke-linejoin="round"/>
<path d="M5.37109 7.49282H12.6663" stroke="#151718" stroke-width="1.5" stroke-linecap="round" stroke-linejoin="round"/>
</svg>
