<svg width="18" height="22" viewBox="0 0 18 22" fill="none" xmlns="http://www.w3.org/2000/svg">
<path fill-rule="evenodd" clip-rule="evenodd" d="M8.4153 17.5254L2.48395 20.7749C2.01037 21.021 1.42694 20.8468 1.16587 20.3813V20.3813C1.09034 20.2371 1.04959 20.0772 1.04688 19.9144V5.51627C1.04688 2.77027 2.92331 1.67188 5.62353 1.67188H11.9668C14.5846 1.67188 16.5434 2.69705 16.5434 5.3332V19.9144C16.5434 20.1742 16.4403 20.4233 16.2566 20.607C16.0729 20.7907 15.8238 20.8938 15.564 20.8938C15.3984 20.8912 15.2355 20.8505 15.0881 20.7749L9.1201 17.5254C8.90019 17.4066 8.63521 17.4066 8.4153 17.5254Z" stroke="#151718" stroke-width="1.5" stroke-linecap="round" stroke-linejoin="round"/>
<path d="M5.11914 8.21548H12.4143" stroke="#151718" stroke-width="1.5" stroke-linecap="round" stroke-linejoin="round"/>
</svg>
