<svg width="18" height="18" viewBox="0 0 18 18" fill="none" xmlns="http://www.w3.org/2000/svg">
<path d="M15.75 10.5H15V2.25C15 2.05109 14.921 1.86032 14.7803 1.71967C14.6397 1.57902 14.4489 1.5 14.25 1.5H3.75C3.55109 1.5 3.36032 1.57902 3.21967 1.71967C3.07902 1.86032 3 2.05109 3 2.25V10.5H2.25C2.05109 10.5 1.86032 10.579 1.71967 10.7197C1.57902 10.8603 1.5 11.0511 1.5 11.25C1.5 11.4489 1.57902 11.6397 1.71967 11.7803C1.86032 11.921 2.05109 12 2.25 12H8.25V12.8625L4.8375 15.1125C4.6975 15.1992 4.58991 15.3295 4.53133 15.4834C4.47274 15.6372 4.46643 15.8061 4.51335 15.9639C4.56027 16.1218 4.65782 16.2598 4.79095 16.3566C4.92408 16.4535 5.0854 16.5039 5.25 16.5C5.39745 16.5017 5.54172 16.4571 5.6625 16.3725L8.25 14.6625V15.75C8.25 15.9489 8.32902 16.1397 8.46967 16.2803C8.61032 16.421 8.80109 16.5 9 16.5C9.19891 16.5 9.38968 16.421 9.53033 16.2803C9.67098 16.1397 9.75 15.9489 9.75 15.75V14.6625L12.3375 16.3725C12.4583 16.4571 12.6026 16.5017 12.75 16.5C12.9102 16.4988 13.0659 16.4462 13.1941 16.3501C13.3223 16.254 13.4164 16.1194 13.4625 15.9659C13.5086 15.8124 13.5044 15.6482 13.4504 15.4974C13.3964 15.3465 13.2955 15.2169 13.1625 15.1275L9.75 12.8775V12H15.75C15.9489 12 16.1397 11.921 16.2803 11.7803C16.421 11.6397 16.5 11.4489 16.5 11.25C16.5 11.0511 16.421 10.8603 16.2803 10.7197C16.1397 10.579 15.9489 10.5 15.75 10.5ZM13.5 10.5H4.5V3H13.5V10.5ZM6.75 9C6.87353 8.99936 6.99499 8.96822 7.10359 8.90934C7.21219 8.85046 7.30456 8.76567 7.3725 8.6625L8.37 7.1625L9.2175 8.0175C9.29619 8.09668 9.39157 8.15729 9.49666 8.19492C9.60176 8.23255 9.71394 8.24624 9.825 8.235C9.93558 8.22287 10.0421 8.18629 10.1368 8.12792C10.2315 8.06954 10.312 7.99084 10.3725 7.8975L11.8725 5.6475C11.9608 5.48282 11.9845 5.2911 11.9389 5.10989C11.8933 4.92867 11.7816 4.77101 11.6259 4.66778C11.4701 4.56456 11.2814 4.52321 11.0967 4.55182C10.9121 4.58044 10.7447 4.67697 10.6275 4.8225L9.63 6.3225L8.7825 5.4675C8.70381 5.38832 8.60844 5.32771 8.50334 5.29008C8.39824 5.25245 8.28606 5.23876 8.175 5.25C8.06442 5.26213 7.95793 5.29871 7.86324 5.35708C7.76854 5.41546 7.68802 5.49416 7.6275 5.5875L6.1275 7.8375C6.01895 8.00285 5.98012 8.20438 6.01945 8.39823C6.05878 8.59207 6.17309 8.76253 6.3375 8.8725C6.45828 8.95709 6.60255 9.00169 6.75 9V9Z" fill="#7C8DA7"/>
</svg>
