<svg width="18" height="18" viewBox="0 0 18 18" fill="none" xmlns="http://www.w3.org/2000/svg">
<path d="M16.4902 7.23875L15.7402 6.82625L8.99021 3.07625H8.90771C8.86173 3.05681 8.81402 3.04174 8.76521 3.03125H8.62271H8.48771C8.43647 3.04175 8.38627 3.05681 8.33771 3.07625H8.25521L1.50521 6.82625C1.38979 6.89166 1.29378 6.98652 1.22699 7.10115C1.16019 7.21578 1.125 7.34608 1.125 7.47875C1.125 7.61142 1.16019 7.74172 1.22699 7.85635C1.29378 7.97098 1.38979 8.06584 1.50521 8.13125L3.37271 9.16625V12.7213C3.37271 13.318 3.60976 13.8903 4.03172 14.3122C4.45368 14.7342 5.02597 14.9713 5.62271 14.9713H11.6227C12.2194 14.9713 12.7917 14.7342 13.2137 14.3122C13.6357 13.8903 13.8727 13.318 13.8727 12.7213V9.16625L15.3727 8.32625V10.4713C15.3727 10.6702 15.4517 10.8609 15.5924 11.0016C15.733 11.1422 15.9238 11.2213 16.1227 11.2213C16.3216 11.2213 16.5124 11.1422 16.653 11.0016C16.7937 10.8609 16.8727 10.6702 16.8727 10.4713V7.89125C16.8725 7.75835 16.8369 7.6279 16.7697 7.51325C16.7025 7.3986 16.6061 7.30387 16.4902 7.23875V7.23875ZM12.3727 12.7213C12.3727 12.9202 12.2937 13.1109 12.153 13.2516C12.0124 13.3922 11.8216 13.4713 11.6227 13.4713H5.62271C5.4238 13.4713 5.23303 13.3922 5.09238 13.2516C4.95173 13.1109 4.87271 12.9202 4.87271 12.7213V9.99875L8.25521 11.8738L8.36771 11.9188H8.43521C8.49747 11.9266 8.56046 11.9266 8.62271 11.9188C8.68497 11.9266 8.74796 11.9266 8.81021 11.9188H8.87771C8.91753 11.9104 8.95559 11.8951 8.99021 11.8738L12.3727 9.99875V12.7213ZM8.62271 10.3663L3.41771 7.47125L8.62271 4.57625L13.8277 7.47125L8.62271 10.3663Z" fill="#7C8DA7"/>
</svg>
