<svg width="18" height="16" viewBox="0 0 18 16" fill="none" xmlns="http://www.w3.org/2000/svg">
<path d="M13.9337 9.93203C13.7179 10.1412 13.6187 10.4437 13.6679 10.7404L14.4087 14.8404C14.4712 15.1879 14.3245 15.5395 14.0337 15.7404C13.7487 15.9487 13.3695 15.9737 13.0587 15.807L9.36786 13.882C9.23953 13.8137 9.09703 13.777 8.9512 13.7729H8.72536C8.64703 13.7845 8.57037 13.8095 8.50037 13.8479L4.8087 15.782C4.6262 15.8737 4.41953 15.9062 4.21703 15.8737C3.7237 15.7804 3.39453 15.3104 3.47537 14.8145L4.21703 10.7145C4.2662 10.4154 4.16703 10.1112 3.9512 9.8987L0.942032 6.98203C0.690365 6.73786 0.602865 6.3712 0.717865 6.04036C0.829532 5.71036 1.11453 5.46953 1.4587 5.41536L5.60037 4.81453C5.91537 4.78203 6.19203 4.59036 6.3337 4.30703L8.1587 0.565365C8.20203 0.482031 8.25787 0.405365 8.32537 0.340365L8.40036 0.282031C8.43953 0.238698 8.48453 0.202865 8.53453 0.173698L8.62537 0.140365L8.76703 0.0820312H9.11786C9.4312 0.114531 9.70703 0.302031 9.8512 0.582031L11.7004 4.30703C11.8337 4.57953 12.0929 4.7687 12.392 4.81453L16.5337 5.41536C16.8837 5.46536 17.1762 5.70703 17.292 6.04036C17.4012 6.37453 17.307 6.7412 17.0504 6.98203L13.9337 9.93203Z" fill="#313131"/>
</svg>
