<?xml version="1.0" standalone="no"?>
<!DOCTYPE svg PUBLIC "-//W3C//DTD SVG 20010904//EN"
 "http://www.w3.org/TR/2001/REC-SVG-20010904/DTD/svg10.dtd">
<svg version="1.0" xmlns="http://www.w3.org/2000/svg"
 width="225.000000pt" height="225.000000pt" viewBox="0 0 225.000000 225.000000"
 preserveAspectRatio="xMidYMid meet">

<g transform="translate(0.000000,225.000000) scale(0.100000,-0.100000)"
fill="#000000" stroke="none">
<path d="M804 2144 c-45 -22 -54 -51 -54 -169 l0 -105 -208 0 -209 0 -24 -26
c-35 -37 -33 -98 4 -130 l28 -24 784 0 784 0 28 24 c37 32 39 93 4 130 l-24
26 -209 0 -208 0 0 105 c0 188 6 185 -377 185 -239 0 -293 -3 -319 -16z m506
-224 l0 -50 -185 0 -185 0 0 50 0 50 185 0 185 0 0 -50z"/>
<path d="M404 1565 l-25 -25 3 -592 3 -593 34 -63 c57 -105 153 -173 270 -193
80 -13 804 -12 876 2 120 22 209 86 266 191 l34 63 3 593 3 592 -25 25 c-18
18 -36 25 -64 25 -34 0 -47 -7 -84 -43 -1 -1 -5 -259 -8 -573 l-5 -570 -27
-41 c-16 -24 -44 -49 -70 -62 -43 -20 -57 -21 -463 -21 -406 0 -420 1 -463 21
-26 13 -54 38 -70 62 l-27 41 -5 570 c-3 314 -7 572 -8 573 -37 36 -50 43 -84
43 -28 0 -46 -7 -64 -25z"/>
<path d="M872 1377 c-22 -23 -22 -27 -22 -393 l0 -371 23 -21 c12 -11 34 -23
48 -27 31 -8 83 16 99 44 6 13 10 149 10 371 0 420 0 420 -99 420 -26 0 -44
-7 -59 -23z"/>
<path d="M1262 1393 c-7 -3 -19 -18 -27 -33 -12 -24 -15 -90 -15 -380 0 -222
4 -358 10 -371 16 -28 68 -52 99 -44 14 4 36 16 49 27 l22 21 0 372 0 372 -23
21 c-22 21 -81 29 -115 15z"/>
</g>
</svg>
