<svg width="16" height="16" viewBox="0 0 16 16" fill="none" xmlns="http://www.w3.org/2000/svg">
<path fill-rule="evenodd" clip-rule="evenodd" d="M5.81366 14.3554L13.1357 5.36014C13.5336 4.87506 13.6751 4.31423 13.5424 3.7432C13.4275 3.22408 13.0914 2.73049 12.5874 2.35604L11.3582 1.42843C10.2882 0.619956 8.96177 0.705058 8.20127 1.63267L7.37887 2.64624C7.27276 2.77304 7.29929 2.96026 7.43193 3.06238C7.43193 3.06238 9.51003 4.64528 9.55424 4.67932C9.69573 4.80698 9.80185 4.97718 9.82838 5.18142C9.87259 5.5814 9.58077 5.95585 9.14747 6.00691C8.94408 6.03244 8.74953 5.97287 8.60805 5.86224L6.42383 4.21126C6.31771 4.13552 6.15854 4.15169 6.07011 4.25381L0.879282 10.6365C0.543249 11.0364 0.42829 11.5556 0.543249 12.0577L1.20647 14.7894C1.24184 14.9341 1.37449 15.0362 1.53366 15.0362L4.45185 15.0022C4.98242 14.9937 5.47763 14.7639 5.81366 14.3554ZM9.89974 13.5047H14.6581C15.1224 13.5047 15.5 13.868 15.5 14.3148C15.5 14.7625 15.1224 15.125 14.6581 15.125H9.89974C9.43548 15.125 9.05789 14.7625 9.05789 14.3148C9.05789 13.868 9.43548 13.5047 9.89974 13.5047Z" fill="#7C8DA7"/>
</svg>
