<svg width="20" height="18" viewBox="0 0 20 18" fill="none" xmlns="http://www.w3.org/2000/svg">
<path fill-rule="evenodd" clip-rule="evenodd" d="M6.87774 3.49965C6.87774 5.36632 5.33886 6.87931 3.43887 6.87931C1.53999 6.87931 0 5.36632 0 3.49965C0 1.63408 1.53999 0.121094 3.43887 0.121094C5.33886 0.121094 6.87774 1.63408 6.87774 3.49965ZM18.4933 2.01942C19.3244 2.01942 20 2.68312 20 3.49965C20 4.31728 19.3244 4.98098 18.4933 4.98098H11.9178C11.0856 4.98098 10.4101 4.31728 10.4101 3.49965C10.4101 2.68312 11.0856 2.01942 11.9178 2.01942H18.4933ZM18.4895 13.0195C19.3206 13.0195 19.9962 13.6832 19.9962 14.4998C19.9962 15.3174 19.3206 15.9811 18.4895 15.9811H11.914C11.0818 15.9811 10.4062 15.3174 10.4062 14.4998C10.4062 13.6832 11.0818 13.0195 11.914 13.0195H18.4895ZM3.43887 17.8793C5.33886 17.8793 6.87774 16.3663 6.87774 14.4997C6.87774 12.6341 5.33886 11.1211 3.43887 11.1211C1.53999 11.1211 0 12.6341 0 14.4997C0 16.3663 1.53999 17.8793 3.43887 17.8793Z" fill="#313131"/>
</svg>
