<svg width="746" height="498" viewBox="0 0 746 498" fill="none" xmlns="http://www.w3.org/2000/svg">
<path d="M582.526 201.822H694.326H724.259L701.171 218.505V251.327C701.171 255.113 698.106 258.182 694.326 258.182H582.526C578.745 258.182 575.681 255.113 575.681 251.327V208.675C575.681 204.891 578.745 201.822 582.526 201.822Z" fill="#F5F5F5"/>
<path d="M588.438 225.018C588.438 225.155 609.815 225.266 636.178 225.266C662.55 225.266 683.922 225.155 683.922 225.018C683.922 224.881 662.55 224.77 636.178 224.77C609.815 224.77 588.438 224.881 588.438 225.018Z" fill="#E1E1E1"/>
<path d="M588.438 237.619C588.438 237.757 609.815 237.867 636.178 237.867C662.55 237.867 683.922 237.757 683.922 237.619C683.922 237.483 662.55 237.371 636.178 237.371C609.815 237.371 588.438 237.483 588.438 237.619Z" fill="#E1E1E1"/>
<path d="M367.268 80.7094H360.636V102.957H367.268V80.7094Z" fill="#E1E1E1"/>
<path d="M311.869 77.4863H305.236V102.957H311.869V77.4863Z" fill="#E1E1E1"/>
<path d="M325.718 72.1776H319.086V102.957H325.718V72.1776Z" fill="#E1E1E1"/>
<path d="M339.569 73.8659H332.937V102.957H339.569V73.8659Z" fill="#E1E1E1"/>
<path d="M353.419 64.0244H346.786V102.957H353.419V64.0244Z" fill="#E1E1E1"/>
<path d="M381.119 64.2136H374.486V102.957H381.119V64.2136Z" fill="#E1E1E1"/>
<path d="M394.969 76.9385H388.337V102.957H394.969V76.9385Z" fill="#E1E1E1"/>
<path d="M408.819 65.9198H402.187V102.957H408.819V65.9198Z" fill="#E1E1E1"/>
<path d="M422.669 57.5773H416.036V102.957H422.669V57.5773Z" fill="#E1E1E1"/>
<path d="M436.519 65.7305H429.887V102.957H436.519V65.7305Z" fill="#E1E1E1"/>
<path d="M611.282 100.895L666.134 92.5023C670.731 122.633 649.754 151.215 619.663 155.82C589.572 160.423 561.029 139.418 556.43 109.287C551.833 79.1559 572.809 50.5736 602.9 45.9691C607.691 45.2371 612.557 45.1355 617.374 45.6683L611.282 100.895Z" fill="#ECECEC"/>
<path d="M629.079 45.8429L622.42 88.4199L664.157 80.5714C664.157 80.5714 658.02 56.7103 629.079 45.8429Z" fill="#E1E1E1"/>
<path d="M91.4022 203.528C91.2868 196.316 85.3606 190.542 78.191 190.658C71.0215 190.774 65.2822 196.736 65.3976 203.948C65.513 211.16 71.4392 216.934 78.6088 216.818C85.7783 216.702 91.5176 210.74 91.4022 203.528ZM51.2057 204.177C50.965 189.094 62.9686 176.624 77.9632 176.382C92.9578 176.14 105.353 188.214 105.594 203.299C105.835 218.383 93.8312 230.852 78.8365 231.094C63.842 231.336 51.4464 219.262 51.2057 204.177Z" fill="#F5F5F5"/>
<path d="M51.2067 204.178C50.966 189.094 62.9696 176.625 77.9632 176.383L78.192 190.658C71.0214 190.774 65.2822 196.737 65.3986 203.949C65.513 211.161 71.4392 216.935 78.6097 216.818L78.8375 231.094C63.8429 231.337 51.4474 219.263 51.2067 204.178Z" fill="#E1E1E1"/>
<path d="M75.5215 174.187C93.0644 173.903 107.058 187.536 107.34 205.183L90.7369 205.451C90.6026 197.013 84.191 191.7 75.803 191.837L75.5215 174.187Z" fill="#ECECEC"/>
<path d="M227.898 341.385H193.328V300.232H227.898V341.385Z" fill="#F5F5F5"/>
<path d="M194.519 343.973H38.291V297.55H194.519V343.973Z" fill="#E1E1E1"/>
<path d="M228.946 301.455H190.332V297.551H228.946C230.022 297.551 230.895 298.424 230.895 299.503C230.895 300.581 230.022 301.455 228.946 301.455Z" fill="#E1E1E1"/>
<path d="M228.946 343.973H190.332V340.069H228.946C230.022 340.069 230.895 340.943 230.895 342.021C230.895 343.099 230.022 343.973 228.946 343.973Z" fill="#E1E1E1"/>
<path d="M163.778 343.973H182.236V297.55H163.778V343.973Z" fill="#ECECEC"/>
<path d="M53.1484 344.486H71.6065V298.063H53.1484V344.486Z" fill="#ECECEC"/>
<path d="M227.898 307.04C227.898 307.153 220.416 307.246 211.189 307.246C201.958 307.246 194.479 307.153 194.479 307.04C194.479 306.927 201.958 306.835 211.189 306.835C220.416 306.835 227.898 306.927 227.898 307.04Z" fill="#E1E1E1"/>
<path d="M227.898 313.211C227.898 313.324 220.416 313.416 211.189 313.416C201.958 313.416 194.479 313.324 194.479 313.211C194.479 313.097 201.958 313.005 211.189 313.005C220.416 313.005 227.898 313.097 227.898 313.211Z" fill="#E1E1E1"/>
<path d="M227.898 320.808C227.898 320.922 220.416 321.014 211.189 321.014C201.958 321.014 194.479 320.922 194.479 320.808C194.479 320.695 201.958 320.602 211.189 320.602C220.416 320.602 227.898 320.695 227.898 320.808Z" fill="#E1E1E1"/>
<path d="M227.898 328.408C227.898 328.522 220.416 328.613 211.189 328.613C201.958 328.613 194.479 328.522 194.479 328.408C194.479 328.295 201.958 328.203 211.189 328.203C220.416 328.203 227.898 328.295 227.898 328.408Z" fill="#E1E1E1"/>
<path d="M227.898 336.006C227.898 336.119 220.416 336.211 211.189 336.211C201.958 336.211 194.479 336.119 194.479 336.006C194.479 335.892 201.958 335.801 211.189 335.801C220.416 335.801 227.898 335.892 227.898 336.006Z" fill="#E1E1E1"/>
<path d="M153.854 324.988H83.5693V316.629H153.854V324.988Z" fill="#ECECEC"/>
<path d="M227.547 369.959H192.447V344.884H227.547V369.959Z" fill="#FAFAFA"/>
<path d="M192.84 370.869H43.4648V343.974H192.84V370.869Z" fill="#F5F5F5"/>
<path d="M191.754 345.793H229.481C229.982 345.793 230.389 345.386 230.389 344.884C230.389 344.381 229.982 343.973 229.481 343.973H191.754V345.793Z" fill="#F5F5F5"/>
<path d="M191.754 370.867H229.972C230.202 370.867 230.389 370.681 230.389 370.45V369.466C230.389 369.234 230.202 369.047 229.972 369.047H191.754V370.867Z" fill="#F5F5F5"/>
<path d="M227.547 349.647C227.547 349.761 219.776 349.854 210.194 349.854C200.608 349.854 192.839 349.761 192.839 349.647C192.839 349.535 200.608 349.442 210.194 349.442C219.776 349.442 227.547 349.535 227.547 349.647Z" fill="#E1E1E1"/>
<path d="M227.547 354.39C227.547 354.503 219.776 354.596 210.194 354.596C200.608 354.596 192.839 354.503 192.839 354.39C192.839 354.277 200.608 354.184 210.194 354.184C219.776 354.184 227.547 354.277 227.547 354.39Z" fill="#E1E1E1"/>
<path d="M227.547 359.135C227.547 359.248 219.776 359.34 210.194 359.34C200.608 359.34 192.839 359.248 192.839 359.135C192.839 359.021 200.608 358.928 210.194 358.928C219.776 358.928 227.547 359.021 227.547 359.135Z" fill="#E1E1E1"/>
<path d="M227.547 363.879C227.547 363.992 219.776 364.084 210.194 364.084C200.608 364.084 192.839 363.992 192.839 363.879C192.839 363.765 200.608 363.674 210.194 363.674C219.776 363.674 227.547 363.765 227.547 363.879Z" fill="#E1E1E1"/>
<path d="M232.871 441.232H197.044V373.258H232.871V441.232Z" fill="#ECECEC"/>
<path d="M197.044 444.57H28.876V370.868H197.044V444.57Z" fill="#E1E1E1"/>
<path d="M235.674 444.57H192.447V439.791H235.674C236.992 439.791 238.062 440.86 238.062 442.181C238.062 443.501 236.992 444.57 235.674 444.57Z" fill="#E1E1E1"/>
<path d="M236.967 375.648H192.447V370.869H236.967C237.571 370.869 238.062 371.36 238.062 371.966V374.552C238.062 375.158 237.571 375.648 236.967 375.648Z" fill="#E1E1E1"/>
<path d="M232.871 382.37C232.871 382.484 224.851 382.576 214.959 382.576C205.063 382.576 197.044 382.484 197.044 382.37C197.044 382.257 205.063 382.165 214.959 382.165C224.851 382.165 232.871 382.257 232.871 382.37Z" fill="#E1E1E1"/>
<path d="M232.871 391.088C232.871 391.2 224.851 391.293 214.959 391.293C205.063 391.293 197.044 391.2 197.044 391.088C197.044 390.974 205.063 390.882 214.959 390.882C224.851 390.882 232.871 390.974 232.871 391.088Z" fill="#E1E1E1"/>
<path d="M232.871 399.807C232.871 399.919 224.851 400.012 214.959 400.012C205.063 400.012 197.044 399.919 197.044 399.807C197.044 399.693 205.063 399.6 214.959 399.6C224.851 399.6 232.871 399.693 232.871 399.807Z" fill="#E1E1E1"/>
<path d="M232.871 408.525C232.871 408.639 224.851 408.73 214.959 408.73C205.063 408.73 197.044 408.639 197.044 408.525C197.044 408.412 205.063 408.32 214.959 408.32C224.851 408.32 232.871 408.412 232.871 408.525Z" fill="#E1E1E1"/>
<path d="M232.871 417.243C232.871 417.357 224.851 417.449 214.959 417.449C205.063 417.449 197.044 417.357 197.044 417.243C197.044 417.13 205.063 417.038 214.959 417.038C224.851 417.038 232.871 417.13 232.871 417.243Z" fill="#E1E1E1"/>
<path d="M232.871 425.96C232.871 426.073 224.851 426.166 214.959 426.166C205.063 426.166 197.044 426.073 197.044 425.96C197.044 425.847 205.063 425.755 214.959 425.755C224.851 425.755 232.871 425.847 232.871 425.96Z" fill="#E1E1E1"/>
<path d="M232.871 434.68C232.871 434.792 224.851 434.885 214.959 434.885C205.063 434.885 197.044 434.792 197.044 434.68C197.044 434.566 205.063 434.473 214.959 434.473C224.851 434.473 232.871 434.566 232.871 434.68Z" fill="#E1E1E1"/>
<path d="M86.4211 411.752V415.852C86.4211 420.791 83.9553 423.613 79.1988 423.613C74.4433 423.613 71.9775 420.791 71.9775 415.852V399.802C71.9775 394.863 74.4433 392.041 79.1988 392.041C83.9553 392.041 86.4211 394.863 86.4211 399.802V402.801H81.8416V399.492C81.8416 397.289 80.8728 396.45 79.3311 396.45C77.7904 396.45 76.8216 397.289 76.8216 399.492V416.161C76.8216 418.366 77.7904 419.159 79.3311 419.159C80.8728 419.159 81.8416 418.366 81.8416 416.161V411.752H86.4211Z" fill="#ECECEC"/>
<path d="M93.8157 416.161C93.8157 418.366 94.7845 419.204 96.3252 419.204C97.867 419.204 98.8358 418.366 98.8358 416.161V399.493C98.8358 397.289 97.867 396.45 96.3252 396.45C94.7845 396.45 93.8157 397.289 93.8157 399.493V416.161ZM88.9717 399.802C88.9717 394.863 91.5697 392.041 96.3252 392.041C101.082 392.041 103.68 394.863 103.68 399.802V415.852C103.68 420.791 101.082 423.613 96.3252 423.613C91.5697 423.613 88.9717 420.791 88.9717 415.852V399.802Z" fill="#ECECEC"/>
<path d="M106.803 392.396H111.647V418.852H119.617V423.262H106.803V392.396Z" fill="#ECECEC"/>
<path d="M126.175 416.161C126.175 418.366 127.144 419.204 128.685 419.204C130.226 419.204 131.195 418.366 131.195 416.161V399.493C131.195 397.289 130.226 396.45 128.685 396.45C127.144 396.45 126.175 397.289 126.175 399.493V416.161ZM121.331 399.802C121.331 394.863 123.929 392.041 128.685 392.041C133.441 392.041 136.039 394.863 136.039 399.802V415.852C136.039 420.791 133.441 423.613 128.685 423.613C123.929 423.613 121.331 420.791 121.331 415.852V399.802Z" fill="#ECECEC"/>
<path d="M143.786 392.395V416.205C143.786 418.41 144.755 419.204 146.296 419.204C147.838 419.204 148.806 418.41 148.806 416.205V392.395H153.386V415.897C153.386 420.837 150.92 423.658 146.165 423.658C141.408 423.658 138.942 420.837 138.942 415.897V392.395H143.786Z" fill="#ECECEC"/>
<path d="M161.53 396.803V406.284H163.422C165.229 406.284 166.33 405.49 166.33 403.02V399.978C166.33 397.773 165.581 396.803 163.863 396.803H161.53ZM166.813 423.26C166.55 422.467 166.374 421.981 166.374 419.468V414.617C166.374 411.752 165.405 410.693 163.203 410.693H161.53V423.26H156.686V392.394H163.995C169.015 392.394 171.173 394.73 171.173 399.492V401.918C171.173 405.093 170.16 407.165 168.003 408.18C170.425 409.193 171.218 411.531 171.218 414.75V419.513C171.218 421.012 171.261 422.113 171.746 423.26H166.813Z" fill="#ECECEC"/>
<path d="M85.3739 354.565H81.8408L82.0268 353.649H90.1353L89.9354 354.565H86.4173L84.601 363.672H83.5576L85.3739 354.565Z" fill="#E1E1E1"/>
<path d="M96.9378 356.139L91.4462 364.646C90.5172 366.078 89.817 366.521 88.7298 366.521C88.0296 366.521 87.3144 366.277 86.9424 365.848L87.4855 365.104C87.8147 365.448 88.2434 365.649 88.8153 365.649C89.4589 365.649 89.9592 365.347 90.5461 364.431L91.0752 363.63L89.2023 356.139H90.2308L91.7894 362.553L95.8934 356.139H96.9378Z" fill="#E1E1E1"/>
<path d="M104.271 359.32C104.271 357.844 103.37 356.971 101.796 356.971C99.9243 356.971 98.5516 358.445 98.5516 360.506C98.5516 361.983 99.4518 362.842 101.024 362.842C102.898 362.842 104.271 361.368 104.271 359.32ZM105.3 359.262C105.3 361.853 103.498 363.742 101.039 363.742C99.609 363.742 98.6073 363.156 98.1786 362.096L97.3212 366.449H96.3057L98.3507 356.14H99.3225L99.0798 357.344C99.795 356.542 100.796 356.084 102.012 356.084C103.942 356.084 105.3 357.286 105.3 359.262Z" fill="#E1E1E1"/>
<path d="M113.232 359.32C113.232 357.844 112.331 356.971 110.759 356.971C108.885 356.971 107.498 358.459 107.498 360.506C107.498 361.983 108.399 362.842 109.972 362.842C111.845 362.842 113.232 361.368 113.232 359.32ZM106.481 360.551C106.481 357.987 108.299 356.084 110.829 356.084C112.917 356.084 114.247 357.314 114.247 359.262C114.247 361.839 112.431 363.742 109.899 363.742C107.812 363.742 106.481 362.483 106.481 360.551Z" fill="#E1E1E1"/>
<path d="M122.265 359.162C122.265 357.788 121.335 356.973 119.776 356.973C117.875 356.973 116.502 358.376 116.502 360.293C116.502 361.669 117.417 362.485 118.991 362.485C120.878 362.485 122.265 361.082 122.265 359.162ZM123.981 356.141L122.665 362.757C122.136 365.42 120.734 366.523 118.289 366.523C116.874 366.523 115.715 366.122 114.943 365.392L115.544 364.619C116.144 365.235 117.159 365.621 118.361 365.621C120.262 365.621 121.263 364.747 121.621 362.93L121.793 362.097C121.078 362.901 120.063 363.388 118.79 363.388C116.801 363.388 115.472 362.228 115.472 360.351C115.472 357.932 117.259 356.085 119.763 356.085C121.149 356.085 122.265 356.656 122.694 357.803L123.008 356.141H123.981Z" fill="#E1E1E1"/>
<path d="M130.611 356.084L130.425 357.071C130.324 357.071 130.253 357.056 130.138 357.056C128.538 357.056 127.465 357.973 127.093 359.849L126.336 363.672H125.32L126.807 356.14H127.779L127.522 357.515C128.195 356.527 129.181 356.084 130.611 356.084Z" fill="#E1E1E1"/>
<path d="M137.544 359.32C137.544 357.844 136.643 356.971 135.07 356.971C133.196 356.971 131.81 358.459 131.81 360.506C131.81 361.983 132.71 362.842 134.283 362.842C136.156 362.842 137.544 361.368 137.544 359.32ZM139.231 356.14L137.73 363.671H136.756L137 362.483C136.285 363.271 135.285 363.742 134.068 363.742C132.139 363.742 130.793 362.54 130.793 360.551C130.793 357.971 132.596 356.084 135.041 356.084C136.472 356.084 137.472 356.671 137.901 357.715L138.215 356.14H139.231Z" fill="#E1E1E1"/>
<path d="M147.963 359.32C147.963 357.844 147.062 356.971 145.49 356.971C143.616 356.971 142.244 358.445 142.244 360.506C142.244 361.983 143.144 362.842 144.717 362.842C146.591 362.842 147.963 361.368 147.963 359.32ZM148.993 359.262C148.993 361.853 147.191 363.742 144.732 363.742C143.301 363.742 142.3 363.156 141.871 362.096L141.014 366.449H139.998L142.043 356.14H143.015L142.772 357.344C143.487 356.542 144.488 356.084 145.704 356.084C147.634 356.084 148.993 357.286 148.993 359.262Z" fill="#E1E1E1"/>
<path d="M158.098 358.533C158.098 358.804 158.069 359.091 158.011 359.391L157.154 363.672H156.138L156.997 359.376C157.04 359.133 157.067 358.904 157.067 358.69C157.067 357.616 156.424 357.001 155.124 357.001C153.522 357.001 152.421 357.873 152.063 359.634L151.263 363.672H150.247L152.364 353.048H153.378L152.535 357.271C153.25 356.456 154.252 356.084 155.409 356.084C157.111 356.084 158.098 357.001 158.098 358.533Z" fill="#E1E1E1"/>
<path d="M167.602 356.139L162.11 364.646C161.181 366.078 160.48 366.521 159.394 366.521C158.693 366.521 157.977 366.277 157.606 365.848L158.15 365.104C158.479 365.448 158.907 365.649 159.479 365.649C160.123 365.649 160.623 365.347 161.21 364.431L161.739 363.63L159.866 356.139H160.895L162.453 362.553L166.557 356.139H167.602Z" fill="#E1E1E1"/>
<path d="M190.26 46.6031H69.9117H37.6904L62.5442 64.562V99.8941C62.5442 103.969 65.8425 107.271 69.9117 107.271H190.26C194.33 107.271 197.629 103.969 197.629 99.8941V53.9805C197.629 49.9059 194.33 46.6031 190.26 46.6031Z" fill="#F5F5F5"/>
<path d="M183.896 71.5729C183.896 71.7203 160.886 71.8398 132.507 71.8398C104.118 71.8398 81.1123 71.7203 81.1123 71.5729C81.1123 71.4255 104.118 71.306 132.507 71.306C160.886 71.306 183.896 71.4255 183.896 71.5729Z" fill="#E1E1E1"/>
<path d="M183.896 85.1393C183.896 85.2867 160.886 85.4062 132.507 85.4062C104.118 85.4062 81.1123 85.2867 81.1123 85.1393C81.1123 84.9919 104.118 84.8724 132.507 84.8724C160.886 84.8724 183.896 84.9919 183.896 85.1393Z" fill="#E1E1E1"/>
<path d="M504.331 60.6749L502.113 62.388C483.409 76.832 473.777 100.235 477.846 123.313C478.368 126.28 479.106 129.211 480.061 132.075C486.943 152.701 504.958 169.301 526.251 174.63C538.773 177.765 552.754 177.465 563.247 184.902C576.903 194.58 579.396 213.332 580.73 229.914C582.063 246.498 584.605 265.256 598.305 274.876C606.885 280.899 618.233 281.848 628.627 280.118C656.146 275.541 678.739 253.449 688.295 227.503C697.852 201.558 695.718 172.512 687.299 146.232C675.505 109.419 650.677 75.9376 616.108 58.0146C581.541 40.0916 537.116 39.5567 504.331 60.6749Z" fill="#F5F5F5"/>
<path d="M193.298 155.346C193.298 195.003 161.192 227.152 121.587 227.152C81.9838 227.152 49.8779 195.003 49.8779 155.346C49.8779 115.689 81.9838 83.5401 121.587 83.5401C161.192 83.5401 193.298 115.689 193.298 155.346Z" fill="#F5F5F5"/>
<path d="M719.41 444.569C719.41 444.713 563.414 444.828 371.028 444.828C178.575 444.828 22.6113 444.713 22.6113 444.569C22.6113 444.426 178.575 444.309 371.028 444.309C563.414 444.309 719.41 444.426 719.41 444.569Z" fill="#1A2E35"/>
<path d="M653.943 393.732C653.943 393.732 627.577 363.345 617.627 332.958C607.678 302.573 612.404 306.06 612.404 306.06C612.404 306.06 625.836 335.577 636.034 349.836C646.233 364.092 664.39 385.015 664.39 385.015L653.943 393.732Z" fill="#375A64"/>
<path d="M659.198 310.793C658.348 309.31 656.083 310.081 656.338 311.772C657.945 322.445 661.42 347.494 661.284 363.739C661.107 384.843 661.291 393 661.291 393H672.265C672.265 393 670.316 349.373 667.837 336.073C666.098 326.747 662.408 316.393 659.198 310.793Z" fill="#375A64"/>
<path d="M665.18 389.453C665.18 389.453 672.087 374.911 674.212 356.645C675.116 348.876 673.504 338.379 671.106 324.368C669.944 317.582 669.681 312.418 669.718 308.837C669.747 306.132 673.313 305.248 674.635 307.607C675.959 309.974 679.792 318.058 680.766 323.126C683.423 336.959 686.433 343.875 684.131 356.999C681.828 370.123 673.327 390.34 673.327 390.34L665.18 389.453Z" fill="#375A64"/>
<path d="M675.065 390.34C675.065 390.34 704.014 328.045 706.02 318.803C708.027 309.561 714.848 288.265 715.652 289.471C716.454 290.676 717.657 301.926 712.441 314.785C707.224 327.644 684.95 392.238 684.95 392.238H675.065" fill="#375A64"/>
<path d="M662.01 387.554C661.997 387.571 661.718 387.377 661.199 386.995C660.685 386.605 659.905 386.058 658.956 385.281C657.029 383.765 654.325 381.459 651.176 378.403C644.857 372.327 636.992 362.958 630.173 351.412C623.341 339.868 618.747 328.58 615.838 320.316C614.382 316.178 613.32 312.791 612.63 310.438C612.276 309.264 612.034 308.345 611.863 307.722C611.696 307.099 611.618 306.769 611.638 306.762C611.659 306.756 611.776 307.075 611.982 307.686C612.2 308.352 612.493 309.245 612.86 310.367C613.619 312.695 614.743 316.057 616.249 320.167C619.258 328.377 623.901 339.6 630.706 351.096C637.495 362.593 645.265 371.957 651.483 378.092C654.581 381.176 657.232 383.525 659.108 385.095C660.032 385.898 660.787 386.475 661.275 386.897C661.769 387.311 662.024 387.536 662.01 387.554Z" fill="#1A2E35"/>
<path d="M665.178 357.668C665.135 357.671 665.044 357.02 664.918 355.839C664.781 354.549 664.601 352.87 664.384 350.845C663.925 346.631 663.21 340.82 662.188 334.435C661.16 328.049 660.019 322.304 659.137 318.159C658.708 316.17 658.353 314.517 658.08 313.249C657.831 312.089 657.713 311.443 657.754 311.433C657.796 311.422 657.992 312.048 658.314 313.192C658.639 314.334 659.066 315.997 659.563 318.062C660.556 322.19 661.768 327.935 662.798 334.337C663.824 340.736 664.471 346.572 664.819 350.804C664.995 352.919 665.109 354.634 665.158 355.821C665.21 357.008 665.22 357.665 665.178 357.668Z" fill="#1A2E35"/>
<path d="M671.958 307.12C671.978 307.112 672.096 307.386 672.301 307.912C672.519 308.499 672.808 309.267 673.168 310.226C673.551 311.23 673.991 312.468 674.41 313.935C674.84 315.399 675.398 317.047 675.818 318.923C676.046 319.858 676.285 320.836 676.535 321.852C676.778 322.872 676.95 323.951 677.171 325.059C677.644 327.27 677.936 329.67 678.287 332.187C678.853 337.236 679.163 342.829 678.979 348.694C678.743 354.562 678.035 360.118 677.109 365.116C676.58 367.602 676.116 369.973 675.487 372.146C675.185 373.235 674.936 374.299 674.621 375.299C674.3 376.296 673.992 377.253 673.696 378.169C673.144 380.011 672.471 381.615 671.937 383.043C671.413 384.477 670.886 385.68 670.433 386.654C670.005 387.583 669.662 388.33 669.401 388.899C669.16 389.409 669.023 389.673 669.003 389.664C668.984 389.655 669.083 389.374 669.288 388.848C669.521 388.268 669.828 387.508 670.211 386.559C670.63 385.574 671.123 384.361 671.612 382.92C672.115 381.485 672.758 379.876 673.28 378.034C673.562 377.118 673.856 376.16 674.164 375.164C674.466 374.165 674.702 373.103 674.99 372.017C675.595 369.848 676.038 367.485 676.549 365.01C677.44 360.033 678.126 354.507 678.361 348.673C678.543 342.839 678.254 337.279 677.722 332.251C677.387 329.746 677.117 327.357 676.667 325.152C676.457 324.047 676.297 322.972 676.068 321.954C675.834 320.938 675.608 319.962 675.393 319.028C675.003 317.152 674.476 315.502 674.079 314.035C673.693 312.562 673.287 311.317 672.939 310.304C672.626 309.331 672.375 308.551 672.183 307.955C672.017 307.415 671.938 307.128 671.958 307.12Z" fill="#1A2E35"/>
<path d="M715.319 290.722C715.33 290.724 715.322 290.819 715.297 291.001C715.261 291.22 715.219 291.486 715.168 291.811C715.041 292.52 714.88 293.572 714.597 294.911C714.038 297.591 713.107 301.448 711.659 306.126C710.216 310.806 708.239 316.293 705.894 322.321C703.559 328.352 700.844 334.923 698.274 341.917C695.664 348.901 693.654 355.716 691.764 361.901C689.893 368.091 688.117 373.646 686.401 378.233C684.701 382.826 683.065 386.443 681.83 388.886C681.237 390.12 680.704 391.041 680.361 391.673C680.197 391.96 680.065 392.194 679.955 392.386C679.861 392.544 679.809 392.624 679.799 392.619C679.789 392.613 679.822 392.524 679.9 392.356C679.994 392.156 680.11 391.913 680.25 391.615C680.557 390.965 681.056 390.028 681.613 388.781C682.779 386.312 684.348 382.682 685.99 378.082C687.649 373.489 689.378 367.933 691.219 361.736C693.078 355.546 695.077 348.707 697.694 341.704C700.27 334.692 703.001 328.128 705.363 322.113C707.736 316.102 709.75 310.645 711.241 305.994C712.739 301.345 713.733 297.517 714.362 294.859C714.681 293.531 714.879 292.487 715.046 291.787C715.121 291.467 715.183 291.205 715.234 290.99C715.28 290.811 715.308 290.72 715.319 290.722Z" fill="#1A2E35"/>
<path d="M626.052 276.962C624.228 275.148 621.194 277.045 621.949 279.507C622.715 282.004 623.875 285.231 625.587 288.873C629.567 297.342 641.257 327.729 646.73 344.417C652.202 361.103 659.913 392.238 659.913 392.238L671.598 390.34C671.598 390.34 660.907 339.186 650.461 320.755C642.067 305.946 633.673 284.543 626.052 276.962Z" fill="#375A64"/>
<path d="M649.928 354.853C649.969 354.839 650.18 355.338 650.53 356.256C650.876 357.174 651.347 358.514 651.877 360.185C652.954 363.522 654.27 368.185 655.597 373.364C656.92 378.546 658.023 383.26 658.792 386.676C659.143 388.294 659.438 389.652 659.671 390.731C659.866 391.691 659.954 392.227 659.912 392.238C659.871 392.248 659.704 391.731 659.438 390.788C659.152 389.721 658.794 388.379 658.366 386.78C657.473 383.26 656.298 378.635 654.999 373.517C653.674 368.344 652.426 363.673 651.459 360.311C650.997 358.725 650.611 357.392 650.302 356.332C650.023 355.394 649.888 354.868 649.928 354.853Z" fill="#1A2E35"/>
<path d="M665.783 391.289C665.772 391.29 665.75 391.184 665.717 390.977C665.682 390.733 665.638 390.431 665.585 390.055C665.462 389.246 665.352 388.045 665.106 386.511C664.678 383.438 663.911 379.008 662.656 373.605C661.41 368.199 659.588 361.841 657.186 354.911C654.789 347.979 651.783 340.488 648.376 332.736C641.501 317.249 634.634 303.514 630.12 293.357C627.841 288.291 626.074 284.154 624.91 281.273C624.317 279.837 623.894 278.707 623.596 277.944C623.465 277.589 623.359 277.303 623.273 277.072C623.202 276.874 623.172 276.77 623.182 276.767C623.191 276.763 623.241 276.858 623.331 277.048C623.432 277.272 623.557 277.552 623.712 277.896C624.056 278.691 624.53 279.788 625.133 281.178C626.362 284.03 628.188 288.136 630.518 293.175C635.129 303.278 642.056 316.977 648.941 332.486C652.354 340.25 655.352 347.764 657.724 354.725C660.105 361.683 661.886 368.073 663.083 373.506C664.286 378.939 664.988 383.391 665.345 386.48C665.555 388.021 665.626 389.228 665.708 390.042C665.737 390.421 665.761 390.726 665.78 390.97C665.793 391.18 665.794 391.288 665.783 391.289Z" fill="#1A2E35"/>
<path d="M671.599 390.34C671.556 390.346 671.418 389.646 671.205 388.374C670.972 386.999 670.667 385.187 670.295 382.994C669.49 378.461 668.261 372.217 666.492 365.42C664.742 358.616 662.771 352.566 661.254 348.219C660.509 346.124 659.892 344.392 659.427 343.08C658.988 341.867 658.766 341.189 658.805 341.174C658.845 341.157 659.144 341.806 659.65 342.992C660.154 344.179 660.857 345.909 661.665 348.071C663.289 352.387 665.334 358.439 667.091 365.265C668.864 372.084 670.03 378.363 670.726 382.924C671.059 385.207 671.314 387.056 671.444 388.341C671.583 389.623 671.641 390.335 671.599 390.34Z" fill="#1A2E35"/>
<path d="M695.583 444.309H649.971V388.66H695.583V444.309Z" fill="#FF9A6C"/>
<g opacity="0.300003">
<path d="M695.583 444.309H649.971V388.66H695.583V444.309Z" fill="black"/>
</g>
<path d="M681.033 444.309H640.565V388.66H681.033V444.309Z" fill="#FF9A6C"/>
<path d="M88.0545 369.312C80.2842 364.329 69.5159 364.234 61.9545 369.527C54.775 374.553 51.1295 383.698 51.4468 392.463C51.7631 401.228 56.0064 411.938 63.9368 416.543L87.215 416.451C94.6482 410.978 99.6742 402.161 100.025 392.929C100.375 383.697 95.8239 374.295 88.0545 369.312Z" fill="#375A64"/>
<path d="M76.5927 417.391C76.5419 417.391 76.4912 416.676 76.4464 415.385C76.4057 413.951 76.3539 412.116 76.2913 409.918C76.1739 405.302 75.9919 398.929 75.6845 391.892C75.3742 384.854 74.9962 378.488 74.7078 373.879C74.5775 371.684 74.4681 369.853 74.3825 368.42C74.3159 367.13 74.3019 366.414 74.3537 366.409C74.4044 366.406 74.5148 367.114 74.671 368.396C74.8301 369.679 75.0221 371.539 75.232 373.84C75.6537 378.442 76.1162 384.812 76.4266 391.859C76.7349 398.905 76.8334 405.291 76.8165 409.912C76.8095 412.223 76.7797 414.092 76.7359 415.385C76.6921 416.676 76.6444 417.391 76.5927 417.391Z" fill="#1A2E35"/>
<path d="M53.7933 390.478C53.7764 390.683 52.5112 390.747 50.9685 390.621C49.4247 390.493 48.1874 390.224 48.2043 390.019C48.2212 389.815 49.4854 389.752 51.0291 389.878C52.5719 390.004 53.8102 390.274 53.7933 390.478Z" fill="#1A2E35"/>
<path d="M54.227 382.614C54.1434 382.802 53.0523 382.5 51.79 381.939C50.5278 381.378 49.5709 380.771 49.6545 380.584C49.738 380.395 50.8282 380.698 52.0914 381.26C53.3537 381.82 54.3095 382.427 54.227 382.614Z" fill="#1A2E35"/>
<path d="M58.2682 376.777C58.1617 376.948 56.9353 376.369 55.6602 375.309C54.382 374.253 53.5853 373.155 53.7335 373.019C53.8857 372.875 54.8962 373.714 56.1336 374.736C57.367 375.761 58.3806 376.6 58.2682 376.777Z" fill="#1A2E35"/>
<path d="M62.3318 371.27C62.1448 371.353 61.5569 370.433 61.0198 369.215C60.4817 367.997 60.1982 366.944 60.3862 366.86C60.5742 366.777 61.162 367.697 61.6992 368.915C62.2363 370.132 62.5198 371.187 62.3318 371.27Z" fill="#1A2E35"/>
<path d="M68.7083 367.36C68.5253 367.446 67.8927 366.468 67.4729 365.109C67.0492 363.754 67.0164 362.588 67.2153 362.554C67.4212 362.518 67.7743 363.584 68.1831 364.889C68.585 366.195 68.8983 367.273 68.7083 367.36Z" fill="#1A2E35"/>
<path d="M79.349 362.956C79.543 363.024 79.4246 363.86 79.0855 364.823C78.7463 365.787 78.3136 366.511 78.1206 366.443C77.9267 366.375 78.045 365.539 78.3842 364.575C78.7234 363.612 79.1561 362.888 79.349 362.956Z" fill="#1A2E35"/>
<path d="M87.2414 366.348C87.3806 366.498 86.8743 367.195 86.1104 367.902C85.3465 368.609 84.6144 369.062 84.4752 368.91C84.3359 368.76 84.8422 368.064 85.6061 367.355C86.37 366.648 87.1021 366.197 87.2414 366.348Z" fill="#1A2E35"/>
<path d="M94.1898 370.84C94.3052 371.01 93.6875 371.63 92.8112 372.225C91.9339 372.82 91.1302 373.163 91.0148 372.994C90.8995 372.824 91.5171 372.203 92.3944 371.608C93.2707 371.014 94.0744 370.67 94.1898 370.84Z" fill="#1A2E35"/>
<path d="M99.1233 377.539C99.2038 377.728 98.231 378.325 96.9499 378.873C95.6688 379.42 94.5657 379.709 94.4851 379.52C94.4046 379.332 95.3773 378.734 96.6585 378.188C97.9396 377.642 99.0427 377.351 99.1233 377.539Z" fill="#1A2E35"/>
<path d="M101.065 384.845C101.09 385.048 100.101 385.339 98.8549 385.493C97.6076 385.648 96.5771 385.609 96.5522 385.404C96.5273 385.2 97.517 384.909 98.7634 384.755C100.009 384.601 101.04 384.641 101.065 384.845Z" fill="#1A2E35"/>
<path d="M102.077 393.837C101.994 394.026 100.94 393.749 99.7212 393.218C98.5018 392.687 97.5797 392.104 97.6613 391.915C97.7438 391.727 98.7982 392.005 100.018 392.535C101.236 393.067 102.158 393.65 102.077 393.837Z" fill="#1A2E35"/>
<path d="M101.186 401.556C101.122 401.743 99.7879 401.425 98.3943 400.509C96.9958 399.599 96.1703 398.504 96.3165 398.369C96.4667 398.219 97.4792 399.028 98.8012 399.887C100.115 400.753 101.262 401.358 101.186 401.556Z" fill="#1A2E35"/>
<path d="M97.1739 408.581C97.0515 408.74 95.9902 408.116 94.9717 407.014C93.9481 405.915 93.4051 404.81 93.5732 404.699C93.7462 404.581 94.537 405.456 95.5157 406.507C96.4905 407.563 97.3042 408.416 97.1739 408.581Z" fill="#1A2E35"/>
<path d="M59.0702 409.407C59.1657 409.589 58.0507 410.358 56.5816 411.125C55.1115 411.891 53.8433 412.364 53.7478 412.182C53.6533 411.999 54.7673 411.23 56.2374 410.465C57.7075 409.698 58.9757 409.225 59.0702 409.407Z" fill="#1A2E35"/>
<path d="M55.5906 403.051C55.6752 403.238 54.781 403.827 53.5943 404.366C52.4067 404.905 51.3752 405.19 51.2907 405.003C51.2061 404.816 52.0994 404.228 53.287 403.688C54.4746 403.149 55.5061 402.865 55.5906 403.051Z" fill="#1A2E35"/>
<path d="M53.0314 397.424C53.0602 397.627 51.9601 397.951 50.5746 398.15C49.188 398.346 48.0411 398.34 48.0133 398.137C47.9834 397.933 49.0835 397.609 50.4701 397.412C51.8557 397.215 53.0025 397.22 53.0314 397.424Z" fill="#1A2E35"/>
<path d="M61.4235 394.321C61.4852 394.511 60.4109 395.013 58.9796 395.173C57.5483 395.338 56.3905 395.089 56.4074 394.888C56.4213 394.678 57.5413 394.591 58.8961 394.434C60.2518 394.284 61.3628 394.119 61.4235 394.321Z" fill="#1A2E35"/>
<path d="M68.3944 387.374C68.4551 387.566 67.6007 387.999 66.4489 388.11C65.297 388.225 64.375 387.968 64.3969 387.768C64.4168 387.56 65.306 387.478 66.3763 387.37C67.4465 387.268 68.3348 387.174 68.3944 387.374Z" fill="#1A2E35"/>
<path d="M69.727 381.812C69.6604 382.006 68.7353 381.863 67.6621 381.491C66.5888 381.12 65.7722 380.66 65.8399 380.466C65.9065 380.272 66.8315 380.416 67.9048 380.788C68.978 381.159 69.7937 381.618 69.727 381.812Z" fill="#1A2E35"/>
<path d="M72.2828 376.183C72.1406 376.326 71.505 375.907 71.0524 375.118C70.5969 374.33 70.5521 373.569 70.7471 373.516C70.948 373.459 71.2892 374.047 71.696 374.745C72.0968 375.447 72.434 376.038 72.2828 376.183Z" fill="#1A2E35"/>
<path d="M69.2022 399.222C69.251 399.421 68.4502 399.789 67.4138 400.043C66.816 400.189 66.2689 400.266 65.9109 400.264L65.7646 399.829C66.0322 399.782 66.2063 399.793 66.2401 399.871C66.2759 399.951 66.1665 400.086 65.9487 400.251L65.8024 399.817C66.1187 399.651 66.639 399.466 67.2377 399.319C68.2732 399.066 69.1535 399.023 69.2022 399.222Z" fill="#1A2E35"/>
<path d="M70.6377 409.087C70.7123 409.277 69.6918 409.858 68.3579 410.383C67.0231 410.908 65.8812 411.179 65.8056 410.987C65.731 410.797 66.7515 410.216 68.0864 409.69C69.4202 409.165 70.5621 408.895 70.6377 409.087Z" fill="#1A2E35"/>
<path d="M62.7625 404.704C62.8281 404.899 62.1478 405.306 61.2416 405.615C60.3355 405.924 59.5477 406.016 59.482 405.822C59.4154 405.628 60.0958 405.22 61.0019 404.911C61.908 404.602 62.6968 404.511 62.7625 404.704Z" fill="#1A2E35"/>
<path d="M63.3647 384.624C63.3179 384.821 62.1323 384.703 60.7626 384.216C59.392 383.732 58.3963 383.075 58.4839 382.893C58.5734 382.704 59.6795 383.044 61.0103 383.515C62.3402 383.988 63.4144 384.422 63.3647 384.624Z" fill="#1A2E35"/>
<path d="M82.4227 382.441C82.5351 382.612 81.8677 383.252 80.9317 383.871C79.9957 384.49 79.1453 384.851 79.0319 384.68C78.9195 384.508 79.5859 383.868 80.5229 383.25C81.4589 382.631 82.3093 382.269 82.4227 382.441Z" fill="#1A2E35"/>
<path d="M83.459 392.346C83.5008 392.548 82.7986 392.864 81.8924 393.053C80.9853 393.241 80.2164 393.231 80.1746 393.03C80.1328 392.829 80.8341 392.513 81.7412 392.325C82.6484 392.135 83.4172 392.146 83.459 392.346Z" fill="#1A2E35"/>
<path d="M84.6623 403.486C84.5768 403.672 83.5662 403.386 82.4064 402.85C81.2466 402.312 80.3773 401.724 80.4628 401.539C80.5494 401.352 81.559 401.637 82.7187 402.175C83.8785 402.712 84.7489 403.3 84.6623 403.486Z" fill="#1A2E35"/>
<path d="M82.114 414.332C81.9548 414.463 81.2994 413.925 80.6488 413.133C79.9983 412.34 79.5995 411.592 79.7586 411.46C79.9168 411.33 80.5733 411.867 81.2228 412.66C81.8733 413.453 82.2721 414.201 82.114 414.332Z" fill="#1A2E35"/>
<path d="M81.5932 375.146C81.7185 375.304 81.2858 375.851 80.5428 376.223C79.8008 376.597 79.1045 376.619 79.0518 376.423C78.9961 376.222 79.5402 375.897 80.2096 375.557C80.881 375.223 81.4668 374.981 81.5932 375.146Z" fill="#1A2E35"/>
<path d="M90.9314 385.139C91 385.328 90.1356 385.804 88.954 385.967C87.7713 386.134 86.8104 385.911 86.8254 385.711C86.8363 385.501 87.7504 385.386 88.8515 385.23C89.9526 385.079 90.8637 384.941 90.9314 385.139Z" fill="#1A2E35"/>
<path d="M89.0711 376.17C89.1616 376.351 88.3042 376.963 87.0838 377.352C85.8653 377.744 84.811 377.743 84.7821 377.544C84.7483 377.337 85.6992 377.017 86.858 376.643C88.0178 376.273 88.9786 375.983 89.0711 376.17Z" fill="#1A2E35"/>
<path d="M92.9702 399.029C92.9672 399.23 91.5001 399.36 89.7306 399.035C87.9591 398.718 86.6312 398.079 86.6998 397.891C86.7674 397.692 88.155 397.997 89.8628 398.303C91.5697 398.617 92.9762 398.818 92.9702 399.029Z" fill="#1A2E35"/>
<path d="M89.5007 412.06C89.3773 412.219 88.2971 411.583 87.2199 410.496C86.1387 409.411 85.5071 408.327 85.6672 408.204C85.8324 408.075 86.7007 408.923 87.7461 409.97C88.7875 411.022 89.63 411.895 89.5007 412.06Z" fill="#1A2E35"/>
<path d="M74.2406 365.567C74.351 365.727 71.2775 366.975 67.7265 370.723C64.1766 374.387 60.5142 380.861 59.612 388.683C59.1803 392.569 59.5504 396.331 60.1014 399.687C60.6813 403.048 61.4512 406.032 62.1594 408.518C62.8726 411.004 63.528 412.996 63.9677 414.377C64.4083 415.758 64.6441 416.526 64.5933 416.545C64.5476 416.561 64.2203 415.827 63.6951 414.474C63.171 413.12 62.4379 411.15 61.6571 408.669C60.8792 406.19 60.0507 403.197 59.427 399.805C58.8332 396.416 58.4304 392.594 58.874 388.596C59.7951 380.595 63.6285 374.002 67.3486 370.357C69.1996 368.505 70.9393 367.27 72.2085 366.553C72.8242 366.164 73.3563 365.956 73.6955 365.781C74.0427 365.618 74.2297 365.544 74.2406 365.567Z" fill="#1A2E35"/>
<path d="M84.3745 417.021C84.2134 416.94 86.0445 414.118 87.7146 409.03C89.4344 404.005 90.8567 396.563 89.7119 388.48C89.1757 384.451 88.011 380.716 86.5468 377.523C85.027 374.375 83.0675 371.796 81.1508 369.998C79.1694 368.243 77.2218 367.236 75.8641 366.652C74.4895 366.078 73.6669 365.944 73.6788 365.88C73.6818 365.857 73.8907 365.868 74.2856 365.928C74.6765 366 75.2534 366.129 75.9686 366.381C77.388 366.895 79.4051 367.842 81.4979 369.602C83.536 371.424 85.5581 373.997 87.1645 377.227C88.6963 380.475 89.8999 384.27 90.4469 388.377C91.6137 396.611 90.0769 404.166 88.2109 409.201C87.7912 410.486 87.2511 411.589 86.8482 412.58C86.3698 413.54 85.9749 414.374 85.6128 415.035C84.8559 416.34 84.4192 417.046 84.3745 417.021Z" fill="#1A2E35"/>
<path d="M55.5908 415.262H96.5532L96.8048 423.471H55.5908V415.262Z" fill="#FF9A6C"/>
<path d="M59.0703 419.366L61.4237 444.428H91.3701L93.7752 419.641L59.0703 419.366Z" fill="#FF9A6C"/>
<path d="M96.8037 423.57C96.8037 423.775 87.5791 423.941 76.2031 423.941C64.8231 423.941 55.6006 423.775 55.6006 423.57C55.6006 423.364 64.8231 423.197 76.2031 423.197C87.5791 423.197 96.8037 423.364 96.8037 423.57Z" fill="#1A2E35"/>
<path d="M92.642 431.204C92.6818 431.228 92.4053 431.805 91.7647 432.77C91.1222 433.731 90.0997 435.081 88.5878 436.527L88.3988 436.707L88.2128 436.512C86.2404 434.439 83.5309 431.899 80.1858 429.475L80.6384 429.455C79.4945 430.46 78.3029 431.508 77.0795 432.584C75.6253 433.851 74.2158 435.081 72.872 436.251L72.6393 436.454L72.4055 436.258C69.8552 434.11 67.5356 432.157 65.5662 430.5L65.9651 430.457C64.5516 432.182 63.365 433.632 62.426 434.78C61.5746 435.792 61.0813 436.337 61.0375 436.303C60.9927 436.268 61.4035 435.658 62.1804 434.587C63.0676 433.399 64.1886 431.898 65.5244 430.111L65.6945 429.882L65.9223 430.068C67.9206 431.689 70.275 433.601 72.8641 435.703L72.3986 435.709C73.7374 434.533 75.1409 433.298 76.5901 432.023C77.8175 430.952 79.0131 429.908 80.1609 428.907L80.3798 428.716L80.6135 428.888C83.9854 431.369 86.683 433.995 88.6027 436.152L88.2287 436.136C91.2674 433.376 92.5247 431.114 92.642 431.204Z" fill="#1A2E35"/>
<path d="M584.817 437.549H151.221C143.219 437.549 136.731 431.054 136.731 423.04V145.752C136.731 137.738 143.219 131.242 151.221 131.242H584.817C592.819 131.242 599.306 137.738 599.306 145.752V423.04C599.306 431.054 592.819 437.549 584.817 437.549Z" fill="#375A64"/>
<path d="M605.051 444.568H139.291C129.513 444.568 121.588 436.631 121.588 426.842V417.767H622.754V426.842C622.754 436.631 614.827 444.568 605.051 444.568Z" fill="#375A64"/>
<path d="M322.419 414.896L328.638 424.801H416.147L421.922 414.896H322.419Z" fill="#1A2E35"/>
<path d="M595.332 414.895C595.332 415.061 492.662 415.195 366.043 415.195C239.379 415.195 136.731 415.061 136.731 414.895C136.731 414.729 239.379 414.595 366.043 414.595C492.662 414.595 595.332 414.729 595.332 414.895Z" fill="#1A2E35"/>
<path d="M580.995 406.795H153.234C151.437 406.795 149.979 405.336 149.979 403.535V152.115C149.979 150.315 151.436 148.856 153.234 148.856H580.995C582.794 148.856 584.25 150.315 584.25 152.115V403.536C584.25 405.336 582.794 406.795 580.995 406.795Z" fill="#ECECEC"/>
<path d="M583.785 407.172H149.513L149.977 168.132H583.785V407.172Z" fill="white"/>
<path d="M185.595 158.818C185.595 160.736 184.042 162.291 182.127 162.291C180.211 162.291 178.659 160.736 178.659 158.818C178.659 156.9 180.211 155.345 182.127 155.345C184.042 155.345 185.595 156.9 185.595 158.818Z" fill="#1A2E35"/>
<path d="M164.575 158.818C164.575 160.736 163.022 162.291 161.106 162.291C159.191 162.291 157.638 160.736 157.638 158.818C157.638 156.9 159.191 155.345 161.106 155.345C163.022 155.345 164.575 156.9 164.575 158.818Z" fill="#1A2E35"/>
<path d="M174.665 158.818C174.665 160.736 173.113 162.291 171.197 162.291C169.281 162.291 167.729 160.736 167.729 158.818C167.729 156.9 169.281 155.345 171.197 155.345C173.113 155.345 174.665 156.9 174.665 158.818Z" fill="#1A2E35"/>
<path d="M584.25 407.172H149.513V384.09H584.25V407.172Z" fill="#1A2E35"/>
<path d="M165.937 398.304V399.043H162.476V398.458L164.341 396.684C164.798 396.249 164.878 395.972 164.878 395.71C164.878 395.282 164.583 395.033 164.005 395.033C163.549 395.033 163.166 395.186 162.905 395.523L162.295 395.052C162.656 394.562 163.307 394.273 164.078 394.273C165.099 394.273 165.756 394.79 165.756 395.624C165.756 396.08 165.629 396.497 164.979 397.109L163.723 398.304H165.937Z" fill="white"/>
<path d="M166.409 398.532C166.409 398.195 166.657 397.974 166.959 397.974C167.261 397.974 167.509 398.195 167.509 398.532C167.509 398.854 167.261 399.09 166.959 399.09C166.657 399.09 166.409 398.854 166.409 398.532ZM166.409 395.972C166.409 395.637 166.657 395.415 166.959 395.415C167.261 395.415 167.509 395.637 167.509 395.972C167.509 396.294 167.261 396.529 166.959 396.529C166.657 396.529 166.409 396.294 166.409 395.972Z" fill="white"/>
<path d="M169.694 394.339V399.043H168.823V395.072H167.829V394.339H169.694Z" fill="white"/>
<path d="M174.812 397.975H173.979V399.043H173.134V397.975H170.558V397.371L172.872 394.34H173.805L171.624 397.236H173.161V396.289H173.979V397.236H174.812V397.975Z" fill="white"/>
<path d="M538.812 397.721H182.484V396.094H538.812V397.721Z" fill="white"/>
<path d="M293.57 398.682H182.217V394.344H293.57V398.682Z" fill="#FF9A6C"/>
<path d="M297.165 396.908C297.165 399.906 294.738 402.336 291.744 402.336C288.75 402.336 286.322 399.906 286.322 396.908C286.322 393.91 288.75 391.48 291.744 391.48C294.738 391.48 297.165 393.91 297.165 396.908Z" fill="#FF9A6C"/>
<path d="M546.942 396.895C546.942 396.405 546.573 396.096 546.003 396.096C545.439 396.096 545.05 396.439 545.05 396.903C545.05 397.345 545.398 397.695 546.022 397.695C546.566 397.695 546.942 397.385 546.942 396.895ZM547.787 396.854C547.787 397.789 547.028 398.381 546.069 398.381C544.788 398.381 544.036 397.554 544.036 396.042C544.036 394.429 544.975 393.543 546.338 393.543C546.807 393.543 547.257 393.643 547.572 393.844L547.251 394.503C546.995 394.335 546.687 394.274 546.358 394.274C545.471 394.274 544.915 394.826 544.915 395.894V395.902C545.197 395.572 545.646 395.411 546.17 395.411C547.096 395.411 547.787 395.975 547.787 396.854Z" fill="white"/>
<path d="M548.211 397.804C548.211 397.467 548.458 397.246 548.761 397.246C549.061 397.246 549.31 397.467 549.31 397.804C549.31 398.125 549.061 398.361 548.761 398.361C548.458 398.361 548.211 398.125 548.211 397.804ZM548.211 395.244C548.211 394.908 548.458 394.685 548.761 394.685C549.061 394.685 549.31 394.908 549.31 395.244C549.31 395.566 549.061 395.801 548.761 395.801C548.458 395.801 548.211 395.566 548.211 395.244Z" fill="white"/>
<path d="M552.918 395.964C552.918 394.827 552.476 394.303 551.831 394.303C551.194 394.303 550.75 394.827 550.75 395.964C550.75 397.099 551.194 397.622 551.831 397.622C552.476 397.622 552.918 397.099 552.918 395.964ZM549.871 395.964C549.871 394.418 550.717 393.544 551.831 393.544C552.952 393.544 553.797 394.418 553.797 395.964C553.797 397.507 552.952 398.383 551.831 398.383C550.717 398.383 549.871 397.507 549.871 395.964Z" fill="white"/>
<path d="M557.428 395.964C557.428 394.827 556.986 394.303 556.34 394.303C555.704 394.303 555.26 394.827 555.26 395.964C555.26 397.099 555.704 397.622 556.34 397.622C556.986 397.622 557.428 397.099 557.428 395.964ZM554.381 395.964C554.381 394.418 555.226 393.544 556.34 393.544C557.461 393.544 558.307 394.418 558.307 395.964C558.307 397.507 557.461 398.383 556.34 398.383C555.226 398.383 554.381 397.507 554.381 395.964Z" fill="white"/>
<path d="M565.894 395.67H564.27V390.98H568.943V392.607H565.894V395.67Z" fill="white"/>
<path d="M568.949 401.791H564.266V397.111H565.89V400.164H568.949V401.791Z" fill="white"/>
<path d="M576.407 401.791H571.732V400.164H574.782V397.1H576.407V401.791Z" fill="white"/>
<path d="M576.411 395.66H574.787V392.607H571.729V390.98H576.411V395.66Z" fill="white"/>
<path d="M209.066 182.347H183.469L170.671 204.543L183.469 226.74H209.066L221.864 204.543L209.066 182.347Z" fill="#ECECEC"/>
<path d="M185.558 208.887C184.414 207.62 183.261 206.337 182.427 204.847C181.594 203.356 181.096 201.616 181.373 199.93C181.534 198.945 181.953 198.005 182.018 197.008C182.11 195.636 181.534 194.203 182.02 192.917C182.779 190.907 185.481 190.597 187.119 189.209C188.394 188.127 189.016 186.372 190.418 185.463C191.645 184.669 193.219 184.686 194.664 184.89C196.111 185.095 197.565 185.461 199.012 185.266C200.044 185.127 201.015 184.709 202.026 184.459C203.036 184.208 204.164 184.142 205.063 184.666C205.963 185.19 206.468 186.469 205.878 187.327C207.555 186.552 209.685 187.862 210.144 189.652C210.603 191.444 209.684 193.378 208.264 194.559C206.842 195.741 205.005 196.29 203.191 196.632C198.053 197.602 192.48 197.055 188.053 194.271" fill="#1A2E35"/>
<path d="M209.291 214.366C209.118 211.189 208.23 204.676 207.358 198.79C206.421 192.46 200.787 187.911 194.41 188.337L193.776 188.38C186.972 189.238 183.898 195.503 184.941 202.289L186.939 226.74H203.546C203.546 226.74 203.153 222.45 203.151 222.409C203.151 222.409 209.649 220.946 209.291 214.366Z" fill="#FFBF9D"/>
<path d="M203.154 222.313C203.154 222.313 199.027 222.929 194.432 220.451C194.432 220.451 196.771 225.046 203.283 224.015L203.154 222.313Z" fill="#FF9A6C"/>
<path d="M205.245 204.43C205.295 204.925 204.918 205.375 204.404 205.438C203.89 205.5 203.431 205.151 203.381 204.656C203.33 204.161 203.707 203.71 204.22 203.647C204.735 203.586 205.194 203.935 205.245 204.43Z" fill="#1A2E35"/>
<path d="M206.161 202.098C206.053 202.228 205.307 201.749 204.299 201.82C203.29 201.875 202.584 202.445 202.466 202.328C202.409 202.277 202.512 202.048 202.82 201.791C203.121 201.536 203.647 201.272 204.276 201.233C204.904 201.195 205.448 201.391 205.768 201.607C206.095 201.825 206.214 202.039 206.161 202.098Z" fill="#1A2E35"/>
<path d="M195.712 205.112C195.763 205.607 195.386 206.057 194.872 206.12C194.357 206.182 193.899 205.833 193.848 205.338C193.798 204.843 194.174 204.392 194.689 204.329C195.203 204.267 195.661 204.617 195.712 205.112Z" fill="#1A2E35"/>
<path d="M196.255 202.95C196.148 203.08 195.401 202.601 194.392 202.672C193.385 202.726 192.679 203.296 192.561 203.18C192.504 203.129 192.606 202.9 192.914 202.643C193.216 202.388 193.742 202.124 194.371 202.084C194.999 202.046 195.543 202.242 195.863 202.459C196.189 202.677 196.309 202.891 196.255 202.95Z" fill="#1A2E35"/>
<path d="M200.418 210.199C200.409 210.141 201.03 209.991 202.037 209.792C202.293 209.749 202.533 209.681 202.565 209.503C202.613 209.311 202.487 209.04 202.342 208.749C202.057 208.141 201.761 207.504 201.449 206.835C200.203 204.109 199.284 201.86 199.395 201.811C199.504 201.763 200.603 203.932 201.848 206.658C202.149 207.331 202.436 207.972 202.71 208.585C202.826 208.872 203.016 209.194 202.911 209.589C202.854 209.786 202.675 209.939 202.512 209.995C202.351 210.056 202.206 210.069 202.078 210.085C201.06 210.209 200.426 210.256 200.418 210.199Z" fill="#1A2E35"/>
<path d="M196.251 198.974C196.17 199.255 195.154 199.193 193.979 199.415C192.801 199.613 191.87 200.024 191.696 199.788C191.618 199.675 191.767 199.406 192.135 199.114C192.5 198.822 193.094 198.529 193.799 198.403C194.505 198.277 195.163 198.347 195.606 198.494C196.052 198.64 196.286 198.84 196.251 198.974Z" fill="#1A2E35"/>
<path d="M205.594 199.199C205.432 199.44 204.722 199.248 203.884 199.293C203.047 199.308 202.351 199.551 202.172 199.322C202.093 199.21 202.189 198.972 202.484 198.734C202.774 198.497 203.272 198.286 203.847 198.265C204.423 198.245 204.934 198.42 205.242 198.636C205.552 198.851 205.665 199.081 205.594 199.199Z" fill="#1A2E35"/>
<path d="M185.803 207.123C185.687 207.081 181.202 206.089 181.646 210.574C182.09 215.059 186.944 213.597 186.939 213.468C186.934 213.339 185.803 207.123 185.803 207.123Z" fill="#FFBF9D"/>
<path d="M184.953 211.994C184.932 211.982 184.88 212.057 184.755 212.131C184.631 212.201 184.415 212.264 184.172 212.2C183.683 212.073 183.209 211.361 183.108 210.554C183.056 210.148 183.103 209.75 183.215 209.414C183.32 209.072 183.509 208.822 183.743 208.756C183.974 208.678 184.157 208.804 184.225 208.925C184.297 209.044 184.277 209.136 184.302 209.142C184.315 209.152 184.391 209.057 184.336 208.876C184.309 208.788 184.247 208.687 184.132 208.612C184.016 208.535 183.854 208.506 183.689 208.54C183.346 208.599 183.067 208.947 182.943 209.317C182.8 209.689 182.738 210.137 182.796 210.594C182.915 211.494 183.46 212.294 184.126 212.417C184.449 212.469 184.703 212.347 184.828 212.228C184.956 212.104 184.97 212.001 184.953 211.994Z" fill="#FF9A6C"/>
<path d="M207.026 192.648C206.719 194.433 203.102 196.07 200.104 195.982C197.34 195.901 195.975 194.528 193.966 193.552C192.695 192.934 192.695 192.934 190.97 193.215C189.576 193.442 188.852 195.089 188.069 196.268C189.56 199.524 188.957 203.31 188.325 206.837C188.255 207.227 188.169 207.647 187.872 207.909C187.367 208.353 186.552 208.086 186.056 207.633C185.264 206.906 184.903 205.828 184.643 204.784C184.05 202.404 183.823 199.913 184.199 197.49C184.574 195.068 185.576 192.713 187.229 190.905C189.295 188.644 192.316 187.342 195.372 187.184C198.428 187.027 201.498 187.974 204.057 189.653C205.245 190.432 206.356 191.395 207.026 192.648Z" fill="#1A2E35"/>
<path d="M201.078 212.47C200.317 212.116 199.556 211.76 198.795 211.405C198.664 211.343 198.523 211.28 198.379 211.299C198.218 211.321 198.089 211.443 197.984 211.568C197.455 212.21 197.322 213.18 197.732 213.905C198.142 214.629 199.106 215.012 199.874 214.693C200.684 214.358 201.077 213.417 201.139 212.542L201.078 212.47Z" fill="#FF9A6C"/>
<path d="M199.946 214.854C199.981 214.899 199.469 215.221 198.607 214.974C198.192 214.849 197.716 214.529 197.423 214.01C197.125 213.506 197.014 212.785 197.273 212.136C197.396 211.814 197.589 211.53 197.826 211.305C197.946 211.192 198.068 211.101 198.214 211.014C198.358 210.908 198.668 210.891 198.816 210.979C199.338 211.27 199.689 211.518 200.039 211.742C200.708 212.187 201.104 212.493 201.069 212.555C201.032 212.617 200.571 212.423 199.855 212.06C199.439 211.842 199.035 211.632 198.637 211.423C198.541 211.397 198.551 211.397 198.46 211.444C198.37 211.502 198.265 211.584 198.178 211.672C198 211.849 197.853 212.072 197.756 212.322C197.558 212.823 197.626 213.364 197.842 213.781C198.057 214.204 198.402 214.483 198.735 214.631C199.421 214.924 199.932 214.771 199.946 214.854Z" fill="#1A2E35"/>
<path d="M199.225 204.542C199.174 204.544 199.18 204.125 198.98 203.423C198.783 202.735 198.305 201.732 197.267 200.965C196.262 200.196 194.62 199.771 193.035 200.368C191.464 200.914 190.111 202.589 190.128 204.541C190.11 206.494 191.464 208.17 193.035 208.717C194.62 209.313 196.262 208.889 197.267 208.119C198.305 207.353 198.783 206.35 198.98 205.662C199.18 204.959 199.174 204.54 199.225 204.542C199.243 204.542 199.255 204.645 199.262 204.844C199.273 205.042 199.254 205.338 199.176 205.711C199.031 206.444 198.582 207.542 197.488 208.411C196.433 209.28 194.639 209.8 192.872 209.167C191.121 208.588 189.589 206.727 189.61 204.541C189.59 202.357 191.121 200.496 192.872 199.918C194.639 199.284 196.433 199.803 197.488 200.673C198.581 201.541 199.031 202.641 199.176 203.374C199.254 203.745 199.273 204.042 199.262 204.24C199.255 204.439 199.243 204.542 199.225 204.542Z" fill="#1A2E35"/>
<path d="M210.396 204.104C210.347 204.106 210.352 203.697 210.157 203.014C209.963 202.343 209.497 201.367 208.486 200.622C207.508 199.874 205.908 199.461 204.367 200.041C202.838 200.574 201.522 202.203 201.539 204.104C201.522 206.004 202.838 207.633 204.367 208.166C205.908 208.746 207.508 208.334 208.486 207.586C209.497 206.841 209.963 205.865 210.157 205.193C210.352 204.51 210.347 204.102 210.396 204.104C210.414 204.104 210.427 204.204 210.434 204.397C210.445 204.591 210.427 204.88 210.352 205.243C210.211 205.957 209.774 207.03 208.707 207.878C207.679 208.726 205.928 209.233 204.205 208.615C202.496 208.052 201.001 206.235 201.022 204.103C201.002 201.971 202.497 200.156 204.205 199.592C205.927 198.974 207.679 199.481 208.707 200.33C209.774 201.177 210.21 202.249 210.352 202.964C210.427 203.328 210.445 203.616 210.434 203.81C210.427 204.003 210.414 204.104 210.396 204.104Z" fill="#1A2E35"/>
<path d="M201.28 203.07C201.178 203.166 200.735 202.879 200.137 202.898C199.538 202.898 199.109 203.203 199.002 203.112C198.865 203.04 199.283 202.394 200.128 202.38C200.972 202.367 201.412 202.993 201.28 203.07Z" fill="#1A2E35"/>
<path d="M190.151 203.877C190.237 203.993 189.368 204.786 188.211 205.651C187.054 206.517 186.046 207.124 185.961 207.01C185.875 206.895 186.744 206.1 187.901 205.236C189.058 204.371 190.066 203.763 190.151 203.877Z" fill="#1A2E35"/>
<path d="M282.473 204.317C282.473 204.461 270.966 204.576 256.775 204.576C242.58 204.576 231.075 204.461 231.075 204.317C231.075 204.174 242.58 204.058 256.775 204.058C270.966 204.058 282.473 204.174 282.473 204.317Z" fill="#1A2E35"/>
<path d="M258.703 209.704C258.703 209.847 252.593 209.963 245.057 209.963C237.519 209.963 231.41 209.847 231.41 209.704C231.41 209.561 237.519 209.445 245.057 209.445C252.593 209.445 258.703 209.561 258.703 209.704Z" fill="#1A2E35"/>
<path d="M436.455 244.113C436.455 244.113 450.115 250.779 454.914 267.988C459.711 285.198 474.403 330.017 474.403 330.017C474.403 330.017 482.799 339.907 483.698 347.232C484.598 354.556 482.799 372.271 480.101 375.574C477.402 378.876 473.554 378.329 473.554 378.329L438.215 374.973L424.299 281.672L436.455 244.113Z" fill="#FF9A6C"/>
<path d="M319.593 242.481C319.593 242.481 294.326 250.417 288.029 257.322L308.718 353.703L308.388 384.113H428.183C428.183 382.611 429.258 283.145 429.258 283.145L436.454 244.112L393.876 236.606L385.48 230L338.104 232.402L330.907 239.608L319.593 242.481Z" fill="#FF9A6C"/>
<g opacity="0.300003">
<path d="M329.192 326.097C328.823 325.279 328.295 324.396 327.417 324.214C325.974 323.916 325.009 325.624 324.519 327.016C320.626 338.048 315.478 348.195 308.781 357.783L308.474 372.582C315.457 366.698 322.344 360.394 326.795 352.415C331.248 344.436 332.95 334.425 329.192 326.097Z" fill="black"/>
</g>
<path d="M288.029 257.323C288.029 257.323 279.703 268.689 276.246 276.107C272.789 283.526 244.142 345.842 242.414 352.271C240.685 358.7 236.24 378.978 249.328 383.676H276.246L303.264 328.97L304.646 265.474L288.029 257.323Z" fill="#FF9A6C"/>
<path d="M277.97 344.159C277.934 344.2 277.369 343.629 276.13 342.923C274.893 342.223 272.972 341.418 270.48 340.873C269.237 340.6 267.855 340.388 266.362 340.294C264.87 340.2 263.267 340.228 261.64 340.602C258.376 341.33 255.131 343.396 252.579 346.297C249.987 349.198 248.387 352.62 247.447 355.85C246.494 359.088 246.086 362.123 245.829 364.668C245.576 367.217 245.482 369.293 245.394 370.726C245.353 371.396 245.318 371.943 245.291 372.376C245.262 372.754 245.238 372.952 245.22 372.951C245.202 372.951 245.191 372.752 245.187 372.373C245.188 371.939 245.19 371.391 245.192 370.719C245.219 369.283 245.257 367.202 245.463 364.636C245.676 362.073 246.048 359.007 246.99 355.716C247.916 352.437 249.539 348.918 252.191 345.955C254.802 342.984 258.152 340.863 261.537 340.136C263.225 339.76 264.882 339.751 266.391 339.864C267.908 339.98 269.307 340.216 270.562 340.516C273.077 341.113 275.008 341.983 276.233 342.748C276.845 343.136 277.287 343.484 277.568 343.74C277.844 344.003 277.982 344.146 277.97 344.159Z" fill="#1A2E35"/>
<path d="M265.205 333.266C265.202 333.23 265.523 333.179 266.11 333.12C266.696 333.048 267.553 333.031 268.607 333.085C269.663 333.131 270.914 333.313 272.278 333.628C273.636 333.97 275.101 334.462 276.565 335.151C278.022 335.857 279.326 336.689 280.445 337.529C281.549 338.391 282.477 339.252 283.178 340.046C283.884 340.831 284.41 341.509 284.722 342.009C285.046 342.504 285.209 342.786 285.179 342.805C285.099 342.861 284.37 341.782 282.912 340.298C282.19 339.551 281.255 338.735 280.16 337.912C279.048 337.109 277.766 336.31 276.342 335.619C274.911 334.946 273.484 334.451 272.162 334.091C270.833 333.758 269.613 333.543 268.578 333.451C266.509 333.251 265.211 333.363 265.205 333.266Z" fill="#1A2E35"/>
<path d="M289.543 330.268C289.537 330.303 289.092 330.267 288.297 330.173C287.503 330.071 286.351 329.955 284.925 329.849C282.078 329.633 278.118 329.582 273.79 330.094C269.462 330.619 265.626 331.604 262.909 332.487C261.549 332.926 260.457 333.311 259.709 333.598C258.959 333.878 258.536 334.017 258.522 333.983C258.507 333.951 258.903 333.749 259.632 333.411C260.359 333.066 261.437 332.626 262.791 332.139C265.496 331.161 269.359 330.108 273.728 329.58C278.099 329.061 282.099 329.172 284.958 329.483C286.388 329.637 287.54 329.809 288.328 329.973C289.117 330.13 289.549 330.233 289.543 330.268Z" fill="#1A2E35"/>
<path d="M366.212 277.027C366.201 277.035 366.109 276.923 365.939 276.703C365.746 276.445 365.504 276.121 365.204 275.718C364.544 274.803 363.634 273.54 362.498 271.964C360.175 268.68 356.933 264.102 353.122 258.717L353.54 258.659C352.09 262.924 350.489 267.629 348.805 272.582L348.698 272.896L348.427 272.72C348.249 272.607 348.06 272.483 347.869 272.36C345.64 270.946 343.675 269.246 342.007 267.405C340.346 265.554 338.967 263.58 337.822 261.61C335.534 257.66 334.154 253.763 333.217 250.462C332.286 247.151 331.799 244.409 331.473 242.521C331.316 241.616 331.192 240.894 331.096 240.348C331.052 240.1 331.001 239.918 330.97 239.793C330.923 239.678 330.901 239.614 330.907 239.609C331.017 239.561 331.309 240.606 331.671 242.484C332.058 244.36 332.598 247.081 333.569 250.36C334.545 253.628 335.95 257.479 338.234 261.369C339.377 263.308 340.744 265.247 342.382 267.063C344.029 268.87 345.96 270.534 348.145 271.922C348.333 272.043 348.52 272.163 348.693 272.275L348.314 272.413C350.014 267.466 351.628 262.766 353.093 258.504L353.245 258.061L353.51 258.446C357.259 263.874 360.447 268.49 362.732 271.8C363.822 273.407 364.696 274.697 365.328 275.631C365.603 276.051 365.825 276.39 366.002 276.658C366.151 276.893 366.223 277.02 366.212 277.027Z" fill="#1A2E35"/>
<g opacity="0.300003">
<path d="M397.4 323.036C396.291 334.179 398.747 345.651 404.322 355.358C409.896 365.065 418.063 373.718 428.24 378.361C428.569 368.47 428.094 356.819 428.423 346.927L397.4 323.036Z" fill="black"/>
</g>
<path d="M396.273 310.014C396.273 310.014 391.922 311.224 395.185 320.15C398.45 329.077 399.537 328.537 401.713 336.888C403.889 345.239 406.427 352.86 410.234 357.58C414.041 362.301 428.183 371.922 428.183 371.922L440.875 359.94C440.875 359.94 438.784 351.01 439.285 344.945C439.787 338.88 441.056 323.993 440.875 321.452C440.693 318.91 437.975 312.737 437.975 312.737V308.515L431.447 288.409C431.447 288.409 427.821 286.776 426.551 292.584L424.376 286.419C424.376 286.419 420.931 285.867 420.025 292.948C419.119 300.029 420.749 309.832 420.749 309.832L418.937 322.178L416.218 330.529L413.861 330.892C413.861 330.892 410.312 329.922 408.37 323.235C406.427 316.549 401.169 308.561 396.273 310.014Z" fill="#FFBF9D"/>
<path d="M436.626 341.594C436.612 341.594 436.593 341.438 436.567 341.136C436.543 340.79 436.513 340.35 436.475 339.806C436.41 338.587 436.319 336.904 436.207 334.807C436.012 330.471 435.739 324.438 435.423 317.396L435.48 317.543C434.898 316.844 433.856 316.636 432.911 316.873C431.951 317.105 431.091 317.704 430.558 318.599C429.45 320.386 429.389 322.713 429.042 324.96C428.355 330.048 427.698 334.893 427.102 339.31C426.799 341.516 426.481 343.614 426.051 345.557C425.634 347.503 425.047 349.271 424.478 350.852C423.917 352.438 423.42 353.872 423.113 355.164C422.803 356.454 422.679 357.594 422.703 358.525C422.741 360.402 423.285 361.353 423.205 361.373C423.188 361.38 423.084 361.142 422.9 360.677C422.751 360.205 422.54 359.486 422.501 358.533C422.446 357.584 422.543 356.415 422.831 355.099C423.116 353.781 423.592 352.325 424.132 350.733C424.68 349.14 425.236 347.396 425.632 345.466C426.038 343.539 426.34 341.45 426.628 339.246C427.213 334.828 427.856 329.981 428.529 324.89C428.689 323.756 428.811 322.635 429.009 321.518C429.209 320.407 429.518 319.29 430.128 318.327C430.708 317.347 431.722 316.629 432.797 316.386C433.857 316.12 435.126 316.351 435.851 317.229L435.904 317.296L435.907 317.377C436.149 324.422 436.356 330.457 436.505 334.795C436.56 336.894 436.604 338.58 436.635 339.8C436.64 340.345 436.645 340.786 436.647 341.133C436.646 341.436 436.64 341.593 436.626 341.594Z" fill="#FF9A6C"/>
<path d="M429.687 318.715C429.656 318.727 429.454 318.328 429.152 317.578C428.855 316.827 428.459 315.724 428.09 314.324C427.719 312.926 427.375 311.229 427.178 309.321C427.081 308.369 427.012 307.351 427.124 306.289C427.232 305.239 427.545 304.121 428.218 303.177C428.791 302.358 429.609 301.706 430.538 301.433L430.734 301.376L430.833 301.552C432.671 304.798 434.267 307.665 435.39 309.727C435.906 310.692 436.338 311.504 436.69 312.164C436.987 312.74 437.135 313.062 437.107 313.078C437.08 313.093 436.877 312.801 436.533 312.253C436.145 311.615 435.668 310.828 435.1 309.893C433.898 307.875 432.246 305.041 430.39 301.804L430.684 301.923C429.884 302.162 429.162 302.734 428.641 303.477C428.031 304.331 427.738 305.347 427.628 306.346C427.515 307.347 427.569 308.336 427.653 309.275C427.822 311.16 428.123 312.841 428.445 314.236C428.764 315.632 429.105 316.743 429.342 317.51C429.584 318.277 429.723 318.701 429.687 318.715Z" fill="#FF9A6C"/>
<path d="M426.654 320.35C426.618 320.351 426.578 319.938 426.537 319.192C426.502 318.337 426.459 317.28 426.408 316.032C426.323 313.363 426.24 309.676 426.181 305.603C426.151 301.534 425.993 297.835 426.343 295.154C426.512 293.818 426.778 292.755 427.022 292.044C427.264 291.331 427.462 290.964 427.488 290.975C427.578 291.003 426.934 292.546 426.707 295.193C426.454 297.831 426.669 301.521 426.699 305.596C426.757 309.669 426.782 313.357 426.774 316.027C426.759 317.276 426.748 318.333 426.738 319.189C426.717 319.936 426.689 320.35 426.654 320.35Z" fill="#FF9A6C"/>
<path d="M415.922 353.826C415.848 353.766 416.643 352.829 417.625 351.132C418.122 350.288 418.627 349.235 419.101 348.033C419.552 346.823 419.959 345.458 420.233 343.991C420.488 342.521 420.584 341.101 420.584 339.808C420.56 338.515 420.454 337.351 420.283 336.386C419.956 334.452 419.538 333.298 419.63 333.265C419.663 333.254 419.789 333.533 419.99 334.052C420.202 334.568 420.431 335.344 420.642 336.318C420.863 337.291 421.009 338.477 421.061 339.798C421.088 341.12 421.004 342.578 420.743 344.084C420.462 345.586 420.032 346.98 419.545 348.208C419.035 349.428 418.484 350.487 417.937 351.322C417.398 352.16 416.912 352.808 416.534 353.217C416.164 353.633 415.949 353.849 415.922 353.826Z" fill="#FF9A6C"/>
<path d="M438.201 347.58L449.215 351.408C449.215 351.408 459.731 345.962 466.984 351.408C474.236 356.855 480.536 371.209 478.541 377.019C478.541 377.019 473.535 383.207 469.728 384.115C465.92 385.022 451.119 381.431 444.961 380.134C438.786 378.832 428.184 371.923 428.184 371.923L438.201 347.58Z" fill="#FFBF9D"/>
<path d="M439.555 363.828C439.52 363.829 439.479 363.481 439.437 362.852C439.393 362.105 439.341 361.219 439.281 360.188C439.164 357.937 439.012 354.826 438.966 351.383C438.914 347.939 439.012 344.815 439.22 342.564C439.318 341.438 439.441 340.53 439.554 339.907C439.667 339.285 439.746 338.945 439.782 338.949C439.863 338.963 439.691 340.344 439.585 342.589C439.472 344.834 439.433 347.941 439.485 351.376C439.547 354.743 439.603 357.786 439.647 360.176C439.659 361.303 439.657 362.217 439.639 362.848C439.618 363.479 439.59 363.828 439.555 363.828Z" fill="#FF9A6C"/>
<path d="M475.872 350.976C475.79 351.053 474.662 349.483 472.209 347.669C469.797 345.858 465.876 343.928 461.234 343.667C456.59 343.414 452.481 344.902 449.884 346.436C447.248 347.97 445.955 349.406 445.881 349.32C445.859 349.3 446.164 348.932 446.788 348.336C447.41 347.738 448.382 346.94 449.697 346.121C452.29 344.48 456.488 342.889 461.263 343.149C466.035 343.417 470.033 345.458 472.431 347.376C473.647 348.334 474.525 349.234 475.077 349.897C475.632 350.558 475.895 350.957 475.872 350.976Z" fill="#1A2E35"/>
<path d="M474.457 341.781C474.387 341.888 472.915 340.401 469.876 339.25C466.883 338.076 462.241 337.534 457.475 338.878C455.097 339.543 452.924 340.494 451.063 341.55C449.205 342.616 447.652 343.78 446.419 344.836C445.181 345.892 444.236 346.814 443.589 347.455C442.94 348.099 442.58 348.453 442.552 348.428C442.526 348.406 442.838 348.005 443.442 347.317C444.048 346.63 444.959 345.662 446.177 344.56C447.393 343.457 448.946 342.244 450.824 341.137C452.706 340.038 454.911 339.056 457.336 338.378C462.218 337 466.983 337.619 470.008 338.909C471.536 339.537 472.674 340.259 473.399 340.825C473.772 341.094 474.023 341.353 474.205 341.511C474.383 341.676 474.469 341.767 474.457 341.781Z" fill="#1A2E35"/>
<path d="M474.548 333.811C474.52 333.914 472.595 333.324 469.396 332.89C467.799 332.663 465.88 332.536 463.751 332.532C461.621 332.563 459.282 332.738 456.859 333.153C454.439 333.592 452.18 334.227 450.168 334.926C448.168 335.658 446.406 336.432 444.983 337.192C442.124 338.692 440.516 339.905 440.456 339.818C440.434 339.789 440.827 339.476 441.558 338.936C441.92 338.66 442.373 338.335 442.926 337.999C443.475 337.659 444.084 337.241 444.81 336.869C446.224 336.061 447.99 335.241 450.005 334.476C452.032 333.744 454.318 333.086 456.769 332.642C459.224 332.222 461.596 332.059 463.751 332.053C465.906 332.084 467.844 332.251 469.449 332.527C470.258 332.629 470.972 332.813 471.605 332.945C472.24 333.072 472.776 333.222 473.209 333.358C474.082 333.618 474.558 333.776 474.548 333.811Z" fill="#1A2E35"/>
<path d="M390.166 236.277C390.166 236.277 390.677 237.232 390.929 239.21C391.199 241.175 391.161 244.118 390.511 247.764C390.184 249.587 389.742 251.59 389.087 253.727C388.403 255.868 387.367 258.057 386.195 260.352C383.823 264.933 380.837 269.927 377.38 275.254L376.975 275.876L376.975 275.131C376.97 271.612 376.965 267.917 376.959 264.081L377.345 264.266C374.384 266.659 371.267 269.179 368.055 271.774L368.137 271.656C365.983 278.487 364.567 286.094 364.005 294.014C363.096 306.136 363.829 317.729 364.4 328.247C364.889 338.78 365.21 348.264 365.538 356.228C365.853 364.192 366.141 370.635 366.38 375.085C366.511 377.29 366.612 379.011 366.683 380.207C366.72 380.774 366.749 381.216 366.771 381.539C366.788 381.84 366.784 381.994 366.784 381.994C366.784 381.994 366.752 381.843 366.718 381.544C366.685 381.222 366.638 380.781 366.579 380.215C366.469 379.047 366.326 377.322 366.179 375.097C365.877 370.65 365.534 364.207 365.172 356.244C364.817 348.275 364.393 338.795 363.923 328.272C363.327 317.762 362.577 306.144 363.489 293.976C364.053 286.024 365.483 278.374 367.66 271.503L367.683 271.431L367.742 271.384C370.958 268.796 374.081 266.282 377.047 263.895L377.434 263.584L377.433 264.081C377.427 267.917 377.422 271.612 377.417 275.131L377.011 275.01C383.845 264.398 389.402 255.178 390.258 247.718C390.943 244.099 391.019 241.18 390.794 239.226C390.699 238.244 390.507 237.512 390.387 237.018C390.229 236.534 390.166 236.277 390.166 236.277Z" fill="#1A2E35"/>
<path d="M372.326 364.757L371.971 364.744C370.531 364.785 369.249 366.104 369.244 367.545C369.24 368.986 370.514 370.311 371.953 370.362C373.392 370.412 374.756 369.178 374.851 367.739C374.946 366.301 373.758 364.899 372.326 364.757Z" fill="white"/>
<path d="M372.326 326.369L371.971 326.356C370.531 326.397 369.249 327.715 369.244 329.156C369.24 330.598 370.514 331.923 371.953 331.973C373.392 332.024 374.756 330.79 374.851 329.352C374.946 327.913 373.758 326.51 372.326 326.369Z" fill="white"/>
<path d="M371.953 292.026C373.392 292.077 374.755 290.844 374.85 289.404C374.946 287.966 373.757 286.563 372.326 286.421L371.97 286.409C370.53 286.45 369.248 287.768 369.244 289.21C369.239 290.651 370.514 291.976 371.953 292.026Z" fill="white"/>
<path d="M329.009 191.297C325.522 187.431 322.004 183.523 319.462 178.977C316.92 174.432 315.404 169.128 316.245 163.987C316.737 160.981 318.013 158.117 318.216 155.077C318.495 150.894 316.739 146.524 318.22 142.602C320.535 136.475 328.773 135.528 333.767 131.295C337.656 127.998 339.551 122.646 343.828 119.874C347.566 117.451 352.368 117.505 356.776 118.129C361.184 118.754 365.619 119.868 370.031 119.273C373.176 118.85 376.139 117.576 379.22 116.812C382.301 116.048 385.738 115.847 388.482 117.443C391.226 119.04 392.766 122.94 390.967 125.559C396.08 123.197 402.574 127.188 403.974 132.649C405.373 138.11 402.573 144.01 398.239 147.611C393.907 151.212 388.304 152.887 382.771 153.932C367.107 156.888 350.115 155.22 336.617 146.731" fill="#1A2E35"/>
<path d="M384.077 244.032C383.312 238.095 382.686 233.141 382.648 232.525C382.648 232.525 402.462 228.066 401.371 208.004C400.843 198.307 398.133 178.425 395.473 160.468C392.616 141.182 375.425 127.338 355.998 128.639L354.066 128.769C333.318 131.382 323.943 150.487 327.127 171.181L338.321 240.574C338.321 240.574 343.099 255.924 353.317 258.581L366.213 277.027L368.343 269.086L377.956 260.708C377.956 260.708 380.16 258.318 382.693 253.643C384.764 249.824 384.33 245.895 384.077 244.032Z" fill="#FFBF9D"/>
<path d="M382.662 232.233C382.662 232.233 370.078 234.11 356.066 226.553C356.066 226.553 363.199 240.567 383.056 237.423L382.662 232.233Z" fill="#FF9A6C"/>
<path d="M389.034 177.706C389.188 179.214 388.04 180.589 386.471 180.779C384.903 180.969 383.505 179.904 383.351 178.395C383.197 176.887 384.344 175.511 385.911 175.321C387.481 175.13 388.88 176.198 389.034 177.706Z" fill="#1A2E35"/>
<path d="M391.829 170.594C391.499 170.99 389.227 169.53 386.15 169.744C383.074 169.915 380.923 171.651 380.564 171.296C380.389 171.14 380.704 170.442 381.64 169.66C382.56 168.881 384.164 168.076 386.081 167.957C387.998 167.838 389.657 168.436 390.632 169.098C391.627 169.761 391.992 170.415 391.829 170.594Z" fill="#1A2E35"/>
<path d="M359.971 179.788C360.125 181.296 358.977 182.671 357.407 182.861C355.84 183.051 354.441 181.986 354.287 180.477C354.133 178.969 355.281 177.593 356.849 177.403C358.418 177.213 359.817 178.28 359.971 179.788Z" fill="#1A2E35"/>
<path d="M361.627 173.193C361.297 173.59 359.021 172.131 355.947 172.345C352.872 172.515 350.719 174.251 350.36 173.895C350.186 173.739 350.499 173.043 351.438 172.26C352.358 171.48 353.961 170.676 355.878 170.556C357.796 170.438 359.454 171.036 360.429 171.697C361.421 172.362 361.789 173.015 361.627 173.193Z" fill="#1A2E35"/>
<path d="M374.318 195.294C374.293 195.119 376.182 194.66 379.255 194.056C380.035 193.923 380.768 193.716 380.864 193.17C381.011 192.59 380.627 191.764 380.184 190.874C379.319 189.02 378.412 187.077 377.461 185.039C373.665 176.727 370.861 169.871 371.196 169.72C371.532 169.57 374.881 176.185 378.678 184.499C379.595 186.55 380.472 188.505 381.305 190.375C381.663 191.25 382.242 192.229 381.92 193.435C381.748 194.038 381.199 194.503 380.705 194.672C380.212 194.859 379.769 194.898 379.383 194.947C376.276 195.325 374.342 195.468 374.318 195.294Z" fill="#1A2E35"/>
<path d="M361.615 161.068C361.367 161.925 358.269 161.734 354.689 162.412C351.094 163.017 348.255 164.27 347.725 163.552C347.488 163.205 347.942 162.383 349.065 161.494C350.177 160.606 351.988 159.712 354.138 159.325C356.289 158.943 358.297 159.155 359.646 159.603C361.008 160.048 361.718 160.661 361.615 161.068Z" fill="#1A2E35"/>
<path d="M390.103 161.754C389.608 162.49 387.44 161.905 384.89 162.043C382.334 162.089 380.215 162.828 379.669 162.128C379.428 161.789 379.72 161.065 380.619 160.34C381.503 159.617 383.023 158.973 384.777 158.909C386.532 158.848 388.092 159.38 389.026 160.037C389.974 160.696 390.318 161.396 390.103 161.754Z" fill="#1A2E35"/>
<path d="M329.753 185.916C329.402 185.791 315.726 182.763 317.078 196.439C318.431 210.115 333.233 205.658 333.217 205.263C333.202 204.868 329.753 185.916 329.753 185.916Z" fill="#FFBF9D"/>
<path d="M327.166 200.771C327.101 200.733 326.944 200.961 326.56 201.186C326.186 201.404 325.523 201.596 324.785 201.398C323.29 201.011 321.848 198.839 321.538 196.38C321.38 195.139 321.524 193.927 321.866 192.903C322.184 191.861 322.761 191.098 323.475 190.897C324.182 190.658 324.739 191.042 324.943 191.411C325.164 191.775 325.105 192.056 325.179 192.073C325.221 192.103 325.45 191.815 325.285 191.26C325.201 190.995 325.009 190.687 324.662 190.457C324.308 190.222 323.812 190.135 323.312 190.239C322.266 190.417 321.414 191.481 321.036 192.606C320.602 193.741 320.411 195.106 320.589 196.499C320.949 199.247 322.613 201.685 324.644 202.061C325.629 202.217 326.402 201.848 326.784 201.483C327.173 201.104 327.214 200.791 327.166 200.771Z" fill="#FF9A6C"/>
<path d="M394.467 141.783C393.529 147.227 382.503 152.215 373.36 151.948C364.933 151.702 360.77 147.514 354.646 144.539C350.77 142.655 350.77 142.655 345.51 143.511C341.258 144.203 339.05 149.228 336.662 152.819C341.211 162.748 339.373 174.294 337.444 185.046C337.232 186.233 336.968 187.516 336.062 188.314C334.527 189.67 332.038 188.858 330.527 187.473C328.11 185.257 327.01 181.97 326.217 178.786C324.412 171.531 323.719 163.934 324.864 156.547C326.01 149.158 329.063 141.982 334.104 136.467C340.404 129.575 349.613 125.602 358.932 125.122C368.25 124.643 377.61 127.53 385.414 132.651C389.035 135.025 392.421 137.963 394.467 141.783Z" fill="#1A2E35"/>
<path d="M376.329 202.222C374.009 201.138 371.688 200.055 369.369 198.971C368.968 198.784 368.54 198.592 368.102 198.651C367.609 198.717 367.214 199.087 366.898 199.47C365.283 201.428 364.876 204.384 366.126 206.594C367.376 208.803 370.316 209.97 372.66 208.999C375.127 207.976 376.325 205.107 376.518 202.438L376.329 202.222Z" fill="#FF9A6C"/>
<path d="M372.878 209.491C372.898 209.552 372.556 209.752 371.859 209.897C371.169 210.03 370.101 210.083 368.864 209.677C367.64 209.284 366.26 208.33 365.407 206.8C364.539 205.309 364.225 203.203 364.983 201.302C365.344 200.358 365.91 199.524 366.599 198.865C366.948 198.531 367.31 198.258 367.728 198.009C367.945 197.888 368.218 197.769 368.53 197.753C368.839 197.736 369.114 197.815 369.339 197.91C369.793 198.114 370.088 198.332 370.423 198.526C370.747 198.725 371.065 198.921 371.372 199.11C371.973 199.486 372.539 199.841 373.068 200.171C375.133 201.483 376.373 202.358 376.301 202.481C376.229 202.605 374.857 201.955 372.699 200.806C372.15 200.508 371.563 200.19 370.94 199.853C370.624 199.678 370.299 199.499 369.965 199.315C369.632 199.137 369.271 198.909 368.981 198.796C368.664 198.685 368.525 198.693 368.219 198.869C367.916 199.061 367.585 199.314 367.304 199.595C366.732 200.162 366.256 200.874 365.95 201.673C365.314 203.278 365.542 205.023 366.245 206.342C366.94 207.681 368.061 208.552 369.121 208.99C370.189 209.434 371.158 209.501 371.817 209.496C372.48 209.48 372.856 209.415 372.878 209.491Z" fill="#1A2E35"/>
<path d="M370.681 178.051C370.601 178.058 370.691 176.777 370.137 174.588C369.589 172.442 368.16 169.286 364.937 166.844C363.34 165.652 361.328 164.639 359.011 164.233C356.708 163.842 354.111 163.918 351.64 164.861C350.397 165.296 349.197 165.951 348.095 166.778C346.981 167.587 345.97 168.593 345.136 169.76C343.412 172.055 342.442 175.008 342.414 178.049C342.441 181.092 343.411 184.044 345.135 186.342C345.969 187.508 346.98 188.514 348.095 189.325C349.196 190.152 350.396 190.807 351.64 191.24C354.111 192.185 356.709 192.26 359.012 191.869C361.329 191.462 363.341 190.451 364.937 189.257C368.161 186.815 369.589 183.659 370.137 181.513C370.691 179.324 370.601 178.044 370.681 178.051C370.69 178.051 370.695 178.13 370.696 178.282C370.693 178.468 370.69 178.692 370.687 178.965C370.688 179.265 370.672 179.636 370.6 180.07C370.543 180.505 370.488 181.011 370.333 181.562C370.099 182.681 369.598 184.007 368.79 185.418C367.975 186.823 366.788 188.295 365.16 189.549C363.535 190.792 361.477 191.854 359.09 192.292C356.721 192.714 354.039 192.653 351.477 191.69C350.189 191.247 348.945 190.575 347.801 189.722C346.644 188.887 345.594 187.848 344.726 186.643C342.935 184.266 341.921 181.203 341.896 178.049C341.922 174.896 342.936 171.833 344.727 169.459C345.595 168.253 346.644 167.214 347.802 166.379C348.945 165.528 350.189 164.855 351.477 164.412C354.039 163.45 356.72 163.387 359.089 163.811C361.476 164.248 363.534 165.311 365.159 166.553C366.787 167.806 367.975 169.279 368.789 170.684C369.598 172.094 370.099 173.421 370.332 174.539C370.488 175.09 370.543 175.596 370.6 176.031C370.672 176.466 370.688 176.837 370.687 177.138C370.69 177.411 370.693 177.635 370.696 177.819C370.695 177.973 370.69 178.051 370.681 178.051Z" fill="#1A2E35"/>
<path d="M404.744 176.711C404.665 176.718 404.753 175.469 404.212 173.337C403.678 171.247 402.284 168.172 399.144 165.795C397.588 164.632 395.63 163.646 393.371 163.252C391.129 162.87 388.6 162.945 386.194 163.864C384.982 164.287 383.813 164.925 382.741 165.73C381.655 166.52 380.67 167.499 379.857 168.635C378.179 170.871 377.235 173.746 377.206 176.709C377.234 179.672 378.178 182.547 379.856 184.785C380.669 185.921 381.655 186.901 382.74 187.691C383.813 188.496 384.982 189.135 386.194 189.557C388.601 190.476 391.129 190.55 393.372 190.17C395.631 189.774 397.589 188.788 399.145 187.626C402.284 185.248 403.678 182.174 404.212 180.083C404.753 177.952 404.665 176.704 404.744 176.711C404.763 176.711 404.765 177.016 404.752 177.601C404.753 177.894 404.738 178.256 404.667 178.679C404.612 179.102 404.558 179.595 404.408 180.133C403.925 182.267 402.562 185.438 399.367 187.918C397.784 189.13 395.777 190.166 393.451 190.593C391.141 191.005 388.527 190.945 386.03 190.006C384.774 189.574 383.561 188.919 382.446 188.089C381.318 187.274 380.294 186.261 379.448 185.086C377.702 182.769 376.714 179.782 376.688 176.709C376.715 173.635 377.703 170.649 379.449 168.333C380.295 167.159 381.319 166.146 382.447 165.332C383.561 164.502 384.774 163.846 386.03 163.415C388.527 162.477 391.141 162.416 393.451 162.828C395.776 163.255 397.783 164.291 399.366 165.503C402.561 167.983 403.925 171.152 404.408 173.287C404.558 173.825 404.612 174.318 404.667 174.743C404.738 175.166 404.753 175.527 404.752 175.82C404.765 176.405 404.763 176.711 404.744 176.711Z" fill="#1A2E35"/>
<path d="M376.948 173.56C376.891 173.618 376.563 173.341 375.958 173.054C375.358 172.767 374.461 172.485 373.453 172.503C372.444 172.518 371.558 172.832 370.97 173.141C370.377 173.45 370.061 173.742 370.002 173.686C369.954 173.649 370.185 173.25 370.778 172.828C371.362 172.41 372.325 172.001 373.445 171.985C374.564 171.965 375.538 172.338 376.137 172.734C376.746 173.133 376.994 173.519 376.948 173.56Z" fill="#1A2E35"/>
<path d="M343.015 176.022C343.1 176.136 340.309 178.367 336.781 181.005C333.253 183.643 330.324 185.688 330.238 185.574C330.153 185.459 332.943 183.228 336.472 180.59C339.999 177.952 342.929 175.907 343.015 176.022Z" fill="#1A2E35"/>
<g opacity="0.300003">
<path d="M331.245 240.844C329.861 254.362 334.994 268.63 345.821 276.821C346.67 277.463 347.736 278.101 348.738 277.738C349.433 277.487 349.879 276.819 350.249 276.178C353.334 270.827 354.371 264.923 353.477 258.81C351.762 263.331 350.29 267.768 348.56 272.496C339.126 266.76 333.246 254.565 331.245 240.844Z" fill="black"/>
</g>
<g opacity="0.300003">
<path d="M367.898 271.579L375.842 268.674L377.158 282.129C377.158 282.129 385.731 266.483 389.279 259.344C392.826 252.206 391.002 239.608 391.002 239.608C391.002 239.608 392.27 250.582 383.68 264.579L377.196 275.132V264.08L367.898 271.579Z" fill="black"/>
</g>
<g opacity="0.300003">
<path d="M275.477 339.964C271.934 338.288 267.857 338.064 263.965 338.517C259.854 338.996 255.729 340.256 252.508 342.859C249.287 345.461 247.103 349.562 247.505 353.685L247.903 353.742C250.675 346.23 256.189 340.763 263.299 340.102C270.41 339.442 277.348 342.609 282.228 347.828C281.754 343.934 279.02 341.64 275.477 339.964Z" fill="black"/>
</g>
<g opacity="0.300003">
<path d="M476.385 347.645C473.723 344.768 469.982 343.025 466.124 342.352C459.348 341.168 452.076 343.276 446.979 347.901L448.495 346.669C452.346 344.412 456.785 343.074 461.244 343.2C465.704 343.327 470.167 344.979 473.397 348.062C476.366 350.895 478.151 354.721 479.854 358.457C480.519 354.594 479.047 350.523 476.385 347.645Z" fill="black"/>
</g>
<path d="M425.171 285.156C425.138 285.141 425.267 284.755 425.526 284.068C425.834 283.281 426.211 282.314 426.656 281.174C427.619 278.734 428.939 275.359 430.332 271.609C431.726 267.857 432.928 264.44 433.793 261.963C434.201 260.809 434.547 259.829 434.827 259.032C435.079 258.342 435.233 257.966 435.267 257.977C435.302 257.988 435.212 258.384 435.019 259.093C434.829 259.804 434.529 260.823 434.141 262.077C433.364 264.587 432.214 268.032 430.819 271.79C429.421 275.547 428.046 278.907 426.995 281.314C426.47 282.518 426.031 283.486 425.712 284.148C425.395 284.81 425.203 285.171 425.171 285.156Z" fill="#1A2E35"/>
<path d="M299.772 286.135C299.632 286.163 298.551 281.424 297.358 275.549C296.165 269.673 295.311 264.888 295.452 264.859C295.592 264.83 296.672 269.569 297.866 275.446C299.059 281.32 299.913 286.107 299.772 286.135Z" fill="#1A2E35"/>
<path d="M297.896 345.381C298.211 345.54 294.252 314.344 294.252 314.344C294.252 314.344 296.751 290.669 298.155 289.576L298.191 281.222C298.191 281.222 302.058 278.878 303.096 282.663C303.096 282.663 306.524 279.682 307.123 286.779C307.723 293.875 307.848 301.127 307.848 301.127L315.48 320.235L316.736 320.871C316.736 320.871 318.376 305.902 319.329 303.699C320.284 301.496 320.937 296.14 324.554 296.943C328.171 297.748 328.473 300.744 327.823 305.628C327.172 310.511 326.363 315.553 326.664 318.708C326.966 321.862 328.397 328.803 327.957 334.32C327.518 339.835 324.501 345.654 321.335 349.74C318.169 353.825 312.12 362.274 308.833 364.819C307.684 365.708 297.896 345.381 297.896 345.381Z" fill="#FFBF9D"/>
<path d="M301.748 319.994C301.712 319.991 301.722 319.516 301.769 318.658C301.835 317.7 301.918 316.486 302.018 315.035C302.25 311.976 302.608 307.755 303.034 303.096C303.254 300.772 303.463 298.559 303.655 296.528C303.754 295.525 303.818 294.575 303.69 293.713C303.57 292.85 303.231 292.1 302.739 291.56C301.73 290.467 300.435 290.19 299.624 290.191C298.782 290.185 298.341 290.414 298.325 290.357C298.318 290.341 298.423 290.285 298.634 290.194C298.849 290.117 299.177 290.013 299.617 289.989C300.469 289.928 301.864 290.148 303.007 291.31C303.569 291.887 303.969 292.724 304.114 293.646C304.271 294.57 304.217 295.561 304.13 296.571C303.951 298.603 303.755 300.818 303.551 303.144C303.124 307.803 302.709 312.018 302.383 315.069C302.218 316.513 302.079 317.723 301.97 318.677C301.861 319.528 301.784 319.997 301.748 319.994Z" fill="#FF9A6C"/>
<path d="M305.851 307.236C305.925 307.298 305.075 308.047 304.5 309.699C303.884 311.325 303.663 313.769 303.231 316.432C302.82 319.1 302.419 321.509 302.104 323.25C301.788 324.99 301.558 326.061 301.487 326.051C301.416 326.039 301.519 324.948 301.742 323.193C301.964 321.439 302.308 319.02 302.719 316.353C303.15 313.702 303.428 311.239 304.158 309.566C304.504 308.73 304.924 308.12 305.261 307.746C305.595 307.368 305.834 307.216 305.851 307.236Z" fill="#FF9A6C"/>
<path d="M303.047 282.254C303.081 282.247 303.174 282.597 303.312 283.235C303.451 283.872 303.625 284.801 303.814 285.952C304.194 288.253 304.61 291.453 304.874 295.004C305.134 298.558 305.192 301.784 305.153 304.117C305.135 305.283 305.101 306.226 305.056 306.878C305.014 307.529 304.973 307.888 304.938 307.887C304.861 307.885 304.844 306.445 304.787 304.119C304.733 301.792 304.617 298.582 304.357 295.043C304.095 291.506 303.738 288.312 303.451 286.004C303.166 283.695 302.971 282.267 303.047 282.254Z" fill="#FF9A6C"/>
<path d="M325.06 311.5C325.134 311.618 323.944 312.172 322.489 311.719C321.029 311.282 320.35 310.156 320.478 310.102C320.593 310.002 321.356 310.848 322.641 311.223C323.915 311.629 325.019 311.354 325.06 311.5Z" fill="#FF9A6C"/>
<path d="M298.325 341.503L278.164 349.987H266.152C266.152 349.987 254.272 353.699 252.444 364.85C250.617 376.003 250.355 381.742 255.577 383.122C260.8 384.501 275.553 384.654 282.865 382.224C290.176 379.794 309.328 364.319 309.328 364.319L311.173 353.124L298.325 341.503Z" fill="#FFBF9D"/>
<path d="M303.046 353.826C303.021 353.85 302.819 353.663 302.474 353.3C302.114 352.948 301.674 352.369 301.164 351.632C300.167 350.142 299.076 347.881 298.348 345.247C297.595 342.617 297.273 340.159 297.106 338.387C296.953 336.609 296.961 335.506 297.028 335.503C297.104 335.498 297.225 336.59 297.47 338.344C297.728 340.095 298.104 342.518 298.846 345.104C299.563 347.7 300.576 349.926 301.473 351.437C302.38 352.944 303.118 353.762 303.046 353.826Z" fill="#FF9A6C"/>
<path d="M311.824 357.367C311.715 357.327 312.623 355.792 312.973 353.038C313.14 351.672 313.125 350.008 312.735 348.232C312.349 346.453 311.499 344.619 310.264 342.908C309.04 341.19 307.662 339.693 306.501 338.245C305.329 336.804 304.391 335.395 303.777 334.119C303.158 332.843 302.873 331.717 302.766 330.936C302.665 330.15 302.706 329.712 302.732 329.712C302.833 329.69 302.799 331.493 304.103 333.954C304.744 335.178 305.691 336.534 306.871 337.942C308.04 339.36 309.434 340.851 310.687 342.608C311.949 344.355 312.83 346.284 313.201 348.131C313.579 349.975 313.554 351.691 313.336 353.088C313.117 354.489 312.731 355.577 312.412 356.295C312.257 356.659 312.108 356.926 312.005 357.105C311.901 357.285 311.84 357.375 311.824 357.367Z" fill="#FF9A6C"/>
<path d="M280.744 308.757C280.617 308.823 278.417 304.816 275.832 299.808C273.245 294.797 271.251 290.684 271.378 290.618C271.505 290.552 273.704 294.559 276.291 299.569C278.878 304.578 280.871 308.692 280.744 308.757Z" fill="white"/>
<path d="M313.348 272.413C313.218 272.355 314.577 269.013 316.385 264.951C318.193 260.887 319.764 257.641 319.894 257.699C320.025 257.757 318.666 261.098 316.858 265.162C315.05 269.225 313.479 272.472 313.348 272.413Z" fill="white"/>
<path d="M345.276 296.001C345.166 296.093 343.121 293.8 340.708 290.882C338.293 287.963 336.426 285.522 336.537 285.432C336.647 285.34 338.692 287.632 341.106 290.551C343.518 293.469 345.386 295.911 345.276 296.001Z" fill="white"/>
<path d="M337.931 328.443C337.815 328.358 339.357 326.033 341.374 323.247C343.392 320.461 345.12 318.272 345.237 318.356C345.352 318.44 343.811 320.766 341.793 323.552C339.776 326.337 338.046 328.527 337.931 328.443Z" fill="white"/>
<path d="M328.043 374.265C327.981 374.295 327.528 373.535 326.875 372.263C326.222 370.993 325.375 369.209 324.523 367.202C323.671 365.194 322.977 363.345 322.516 361.993C322.056 360.639 321.823 359.786 321.889 359.762C321.957 359.737 322.313 360.547 322.86 361.863C323.483 363.361 324.204 365.09 325 366.999C325.821 368.897 326.563 370.617 327.206 372.106C327.773 373.414 328.109 374.232 328.043 374.265Z" fill="white"/>
<path d="M356.134 354.784C356.107 354.926 353.403 354.519 350.096 353.879C346.787 353.237 344.128 352.604 344.155 352.463C344.182 352.322 346.886 352.729 350.194 353.369C353.502 354.011 356.161 354.644 356.134 354.784Z" fill="white"/>
<path d="M377.92 311.968C377.816 311.871 380.393 308.916 383.677 305.369C386.964 301.821 389.711 299.024 389.816 299.122C389.921 299.218 387.344 302.174 384.058 305.722C380.773 309.269 378.024 312.066 377.92 311.968Z" fill="white"/>
<path d="M399.837 369.073C399.727 369.163 396.51 365.436 392.654 360.748C388.795 356.059 385.76 352.184 385.869 352.093C385.979 352.002 389.196 355.729 393.054 360.418C396.911 365.107 399.948 368.981 399.837 369.073Z" fill="white"/>
<path d="M263.782 344.732C263.856 344.876 260.917 346.368 257.715 348.828C254.497 351.271 252.283 353.715 252.166 353.606C252.116 353.562 252.607 352.894 253.518 351.915C254.428 350.935 255.776 349.659 257.4 348.416C259.026 347.176 260.611 346.212 261.795 345.592C262.98 344.971 263.753 344.673 263.782 344.732Z" fill="white"/>
<path d="M271.977 322.724C272.097 322.803 271.05 324.588 269.641 326.71C268.231 328.833 266.992 330.489 266.874 330.409C266.754 330.331 267.8 328.546 269.21 326.423C270.618 324.301 271.858 322.645 271.977 322.724Z" fill="white"/>
<path d="M290.442 344.338C290.328 344.405 289.292 342.662 288.751 340.247C288.196 337.833 288.378 335.813 288.509 335.825C288.664 335.825 288.716 337.791 289.256 340.131C289.778 342.475 290.581 344.271 290.442 344.338Z" fill="white"/>
<path d="M293.179 275.692C293.2 275.834 291.483 276.195 289.348 276.499C287.211 276.803 285.462 276.935 285.443 276.792C285.423 276.651 287.137 276.29 289.275 275.985C291.411 275.681 293.159 275.549 293.179 275.692Z" fill="white"/>
<path d="M307.048 251.064C307.117 251.189 305.616 252.155 303.693 253.222C301.771 254.288 300.157 255.051 300.087 254.926C300.019 254.801 301.52 253.835 303.442 252.768C305.364 251.702 306.978 250.938 307.048 251.064Z" fill="white"/>
<path d="M346.046 261.468C345.933 261.555 344.215 259.487 342.21 256.851C340.204 254.214 338.671 252.006 338.785 251.919C338.899 251.833 340.616 253.899 342.622 256.537C344.627 259.172 346.161 261.38 346.046 261.468Z" fill="white"/>
<path d="M395.554 286.233C395.457 286.325 393.649 284.46 391.971 281.748C390.282 279.042 389.412 276.594 389.536 276.548C389.677 276.487 390.748 278.81 392.412 281.474C394.063 284.144 395.67 286.132 395.554 286.233Z" fill="white"/>
<path d="M414.449 292.469C414.579 292.529 413.661 294.835 412.398 297.621C411.136 300.408 410.006 302.618 409.876 302.559C409.745 302.5 410.663 300.194 411.927 297.407C413.189 294.621 414.319 292.41 414.449 292.469Z" fill="white"/>
<path d="M417.091 266.644C416.982 266.736 414.732 264.21 412.066 261.003C409.4 257.795 407.329 255.121 407.439 255.029C407.548 254.937 409.798 257.463 412.465 260.671C415.128 263.878 417.2 266.552 417.091 266.644Z" fill="white"/>
<path d="M388.231 245.664C388.087 245.669 387.886 243.509 387.781 240.837C387.676 238.165 387.707 235.996 387.85 235.99C387.993 235.985 388.194 238.145 388.299 240.817C388.404 243.488 388.374 245.658 388.231 245.664Z" fill="white"/>
<path d="M411.761 244.357C411.78 244.5 409.03 244.985 405.62 245.441C402.208 245.898 399.428 246.153 399.409 246.012C399.389 245.869 402.14 245.384 405.551 244.927C408.962 244.471 411.741 244.215 411.761 244.357Z" fill="white"/>
<path d="M448.822 271.618C448.693 271.68 447.038 268.523 445.126 264.566C443.214 260.606 441.768 257.349 441.898 257.286C442.026 257.224 443.68 260.381 445.593 264.339C447.505 268.297 448.951 271.556 448.822 271.618Z" fill="white"/>
<path d="M442.581 295.172C442.441 295.144 442.829 292.605 443.448 289.502C444.066 286.399 444.682 283.906 444.822 283.935C444.963 283.963 444.575 286.5 443.956 289.604C443.337 292.707 442.723 295.2 442.581 295.172Z" fill="white"/>
<path d="M459.773 313.742C459.638 313.789 458.317 310.361 456.823 306.088C455.329 301.814 454.228 298.311 454.363 298.264C454.497 298.216 455.817 301.642 457.311 305.917C458.805 310.191 459.908 313.694 459.773 313.742Z" fill="white"/>
<path d="M457.378 324.604C457.354 324.731 454.968 324.233 452.354 322.805C449.731 321.392 448.012 319.664 448.105 319.573C448.206 319.454 450.039 320.971 452.601 322.349C455.153 323.745 457.423 324.453 457.378 324.604Z" fill="white"/>
<path d="M479.4 349.369C479.268 349.428 478.47 347.916 477.615 345.993C476.762 344.071 476.175 342.463 476.305 342.406C476.437 342.348 477.234 343.86 478.09 345.782C478.943 347.705 479.53 349.311 479.4 349.369Z" fill="white"/>
<path d="M349.338 383.908C349.196 383.925 348.85 381.95 348.565 379.498C348.281 377.045 348.165 375.045 348.307 375.028C348.449 375.011 348.795 376.986 349.08 379.438C349.365 381.89 349.481 383.891 349.338 383.908Z" fill="white"/>
<path d="M416.904 382.199C416.764 382.169 417.056 380.238 417.555 377.886C418.055 375.535 418.573 373.652 418.713 373.681C418.853 373.712 418.561 375.642 418.062 377.994C417.563 380.346 417.045 382.229 416.904 382.199Z" fill="white"/>
<path d="M429.86 184.702L438.597 169.284C434.731 163.002 432.498 155.607 432.498 147.686C432.498 124.91 450.936 106.446 473.683 106.446C496.428 106.446 514.868 124.91 514.868 147.686C514.868 170.463 496.428 188.926 473.683 188.926C464.185 188.926 455.445 185.698 448.479 180.289L448.491 180.308L429.86 184.702Z" fill="#FAFAFA"/>
<path d="M429.86 184.702C430.746 184.5 436.643 183.151 448.521 180.432L448.712 180.389L448.593 180.232L448.578 180.213L448.401 180.391C450.75 182.213 453.564 184.009 456.873 185.506C460.185 186.976 463.979 188.178 468.17 188.736C470.261 189.003 472.446 189.176 474.692 189.066C475.814 189.002 476.957 188.975 478.109 188.879C479.254 188.705 480.413 188.53 481.59 188.352C486.254 187.43 491.024 185.656 495.473 182.893C499.92 180.138 504.036 176.398 507.336 171.802C510.63 167.216 513.129 161.775 514.299 155.865C515.457 149.962 515.361 143.636 513.812 137.513C512.254 131.411 509.341 125.449 504.982 120.546L503.299 118.692C502.746 118.069 502.086 117.555 501.487 116.982C500.86 116.442 500.294 115.83 499.619 115.352L497.642 113.871C497.001 113.353 496.296 112.936 495.595 112.515C494.897 112.091 494.2 111.667 493.504 111.244C492.773 110.889 492.044 110.534 491.316 110.181C490.583 109.841 489.877 109.441 489.107 109.197C483.123 106.818 476.74 105.913 470.64 106.355C464.536 106.795 458.698 108.549 453.689 111.372C448.664 114.174 444.427 117.913 441.156 122.09C437.876 126.27 435.564 130.878 434.133 135.468C432.711 140.079 432.327 144.653 432.343 148.887C432.465 153.13 433.237 157.04 434.36 160.471C435.487 163.907 436.966 166.862 438.493 169.348L438.491 169.223C432.979 179.111 430.284 183.943 429.86 184.702C430.294 183.949 433.054 179.155 438.703 169.345L438.739 169.283L438.701 169.22C437.2 166.738 435.748 163.794 434.647 160.378C433.549 156.967 432.801 153.084 432.695 148.876C432.697 144.678 433.092 140.148 434.513 135.586C435.944 131.044 438.243 126.488 441.498 122.36C444.744 118.234 448.942 114.543 453.914 111.781C458.871 108.997 464.644 107.273 470.675 106.845C476.705 106.413 483.009 107.313 488.92 109.666C489.68 109.906 490.376 110.303 491.101 110.638C491.819 110.987 492.54 111.338 493.261 111.69C493.949 112.107 494.636 112.526 495.325 112.945C496.02 113.361 496.716 113.773 497.348 114.285L499.301 115.748C499.966 116.22 500.525 116.826 501.145 117.36C501.737 117.925 502.389 118.432 502.936 119.049L504.598 120.88C508.905 125.723 511.78 131.611 513.324 137.636C514.856 143.683 514.956 149.935 513.817 155.768C512.668 161.61 510.205 166.988 506.955 171.529C503.698 176.078 499.634 179.785 495.241 182.52C490.846 185.264 486.13 187.031 481.514 187.957C480.35 188.137 479.2 188.314 478.068 188.489C476.926 188.588 475.795 188.619 474.683 188.685C472.458 188.802 470.291 188.638 468.217 188.381C464.062 187.843 460.293 186.667 456.998 185.223C453.708 183.754 450.903 181.986 448.556 180.19L447.788 179.603L448.377 180.368L448.392 180.387L448.463 180.185C436.622 183.061 430.742 184.488 429.86 184.702Z" fill="#1A2E35"/>
<path d="M484.803 145.966C484.803 148.192 486.604 149.996 488.827 149.996C491.05 149.996 492.853 148.192 492.853 145.966C492.853 143.74 491.05 141.936 488.827 141.936C486.604 141.936 484.803 143.74 484.803 145.966Z" fill="#1A2E35"/>
<path d="M468.696 145.966C468.696 148.192 470.499 149.996 472.721 149.996C474.944 149.996 476.746 148.192 476.746 145.966C476.746 143.74 474.944 141.936 472.721 141.936C470.499 141.936 468.696 143.74 468.696 145.966Z" fill="#1A2E35"/>
<path d="M452.63 143.95C451.518 145.878 452.178 148.342 454.103 149.456C456.028 150.568 458.49 149.908 459.601 147.98C460.712 146.052 460.054 143.587 458.128 142.475C456.203 141.362 453.742 142.022 452.63 143.95Z" fill="#1A2E35"/>
</svg>
