<svg width="16" height="18" viewBox="0 0 16 18" fill="none" xmlns="http://www.w3.org/2000/svg">
<path fill-rule="evenodd" clip-rule="evenodd" d="M0.917969 7.59943C0.917969 3.76621 4.1212 0.667969 7.99584 0.667969C11.8814 0.667969 15.0846 3.76621 15.0846 7.59943C15.0846 9.53104 14.3821 11.3243 13.2259 12.8443C11.9503 14.5209 10.3781 15.9817 8.60842 17.1283C8.20339 17.3933 7.83786 17.4133 7.39334 17.1283C5.61358 15.9817 4.04137 14.5209 2.77672 12.8443C1.61962 11.3243 0.917969 9.53104 0.917969 7.59943ZM5.66316 7.81526C5.66316 9.09939 6.71102 10.1094 7.99584 10.1094C9.2815 10.1094 10.3394 9.09939 10.3394 7.81526C10.3394 6.54113 9.2815 5.482 7.99584 5.482C6.71102 5.482 5.66316 6.54113 5.66316 7.81526Z" fill="#313131"/>
</svg>
