<svg width="156" height="43" viewBox="0 0 156 43" fill="none" xmlns="http://www.w3.org/2000/svg">
<g clip-path="url(#clip0_2501_24638)">
<path fill-rule="evenodd" clip-rule="evenodd" d="M30.2546 25.4887C30.3552 25.3079 30.2733 25.0799 30.0806 25.0045L13.488 18.5114L19.8768 35.3479C19.9535 35.5501 20.1964 35.631 20.3791 35.5151L23.6285 33.4537C23.939 33.2568 24.3407 33.2807 24.6256 33.5131L28.7244 36.8564C29.0011 37.0821 29.405 37.0566 29.6512 36.7978L31.972 34.3575C32.2079 34.1095 32.2238 33.7252 32.0093 33.4585L28.71 29.3583C28.4921 29.0874 28.4601 28.7114 28.6293 28.4076L30.2546 25.4887Z" fill="#393935"/>
<path fill-rule="evenodd" clip-rule="evenodd" d="M15.568 8.93592L2.9082 30.8633L13.4957 36.976C15.4282 38.0917 19.8289 34.0877 23.3248 28.0326C26.8207 21.9774 28.088 16.1644 26.1554 15.0486L15.568 8.93592Z" fill="#D77100"/>
<path d="M3.82821 16.9623C3.8517 16.8366 3.91834 16.7297 4.02026 16.6525C4.93198 15.9619 9.64984 12.3712 13.263 9.29756C16.3186 6.69816 20.3625 2.5166 22.1227 0.664273C22.442 0.328266 23.0055 0.551549 23.0024 1.01507C22.984 3.78565 22.8601 10.3933 22.1233 14.413C21.2642 19.0996 19.8698 24.6422 19.6087 25.6683C19.5808 25.7779 19.5201 25.8717 19.431 25.9413C18.5111 26.661 13.0843 30.9172 9.41828 34.0358C6.48294 36.5329 3.14093 39.9878 1.55413 41.6672C1.22895 42.0114 0.649763 41.7749 0.667144 41.3018C0.771585 38.4584 1.08264 31.8246 1.81454 27.8318C2.66419 23.1967 3.63185 18.0132 3.82821 16.9623Z" fill="url(#paint0_linear_2501_24638)"/>
<path d="M13.0084 18.8435L19.2581 35.8386L16.9763 24.6338L17.7104 25.1346L18.4003 23.8129C18.4249 23.7658 18.4761 23.7388 18.5289 23.745L30.3402 25.1346L13.4553 18.4083C13.1808 18.299 12.9064 18.5662 13.0084 18.8435Z" fill="url(#paint1_linear_2501_24638)"/>
</g>
<path d="M50.7372 29.0547V12.9766H58.2709C60.2003 12.9766 61.6703 13.3594 62.6809 14.125C63.6916 14.8753 64.1969 15.8859 64.1969 17.1569C64.1969 18.0144 63.9978 18.7494 63.5997 19.3619C63.2016 19.9591 62.6656 20.4261 61.9919 20.763C61.3334 21.0845 60.6138 21.2453 59.8328 21.2453L60.2463 20.4184C61.1497 20.4184 61.9613 20.5869 62.6809 20.9237C63.4006 21.2453 63.9672 21.72 64.3806 22.3478C64.8094 22.9756 65.0238 23.7566 65.0238 24.6906C65.0238 26.0687 64.4955 27.1406 63.4389 27.9062C62.3823 28.6719 60.8128 29.0547 58.7303 29.0547H50.7372ZM53.7231 26.7119H58.5466C59.6644 26.7119 60.5219 26.5281 61.1191 26.1606C61.7163 25.7931 62.0148 25.2036 62.0148 24.392C62.0148 23.5958 61.7163 23.0139 61.1191 22.6464C60.5219 22.2636 59.6644 22.0722 58.5466 22.0722H53.4934V19.7523H57.9494C58.9906 19.7523 59.7869 19.5686 60.3381 19.2011C60.9047 18.8336 61.188 18.2823 61.188 17.5473C61.188 16.797 60.9047 16.2381 60.3381 15.8706C59.7869 15.5031 58.9906 15.3194 57.9494 15.3194H53.7231V26.7119ZM71.8247 29.0547V22.6923L72.4907 24.5298L65.5082 12.9766H68.7009L74.3053 22.2789H72.5137L78.164 12.9766H81.104L74.1215 24.5298L74.8106 22.6923V29.0547H71.8247Z" fill="#393935"/>
<path d="M96.941 29.2844C95.6854 29.2844 94.5293 29.0777 93.4727 28.6642C92.4161 28.2508 91.4974 27.6766 90.7165 26.9416C89.9355 26.1912 89.3307 25.3184 88.9019 24.3231C88.4732 23.3125 88.2588 22.21 88.2588 21.0156C88.2588 19.8212 88.4732 18.7264 88.9019 17.7311C89.3307 16.7205 89.9355 15.8477 90.7165 15.1127C91.4974 14.3623 92.4161 13.7805 93.4727 13.367C94.5293 12.9536 95.6777 12.7469 96.918 12.7469C98.1736 12.7469 99.3221 12.9536 100.363 13.367C101.42 13.7805 102.339 14.3623 103.12 15.1127C103.901 15.8477 104.505 16.7205 104.934 17.7311C105.363 18.7264 105.577 19.8212 105.577 21.0156C105.577 22.21 105.363 23.3125 104.934 24.3231C104.505 25.3337 103.901 26.2066 103.12 26.9416C102.339 27.6766 101.42 28.2508 100.363 28.6642C99.3221 29.0777 98.1813 29.2844 96.941 29.2844ZM96.918 26.6659C97.7296 26.6659 98.4799 26.5281 99.169 26.2525C99.858 25.9769 100.455 25.5864 100.961 25.0811C101.466 24.5605 101.856 23.9633 102.132 23.2895C102.423 22.6005 102.568 21.8425 102.568 21.0156C102.568 20.1887 102.423 19.4384 102.132 18.7647C101.856 18.0756 101.466 17.4784 100.961 16.9731C100.455 16.4525 99.858 16.0544 99.169 15.7787C98.4799 15.5031 97.7296 15.3653 96.918 15.3653C96.1065 15.3653 95.3561 15.5031 94.6671 15.7787C93.9933 16.0544 93.3961 16.4525 92.8755 16.9731C92.3702 17.4784 91.9721 18.0756 91.6811 18.7647C91.4055 19.4384 91.2677 20.1887 91.2677 21.0156C91.2677 21.8272 91.4055 22.5775 91.6811 23.2666C91.9721 23.9556 92.3702 24.5605 92.8755 25.0811C93.3808 25.5864 93.978 25.9769 94.6671 26.2525C95.3561 26.5281 96.1065 26.6659 96.918 26.6659ZM111.407 25.2648L111.246 21.7277L119.675 12.9766H123.029L116.023 20.4184L114.37 22.233L111.407 25.2648ZM108.742 29.0547V12.9766H111.728V29.0547H108.742ZM119.951 29.0547L113.795 21.7277L115.771 19.5456L123.442 29.0547H119.951ZM132.165 29.2844C129.96 29.2844 128.229 28.6642 126.974 27.4239C125.733 26.1836 125.113 24.392 125.113 22.0492V12.9766H128.099V21.9344C128.099 23.5881 128.451 24.7902 129.156 25.5405C129.875 26.2908 130.886 26.6659 132.188 26.6659C133.489 26.6659 134.492 26.2908 135.197 25.5405C135.901 24.7902 136.253 23.5881 136.253 21.9344V12.9766H139.193V22.0492C139.193 24.392 138.565 26.1836 137.31 27.4239C136.069 28.6642 134.354 29.2844 132.165 29.2844ZM143.375 29.0547V12.9766H146.361V26.5281H154.767V29.0547H143.375Z" fill="#FFA114"/>
<defs>
<linearGradient id="paint0_linear_2501_24638" x1="3.93496" y1="16.6478" x2="19.6367" y2="25.7132" gradientUnits="userSpaceOnUse">
<stop stop-color="#FFAB2E"/>
<stop offset="1" stop-color="#FF9900"/>
</linearGradient>
<linearGradient id="paint1_linear_2501_24638" x1="12.8209" y1="18.0977" x2="18.071" y2="20.0454" gradientUnits="userSpaceOnUse">
<stop stop-color="#CC6B00"/>
<stop offset="1" stop-color="#D77100" stop-opacity="0"/>
</linearGradient>
<clipPath id="clip0_2501_24638">
<rect width="32.1562" height="42.1094" fill="white" transform="translate(0.421875)"/>
</clipPath>
</defs>
</svg>
