<svg width="17" height="20" viewBox="0 0 17 20" fill="none" xmlns="http://www.w3.org/2000/svg">
<path d="M2.43006 7.09266e-05C1.31011 7.09266e-05 0.398438 0.927625 0.398438 2.06623V17.9338C0.398438 19.0724 1.31011 19.9999 2.43006 19.9999H14.3642C15.4842 19.9999 16.3958 19.0724 16.3958 17.9338V4.88624C16.3958 4.88624 16.4278 4.50418 16.2647 4.1324C16.1117 3.78391 15.8625 3.54135 15.8625 3.54135C15.8619 3.54049 15.8613 3.53964 15.8607 3.53879L12.8998 0.586047C12.8981 0.584363 12.8965 0.582695 12.8948 0.581046C12.8948 0.581046 12.642 0.336311 12.2673 0.172821C11.8261 -0.0196803 11.3713 0.000640785 11.3713 0.000640785L11.378 0L2.43006 7.09266e-05Z" fill="#FF2116"/>
<path d="M2.43437 0.679688H11.3824C11.3846 0.679711 11.3869 0.679711 11.3891 0.679688C11.3891 0.679688 11.747 0.683213 12.0087 0.797396C12.2606 0.907294 12.4392 1.07365 12.4404 1.07477C12.4404 1.07477 12.4416 1.07605 12.4416 1.07605L15.3951 4.0219C15.3951 4.0219 15.5731 4.2129 15.6593 4.40946C15.7289 4.56812 15.7332 4.85839 15.7332 4.85839C15.7329 4.86318 15.7327 4.86797 15.7326 4.87278V17.9347C15.7326 18.7092 15.1303 19.3222 14.3685 19.3222H2.43437C1.67263 19.3222 1.07031 18.7092 1.07031 17.9347V2.06717C1.07031 1.29267 1.67263 0.679712 2.43437 0.679712V0.679688Z" fill="#F5F5F5"/>
<path d="M4.3935 11.9068C3.9342 11.4398 4.43113 10.7981 5.77973 10.1167L6.62829 9.68797L6.95887 8.95259C7.14069 8.54813 7.41206 7.88818 7.5619 7.48605L7.83436 6.75489L7.64661 6.21379C7.41575 5.54846 7.33343 4.54864 7.4799 4.18912C7.6783 3.70215 8.32816 3.75211 8.58544 4.27412C8.78637 4.68181 8.76583 5.42011 8.52765 6.35123L8.33238 7.11458L8.50438 7.41144C8.59898 7.57472 8.8753 7.9624 9.11843 8.27295L9.57539 8.85085L10.144 8.77541C11.9504 8.53576 12.5691 8.94306 12.5691 9.52706C12.5691 10.2641 11.1507 10.325 9.95959 9.47441C9.6916 9.28304 9.50755 9.09294 9.50755 9.09294C9.50755 9.09294 8.76138 9.24738 8.39399 9.34805C8.01477 9.45197 7.82558 9.51705 7.27009 9.70769C7.27009 9.70769 7.07518 9.99545 6.94818 10.2047C6.47567 10.983 5.92397 11.628 5.52996 11.8627C5.08882 12.1256 4.62635 12.1435 4.3935 11.9068ZM5.1143 11.645C5.37248 11.4827 5.89505 10.8544 6.25678 10.2711L6.40324 10.035L5.73638 10.3759C4.70642 10.9024 4.23523 11.3986 4.48025 11.6988C4.61789 11.8674 4.78254 11.8534 5.1143 11.645ZM11.8045 9.73571C12.057 9.55588 12.0203 9.1935 11.7348 9.04739C11.5127 8.93368 11.3336 8.91032 10.7564 8.91898C10.4017 8.94357 9.83137 9.01624 9.7347 9.03835C9.7347 9.03835 10.048 9.25851 10.1871 9.33943C10.3723 9.44697 10.8223 9.64657 11.1509 9.74882C11.475 9.84967 11.6624 9.83904 11.8045 9.73571V9.73571ZM9.11443 8.599C8.96161 8.43566 8.70174 8.09476 8.53695 7.84143C8.32143 7.55406 8.21335 7.35132 8.21335 7.35132C8.21335 7.35132 8.05583 7.86646 7.92659 8.17645L7.52339 9.18969L7.40649 9.41952C7.40649 9.41952 8.02797 9.21234 8.34417 9.12837C8.67908 9.03943 9.35878 8.90354 9.35878 8.90354L9.11443 8.599ZM8.24754 5.06449C8.28652 4.7319 8.30307 4.39981 8.19796 4.23234C7.90643 3.90832 7.55456 4.17852 7.61417 4.94886C7.63422 5.20801 7.69754 5.65102 7.7822 5.92406L7.93612 6.42051L8.04445 6.0466C8.10404 5.84095 8.19543 5.399 8.24754 5.06449Z" fill="#FF2116"/>
<path d="M5.17188 14.0703H5.91757C6.15583 14.0703 6.34924 14.0935 6.49779 14.1398C6.64634 14.1847 6.77136 14.2856 6.87284 14.4427C6.97433 14.5982 7.02507 14.7858 7.02507 15.0056C7.02507 15.2075 6.98389 15.381 6.90153 15.526C6.81916 15.6711 6.70812 15.7758 6.56839 15.8401C6.43014 15.9044 6.21687 15.9365 5.9286 15.9365H5.67047V17.132H5.17188V14.0703ZM5.67047 14.4628V15.5305H5.91757C6.13818 15.5305 6.29041 15.4886 6.37425 15.4049C6.45955 15.3212 6.50221 15.1851 6.50221 14.9967C6.50221 14.8561 6.47426 14.7425 6.41837 14.6557C6.36248 14.5675 6.30071 14.5137 6.23305 14.4942C6.16687 14.4733 6.0617 14.4628 5.91757 14.4628L5.67047 14.4628ZM7.40674 14.0703H8.08404C8.41203 14.0703 8.67383 14.1294 8.86944 14.2475C9.06653 14.3656 9.21508 14.5413 9.31509 14.7746C9.41658 15.0079 9.46732 15.2666 9.46732 15.5507C9.46732 15.8498 9.42173 16.1167 9.33054 16.3515C9.24082 16.5847 9.10256 16.7731 8.91577 16.9167C8.73045 17.0603 8.46571 17.132 8.12155 17.132H7.40674V14.0703ZM7.90534 14.4763V16.726H8.11272C8.40247 16.726 8.61279 16.6244 8.74369 16.421C8.87459 16.2161 8.94004 15.9432 8.94004 15.6023C8.94004 14.8516 8.66427 14.4763 8.11272 14.4763H7.90534ZM9.94606 14.0703H11.6184V14.4763H10.4447V15.3915H11.3845V15.7974H10.4447V17.132H9.94606V14.0703Z" fill="#2C2C2C"/>
</svg>
