<svg width="16" height="17" viewBox="0 0 16 17" fill="none" xmlns="http://www.w3.org/2000/svg">
<path d="M11.4321 1.07737C10.8068 0.452058 9.74766 0.656031 9.39931 1.46886L7.63992 5.5741C6.19444 5.14582 4.56525 5.50186 3.42364 6.64348L2.0671 8.00002C1.7742 8.29291 1.7742 8.76779 2.0671 9.06068L4.20887 11.2024L0.46967 14.9416C0.176777 15.2345 0.176777 15.7094 0.46967 16.0023C0.762563 16.2952 1.23744 16.2952 1.53033 16.0023L5.26953 12.2631L7.41135 14.4049C7.70424 14.6978 8.17912 14.6978 8.47201 14.4049L9.82855 13.0484C10.9702 11.9068 11.3262 10.2776 10.8979 8.83209L15.0032 7.07271C15.816 6.72435 16.02 5.66521 15.3946 5.03989L11.4321 1.07737Z" fill="#FF7B1C"/>
</svg>
