<svg width="18" height="18" viewBox="0 0 18 18" fill="none" xmlns="http://www.w3.org/2000/svg">
<path d="M15.75 7.12463C15.8485 7.12466 15.946 7.10528 16.037 7.06759C16.1281 7.02991 16.2107 6.97467 16.2804 6.90502C16.35 6.83537 16.4053 6.75268 16.443 6.66167C16.4806 6.57067 16.5 6.47313 16.5 6.37463V4.12463C16.5001 3.96726 16.4506 3.81387 16.3585 3.68622C16.2665 3.55856 16.1366 3.46313 15.9873 3.41345L9.23731 1.16345C9.08326 1.11218 8.91674 1.11218 8.76269 1.16345L2.01269 3.41345C1.86337 3.46313 1.73348 3.55856 1.64145 3.68622C1.54943 3.81387 1.49994 3.96726 1.5 4.12463V6.37463C1.49997 6.47313 1.51936 6.57067 1.55704 6.66167C1.59472 6.75268 1.64996 6.83537 1.71961 6.90502C1.78926 6.97467 1.87195 7.02991 1.96296 7.06759C2.05396 7.10528 2.1515 7.12466 2.25 7.12463H3V12.5128C2.56255 12.6669 2.18352 12.9526 1.91495 13.3307C1.64638 13.7089 1.50143 14.1608 1.5 14.6246V16.1246C1.49997 16.2231 1.51936 16.3207 1.55704 16.4117C1.59472 16.5027 1.64996 16.5854 1.71961 16.655C1.78926 16.7247 1.87195 16.7799 1.96296 16.8176C2.05396 16.8553 2.1515 16.8747 2.25 16.8746H15.75C15.8485 16.8747 15.946 16.8553 16.037 16.8176C16.1281 16.7799 16.2107 16.7247 16.2804 16.655C16.35 16.5854 16.4053 16.5027 16.443 16.4117C16.4806 16.3207 16.5 16.2231 16.5 16.1246V14.6246C16.4986 14.1608 16.3536 13.7089 16.0851 13.3307C15.8165 12.9526 15.4374 12.6669 15 12.5128V7.12463H15.75ZM15 15.3746H3V14.6246C3.0002 14.4258 3.07928 14.2351 3.21989 14.0945C3.3605 13.9539 3.55115 13.8748 3.75 13.8746H14.25C14.4489 13.8748 14.6395 13.9539 14.7801 14.0945C14.9207 14.2351 14.9998 14.4258 15 14.6246V15.3746ZM4.5 12.3746V7.12463H6V12.3746H4.5ZM7.5 12.3746V7.12463H10.5V12.3746H7.5ZM12 12.3746V7.12463H13.5V12.3746H12ZM3 5.62463V4.66516L9 2.66491L15 4.66516V5.62463H3Z" fill="#7C8DA7"/>
</svg>
