<svg width="14" height="14" viewBox="0 0 14 14" fill="none" xmlns="http://www.w3.org/2000/svg">
<path d="M13.2889 0.72002C12.9555 0.377763 12.4619 0.250256 12.0018 0.384474L1.2707 3.50505C0.785164 3.63994 0.441023 4.02716 0.348318 4.51907C0.253613 5.0197 0.584415 5.65522 1.01659 5.92097L4.37196 7.98324C4.71611 8.19463 5.16029 8.14161 5.44507 7.85439L9.28731 3.98823C9.48072 3.78691 9.80085 3.78691 9.99427 3.98823C10.1877 4.18285 10.1877 4.49826 9.99427 4.69959L6.14536 8.56641C5.85991 8.85297 5.80655 9.29925 6.01664 9.64553L8.06681 13.0345C8.30691 13.4372 8.72041 13.6654 9.17393 13.6654C9.22729 13.6654 9.28731 13.6654 9.34066 13.6587C9.86088 13.5915 10.2744 13.2359 10.4278 12.7325L13.6091 2.01523C13.7491 1.55888 13.6224 1.06228 13.2889 0.72002Z" fill="white"/>
</svg>
