<svg width="15" height="16" viewBox="0 0 15 16" fill="none" xmlns="http://www.w3.org/2000/svg">
<path fill-rule="evenodd" clip-rule="evenodd" d="M14.1334 9.24757C14.4158 9.39757 14.6337 9.63442 14.7869 9.87126C15.0855 10.3607 15.0613 10.9607 14.7708 11.4897L14.206 12.437C13.9075 12.9423 13.3508 13.2581 12.778 13.2581C12.4956 13.2581 12.181 13.1792 11.9228 13.0213C11.713 12.887 11.471 12.8397 11.2128 12.8397C10.414 12.8397 9.74439 13.4949 9.72019 14.2765C9.72019 15.1844 8.97793 15.8949 8.0501 15.8949H6.95284C6.01694 15.8949 5.27467 15.1844 5.27467 14.2765C5.25854 13.4949 4.58889 12.8397 3.79015 12.8397C3.5239 12.8397 3.28186 12.887 3.08015 13.0213C2.82198 13.1792 2.49925 13.2581 2.22494 13.2581C1.64404 13.2581 1.08734 12.9423 0.788819 12.437L0.232121 11.4897C-0.0663982 10.9765 -0.0825344 10.3607 0.215985 9.87126C0.345074 9.63442 0.587117 9.39757 0.861432 9.24757C1.08734 9.13705 1.23256 8.95547 1.36972 8.74231C1.77313 8.06336 1.53108 7.17126 0.845295 6.76863C0.046555 6.31863 -0.211624 5.31599 0.248257 4.53442L0.788819 3.60284C1.25677 2.82126 2.25721 2.54494 3.06402 3.00284C3.76594 3.38178 4.67764 3.12915 5.08911 2.4581C5.2182 2.23705 5.29081 2.00021 5.27467 1.76336C5.25854 1.45547 5.34729 1.16336 5.50058 0.926521C5.7991 0.437048 6.33966 0.121258 6.92863 0.105469H8.06623C8.66327 0.105469 9.20383 0.437048 9.50235 0.926521C9.64758 1.16336 9.74439 1.45547 9.72019 1.76336C9.70405 2.00021 9.77667 2.23705 9.90576 2.4581C10.3172 3.12915 11.2289 3.38178 11.9389 3.00284C12.7377 2.54494 13.7462 2.82126 14.206 3.60284L14.7466 4.53442C15.2146 5.31599 14.9564 6.31863 14.1496 6.76863C13.4638 7.17126 13.2217 8.06336 13.6332 8.74231C13.7623 8.95547 13.9075 9.13705 14.1334 9.24757ZM5.21793 8.00785C5.21793 9.24733 6.24257 10.2342 7.50926 10.2342C8.77595 10.2342 9.7764 9.24733 9.7764 8.00785C9.7764 6.76838 8.77595 5.77364 7.50926 5.77364C6.24257 5.77364 5.21793 6.76838 5.21793 8.00785Z" fill="#313131"/>
</svg>
