<svg width="15" height="15" viewBox="0 0 15 15" fill="none" xmlns="http://www.w3.org/2000/svg">
<path fill-rule="evenodd" clip-rule="evenodd" d="M9.15782 4.32181C9.15782 6.30463 7.53526 7.89362 5.51055 7.89362C3.48657 7.89362 1.86328 6.30463 1.86328 4.32181C1.86328 2.33899 3.48657 0.75 5.51055 0.75C7.53526 0.75 9.15782 2.33899 9.15782 4.32181ZM0 11.9393C0 10.1038 2.53914 9.64453 5.512 9.64453C8.501 9.64453 11.024 10.1196 11.024 11.9565C11.024 13.792 8.48485 14.2512 5.512 14.2512C2.523 14.2512 0 13.7762 0 11.9393ZM10.6281 4.38765C10.6281 5.39738 10.3184 6.33956 9.77539 7.1222C9.71888 7.20269 9.76878 7.31121 9.86712 7.32846C10.0036 7.35074 10.1438 7.36439 10.2869 7.36727C11.7106 7.40392 12.9882 6.5063 13.3412 5.15447C13.8644 3.14865 12.3292 1.34766 10.3735 1.34766C10.1614 1.34766 9.95812 1.36922 9.75998 1.40874C9.73283 1.41449 9.70347 1.42743 9.68879 1.45043C9.66971 1.47989 9.68366 1.51798 9.70274 1.54314C10.2906 2.35021 10.6281 3.33263 10.6281 4.38765ZM12.9875 8.77848C13.9444 8.96174 14.5733 9.33473 14.8338 9.87877C15.0547 10.3243 15.0547 10.8418 14.8338 11.2874C14.4354 12.1297 13.1496 12.4006 12.6499 12.4703C12.5464 12.4847 12.4635 12.3984 12.4745 12.2964C12.7299 9.96214 10.6993 8.85538 10.1739 8.60097C10.1518 8.58875 10.1467 8.5715 10.1489 8.56C10.1504 8.55282 10.1599 8.54132 10.1768 8.53916C11.3135 8.5176 12.5361 8.67068 12.9875 8.77848Z" fill="#230B34"/>
</svg>
