<svg width="18" height="18" viewBox="0 0 18 18" fill="none" xmlns="http://www.w3.org/2000/svg">
<path d="M15.1351 7.6425C14.5956 7.54489 14.0483 7.49718 13.5001 7.5C13.1851 7.5 12.8776 7.5 12.5701 7.56C12.1873 7.04916 11.6986 6.62703 11.1376 6.3225C11.6195 5.79619 11.8871 5.10861 11.8876 4.395C11.8876 3.6272 11.5826 2.89084 11.0397 2.34793C10.4968 1.80501 9.7604 1.5 8.9926 1.5C8.2248 1.5 7.48844 1.80501 6.94553 2.34793C6.40261 2.89084 6.0976 3.6272 6.0976 4.395C6.09815 5.10861 6.36569 5.79619 6.8476 6.3225C6.2899 6.62862 5.80204 7.04751 5.4151 7.5525C5.1226 7.5 4.8151 7.5 4.5001 7.5C3.95142 7.50213 3.4041 7.55485 2.8651 7.6575C2.69038 7.68945 2.53267 7.78237 2.42005 7.91971C2.30743 8.05705 2.2472 8.22991 2.2501 8.4075V14.595C2.24992 14.7052 2.27402 14.8141 2.32069 14.9139C2.36735 15.0137 2.43544 15.102 2.5201 15.1725C2.60423 15.2434 2.70294 15.295 2.80922 15.3235C2.9155 15.352 3.02676 15.3568 3.1351 15.3375C3.58391 15.2398 4.04093 15.1845 4.5001 15.1725C5.95292 15.1709 7.37422 15.596 8.5876 16.395V16.395L8.6851 16.4325C8.78458 16.4757 8.89166 16.4986 9.0001 16.5C9.07168 16.4991 9.14263 16.4864 9.2101 16.4625H9.2626L9.3601 16.425C10.585 15.6055 12.0263 15.1694 13.5001 15.1725C13.9583 15.1746 14.4153 15.2198 14.8651 15.3075C14.9734 15.3268 15.0847 15.322 15.191 15.2935C15.2973 15.265 15.396 15.2134 15.4801 15.1425C15.5648 15.072 15.6328 14.9837 15.6795 14.8839C15.7262 14.7841 15.7503 14.6752 15.7501 14.565V8.3775C15.7495 8.20248 15.6876 8.03319 15.5753 7.89896C15.463 7.76473 15.3073 7.674 15.1351 7.6425V7.6425ZM9.0001 3C9.35144 3.02581 9.68 3.1836 9.9198 3.44166C10.1596 3.69973 10.2929 4.03897 10.2929 4.39125C10.2929 4.74353 10.1596 5.08277 9.9198 5.34084C9.68 5.5989 9.35144 5.75669 9.0001 5.7825V5.7825C8.64876 5.75669 8.3202 5.5989 8.0804 5.34084C7.8406 5.08277 7.70732 4.74353 7.70732 4.39125C7.70732 4.03897 7.8406 3.69973 8.0804 3.44166C8.3202 3.1836 8.64876 3.02581 9.0001 3V3ZM8.2501 14.4975C7.07461 13.9541 5.7951 13.6727 4.5001 13.6725C4.2526 13.6725 4.0051 13.6725 3.7501 13.71V9C4.37902 8.92964 5.01446 8.94225 5.6401 9.0375H5.7226C6.6163 9.20175 7.47271 9.52703 8.2501 9.9975V14.4975ZM9.0001 8.7C8.66659 8.50761 8.32085 8.33725 7.9651 8.19H7.9201C7.6726 8.0925 7.4251 7.995 7.1701 7.92C7.69083 7.50553 8.33461 7.27599 9.0001 7.2675V7.2675C9.66383 7.27171 10.3074 7.49591 10.8301 7.905C10.1934 8.10377 9.5799 8.3703 9.0001 8.7V8.7ZM14.2501 13.71C12.7101 13.5553 11.1567 13.8142 9.7501 14.46V9.96C10.5289 9.5016 11.3858 9.19137 12.2776 9.045H12.4276C13.0306 8.9511 13.6432 8.93597 14.2501 9V13.71Z" fill="#7C8DA7"/>
</svg>
