<svg width="24" height="24" viewBox="0 0 24 24" fill="none" xmlns="http://www.w3.org/2000/svg">
<path d="M5.46967 11.4697C5.17678 11.7626 5.17678 12.2374 5.46967 12.5303L10.2426 17.3033C10.5355 17.5962 11.0104 17.5962 11.3033 17.3033C11.5962 17.0104 11.5962 16.5355 11.3033 16.2426L7.06066 12L11.3033 7.75736C11.5962 7.46447 11.5962 6.98959 11.3033 6.6967C11.0104 6.40381 10.5355 6.40381 10.2426 6.6967L5.46967 11.4697ZM18 12.75C18.4142 12.75 18.75 12.4142 18.75 12C18.75 11.5858 18.4142 11.25 18 11.25V12.75ZM6 12.75H18V11.25H6V12.75Z" fill="#313131"/>
</svg>
