<svg width="18" height="16" viewBox="0 0 18 16" fill="none" xmlns="http://www.w3.org/2000/svg">
<path d="M15.6641 3.82196H13.1641V2.24301C13.1641 1.37222 12.4166 0.664062 11.4974 0.664062H6.4974C5.57823 0.664062 4.83073 1.37222 4.83073 2.24301V3.82196H2.33073C1.41156 3.82196 0.664062 4.53012 0.664062 5.4009V8.5588H4.83073V6.97985H6.4974V8.5588H11.4974V6.97985H13.1641V8.5588H17.3307V5.4009C17.3307 4.53012 16.5832 3.82196 15.6641 3.82196ZM6.4974 2.24301H11.4974V3.82196H6.4974V2.24301ZM13.1641 10.9272H11.4974V9.34827H6.4974V10.9272H4.83073V9.34827H0.664062V14.0851C0.664062 14.9559 1.41156 15.6641 2.33073 15.6641H15.6641C16.5832 15.6641 17.3307 14.9559 17.3307 14.0851V9.34827H13.1641V10.9272Z" fill="#313131"/>
</svg>
