<svg width="16" height="16" viewBox="0 0 16 16" fill="none" xmlns="http://www.w3.org/2000/svg">
<path d="M14.1641 0.664062H4.41406C2.34631 0.664062 0.664062 2.34631 0.664062 4.41406V11.9141C0.664062 13.9818 2.34631 15.6641 4.41406 15.6641H13.4141C14.6546 15.6641 15.6641 14.6546 15.6641 13.4141C15.6641 12.1736 14.6546 11.1641 13.4141 11.1641H3.66406V12.6641H13.4141C13.8281 12.6641 14.1641 13.0001 14.1641 13.4141C14.1641 13.8281 13.8281 14.1641 13.4141 14.1641H4.41406C3.17356 14.1641 2.16406 13.1546 2.16406 11.9141C2.16406 10.6736 3.17356 9.66406 4.41406 9.66406H14.1641C14.9913 9.66406 15.6641 8.99131 15.6641 8.16406V2.16406C15.6641 1.33681 14.9913 0.664062 14.1641 0.664062ZM2.16406 8.91406H2.16631C2.16556 8.91481 2.16481 8.91481 2.16406 8.91556V8.91406Z" fill="#313131"/>
</svg>
