<svg width="249" height="178" viewBox="0 0 249 178" fill="none" xmlns="http://www.w3.org/2000/svg">
<path d="M13.1794 8.55078C12.9763 8.55078 12.7697 8.53992 12.5595 8.51824C10.812 8.32307 9.6143 7.09423 9.10651 6.56655C8.93141 6.38945 8.74935 6.16536 8.55324 5.92683C7.68124 4.84617 6.69014 3.62457 4.83058 4.45946C4.73953 4.50283 4.1407 4.9329 4.16171 5.59431C4.17572 6.08223 4.52595 6.64967 5.06525 6.72196C5.48549 6.77617 5.9162 6.53042 6.14383 6.11117C6.24189 5.92685 6.46953 5.85815 6.64813 5.96297C6.82674 6.06417 6.88976 6.29911 6.7917 6.48343C6.41699 7.17375 5.68157 7.57853 4.97066 7.48095C4.03212 7.35445 3.44381 6.43645 3.4228 5.61601C3.39128 4.61487 4.17219 3.92092 4.5364 3.75828C6.90375 2.6957 8.24152 4.3438 9.12402 5.4353C9.30262 5.65577 9.46723 5.86178 9.62832 6.02442C10.1221 6.53402 11.1482 7.58939 12.64 7.75565C13.9218 7.90022 14.9934 7.53879 15.6623 6.73643C16.5378 5.69191 16.4748 4.30765 16.1561 3.44024C15.7463 2.33428 14.6817 1.26085 13.3895 1.2717C12.7136 1.28977 11.5894 1.66564 11.2778 2.6198C11.0221 3.40047 11.4459 4.10526 11.4634 4.13418C11.8276 4.73053 12.5 5.05942 13.2354 4.99436C13.442 4.9799 13.6206 5.13169 13.6381 5.34131C13.6556 5.55094 13.5051 5.73888 13.2985 5.75695C12.3004 5.85092 11.3513 5.38108 10.8365 4.54258C10.7735 4.43777 10.2166 3.47998 10.5774 2.37764C10.9801 1.13434 12.3074 0.537999 13.3685 0.505471C15.074 0.440415 16.3627 1.84997 16.8459 3.16917C17.3642 4.57149 17.1191 6.16537 16.2261 7.23519C15.5047 8.09537 14.4401 8.55078 13.1794 8.55078Z" fill="#FF811C"/>
<path d="M21.226 8.55078C19.9618 8.55078 18.8972 8.09537 18.1793 7.23519C17.2828 6.16537 17.0412 4.57149 17.556 3.16917C18.0393 1.84997 19.342 0.436801 21.0334 0.505471C22.0945 0.537999 23.4218 1.13434 23.8281 2.37764C24.1958 3.50528 23.5899 4.50281 23.5654 4.54618C23.0506 5.38107 22.1015 5.84369 21.1035 5.75695C20.9004 5.73888 20.7463 5.55094 20.7638 5.34131C20.7813 5.13169 20.9564 4.97629 21.1665 4.99436C21.8984 5.06303 22.5743 4.73053 22.9385 4.13418C22.9455 4.12695 23.3798 3.40409 23.1242 2.6198C22.8125 1.66564 21.6918 1.28977 21.0124 1.2717C19.7447 1.25724 18.6556 2.33428 18.2458 3.44024C17.9272 4.30765 17.8641 5.69191 18.7396 6.73643C19.4085 7.53879 20.4801 7.90022 21.7619 7.75565C23.2537 7.58939 24.2798 6.53402 24.7736 6.02442C24.9347 5.86178 25.0993 5.65577 25.2779 5.4353C26.1639 4.3438 27.4982 2.6957 29.8655 3.75828C30.2297 3.92092 31.0107 4.61487 30.9827 5.61601C30.9582 6.43645 30.3698 7.35445 29.4313 7.48095C28.7169 7.5713 27.9849 7.17375 27.6102 6.48343C27.5122 6.29911 27.5752 6.06417 27.7538 5.96297C27.9359 5.85815 28.16 5.92685 28.2581 6.11117C28.4857 6.53404 28.9235 6.77617 29.3367 6.72196C29.876 6.64967 30.2262 6.08223 30.2402 5.59431C30.2612 4.9329 29.6624 4.50283 29.5713 4.45946C27.7118 3.62457 26.7207 4.84617 25.8487 5.92683C25.6526 6.16536 25.4705 6.38945 25.2989 6.56655C24.7876 7.09423 23.5934 8.32307 21.8424 8.51824C21.6323 8.53992 21.4257 8.55078 21.226 8.55078Z" fill="#FF811C"/>
<path d="M47.7565 8.55469C46.1035 8.55469 44.8463 7.18489 44.37 5.89099C43.8517 4.48867 44.0969 2.89119 44.9934 1.82137C45.8269 0.823845 47.1261 0.368438 48.6565 0.541921C50.4075 0.73709 51.6017 1.96593 52.113 2.49361C52.2846 2.67071 52.4667 2.89479 52.6628 3.13333C53.5348 4.21038 54.5259 5.43199 56.3854 4.5971C56.4765 4.55734 57.0753 4.12364 57.0543 3.46585C57.0403 2.97793 56.6901 2.40689 56.1508 2.3346C55.734 2.28039 55.2998 2.52616 55.0722 2.94902C54.9741 3.13335 54.75 3.19839 54.5679 3.09719C54.3893 2.99599 54.3263 2.76105 54.4243 2.57673C54.799 1.88641 55.531 1.48524 56.2454 1.57921C57.1839 1.7021 57.7722 2.62373 57.7967 3.44054C57.8247 4.44169 57.0438 5.13564 56.6796 5.29828C54.3122 6.36086 52.9779 4.71274 52.0919 3.62486C51.9133 3.40439 51.7488 3.1984 51.5877 3.03214C51.0939 2.52615 50.0678 1.46716 48.576 1.30091C47.2942 1.15634 46.2226 1.52139 45.5537 2.32013C44.6782 3.36465 44.7413 4.74889 45.0599 5.61992C45.4697 6.72588 46.5343 7.81738 47.8265 7.78846C48.5059 7.76678 49.6265 7.39092 49.9382 6.43676C50.1938 5.65609 49.7596 4.92961 49.7526 4.92238C49.3884 4.32965 48.7091 3.99713 47.9806 4.0658C47.7705 4.08026 47.5954 3.92484 47.5779 3.71521C47.5604 3.50559 47.711 3.32128 47.9176 3.30321C48.9191 3.21285 49.8682 3.67548 50.3795 4.51398C50.4425 4.61879 51.0029 5.57656 50.6422 6.68252C50.2359 7.9222 48.9086 8.52217 47.8475 8.55109C47.816 8.5547 47.788 8.55469 47.7565 8.55469Z" fill="#FF811C"/>
<path d="M40.2799 8.55469C40.2484 8.55469 40.2203 8.5547 40.1888 8.55109C39.1277 8.52217 37.8005 7.9222 37.3942 6.68252C37.037 5.58379 37.5904 4.62241 37.6569 4.51398C38.1682 3.67548 39.1102 3.20924 40.1188 3.30321C40.3254 3.32128 40.476 3.50559 40.4585 3.71521C40.441 3.92484 40.2589 4.07664 40.0558 4.0658C39.3203 3.99352 38.648 4.32965 38.2838 4.92238C38.2663 4.95129 37.8425 5.6597 38.0981 6.43676C38.4098 7.39092 39.534 7.76678 40.2099 7.78846C41.4776 7.81376 42.5667 6.72588 42.9764 5.61992C43.2951 4.74889 43.3581 3.36465 42.4826 2.32013C41.8137 1.52139 40.7457 1.15996 39.4604 1.30091C37.9686 1.46716 36.9425 2.52615 36.4487 3.03214C36.2876 3.1984 36.123 3.40439 35.9444 3.62486C35.0584 4.71636 33.7241 6.36086 31.3568 5.29828C30.9961 5.13564 30.2116 4.4453 30.2431 3.44054C30.2641 2.62373 30.8525 1.7021 31.791 1.57921C32.5124 1.48163 33.2374 1.88279 33.6121 2.57673C33.7101 2.76105 33.6471 2.99599 33.4685 3.09719C33.2899 3.19839 33.0623 3.13335 32.9642 2.94902C32.7366 2.52616 32.2988 2.28039 31.8856 2.3346C31.3463 2.40689 30.9961 2.97793 30.9821 3.46585C30.9611 4.12364 31.5599 4.55734 31.651 4.5971C33.507 5.43199 34.5015 4.21038 35.3735 3.13333C35.5697 2.89479 35.7518 2.67071 35.9234 2.49361C36.4347 1.96593 37.6288 0.73709 39.3799 0.541921C40.9102 0.368438 42.2095 0.823845 43.0429 1.82137C43.9394 2.89119 44.1846 4.48867 43.6663 5.89099C43.19 7.18489 41.9329 8.55469 40.2799 8.55469Z" fill="#FF811C"/>
<path d="M66.812 8.55078C66.6124 8.55078 66.4058 8.53992 66.1956 8.51824C64.4446 8.32307 63.2504 7.09062 62.7391 6.56655C62.5675 6.38945 62.3855 6.16536 62.1893 5.92683C61.3173 4.84617 60.3298 3.62457 58.4667 4.45946C58.3756 4.50283 57.7768 4.9329 57.7978 5.59431C57.8118 6.08223 58.1621 6.64967 58.7014 6.72196C59.1181 6.77617 59.5523 6.53404 59.7799 6.11117C59.878 5.92685 60.1056 5.85815 60.2842 5.96297C60.4628 6.06417 60.5259 6.29908 60.4278 6.4798C60.0531 7.17373 59.3212 7.57492 58.6068 7.48095C57.6682 7.35445 57.0799 6.43645 57.0554 5.61602C57.0274 4.61487 57.8119 3.92092 58.1726 3.75828C60.5399 2.6957 61.8742 4.3438 62.7602 5.4353C62.9388 5.65577 63.1033 5.86178 63.2644 6.02442C63.7582 6.53402 64.7843 7.58939 66.2762 7.75565C67.5579 7.90022 68.6295 7.53879 69.2984 6.73643C70.1739 5.69191 70.1109 4.30765 69.7922 3.44024C69.3824 2.33428 68.3108 1.26085 67.0256 1.2717C66.3497 1.28977 65.2256 1.66564 64.9139 2.6198C64.6583 3.40048 65.082 4.10526 65.0995 4.13418C65.4637 4.73053 66.1396 5.05942 66.8715 4.99436C67.0816 4.9799 67.2567 5.13169 67.2742 5.34131C67.2917 5.55094 67.1412 5.73888 66.9346 5.75695C65.9295 5.85092 64.9839 5.38108 64.4726 4.54258C64.4061 4.43777 63.8528 3.47998 64.21 2.37764C64.6162 1.13434 65.9435 0.538 67.0046 0.505472C68.7206 0.454873 69.9988 1.85359 70.4821 3.16917C70.9969 4.57149 70.7552 6.16537 69.8587 7.23519C69.1408 8.09537 68.0762 8.55078 66.812 8.55078Z" fill="#FF811C"/>
<path d="M74.8605 8.55078C73.5962 8.55078 72.5316 8.09537 71.8137 7.23519C70.9172 6.16537 70.672 4.57149 71.1903 3.16917C71.6736 1.84997 72.9834 0.44403 74.6678 0.505471C75.7289 0.537999 77.0562 1.13434 77.4624 2.37764C77.8231 3.47998 77.2663 4.43777 77.1997 4.54258C76.6885 5.38108 75.7465 5.85092 74.7379 5.75695C74.5313 5.73888 74.3806 5.55094 74.3981 5.34131C74.4157 5.13169 74.5873 4.97629 74.8009 4.99436C75.5293 5.05942 76.2087 4.73053 76.5729 4.13418C76.5904 4.10526 77.0142 3.40047 76.7585 2.6198C76.4468 1.66564 75.3262 1.28977 74.6468 1.2717C73.358 1.25001 72.2864 2.33428 71.8802 3.44024C71.5615 4.30765 71.4985 5.69191 72.374 6.73643C73.0429 7.53879 74.1145 7.90022 75.3962 7.75565C76.8881 7.58939 77.9142 6.53401 78.4079 6.02802C78.569 5.86176 78.7336 5.65577 78.9122 5.4353C79.7982 4.3438 81.1325 2.6957 83.4999 3.75828C83.8641 3.92092 84.645 4.61487 84.617 5.61601C84.5925 6.43645 84.0041 7.35445 83.0656 7.48095C82.3477 7.5713 81.6193 7.17375 81.2446 6.48343C81.1465 6.29911 81.2095 6.06417 81.3881 5.96297C81.5702 5.85815 81.7944 5.92685 81.8924 6.11117C82.1201 6.53404 82.5543 6.77617 82.9711 6.72196C83.5104 6.64967 83.8605 6.08223 83.8746 5.59431C83.8956 4.9329 83.2967 4.50283 83.2057 4.45946C81.3461 3.62457 80.3551 4.84617 79.4831 5.92683C79.287 6.16536 79.1048 6.38945 78.9332 6.56655C78.4219 7.09423 77.2278 8.32307 75.4768 8.51824C75.2667 8.53992 75.0601 8.55078 74.8605 8.55078Z" fill="#FF811C"/>
<path d="M101.401 8.55469C99.7441 8.55469 98.4834 7.18489 98.0107 5.89099C97.4924 4.48867 97.7375 2.89119 98.634 1.82137C99.4675 0.823845 100.767 0.368438 102.297 0.541921C104.048 0.73709 105.242 1.96593 105.754 2.49361C105.925 2.67071 106.107 2.89479 106.303 3.13333C107.175 4.21038 108.166 5.43199 110.026 4.5971C110.117 4.55734 110.716 4.12364 110.695 3.46585C110.681 2.97793 110.331 2.40689 109.791 2.3346C109.378 2.28039 108.94 2.52616 108.713 2.94902C108.615 3.13335 108.387 3.19839 108.208 3.09719C108.03 2.99599 107.967 2.76105 108.065 2.57673C108.44 1.88641 109.172 1.48524 109.886 1.57921C110.824 1.7021 111.413 2.62373 111.437 3.44054C111.465 4.44169 110.684 5.13564 110.32 5.29828C107.953 6.36086 106.619 4.71636 105.733 3.62486C105.554 3.40439 105.389 3.1984 105.228 3.03214C104.734 2.52615 103.708 1.46716 102.217 1.30091C100.938 1.15634 99.8632 1.52139 99.1943 2.32013C98.3188 3.36465 98.3818 4.74889 98.7005 5.61992C99.1103 6.72588 100.168 7.81738 101.467 7.78846C102.143 7.76678 103.267 7.39092 103.579 6.43676C103.834 5.6597 103.411 4.95129 103.393 4.92238C103.029 4.32965 102.35 3.99713 101.621 4.0658C101.415 4.08026 101.236 3.92484 101.218 3.71521C101.201 3.50559 101.352 3.32128 101.558 3.30321C102.56 3.21285 103.509 3.67548 104.02 4.51398C104.087 4.62241 104.64 5.58379 104.279 6.68252C103.877 7.9222 102.549 8.52217 101.488 8.55109C101.457 8.5547 101.429 8.55469 101.401 8.55469Z" fill="#FF811C"/>
<path d="M93.9125 8.55469C93.8845 8.55469 93.853 8.5547 93.825 8.55109C92.7639 8.52217 91.4366 7.9222 91.0304 6.68252C90.6732 5.58379 91.2265 4.62241 91.293 4.51398C91.8043 3.67548 92.7569 3.21285 93.7549 3.30321C93.9616 3.32128 94.1121 3.50559 94.0946 3.71521C94.0771 3.92484 93.8985 4.07664 93.6919 4.0658C92.9635 3.99713 92.2841 4.32965 91.9199 4.92238C91.9024 4.95129 91.4786 5.6597 91.7342 6.43676C92.0459 7.39092 93.1666 7.76678 93.846 7.78846C95.1417 7.81015 96.2028 6.72588 96.6126 5.61992C96.9312 4.74889 96.9943 3.36465 96.1188 2.32013C95.4499 1.52139 94.3783 1.15996 93.0965 1.30091C91.6012 1.46716 90.5786 2.52615 90.0848 3.03214C89.9237 3.1984 89.7591 3.40439 89.577 3.62486C88.6945 4.71636 87.3602 6.36086 84.9929 5.29828C84.6287 5.13564 83.8477 4.4453 83.8757 3.44054C83.9002 2.62373 84.4886 1.7021 85.4271 1.57921C86.1451 1.48163 86.8735 1.88279 87.2482 2.57673C87.3462 2.76105 87.2832 2.99599 87.1046 3.09719C86.9225 3.19839 86.6984 3.13335 86.6003 2.94902C86.3727 2.52616 85.9384 2.28039 85.5217 2.3346C84.9824 2.40689 84.6322 2.97793 84.6182 3.46585C84.5972 4.12364 85.196 4.55734 85.2871 4.5971C87.1431 5.43199 88.1377 4.21038 89.0097 3.13333C89.2058 2.89479 89.3879 2.67071 89.5595 2.49361C90.0708 1.96593 91.265 0.73709 93.016 0.541921C94.5463 0.368438 95.8456 0.823845 96.6791 1.82137C97.5756 2.89119 97.8172 4.48867 97.3024 5.89099C96.8262 7.18489 95.569 8.55469 93.9125 8.55469Z" fill="#FF811C"/>
<path d="M120.445 8.55078C120.245 8.55078 120.039 8.53992 119.828 8.51824C118.077 8.32307 116.883 7.09062 116.372 6.56655C116.2 6.38945 116.018 6.16536 115.822 5.92683C114.95 4.84617 113.959 3.62457 112.1 4.45946C112.009 4.50283 111.41 4.9329 111.431 5.59431C111.445 6.08223 111.795 6.64967 112.334 6.72196C112.754 6.77617 113.185 6.53042 113.413 6.11117C113.511 5.92685 113.738 5.85815 113.917 5.96297C114.096 6.06417 114.159 6.29911 114.061 6.48343C113.686 7.17375 112.954 7.57853 112.24 7.48095C111.301 7.35445 110.713 6.43645 110.688 5.61602C110.66 4.61487 111.441 3.92092 111.805 3.75828C114.173 2.6957 115.507 4.3438 116.393 5.4353C116.572 5.65577 116.736 5.86178 116.897 6.02442C117.391 6.53402 118.417 7.58939 119.909 7.75565C121.187 7.90022 122.262 7.53879 122.931 6.73643C123.803 5.69191 123.744 4.30765 123.425 3.44024C123.015 2.33428 121.958 1.26085 120.658 1.2717C119.979 1.28977 118.858 1.66564 118.547 2.6198C118.291 3.40048 118.711 4.10526 118.732 4.13418C119.097 4.73053 119.772 5.05942 120.504 4.99436C120.711 4.9799 120.89 5.13169 120.907 5.34131C120.925 5.55094 120.774 5.73888 120.567 5.75695C119.566 5.85092 118.617 5.38108 118.106 4.54258C118.039 4.43777 117.482 3.47998 117.843 2.37764C118.249 1.13434 119.576 0.538 120.637 0.505472C122.346 0.454873 123.632 1.85359 124.115 3.16917C124.63 4.57149 124.388 6.16537 123.492 7.23519C122.774 8.09537 121.709 8.55078 120.445 8.55078Z" fill="#FF811C"/>
<path d="M128.496 8.55078C127.235 8.55078 126.171 8.09537 125.449 7.23519C124.556 6.16537 124.315 4.57149 124.83 3.16917C125.313 1.84997 126.588 0.429572 128.307 0.505471C129.368 0.537999 130.695 1.13434 131.098 2.37764C131.462 3.47998 130.906 4.43777 130.839 4.54258C130.328 5.38108 129.379 5.84369 128.377 5.75695C128.17 5.73888 128.02 5.55094 128.037 5.34131C128.055 5.13169 128.24 4.98713 128.44 4.99436C129.172 5.05942 129.848 4.73053 130.212 4.13418C130.23 4.10526 130.653 3.40047 130.398 2.6198C130.086 1.66564 128.962 1.28977 128.286 1.2717C127.018 1.23917 125.929 2.33428 125.519 3.44024C125.201 4.30765 125.138 5.69191 126.013 6.73643C126.682 7.53879 127.754 7.90383 129.035 7.75565C130.527 7.58939 131.553 6.53402 132.047 6.02442C132.208 5.86178 132.373 5.65577 132.551 5.4353C133.437 4.3438 134.772 2.6957 137.139 3.75828C137.5 3.92092 138.284 4.61487 138.256 5.61601C138.232 6.43645 137.643 7.35445 136.705 7.48095C135.987 7.5713 135.258 7.17375 134.884 6.48343C134.786 6.29911 134.849 6.06417 135.027 5.96297C135.206 5.86177 135.434 5.92685 135.532 6.11117C135.759 6.53042 136.19 6.77617 136.61 6.72196C137.15 6.64967 137.5 6.08223 137.514 5.59431C137.531 4.9329 136.936 4.50283 136.845 4.45946C134.985 3.62457 133.994 4.84617 133.119 5.92683C132.926 6.16536 132.744 6.38945 132.572 6.56655C132.061 7.09062 130.867 8.32307 129.116 8.51824C128.906 8.53992 128.699 8.55078 128.496 8.55078Z" fill="#FF811C"/>
<path d="M155.028 8.55469C153.375 8.55469 152.115 7.18489 151.642 5.89099C151.127 4.48867 151.369 2.89119 152.265 1.82137C153.099 0.827459 154.398 0.372052 155.928 0.541921C157.676 0.73709 158.874 1.96594 159.381 2.49001C159.556 2.67072 159.739 2.89479 159.935 3.13333C160.807 4.21038 161.794 5.43199 163.657 4.5971C163.748 4.55734 164.344 4.12364 164.326 3.46585C164.312 2.97793 163.962 2.40689 163.423 2.3346C163.002 2.27677 162.572 2.52616 162.344 2.94902C162.246 3.13335 162.018 3.19839 161.84 3.09719C161.661 2.99599 161.598 2.76105 161.696 2.57673C162.071 1.88279 162.81 1.48524 163.517 1.57921C164.456 1.7021 165.041 2.62373 165.065 3.44054C165.097 4.44169 164.316 5.13564 163.951 5.29828C161.581 6.36086 160.25 4.71274 159.364 3.62486C159.185 3.40439 159.021 3.1984 158.86 3.03214C158.366 2.52615 157.34 1.46716 155.848 1.30091C154.566 1.15634 153.494 1.52139 152.826 2.32013C151.95 3.36465 152.013 4.74889 152.332 5.61992C152.738 6.72588 153.841 7.82099 155.098 7.78846C155.778 7.76678 156.898 7.39092 157.21 6.43676C157.466 5.65247 157.031 4.93321 157.028 4.92598C156.66 4.32963 155.977 3.99352 155.252 4.0658C155.049 4.07664 154.867 3.92484 154.85 3.71521C154.832 3.50559 154.983 3.32128 155.189 3.30321C156.198 3.20924 157.14 3.67909 157.651 4.51398C157.676 4.55374 158.282 5.55127 157.914 6.68252C157.508 7.9222 156.18 8.52217 155.119 8.55109C155.088 8.5547 155.06 8.55469 155.028 8.55469Z" fill="#FF811C"/>
<path d="M147.557 8.55469C147.525 8.55469 147.497 8.5547 147.466 8.55109C146.404 8.52217 145.077 7.9222 144.671 6.68252C144.314 5.58379 144.867 4.62241 144.934 4.51398C145.445 3.67909 146.387 3.20924 147.396 3.30321C147.599 3.32128 147.753 3.50559 147.732 3.71521C147.714 3.92845 147.539 4.08026 147.332 4.0658C146.604 3.99352 145.925 4.32965 145.56 4.92238C145.543 4.95129 145.119 5.6597 145.375 6.43676C145.686 7.39092 146.811 7.76678 147.487 7.78846C148.768 7.82099 149.843 6.72588 150.25 5.61992C150.572 4.74889 150.635 3.36465 149.759 2.32013C149.09 1.52139 148.019 1.15996 146.737 1.30091C145.245 1.46716 144.219 2.52615 143.725 3.03214C143.564 3.1984 143.396 3.40439 143.218 3.62486C142.335 4.71636 141.001 6.36448 138.633 5.29828C138.269 5.13564 137.488 4.44169 137.516 3.44054C137.541 2.62373 138.129 1.7021 139.068 1.57921C139.772 1.48163 140.514 1.88279 140.889 2.57673C140.987 2.76105 140.92 2.99599 140.742 3.09719C140.567 3.19839 140.339 3.13335 140.241 2.94902C140.013 2.52616 139.586 2.27677 139.162 2.3346C138.623 2.40689 138.273 2.97793 138.259 3.46585C138.241 4.12364 138.837 4.55734 138.928 4.5971C140.787 5.43199 141.778 4.21038 142.65 3.13333C142.846 2.89479 143.028 2.67071 143.2 2.49361C143.711 1.96593 144.906 0.73709 146.657 0.541921C148.187 0.372052 149.486 0.823845 150.32 1.82137C151.213 2.89119 151.458 4.48867 150.943 5.89099C150.467 7.18489 149.21 8.55469 147.557 8.55469Z" fill="#FF811C"/>
<path d="M174.089 8.55078C173.886 8.55078 173.679 8.53992 173.469 8.51824C171.718 8.32307 170.524 7.09062 170.013 6.56655C169.841 6.38945 169.659 6.16536 169.463 5.92683C168.591 4.84617 167.6 3.62457 165.74 4.45946C165.649 4.50283 165.05 4.9329 165.071 5.59431C165.085 6.08223 165.435 6.64967 165.975 6.72196C166.399 6.77617 166.826 6.53042 167.053 6.11117C167.151 5.92685 167.379 5.86177 167.558 5.96297C167.736 6.06417 167.799 6.29911 167.701 6.48343C167.327 7.17375 166.602 7.5713 165.88 7.48095C164.938 7.35445 164.353 6.43645 164.329 5.61601C164.301 4.61487 165.082 3.92092 165.446 3.75828C167.813 2.6957 169.148 4.3438 170.034 5.4353C170.212 5.65577 170.377 5.86178 170.538 6.02442C171.028 6.53402 172.058 7.58939 173.55 7.75565C174.824 7.90022 175.903 7.53879 176.572 6.73643C177.447 5.69191 177.384 4.30765 177.066 3.44024C176.656 2.33428 175.57 1.23917 174.299 1.2717C173.62 1.28977 172.499 1.66564 172.187 2.6198C171.932 3.40047 172.352 4.10526 172.373 4.13418C172.737 4.73053 173.406 5.05942 174.145 4.99436C174.341 4.9799 174.53 5.13169 174.544 5.34131C174.565 5.55094 174.411 5.73888 174.208 5.75695C173.206 5.8473 172.257 5.38107 171.746 4.54618C171.68 4.43775 171.123 3.47998 171.483 2.37764C171.89 1.13434 173.217 0.537999 174.278 0.505471C175.994 0.429572 177.272 1.84997 177.756 3.16917C178.27 4.57149 178.029 6.16537 177.132 7.23519C176.414 8.09537 175.346 8.55078 174.089 8.55078Z" fill="#FF811C"/>
<path d="M182.132 8.55078C180.871 8.55078 179.806 8.09537 179.085 7.23519C178.192 6.16537 177.947 4.57149 178.461 3.16917C178.938 1.87527 180.198 0.505471 181.855 0.505471C181.883 0.505471 181.911 0.505471 181.942 0.505471C183.003 0.537999 184.331 1.13434 184.733 2.37764C185.094 3.47998 184.541 4.43777 184.474 4.54258C183.963 5.38108 183.01 5.8473 182.012 5.75695C181.806 5.73888 181.655 5.55094 181.673 5.34131C181.694 5.13169 181.872 4.98713 182.075 4.99436C182.8 5.06303 183.483 4.73053 183.847 4.13418C183.865 4.10526 184.289 3.40047 184.033 2.6198C183.721 1.66564 182.597 1.28977 181.921 1.2717C180.654 1.23917 179.561 2.33428 179.155 3.44024C178.836 4.30765 178.773 5.69191 179.649 6.73643C180.317 7.53879 181.389 7.90383 182.671 7.75565C184.163 7.58939 185.189 6.53402 185.683 6.02442C185.844 5.86178 186.008 5.65577 186.187 5.4353C187.073 4.3438 188.407 2.6957 190.774 3.75828C191.135 3.92092 191.92 4.61487 191.888 5.61601C191.867 6.43645 191.279 7.35445 190.34 7.48095C189.626 7.5713 188.894 7.17375 188.519 6.48343C188.421 6.29911 188.484 6.06417 188.663 5.96297C188.841 5.86177 189.069 5.92685 189.167 6.11117C189.395 6.53042 189.825 6.77617 190.246 6.72196C190.785 6.64967 191.135 6.08223 191.149 5.59431C191.167 4.9329 190.571 4.50283 190.48 4.45946C188.621 3.62457 187.63 4.84617 186.754 5.92683C186.562 6.16536 186.379 6.38945 186.208 6.56655C185.697 7.09062 184.502 8.32307 182.751 8.51824C182.541 8.53992 182.335 8.55078 182.132 8.55078Z" fill="#FF811C"/>
<path d="M208.664 8.55469C207.011 8.55469 205.75 7.18489 205.274 5.89099C204.759 4.48867 205.004 2.89119 205.897 1.82137C206.731 0.827459 208.033 0.372052 209.564 0.541921C211.311 0.73709 212.509 1.96594 213.017 2.49001C213.192 2.67072 213.374 2.89479 213.57 3.13333C214.442 4.21038 215.43 5.43199 217.293 4.5971C217.384 4.55734 217.979 4.12364 217.962 3.46585C217.948 2.97793 217.597 2.40689 217.058 2.3346C216.634 2.27677 216.207 2.52616 215.979 2.94902C215.881 3.13335 215.654 3.19839 215.475 3.09719C215.297 2.99599 215.234 2.76105 215.332 2.57673C215.706 1.88279 216.445 1.48524 217.153 1.57921C218.091 1.7021 218.68 2.62373 218.701 3.44054C218.732 4.44169 217.948 5.13564 217.587 5.29828C215.216 6.36086 213.882 4.71274 212.999 3.62486C212.821 3.40439 212.656 3.1984 212.495 3.03214C212.001 2.52615 210.975 1.46716 209.483 1.30091C208.198 1.15634 207.13 1.52139 206.461 2.32013C205.586 3.36465 205.649 4.74889 205.967 5.61992C206.373 6.72588 207.452 7.81015 208.734 7.78846C209.41 7.76678 210.534 7.39092 210.846 6.43676C211.101 5.6597 210.677 4.95129 210.66 4.92238C210.296 4.32965 209.613 3.99352 208.888 4.0658C208.681 4.07664 208.503 3.92484 208.485 3.71521C208.468 3.50559 208.618 3.32128 208.825 3.30321C209.827 3.21285 210.776 3.67548 211.287 4.51398C211.353 4.62241 211.907 5.58379 211.546 6.68252C211.143 7.9222 209.816 8.52217 208.755 8.55109C208.723 8.5547 208.695 8.55469 208.664 8.55469Z" fill="#FF811C"/>
<path d="M201.189 8.55469C201.158 8.55469 201.13 8.5547 201.098 8.55109C200.037 8.52217 198.71 7.9222 198.304 6.68252C197.947 5.58379 198.5 4.62241 198.566 4.51398C199.078 3.67909 200.02 3.20924 201.028 3.30321C201.235 3.32128 201.385 3.50559 201.364 3.71521C201.35 3.92845 201.168 4.08026 200.965 4.0658C200.247 3.99713 199.557 4.32965 199.193 4.92238C199.176 4.95129 198.752 5.6597 199.008 6.43676C199.319 7.39092 200.44 7.76678 201.119 7.78846C202.405 7.82099 203.476 6.72588 203.882 5.61992C204.201 4.74889 204.264 3.36465 203.392 2.32013C202.723 1.52139 201.652 1.15996 200.37 1.30091C198.875 1.46716 197.848 2.52615 197.358 3.03214C197.197 3.1984 197.029 3.40439 196.85 3.62486C195.968 4.71636 194.634 6.36448 192.266 5.29828C191.902 5.13564 191.121 4.44169 191.149 3.44054C191.174 2.62373 191.758 1.7021 192.701 1.57921C193.425 1.48163 194.147 1.88641 194.522 2.57673C194.62 2.76105 194.553 2.99599 194.375 3.09719C194.199 3.19839 193.972 3.13335 193.874 2.94902C193.646 2.52616 193.215 2.28039 192.795 2.3346C192.256 2.40689 191.906 2.97793 191.892 3.46585C191.871 4.12364 192.469 4.55734 192.56 4.5971C194.42 5.43199 195.411 4.21038 196.283 3.13333C196.479 2.89479 196.658 2.67071 196.833 2.49361C197.344 1.96593 198.538 0.73709 200.289 0.541921C201.82 0.372052 203.119 0.823845 203.952 1.82137C204.845 2.89119 205.091 4.48867 204.576 5.89099C204.1 7.18489 202.842 8.55469 201.189 8.55469Z" fill="#FF811C"/>
<path d="M227.718 8.55078C227.519 8.55078 227.312 8.53992 227.102 8.51824C225.351 8.32307 224.157 7.09062 223.645 6.56655C223.474 6.38945 223.292 6.16536 223.096 5.92683C222.224 4.84617 221.233 3.62457 219.373 4.45946C219.282 4.50283 218.683 4.9329 218.704 5.59431C218.718 6.08223 219.068 6.64967 219.608 6.72196C220.031 6.77617 220.459 6.53042 220.686 6.11117C220.784 5.92685 221.012 5.86177 221.191 5.96297C221.366 6.06417 221.432 6.29911 221.334 6.48343C220.959 7.17375 220.231 7.5713 219.513 7.48095C218.571 7.35445 217.986 6.43645 217.962 5.61601C217.934 4.61487 218.715 3.92092 219.079 3.75828C221.446 2.6957 222.78 4.3438 223.666 5.4353C223.845 5.65577 224.01 5.86178 224.171 6.02442C224.661 6.53402 225.691 7.58939 227.179 7.75565C228.457 7.90022 229.536 7.53879 230.205 6.73643C231.077 5.69191 231.017 4.30765 230.695 3.44024C230.289 2.33428 229.193 1.25001 227.932 1.2717C227.253 1.28977 226.132 1.66564 225.82 2.6198C225.565 3.40047 225.985 4.10526 226.006 4.13418C226.37 4.73053 227.039 5.05942 227.778 4.99436C227.977 4.9799 228.16 5.13169 228.177 5.34131C228.195 5.55094 228.044 5.73888 227.841 5.75695C226.839 5.8473 225.89 5.38107 225.379 4.54618C225.312 4.43775 224.756 3.47998 225.116 2.37764C225.523 1.13434 226.85 0.537999 227.911 0.505471C227.939 0.505471 227.97 0.505471 227.998 0.505471C229.655 0.505471 230.912 1.87527 231.388 3.16917C231.903 4.57149 231.658 6.16537 230.765 7.23519C230.047 8.09537 228.979 8.55078 227.718 8.55078Z" fill="#FF811C"/>
<path d="M235.775 8.55078C234.51 8.55078 233.446 8.09537 232.724 7.23519C231.831 6.16537 231.586 4.57149 232.105 3.16917C232.577 1.87527 233.838 0.505471 235.491 0.505471C235.522 0.505471 235.55 0.505471 235.582 0.505471C236.643 0.537999 237.97 1.13434 238.373 2.37764C238.734 3.47998 238.177 4.43777 238.114 4.54258C237.599 5.38108 236.643 5.8473 235.649 5.75695C235.445 5.73888 235.295 5.55094 235.312 5.34131C235.33 5.13169 235.515 4.98713 235.715 4.99436C236.44 5.06303 237.123 4.73053 237.487 4.13418C237.505 4.10526 237.928 3.40047 237.673 2.6198C237.361 1.66564 236.237 1.28977 235.561 1.2717C234.276 1.23917 233.204 2.33428 232.794 3.44024C232.476 4.30765 232.413 5.69191 233.288 6.73643C233.957 7.53879 235.032 7.8966 236.31 7.75565C237.802 7.58939 238.828 6.53402 239.322 6.02442C239.483 5.86178 239.648 5.65577 239.826 5.4353C240.712 4.3438 242.047 2.6957 244.414 3.75828C244.775 3.92092 245.559 4.61487 245.528 5.61601C245.507 6.43645 244.918 7.35445 243.98 7.48095C243.262 7.5713 242.534 7.17375 242.159 6.48343C242.061 6.29911 242.124 6.06417 242.302 5.96297C242.481 5.86177 242.705 5.92685 242.807 6.11117C243.034 6.53042 243.465 6.77617 243.885 6.72196C244.425 6.64967 244.775 6.08223 244.789 5.59431C244.806 4.9329 244.211 4.50283 244.12 4.45946C242.257 3.62457 241.269 4.84618 240.397 5.92322C240.201 6.16538 240.019 6.38945 239.847 6.56655C239.336 7.09062 238.142 8.32307 236.391 8.51824C236.181 8.53992 235.974 8.55078 235.775 8.55078Z" fill="#FF811C"/>
<path d="M235.491 177.496C233.838 177.496 232.577 176.126 232.105 174.829C231.586 173.43 231.831 171.833 232.724 170.763C233.558 169.765 234.857 169.313 236.391 169.483C238.142 169.679 239.336 170.907 239.844 171.431C240.019 171.612 240.201 171.836 240.397 172.075C241.269 173.152 242.26 174.373 244.12 173.539C244.211 173.499 244.806 173.065 244.789 172.404C244.775 171.919 244.425 171.348 243.885 171.276C243.465 171.222 243.034 171.468 242.807 171.89C242.705 172.075 242.481 172.14 242.302 172.039C242.124 171.934 242.061 171.702 242.159 171.518C242.534 170.824 243.265 170.419 243.98 170.521C244.918 170.644 245.507 171.565 245.528 172.382C245.559 173.383 244.778 174.077 244.418 174.24C242.043 175.306 240.712 173.654 239.826 172.566C239.648 172.346 239.483 172.14 239.322 171.974C238.828 171.468 237.802 170.409 236.31 170.242C235.029 170.101 233.954 170.463 233.288 171.262C232.413 172.31 232.476 173.69 232.794 174.558C233.201 175.667 234.286 176.766 235.561 176.73C236.237 176.708 237.361 176.332 237.673 175.378C237.928 174.597 237.491 173.871 237.487 173.864C237.123 173.267 236.44 172.942 235.715 173.004C235.508 173.033 235.33 172.866 235.312 172.657C235.295 172.447 235.445 172.263 235.649 172.245C236.654 172.154 237.599 172.617 238.114 173.455C238.177 173.56 238.734 174.518 238.373 175.624C237.97 176.864 236.643 177.46 235.582 177.492C235.55 177.492 235.522 177.496 235.491 177.496Z" fill="#FF811C"/>
<path d="M227.998 177.496C227.97 177.496 227.939 177.492 227.911 177.492C226.85 177.46 225.523 176.864 225.116 175.624C224.756 174.518 225.312 173.56 225.379 173.455C225.89 172.617 226.829 172.151 227.841 172.245C228.044 172.263 228.195 172.447 228.177 172.657C228.16 172.866 227.981 173.036 227.778 173.004C227.039 172.939 226.37 173.267 226.006 173.864C225.999 173.871 225.565 174.597 225.82 175.378C226.132 176.332 227.253 176.708 227.932 176.73C229.193 176.762 230.289 175.667 230.695 174.558C231.017 173.69 231.077 172.306 230.205 171.262C229.536 170.463 228.464 170.101 227.182 170.242C225.691 170.409 224.661 171.468 224.171 171.974C224.01 172.14 223.842 172.346 223.663 172.566C222.78 173.654 221.446 175.302 219.079 174.24C218.715 174.077 217.934 173.383 217.962 172.382C217.986 171.565 218.571 170.644 219.513 170.521C220.224 170.419 220.959 170.824 221.334 171.518C221.432 171.702 221.366 171.934 221.191 172.039C221.012 172.14 220.784 172.075 220.686 171.89C220.459 171.468 220.024 171.218 219.608 171.276C219.068 171.348 218.718 171.919 218.704 172.404C218.683 173.065 219.282 173.499 219.373 173.539C221.236 174.373 222.224 173.152 223.096 172.075C223.292 171.833 223.474 171.612 223.645 171.431C224.157 170.907 225.351 169.679 227.102 169.483C228.632 169.31 229.932 169.765 230.765 170.763C231.658 171.833 231.903 173.43 231.388 174.829C230.912 176.126 229.655 177.496 227.998 177.496Z" fill="#FF811C"/>
<path d="M200.906 177.492C200.706 177.492 200.5 177.481 200.289 177.46C198.535 177.261 197.344 176.032 196.833 175.508C196.658 175.327 196.479 175.107 196.283 174.865C195.411 173.788 194.42 172.566 192.56 173.401C192.469 173.444 191.871 173.874 191.892 174.536C191.906 175.02 192.256 175.591 192.795 175.663C193.215 175.718 193.646 175.472 193.874 175.053C193.972 174.865 194.199 174.8 194.375 174.901C194.553 175.006 194.62 175.237 194.522 175.421C194.147 176.115 193.425 176.52 192.701 176.422C191.758 176.296 191.174 175.374 191.149 174.557C191.121 173.553 191.902 172.862 192.266 172.7C194.63 171.641 195.968 173.285 196.85 174.373C197.032 174.597 197.197 174.8 197.358 174.966C197.848 175.472 198.875 176.531 200.366 176.697C201.652 176.838 202.723 176.477 203.392 175.678C204.264 174.633 204.201 173.249 203.882 172.382C203.476 171.272 202.405 170.166 201.119 170.21C200.44 170.231 199.319 170.607 199.008 171.561C198.752 172.342 199.186 173.068 199.193 173.076C199.557 173.672 200.233 173.997 200.965 173.936C201.165 173.903 201.35 174.073 201.364 174.283C201.385 174.492 201.235 174.68 201.028 174.698C200.02 174.792 199.078 174.322 198.566 173.484C198.5 173.379 197.943 172.421 198.304 171.315C198.71 170.076 200.037 169.479 201.098 169.447C202.825 169.404 204.093 170.791 204.576 172.111C205.091 173.513 204.845 175.107 203.952 176.177C203.235 177.037 202.166 177.492 200.906 177.492Z" fill="#FF811C"/>
<path d="M208.948 177.492C207.683 177.492 206.619 177.037 205.897 176.177C205.004 175.107 204.759 173.513 205.274 172.111C205.761 170.791 207.028 169.404 208.755 169.447C209.816 169.479 211.143 170.076 211.546 171.315C211.91 172.421 211.353 173.379 211.287 173.484C210.772 174.322 209.827 174.789 208.825 174.698C208.618 174.68 208.468 174.492 208.485 174.283C208.506 174.073 208.688 173.91 208.888 173.936C209.613 173.997 210.296 173.672 210.66 173.076C210.663 173.068 211.101 172.342 210.846 171.561C210.534 170.607 209.41 170.231 208.734 170.21C207.452 170.159 206.373 171.272 205.967 172.382C205.649 173.249 205.586 174.633 206.461 175.678C207.13 176.477 208.198 176.838 209.483 176.697C210.975 176.531 212.001 175.472 212.495 174.966C212.656 174.8 212.821 174.597 212.999 174.377C213.885 173.285 215.223 171.637 217.587 172.7C217.948 172.862 218.732 173.553 218.701 174.557C218.68 175.374 218.091 176.296 217.153 176.422C216.442 176.52 215.703 176.115 215.332 175.421C215.234 175.237 215.297 175.006 215.475 174.901C215.654 174.8 215.881 174.865 215.979 175.049C216.207 175.472 216.627 175.718 217.058 175.663C217.597 175.591 217.948 175.02 217.962 174.536C217.979 173.874 217.384 173.444 217.293 173.401C215.43 172.566 214.442 173.788 213.57 174.865C213.374 175.107 213.192 175.327 213.02 175.508C212.509 176.032 211.315 177.261 209.564 177.456C209.354 177.481 209.147 177.492 208.948 177.492Z" fill="#FF811C"/>
<path d="M181.851 177.496C180.198 177.496 178.938 176.126 178.461 174.829C177.947 173.43 178.192 171.833 179.085 170.763C179.918 169.765 181.224 169.31 182.751 169.483C184.502 169.679 185.697 170.907 186.204 171.431C186.379 171.612 186.562 171.833 186.758 172.075C187.63 173.152 188.617 174.377 190.48 173.539C190.571 173.499 191.167 173.065 191.149 172.404C191.135 171.919 190.785 171.348 190.246 171.276C189.825 171.222 189.395 171.468 189.167 171.89C189.069 172.075 188.841 172.14 188.663 172.039C188.484 171.934 188.421 171.702 188.519 171.518C188.894 170.824 189.626 170.419 190.34 170.521C191.279 170.644 191.867 171.565 191.888 172.382C191.92 173.383 191.135 174.077 190.774 174.24C188.407 175.302 187.069 173.654 186.187 172.566C186.008 172.346 185.844 172.14 185.683 171.974C185.189 171.468 184.163 170.409 182.671 170.242C181.393 170.101 180.317 170.463 179.649 171.262C178.773 172.306 178.836 173.69 179.155 174.558C179.561 175.667 180.654 176.77 181.921 176.73C182.597 176.708 183.721 176.332 184.033 175.378C184.289 174.597 183.851 173.871 183.847 173.864C183.483 173.267 182.804 172.942 182.075 173.004C181.872 173.033 181.69 172.866 181.673 172.657C181.655 172.447 181.806 172.263 182.012 172.245C183.018 172.154 183.963 172.617 184.474 173.455C184.541 173.56 185.094 174.518 184.733 175.624C184.331 176.864 183.003 177.46 181.942 177.492C181.911 177.492 181.883 177.496 181.851 177.496Z" fill="#FF811C"/>
<path d="M174.366 177.496C174.338 177.496 174.31 177.492 174.278 177.492C173.217 177.46 171.89 176.864 171.483 175.624C171.123 174.518 171.68 173.56 171.746 173.455C172.257 172.617 173.196 172.151 174.208 172.245C174.411 172.263 174.565 172.447 174.544 172.657C174.53 172.866 174.348 173.036 174.145 173.004C173.406 172.939 172.737 173.267 172.373 173.864C172.366 173.871 171.932 174.597 172.187 175.378C172.499 176.332 173.62 176.708 174.299 176.73C175.57 176.77 176.656 175.667 177.066 174.558C177.384 173.69 177.447 172.306 176.572 171.262C175.903 170.463 174.835 170.101 173.55 170.242C172.058 170.409 171.028 171.468 170.538 171.974C170.377 172.14 170.209 172.346 170.034 172.566C169.148 173.654 167.813 175.302 165.446 174.24C165.082 174.077 164.301 173.383 164.329 172.382C164.353 171.565 164.938 170.644 165.88 170.521C166.595 170.419 167.327 170.824 167.701 171.518C167.799 171.702 167.736 171.934 167.558 172.039C167.379 172.14 167.151 172.075 167.053 171.89C166.826 171.468 166.392 171.218 165.975 171.276C165.435 171.348 165.085 171.919 165.071 172.404C165.05 173.065 165.649 173.499 165.74 173.539C167.603 174.373 168.591 173.152 169.463 172.075C169.659 171.833 169.841 171.612 170.013 171.431C170.524 170.907 171.718 169.679 173.469 169.483C174.999 169.31 176.302 169.765 177.132 170.763C178.029 171.833 178.27 173.43 177.756 174.829C177.279 176.126 176.022 177.496 174.366 177.496Z" fill="#FF811C"/>
<path d="M147.273 177.492C147.073 177.492 146.867 177.481 146.657 177.46C144.902 177.261 143.711 176.032 143.2 175.508C143.028 175.327 142.846 175.107 142.65 174.865C141.778 173.788 140.791 172.566 138.928 173.401C138.837 173.444 138.241 173.874 138.259 174.536C138.273 175.02 138.623 175.591 139.162 175.663C139.579 175.718 140.013 175.472 140.241 175.049C140.339 174.865 140.567 174.8 140.742 174.901C140.92 175.006 140.987 175.237 140.889 175.421C140.514 176.115 139.775 176.524 139.068 176.422C138.129 176.296 137.541 175.374 137.516 174.557C137.488 173.553 138.269 172.862 138.633 172.7C140.997 171.641 142.335 173.285 143.218 174.373C143.4 174.597 143.564 174.8 143.725 174.966C144.216 175.472 145.242 176.531 146.734 176.697C148.019 176.838 149.09 176.477 149.759 175.678C150.635 174.633 150.572 173.249 150.25 172.382C149.843 171.272 148.768 170.166 147.487 170.21C146.811 170.231 145.686 170.607 145.375 171.561C145.119 172.342 145.557 173.068 145.56 173.076C145.925 173.672 146.604 173.997 147.332 173.936C147.532 173.903 147.714 174.073 147.732 174.283C147.753 174.492 147.599 174.68 147.396 174.698C146.387 174.789 145.445 174.322 144.934 173.484C144.867 173.379 144.31 172.421 144.671 171.315C145.077 170.076 146.404 169.479 147.466 169.447C149.185 169.404 150.46 170.791 150.943 172.111C151.458 173.513 151.213 175.107 150.32 176.177C149.602 177.037 148.534 177.492 147.273 177.492Z" fill="#FF811C"/>
<path d="M155.314 177.492C154.049 177.492 152.985 177.037 152.267 176.177C151.37 175.107 151.125 173.513 151.643 172.111C152.116 170.813 153.377 169.447 155.03 169.447C155.061 169.447 155.089 169.447 155.121 169.447C156.182 169.479 157.509 170.076 157.912 171.315C158.283 172.454 157.677 173.448 157.649 173.488C157.138 174.322 156.193 174.789 155.191 174.698C154.984 174.68 154.834 174.492 154.851 174.283C154.869 174.073 155.054 173.91 155.254 173.936C155.979 173.997 156.662 173.672 157.026 173.076C157.033 173.065 157.467 172.346 157.212 171.561C156.9 170.607 155.779 170.231 155.1 170.209C153.843 170.166 152.74 171.272 152.333 172.382C152.015 173.249 151.952 174.633 152.827 175.678C153.496 176.477 154.564 176.838 155.849 176.697C157.341 176.531 158.367 175.472 158.861 174.966C159.022 174.8 159.187 174.597 159.365 174.377C160.251 173.285 161.589 171.637 163.953 172.7C164.314 172.862 165.098 173.556 165.067 174.557C165.042 175.374 164.457 176.296 163.519 176.422C162.808 176.52 162.072 176.115 161.698 175.421C161.6 175.237 161.663 175.006 161.841 174.901C162.02 174.8 162.248 174.865 162.346 175.049C162.573 175.472 162.993 175.718 163.424 175.663C163.964 175.591 164.314 175.02 164.328 174.536C164.345 173.874 163.75 173.444 163.659 173.401C161.796 172.566 160.808 173.788 159.936 174.865C159.74 175.107 159.558 175.327 159.386 175.508C158.875 176.032 157.681 177.261 155.93 177.456C155.72 177.481 155.513 177.492 155.314 177.492Z" fill="#FF811C"/>
<path d="M128.216 177.496C126.563 177.496 125.306 176.126 124.83 174.829C124.315 173.43 124.556 171.833 125.449 170.763C126.286 169.765 127.589 169.31 129.116 169.483C130.867 169.679 132.061 170.907 132.572 171.431C132.744 171.612 132.926 171.833 133.122 172.075C133.994 173.152 134.982 174.377 136.845 173.539C136.936 173.499 137.531 173.065 137.514 172.404C137.5 171.919 137.15 171.348 136.61 171.276C136.194 171.222 135.759 171.468 135.532 171.89C135.434 172.075 135.206 172.14 135.027 172.039C134.849 171.934 134.786 171.702 134.884 171.518C135.258 170.824 135.99 170.419 136.705 170.521C137.643 170.644 138.232 171.565 138.256 172.382C138.284 173.383 137.503 174.077 137.139 174.24C134.772 175.302 133.437 173.654 132.551 172.566C132.373 172.346 132.208 172.14 132.047 171.974C131.553 171.468 130.527 170.409 129.035 170.242C127.757 170.101 126.682 170.463 126.013 171.262C125.138 172.306 125.201 173.69 125.519 174.558C125.929 175.667 127.018 176.77 128.286 176.73C128.962 176.708 130.086 176.332 130.398 175.378C130.653 174.597 130.219 173.871 130.212 173.864C129.848 173.267 129.172 172.939 128.44 173.004C128.237 173.033 128.055 172.866 128.037 172.657C128.02 172.447 128.17 172.263 128.377 172.245C129.389 172.154 130.328 172.617 130.839 173.455C130.906 173.56 131.462 174.518 131.098 175.624C130.695 176.864 129.368 177.46 128.307 177.492C128.276 177.492 128.248 177.496 128.216 177.496Z" fill="#FF811C"/>
<path d="M120.725 177.496C120.697 177.496 120.669 177.492 120.637 177.492C119.576 177.46 118.249 176.864 117.843 175.624C117.482 174.518 118.039 173.56 118.106 173.455C118.617 172.617 119.559 172.151 120.567 172.245C120.774 172.263 120.925 172.447 120.907 172.657C120.89 172.866 120.707 173.036 120.504 173.004C119.769 172.942 119.097 173.267 118.732 173.864C118.725 173.871 118.291 174.597 118.547 175.378C118.858 176.332 119.979 176.708 120.658 176.73C121.937 176.762 123.015 175.667 123.425 174.558C123.744 173.69 123.803 172.306 122.931 171.262C122.262 170.463 121.191 170.098 119.909 170.242C118.417 170.409 117.391 171.468 116.897 171.974C116.736 172.14 116.572 172.346 116.39 172.566C115.507 173.654 114.176 175.302 111.805 174.24C111.441 174.077 110.66 173.383 110.688 172.382C110.713 171.565 111.301 170.644 112.24 170.521C112.947 170.419 113.686 170.824 114.061 171.518C114.159 171.702 114.096 171.934 113.917 172.039C113.738 172.14 113.511 172.071 113.413 171.89C113.185 171.468 112.751 171.222 112.334 171.276C111.795 171.348 111.445 171.919 111.431 172.404C111.41 173.065 112.009 173.499 112.1 173.539C113.959 174.373 114.95 173.152 115.822 172.075C116.018 171.836 116.2 171.612 116.372 171.431C116.883 170.907 118.077 169.679 119.828 169.483C121.355 169.31 122.658 169.765 123.492 170.763C124.388 171.833 124.63 173.43 124.115 174.829C123.642 176.126 122.381 177.496 120.725 177.496Z" fill="#FF811C"/>
<path d="M93.6324 177.492C93.4327 177.492 93.2261 177.481 93.016 177.456C91.2615 177.261 90.0708 176.032 89.5595 175.508C89.3879 175.327 89.2058 175.107 89.0097 174.865C88.1377 173.788 87.1466 172.566 85.2871 173.401C85.196 173.444 84.5972 173.874 84.6182 174.536C84.6322 175.02 84.9824 175.591 85.5217 175.663C85.9384 175.718 86.3727 175.472 86.6003 175.049C86.6984 174.865 86.926 174.8 87.1046 174.901C87.2832 175.006 87.3462 175.237 87.2482 175.421C86.8735 176.115 86.1451 176.524 85.4271 176.422C84.4886 176.296 83.9002 175.374 83.8757 174.557C83.8477 173.553 84.6322 172.862 84.9929 172.7C87.3602 171.641 88.6945 173.285 89.5805 174.377C89.7591 174.597 89.9237 174.8 90.0848 174.966C90.5751 175.472 91.6012 176.531 93.0965 176.697C94.3748 176.842 95.4499 176.477 96.1188 175.678C96.9943 174.633 96.9312 173.249 96.6126 172.382C96.2028 171.272 95.1487 170.17 93.846 170.21C93.1666 170.231 92.0459 170.607 91.7342 171.561C91.4786 172.342 91.9129 173.068 91.9199 173.076C92.2841 173.672 92.9565 173.997 93.6919 173.936C93.8985 173.907 94.0771 174.073 94.0946 174.283C94.1121 174.492 93.9616 174.68 93.7549 174.698C92.7464 174.789 91.8043 174.322 91.293 173.484C91.2265 173.379 90.6696 172.421 91.0303 171.315C91.4366 170.076 92.7639 169.479 93.825 169.447C95.534 169.396 96.8191 170.791 97.3024 172.111C97.8172 173.513 97.5756 175.107 96.6791 176.177C95.9612 177.037 94.8966 177.492 93.6324 177.492Z" fill="#FF811C"/>
<path d="M101.681 177.492C100.416 177.492 99.3519 177.037 98.634 176.177C97.7375 175.107 97.4924 173.513 98.0107 172.111C98.4939 170.791 99.8001 169.404 101.488 169.447C102.549 169.479 103.877 170.076 104.279 171.315C104.643 172.421 104.087 173.379 104.02 173.484C103.509 174.322 102.563 174.785 101.558 174.698C101.352 174.68 101.201 174.492 101.218 174.283C101.236 174.073 101.411 173.907 101.621 173.936C102.35 173.997 103.029 173.672 103.393 173.076C103.397 173.068 103.834 172.342 103.579 171.561C103.267 170.607 102.146 170.231 101.467 170.21C100.203 170.163 99.1103 171.272 98.7005 172.382C98.3818 173.249 98.3188 174.633 99.1943 175.678C99.8632 176.48 100.938 176.838 102.217 176.697C103.708 176.531 104.734 175.472 105.228 174.966C105.389 174.8 105.554 174.597 105.733 174.373C106.619 173.285 107.953 171.641 110.32 172.7C110.681 172.862 111.465 173.553 111.437 174.557C111.413 175.374 110.824 176.296 109.886 176.422C109.168 176.52 108.44 176.115 108.065 175.421C107.967 175.237 108.03 175.006 108.208 174.901C108.387 174.8 108.615 174.865 108.713 175.049C108.94 175.472 109.378 175.718 109.791 175.663C110.331 175.591 110.681 175.02 110.695 174.536C110.716 173.874 110.117 173.444 110.026 173.401C108.166 172.566 107.175 173.788 106.303 174.865C106.107 175.107 105.925 175.327 105.754 175.508C105.242 176.032 104.048 177.261 102.297 177.456C102.087 177.481 101.88 177.492 101.681 177.492Z" fill="#FF811C"/>
<path d="M74.5767 177.496C72.9238 177.496 71.6631 176.126 71.1903 174.829C70.672 173.43 70.9172 171.833 71.8137 170.763C72.6472 169.765 73.9464 169.31 75.4768 169.483C77.2278 169.679 78.422 170.907 78.9298 171.431C79.1049 171.612 79.287 171.836 79.4831 172.075C80.3551 173.152 81.3426 174.373 83.2057 173.539C83.2967 173.499 83.8956 173.065 83.8746 172.404C83.8605 171.919 83.5104 171.348 82.9711 171.276C82.5543 171.222 82.1201 171.468 81.8924 171.89C81.7944 172.071 81.5702 172.14 81.3881 172.039C81.2095 171.934 81.1465 171.702 81.2446 171.518C81.6193 170.824 82.3512 170.423 83.0656 170.521C84.0041 170.644 84.5925 171.565 84.617 172.382C84.645 173.383 83.8641 174.077 83.4999 174.24C81.1325 175.302 79.7982 173.654 78.9122 172.566C78.7336 172.346 78.569 172.14 78.4079 171.974C77.9142 171.464 76.8881 170.409 75.3962 170.242C74.111 170.098 73.0429 170.463 72.374 171.262C71.4985 172.306 71.5615 173.69 71.8802 174.558C72.2864 175.667 73.3545 176.762 74.6468 176.73C75.3262 176.708 76.4468 176.332 76.7585 175.378C77.0142 174.597 76.5799 173.871 76.5729 173.864C76.2087 173.267 75.5328 172.939 74.8009 173.004C74.5978 173.033 74.4157 172.866 74.3981 172.657C74.3806 172.447 74.5313 172.263 74.7379 172.245C75.743 172.154 76.6885 172.617 77.1997 173.455C77.2663 173.56 77.8231 174.518 77.4624 175.624C77.0562 176.864 75.7289 177.46 74.6678 177.492C74.6363 177.492 74.6083 177.496 74.5767 177.496Z" fill="#FF811C"/>
<path d="M67.0921 177.496C67.0641 177.496 67.0361 177.492 67.0046 177.492C65.9435 177.46 64.6162 176.864 64.21 175.624C63.8528 174.518 64.4061 173.56 64.4726 173.455C64.9839 172.617 65.9295 172.151 66.9346 172.245C67.1412 172.263 67.2917 172.447 67.2742 172.657C67.2567 172.866 67.0711 173.036 66.8715 173.004C66.1396 172.942 65.4637 173.267 65.0995 173.864C65.0925 173.871 64.6583 174.597 64.9139 175.378C65.2256 176.332 66.3497 176.708 67.0256 176.73C68.3143 176.762 69.3859 175.667 69.7922 174.558C70.1109 173.69 70.1704 172.306 69.2984 171.262C68.6295 170.463 67.5614 170.101 66.2762 170.242C64.7843 170.409 63.7582 171.468 63.2644 171.974C63.1033 172.14 62.9388 172.346 62.7602 172.566C61.8742 173.654 60.5399 175.302 58.1726 174.24C57.8084 174.077 57.0274 173.383 57.0554 172.382C57.0799 171.565 57.6682 170.644 58.6068 170.521C59.3247 170.419 60.0531 170.824 60.4278 171.518C60.5259 171.702 60.4628 171.934 60.2842 172.039C60.1056 172.14 59.878 172.071 59.7799 171.89C59.5523 171.468 59.1111 171.218 58.7014 171.276C58.1621 171.348 57.8118 171.919 57.7978 172.404C57.7768 173.065 58.3756 173.499 58.4667 173.539C60.3263 174.373 61.3173 173.152 62.1893 172.075C62.3855 171.836 62.5675 171.612 62.7391 171.431C63.2504 170.907 64.4446 169.679 66.1957 169.483C67.7225 169.31 69.0253 169.765 69.8587 170.763C70.7552 171.833 70.9969 173.43 70.4821 174.829C70.0093 176.126 68.7486 177.496 67.0921 177.496Z" fill="#FF811C"/>
<path d="M39.9962 177.492C39.7966 177.492 39.59 177.481 39.3799 177.456C37.6253 177.261 36.4347 176.032 35.9234 175.508C35.7518 175.327 35.5697 175.107 35.3735 174.865C34.5015 173.788 33.5105 172.566 31.651 173.401C31.5599 173.444 30.9611 173.874 30.9821 174.536C30.9961 175.02 31.3463 175.591 31.8856 175.663C32.2988 175.718 32.7366 175.472 32.9642 175.053C33.0623 174.865 33.2864 174.8 33.4685 174.901C33.6471 175.006 33.7101 175.237 33.6121 175.421C33.2409 176.115 32.5124 176.524 31.791 176.422C30.8525 176.296 30.2641 175.374 30.2431 174.557C30.2116 173.553 30.9961 172.862 31.3568 172.7C33.7241 171.641 35.0584 173.285 35.9444 174.377C36.123 174.597 36.2876 174.8 36.4487 174.966C36.939 175.472 37.9651 176.531 39.4604 176.697C40.7387 176.842 41.8137 176.477 42.4826 175.678C43.3581 174.633 43.2951 173.249 42.9764 172.382C42.5667 171.272 41.4986 170.17 40.2099 170.21C39.534 170.231 38.4098 170.607 38.0981 171.561C37.8425 172.342 38.2803 173.068 38.2838 173.076C38.648 173.672 39.3273 173.997 40.0558 173.936C40.2589 173.907 40.441 174.073 40.4585 174.283C40.476 174.492 40.3254 174.68 40.1188 174.698C39.1137 174.789 38.1682 174.322 37.6569 173.484C37.5939 173.379 37.037 172.421 37.3942 171.315C37.8005 170.076 39.1277 169.479 40.1888 169.447C41.8838 169.396 43.183 170.791 43.6663 172.111C44.1846 173.513 43.9394 175.107 43.0429 176.177C42.325 177.037 41.2604 177.492 39.9962 177.492Z" fill="#FF811C"/>
<path d="M48.0401 177.492C46.7759 177.492 45.7113 177.037 44.9934 176.177C44.0969 175.107 43.8517 173.513 44.37 172.111C44.8533 170.791 46.1806 169.411 47.8475 169.447C48.9086 169.479 50.2359 170.076 50.6422 171.315C51.0099 172.447 50.404 173.444 50.3795 173.488C49.8682 174.322 48.9226 174.789 47.9176 174.698C47.711 174.68 47.5604 174.492 47.5779 174.283C47.5954 174.073 47.7705 173.907 47.9806 173.936C48.7126 173.997 49.3884 173.672 49.7526 173.076C49.7596 173.068 50.1938 172.346 49.9382 171.561C49.6265 170.607 48.5059 170.231 47.8265 170.21C46.5553 170.17 45.4697 171.272 45.0599 172.382C44.7413 173.249 44.6782 174.633 45.5537 175.678C46.2226 176.477 47.2942 176.842 48.576 176.697C50.0713 176.531 51.0974 175.472 51.5877 174.966C51.7488 174.8 51.9133 174.597 52.0919 174.377C52.9779 173.285 54.3122 171.641 56.6796 172.7C57.0403 172.862 57.8247 173.553 57.7967 174.557C57.7722 175.374 57.1839 176.296 56.2454 176.422C55.5239 176.52 54.799 176.115 54.4243 175.421C54.3263 175.237 54.3893 175.006 54.5679 174.901C54.7465 174.8 54.9741 174.865 55.0722 175.049C55.2998 175.472 55.7375 175.718 56.1508 175.663C56.6901 175.591 57.0403 175.02 57.0543 174.536C57.0753 173.874 56.4765 173.444 56.3854 173.401C54.5224 172.566 53.5348 173.788 52.6628 174.865C52.4667 175.107 52.2846 175.327 52.113 175.508C51.6017 176.032 50.4075 177.261 48.6565 177.456C48.4464 177.481 48.2398 177.492 48.0401 177.492Z" fill="#FF811C"/>
<path d="M20.9459 177.496C19.2894 177.496 18.0323 176.126 17.556 174.829C17.0412 173.43 17.2828 171.833 18.1793 170.763C19.0128 169.765 20.3121 169.31 21.8424 169.483C23.5934 169.679 24.7876 170.907 25.2989 171.431C25.4705 171.612 25.6526 171.836 25.8487 172.075C26.7207 173.152 27.7118 174.373 29.5713 173.539C29.6624 173.499 30.2612 173.065 30.2402 172.404C30.2262 171.919 29.876 171.348 29.3367 171.276C28.92 171.222 28.4857 171.468 28.2581 171.89C28.16 172.071 27.9359 172.14 27.7538 172.039C27.5752 171.934 27.5122 171.702 27.6102 171.518C27.9849 170.824 28.7169 170.423 29.4313 170.521C30.3698 170.644 30.9582 171.565 30.9827 172.382C31.0107 173.383 30.2297 174.077 29.8655 174.24C27.4982 175.302 26.1639 173.654 25.2779 172.566C25.0993 172.346 24.9347 172.14 24.7736 171.974C24.2798 171.464 23.2537 170.409 21.7619 170.242C20.4801 170.098 19.4085 170.463 18.7396 171.262C17.8676 172.306 17.9272 173.69 18.2458 174.558C18.6556 175.667 19.7272 176.773 21.0124 176.73C21.6918 176.708 22.8125 176.332 23.1242 175.378C23.3798 174.594 22.9455 173.871 22.9385 173.864C22.5743 173.267 21.8949 172.946 21.1665 173.004C20.9599 173.033 20.7813 172.866 20.7638 172.657C20.7463 172.447 20.8968 172.263 21.1035 172.245C22.112 172.154 23.0541 172.617 23.5654 173.455C23.5899 173.495 24.1958 174.493 23.8281 175.624C23.4218 176.864 22.0945 177.46 21.0334 177.492C21.0019 177.492 20.9739 177.496 20.9459 177.496Z" fill="#FF811C"/>
<path d="M13.4595 177.496C13.428 177.496 13.4 177.492 13.3685 177.492C12.3074 177.46 10.9801 176.864 10.5774 175.624C10.2166 174.518 10.7735 173.56 10.8365 173.455C11.3478 172.617 12.2969 172.154 13.2985 172.245C13.5051 172.263 13.6556 172.447 13.6381 172.657C13.6206 172.866 13.4385 173.036 13.2354 173.004C12.507 172.946 11.8276 173.267 11.4634 173.864C11.4599 173.871 11.0221 174.597 11.2778 175.378C11.5894 176.332 12.7136 176.708 13.3895 176.73C14.6502 176.766 15.7463 175.667 16.1561 174.558C16.4748 173.69 16.5378 172.306 15.6623 171.262C14.9934 170.463 13.9218 170.101 12.64 170.242C11.1482 170.409 10.1221 171.464 9.62832 171.974C9.46723 172.14 9.30262 172.346 9.12402 172.566C8.23801 173.654 6.90725 175.302 4.5364 174.24C4.17219 174.077 3.39128 173.383 3.4228 172.382C3.44381 171.565 4.03212 170.644 4.97066 170.521C5.68507 170.419 6.41699 170.824 6.7917 171.518C6.88976 171.702 6.82674 171.934 6.64813 172.039C6.46953 172.14 6.24189 172.071 6.14383 171.89C5.9162 171.468 5.48199 171.222 5.06525 171.276C4.52595 171.348 4.17572 171.919 4.16171 172.404C4.1407 173.065 4.73953 173.499 4.83058 173.539C6.69014 174.373 7.68124 173.152 8.55324 172.075C8.74935 171.836 8.93143 171.612 9.10302 171.431C9.61432 170.907 10.812 169.679 12.5595 169.483C14.0864 169.31 15.3891 169.765 16.2261 170.763C17.1191 171.833 17.3642 173.43 16.8459 174.829C16.3732 176.126 15.1125 177.496 13.4595 177.496Z" fill="#FF811C"/>
<path d="M4.19374 21.0391C3.29373 21.0391 2.41825 20.7282 1.75287 20.1355C0.803831 19.2898 0.369555 17.9705 0.534149 16.42C0.719756 14.6455 1.88942 13.4383 2.39021 12.9179C2.55831 12.7444 2.77194 12.56 2.99957 12.3613C4.02216 11.4794 5.18129 10.4819 4.38984 8.60246C4.34782 8.5121 3.95561 7.90131 3.31824 7.93022C2.85948 7.94468 2.32016 8.29525 2.25362 8.83738C2.20109 9.25663 2.43222 9.69396 2.83145 9.92165C3.01005 10.0229 3.07307 10.2578 2.97502 10.4421C2.87696 10.6264 2.64939 10.6915 2.47078 10.5903C1.80891 10.2108 1.42715 9.46625 1.5182 8.73979C1.63727 7.78563 2.5163 7.1893 3.29724 7.164C4.22527 7.11701 4.91165 7.93023 5.06924 8.29888C6.08132 10.6987 4.51243 12.054 3.47583 12.9504C3.26571 13.1311 3.0696 13.2974 2.91551 13.46C2.43224 13.9588 1.42716 14.9961 1.26957 16.5032C1.13299 17.7935 1.47617 18.8814 2.23611 19.5572C3.22718 20.4391 4.54046 20.3776 5.36343 20.0523C6.41052 19.6439 7.45409 18.5525 7.41907 17.2622C7.40156 16.5791 7.04436 15.4442 6.14084 15.1298C5.40192 14.8732 4.71551 15.3141 4.70851 15.3177C4.14469 15.6864 3.83304 16.3694 3.89607 17.1067C3.91358 17.3164 3.76302 17.5007 3.55641 17.5188C3.34979 17.5332 3.17467 17.3815 3.15716 17.1718C3.07312 16.149 3.51437 15.1912 4.31282 14.6708C4.41088 14.6057 5.3214 14.0383 6.37901 14.4069C7.55918 14.819 8.13002 16.1634 8.16154 17.2405C8.20707 18.9645 6.87979 20.2765 5.62608 20.768C5.16031 20.9487 4.67352 21.0391 4.19374 21.0391Z" fill="#FF811C"/>
<path d="M3.34977 35.0664C3.33226 35.0664 3.31475 35.0664 3.29724 35.0664C2.5163 35.0411 1.63727 34.4484 1.5182 33.4942C1.42715 32.7641 1.80891 32.0232 2.47078 31.6438C2.64939 31.5426 2.87696 31.6076 2.97502 31.7919C3.07307 31.9762 3.01005 32.2076 2.83145 32.3124C2.43222 32.5401 2.20109 32.9738 2.25362 33.3967C2.32016 33.9388 2.85948 34.2894 3.31824 34.3038C3.92059 34.3291 4.34782 33.7219 4.38984 33.6279C5.18129 31.7522 4.02216 30.751 2.99957 29.8691C2.77194 29.674 2.55831 29.4897 2.39021 29.3126C1.88942 28.7957 0.719756 27.5849 0.534149 25.814C0.369555 24.2635 0.803831 22.9443 1.75287 22.0949C2.77196 21.1914 4.29181 20.942 5.62608 21.466C6.87979 21.954 8.20707 23.2696 8.16154 24.9936C8.13002 26.067 7.55918 27.4151 6.37901 27.8271C5.3214 28.1921 4.41089 27.6247 4.30934 27.5597C3.51438 27.0428 3.07312 26.085 3.15716 25.0622C3.17467 24.8526 3.34979 24.6972 3.55641 24.7116C3.76302 24.7297 3.91358 24.9176 3.89607 25.1273C3.83304 25.8646 4.14469 26.5477 4.70851 26.9163C4.71551 26.9199 5.39842 27.3609 6.14084 27.1007C7.04436 26.7862 7.40156 25.6549 7.41907 24.9719C7.45409 23.6816 6.41052 22.5901 5.36343 22.1781C4.54046 21.8564 3.22718 21.7949 2.23611 22.6768C1.47617 23.3527 1.13299 24.4369 1.26957 25.7308C1.42716 27.238 2.43224 28.2753 2.91551 28.774C3.0696 28.9367 3.26571 29.1029 3.47583 29.2836C4.51243 30.18 6.08132 31.5317 5.06924 33.9352C4.91516 34.2966 4.2778 35.0664 3.34977 35.0664Z" fill="#FF811C"/>
<path d="M5.31291 62.2109C4.38488 62.2109 3.74752 61.4375 3.59344 61.0797C2.58136 58.6762 4.15025 57.3245 5.18685 56.4282C5.39697 56.2474 5.59308 56.0776 5.74717 55.9186C6.23044 55.4198 7.23202 54.3789 7.39311 52.8718C7.52619 51.5815 7.18294 50.4936 6.4265 49.8177C5.43544 48.9359 4.12222 49.0009 3.29925 49.3226C2.25215 49.7346 1.20852 50.8261 1.24354 52.1128C1.26105 52.7995 1.61825 53.9307 2.52177 54.2452C3.26069 54.5018 3.9471 54.0645 3.9541 54.0608C4.51792 53.6922 4.82964 53.0055 4.76661 52.2718C4.7491 52.0585 4.89966 51.8742 5.10627 51.8562C5.30939 51.8417 5.48801 51.9935 5.50552 52.2031C5.58956 53.226 5.14831 54.1837 4.34985 54.7042C4.2518 54.7693 3.34128 55.3367 2.28367 54.968C1.1035 54.5596 0.532657 53.2115 0.501139 52.1345C0.455613 50.4141 1.78289 49.0985 3.0366 48.607C4.37087 48.0829 5.89072 48.3323 6.90981 49.2395C7.85885 50.0852 8.28962 51.4044 8.12853 52.9549C7.94292 54.7295 6.77326 55.9403 6.27247 56.4571C6.10437 56.6342 5.89074 56.8185 5.66311 57.0137C4.64052 57.8955 3.48132 58.8967 4.27277 60.7725C4.31479 60.8664 4.72458 61.47 5.34444 61.4483C5.8032 61.4339 6.34245 61.0797 6.40899 60.5376C6.46152 60.1183 6.23039 59.6846 5.83116 59.4569C5.65256 59.3521 5.58604 59.1208 5.68759 58.9365C5.78565 58.7521 6.00979 58.6835 6.1919 58.7846C6.85027 59.1641 7.23547 59.9087 7.14441 60.6351C7.02534 61.5893 6.14638 62.1856 5.36544 62.2109C5.34793 62.2109 5.33042 62.2109 5.31291 62.2109Z" fill="#FF811C"/>
<path d="M4.46894 48.1797C3.98916 48.1797 3.50237 48.0893 3.0366 47.9086C1.78289 47.4171 0.455613 46.1051 0.501139 44.3811C0.532657 43.3041 1.1035 41.9596 2.28367 41.5476C3.34128 41.1789 4.2518 41.7463 4.34985 41.8114C5.14831 42.3318 5.58956 43.2896 5.50552 44.3125C5.48801 44.5221 5.30939 44.6703 5.10627 44.6594C4.89966 44.6413 4.7491 44.457 4.76661 44.2474C4.82964 43.5101 4.51792 42.8234 3.9541 42.4583C3.9471 42.4511 3.26069 42.0138 2.52177 42.2704C1.61825 42.5849 1.26105 43.7161 1.24354 44.4028C1.20852 45.6931 2.25215 46.7809 3.29925 47.193C4.12222 47.5146 5.43544 47.5797 6.4265 46.6979C7.18294 46.022 7.52619 44.9377 7.39311 43.6438C7.23202 42.1367 6.23044 41.0994 5.74717 40.597C5.59308 40.438 5.39697 40.2717 5.18685 40.0874C4.15025 39.1947 2.58136 37.8393 3.59344 35.4359C3.74752 35.0708 4.39188 34.2613 5.36544 34.3046C6.14638 34.3299 7.02534 34.9263 7.14441 35.8804C7.23547 36.6069 6.85027 37.3514 6.1919 37.7309C6.00979 37.8321 5.78565 37.7635 5.68759 37.5827C5.58604 37.3984 5.65256 37.1635 5.83116 37.0623C6.23039 36.831 6.46152 36.3973 6.40899 35.978C6.34245 35.4359 5.8032 35.0853 5.34444 35.0708C4.71758 35.0347 4.31479 35.6527 4.27277 35.7431C3.48132 37.6189 4.64052 38.62 5.66311 39.5019C5.89074 39.7007 6.10437 39.8814 6.27247 40.0585C6.77326 40.5753 7.94292 41.7861 8.12853 43.5607C8.28962 45.1112 7.85885 46.4304 6.90981 47.2761C6.24443 47.8652 5.36895 48.1797 4.46894 48.1797Z" fill="#FF811C"/>
<path d="M4.19374 75.0352C3.29373 75.0352 2.41825 74.7243 1.75287 74.1352C0.803831 73.2859 0.369555 71.9666 0.534149 70.4161C0.719756 68.6452 1.88942 67.4344 2.39021 66.9176C2.55831 66.7405 2.77194 66.5562 2.99957 66.361C4.02216 65.4791 5.18129 64.478 4.38984 62.5986C4.34782 62.5082 3.92409 61.8938 3.31824 61.9263C2.85948 61.9408 2.32016 62.2914 2.25362 62.8371C2.20109 63.2564 2.43222 63.6901 2.83145 63.9177C3.01005 64.0226 3.07307 64.2539 2.97502 64.4382C2.87696 64.6225 2.64939 64.6876 2.47078 64.5864C1.80891 64.2069 1.42715 63.466 1.5182 62.7359C1.63727 61.7817 2.5163 61.189 3.29724 61.1637C4.28831 61.1276 4.91165 61.9299 5.06924 62.295C6.08132 64.6984 4.51243 66.0501 3.47583 66.9465C3.26571 67.1272 3.0696 67.2935 2.91551 67.4561C2.43224 67.9549 1.42716 68.9922 1.26957 70.4993C1.13299 71.7932 1.47617 72.8775 2.23611 73.5533C3.22718 74.4352 4.54046 74.3737 5.36343 74.0521C6.41052 73.6401 7.45409 72.5486 7.41907 71.2583C7.40156 70.5752 7.04436 69.4439 6.14084 69.1295C5.40192 68.8729 4.73653 69.2957 4.70851 69.3174C4.14469 69.6825 3.83304 70.3692 3.89607 71.1028C3.91358 71.3125 3.76302 71.5004 3.55641 71.5185C3.34979 71.5257 3.17467 71.3776 3.15716 71.1679C3.07312 70.1487 3.51437 69.1909 4.31282 68.6705C4.41438 68.6018 5.3249 68.038 6.37901 68.403C7.55918 68.8151 8.13002 70.1631 8.16154 71.2366C8.20707 72.9606 6.87979 74.2762 5.62608 74.7677C5.16031 74.9484 4.67352 75.0352 4.19374 75.0352Z" fill="#FF811C"/>
<path d="M3.34977 89.0703C3.33226 89.0703 3.31475 89.0703 3.29724 89.0703C2.5163 89.045 1.63727 88.4486 1.5182 87.4945C1.42715 86.768 1.80891 86.0235 2.47078 85.644C2.64939 85.5428 2.87696 85.6079 2.97502 85.7958C3.07307 85.9765 3.01005 86.2115 2.83145 86.3127C2.43222 86.5404 2.20109 86.9777 2.25362 87.3969C2.32016 87.9391 2.85948 88.2896 3.31824 88.3041C3.9416 88.3222 4.34782 87.7222 4.38984 87.6319C5.18129 85.7525 4.02216 84.7549 2.99957 83.873C2.77194 83.6743 2.55831 83.4899 2.39021 83.3164C1.88942 82.7996 0.719756 81.5888 0.534149 79.8142C0.369555 78.2637 0.803831 76.9445 1.75287 76.0988C2.77196 75.1916 4.29181 74.9422 5.62608 75.4663C6.87979 75.9579 8.20707 77.2698 8.16154 78.9938C8.13002 80.0709 7.55918 81.4153 6.37901 81.8274C5.32841 82.1924 4.41438 81.6286 4.31282 81.5635C3.51437 81.0431 3.07312 80.0853 3.15716 79.0625C3.17467 78.8529 3.34979 78.6975 3.55641 78.7155C3.76302 78.7336 3.91358 78.9179 3.89607 79.1275C3.83304 79.8648 4.14469 80.5479 4.70851 80.9166C4.73653 80.9346 5.40192 81.3611 6.14084 81.1045C7.04436 80.7901 7.40156 79.6552 7.41907 78.9721C7.45409 77.6818 6.41052 76.5903 5.36343 76.1819C4.54046 75.8603 3.22718 75.7952 2.23611 76.6771C1.47617 77.3529 1.13299 78.4408 1.26957 79.7311C1.42716 81.2382 2.43224 82.2755 2.91551 82.7743C3.0696 82.9369 3.26571 83.1032 3.47583 83.2839C4.51243 84.1802 6.08132 85.5356 5.06924 87.9354C4.91516 88.2969 4.2778 89.0703 3.34977 89.0703Z" fill="#FF811C"/>
<path d="M5.31291 116.211C4.38488 116.211 3.74752 115.437 3.59344 115.076C2.58136 112.673 4.15025 111.321 5.18685 110.425C5.39697 110.244 5.59308 110.078 5.74717 109.915C6.23044 109.416 7.23202 108.379 7.39311 106.872C7.52619 105.578 7.18294 104.494 6.4265 103.818C5.43544 102.936 4.12222 102.997 3.29925 103.323C2.25215 103.731 1.20852 104.822 1.24354 106.113C1.26105 106.796 1.61825 107.927 2.52177 108.242C3.26069 108.502 3.92608 108.075 3.9541 108.057C4.51792 107.689 4.82964 107.005 4.76661 106.268C4.7491 106.059 4.89966 105.874 5.10627 105.856C5.30939 105.834 5.48801 105.993 5.50552 106.203C5.58956 107.226 5.14831 108.184 4.34985 108.704C4.2483 108.769 3.33778 109.333 2.28367 108.968C1.1035 108.556 0.532657 107.211 0.501139 106.134C0.455613 104.41 1.78289 103.098 3.0366 102.607C4.37087 102.083 5.89072 102.332 6.90981 103.239C7.85885 104.085 8.28962 105.404 8.12853 106.955C7.94292 108.729 6.77326 109.937 6.27247 110.453C6.10437 110.631 5.89074 110.815 5.66311 111.01C4.64052 111.892 3.48132 112.893 4.27277 114.772C4.31479 114.863 4.72458 115.477 5.34444 115.445C5.8032 115.43 6.34245 115.08 6.40899 114.538C6.46152 114.118 6.23039 113.681 5.83116 113.453C5.65256 113.352 5.58604 113.117 5.68759 112.933C5.78565 112.748 6.01329 112.683 6.1919 112.785C6.85027 113.164 7.23547 113.905 7.14441 114.635C7.02534 115.589 6.14638 116.186 5.36544 116.207C5.34793 116.211 5.33042 116.211 5.31291 116.211Z" fill="#FF811C"/>
<path d="M4.46894 102.18C3.98916 102.18 3.50237 102.093 3.0366 101.909C1.78289 101.417 0.455613 100.105 0.501139 98.3811C0.532657 97.3041 1.1035 95.9596 2.28367 95.5476C3.33427 95.1825 4.2483 95.7463 4.34985 95.8114C5.14831 96.3318 5.58956 97.2896 5.50552 98.3125C5.48801 98.5221 5.30939 98.6775 5.10627 98.6594C4.89966 98.6413 4.7491 98.457 4.76661 98.2474C4.82964 97.5101 4.51792 96.827 3.9541 96.4583C3.92608 96.4403 3.26069 96.0138 2.52177 96.274C1.61825 96.5885 1.26105 97.7197 1.24354 98.4028C1.20852 99.6931 2.25215 100.785 3.29925 101.197C4.12222 101.518 5.43544 101.58 6.4265 100.698C7.18294 100.022 7.52619 98.9377 7.39311 97.6438C7.23202 96.1367 6.23044 95.0994 5.74717 94.6006C5.59308 94.438 5.39697 94.2717 5.18685 94.091C4.15025 93.1947 2.58136 91.8394 3.59344 89.4395C3.74402 89.0781 4.38488 88.3046 5.31291 88.3046C5.33042 88.3046 5.34793 88.3046 5.36544 88.3082C6.14638 88.3299 7.02534 88.9263 7.14441 89.8804C7.23547 90.6105 6.85027 91.3514 6.1919 91.7309C6.01329 91.8321 5.78565 91.7671 5.68759 91.5827C5.58604 91.3984 5.65256 91.1635 5.83116 91.0623C6.23039 90.8346 6.46152 90.4009 6.40899 89.978C6.34245 89.4359 5.8032 89.0853 5.34444 89.0709C4.72108 89.0528 4.31479 89.6527 4.27277 89.7431C3.48132 91.6225 4.64052 92.62 5.66311 93.5055C5.89074 93.7007 6.10437 93.885 6.27247 94.0621C6.77326 94.5789 7.94292 95.7861 8.12853 97.5607C8.28962 99.1112 7.85885 100.434 6.90981 101.276C6.24443 101.869 5.36895 102.18 4.46894 102.18Z" fill="#FF811C"/>
<path d="M4.19374 129.035C3.29373 129.035 2.41825 128.724 1.75287 128.132C0.803831 127.286 0.369555 125.967 0.534149 124.416C0.719756 122.642 1.88942 121.431 2.39021 120.914C2.55831 120.74 2.77194 120.556 2.99957 120.357C4.02216 119.476 5.18129 118.474 4.38984 116.599C4.34782 116.508 3.95561 115.915 3.31824 115.926C2.85948 115.941 2.32016 116.291 2.25362 116.834C2.20109 117.253 2.43222 117.69 2.83145 117.918C3.01005 118.019 3.07307 118.254 2.97502 118.438C2.87696 118.623 2.64939 118.688 2.47078 118.586C1.80891 118.207 1.42715 117.462 1.5182 116.736C1.63727 115.782 2.5163 115.185 3.29724 115.16C4.22527 115.12 4.91165 115.926 5.06924 116.295C6.08132 118.695 4.51243 120.05 3.47583 120.943C3.26571 121.127 3.0696 121.293 2.91551 121.456C2.43224 121.955 1.42716 122.992 1.26957 124.499C1.13299 125.793 1.47617 126.877 2.23611 127.553C3.22718 128.435 4.54046 128.374 5.36343 128.048C6.41052 127.64 7.45409 126.549 7.41907 125.258C7.40156 124.575 7.04436 123.44 6.14084 123.126C5.40192 122.869 4.71551 123.307 4.70851 123.314C4.14469 123.682 3.83304 124.366 3.89607 125.103C3.91358 125.313 3.76302 125.497 3.55641 125.515C3.34979 125.529 3.17467 125.378 3.15716 125.168C3.07312 124.145 3.51437 123.187 4.31282 122.667C4.41088 122.602 5.3214 122.034 6.37901 122.403C7.55918 122.815 8.13002 124.16 8.16154 125.237C8.20707 126.961 6.87979 128.273 5.62608 128.764C5.16031 128.945 4.67352 129.035 4.19374 129.035Z" fill="#FF811C"/>
<path d="M3.34977 143.066C3.33226 143.066 3.31475 143.066 3.29724 143.066C2.5163 143.041 1.63727 142.448 1.5182 141.491C1.42715 140.764 1.80891 140.023 2.47078 139.644C2.64939 139.539 2.87696 139.608 2.97502 139.792C3.07307 139.976 3.01005 140.208 2.83145 140.312C2.43222 140.54 2.20109 140.974 2.25362 141.393C2.32016 141.939 2.85948 142.289 3.31824 142.304C3.93109 142.304 4.34782 141.722 4.38984 141.628C5.18129 139.752 4.02216 138.751 2.99957 137.869C2.77194 137.674 2.55831 137.49 2.39021 137.313C1.88942 136.796 0.719756 135.585 0.534149 133.81C0.369555 132.263 0.803831 130.944 1.75287 130.095C2.77196 129.191 4.29181 128.942 5.62608 129.466C6.87979 129.954 8.20707 131.27 8.16154 132.994C8.13002 134.067 7.55918 135.415 6.37901 135.827C5.32841 136.192 4.41438 135.625 4.31282 135.56C3.51437 135.039 3.07312 134.081 3.15716 133.062C3.17467 132.849 3.34979 132.683 3.55641 132.712C3.76302 132.73 3.91358 132.918 3.89607 133.127C3.83304 133.861 4.14469 134.548 4.70851 134.916C4.73653 134.931 5.40192 135.357 6.14084 135.101C7.04436 134.786 7.40156 133.655 7.41907 132.968C7.45409 131.682 6.41052 130.59 5.36343 130.178C4.54046 129.856 3.22718 129.795 2.23611 130.677C1.47617 131.353 1.13299 132.437 1.26957 133.727C1.42716 135.234 2.43224 136.275 2.91551 136.774C3.0696 136.933 3.26573 137.103 3.47234 137.284C4.51244 138.18 6.08132 139.532 5.06924 141.935C4.91866 142.293 4.2778 143.066 3.34977 143.066Z" fill="#FF811C"/>
<path d="M5.31639 170.207C4.38486 170.207 3.74752 169.434 3.59344 169.072C2.58136 166.672 4.15025 165.317 5.18685 164.424C5.39697 164.244 5.59308 164.074 5.74717 163.911C6.23044 163.412 7.23202 162.375 7.39311 160.868C7.52619 159.574 7.18294 158.49 6.4265 157.814C5.43544 156.932 4.12222 156.997 3.29925 157.319C2.25215 157.731 1.20852 158.819 1.24354 160.109C1.26105 160.796 1.61825 161.927 2.52177 162.241C3.26069 162.501 3.92608 162.071 3.9541 162.053C4.51792 161.688 4.82964 161.002 4.76661 160.268C4.7491 160.055 4.89966 159.87 5.10627 159.852C5.30939 159.823 5.48801 159.99 5.50552 160.199C5.58956 161.222 5.14831 162.18 4.34985 162.7C4.2483 162.765 3.33427 163.333 2.28367 162.964C1.1035 162.552 0.532657 161.208 0.501139 160.131C0.455613 158.41 1.78289 157.095 3.0366 156.603C4.37087 156.079 5.89072 156.328 6.90981 157.236C7.85885 158.081 8.28962 159.4 8.12853 160.951C7.94292 162.726 6.77326 163.936 6.27247 164.453C6.10437 164.63 5.89074 164.811 5.66311 165.01C4.64052 165.892 3.48132 166.893 4.27277 168.769C4.31479 168.859 4.71408 169.459 5.34444 169.444C5.8032 169.426 6.34245 169.076 6.40899 168.534C6.46152 168.114 6.23039 167.677 5.83116 167.449C5.65256 167.348 5.58604 167.117 5.68759 166.933C5.78565 166.748 6.00979 166.68 6.1919 166.781C6.85027 167.16 7.23547 167.905 7.14441 168.631C7.02534 169.585 6.14638 170.182 5.36544 170.207C5.34793 170.207 5.3304 170.207 5.31639 170.207Z" fill="#FF811C"/>
<path d="M4.46894 156.172C3.98916 156.172 3.50237 156.085 3.0366 155.904C1.78289 155.413 0.455613 154.097 0.501139 152.377C0.532657 151.3 1.1035 149.955 2.28367 149.543C3.33427 149.175 4.2483 149.742 4.34985 149.807C5.14831 150.328 5.58956 151.285 5.50552 152.308C5.48801 152.518 5.30939 152.681 5.10627 152.655C4.89966 152.637 4.7491 152.453 4.76661 152.24C4.82964 151.506 4.51792 150.819 3.9541 150.454C3.92608 150.436 3.26069 150.013 2.52177 150.266C1.61825 150.581 1.26105 151.712 1.24354 152.399C1.20852 153.685 2.25215 154.777 3.29925 155.189C4.12222 155.51 5.43544 155.572 6.4265 154.694C7.18294 154.018 7.52619 152.93 7.39311 151.64C7.23202 150.129 6.23044 149.092 5.74717 148.596C5.59308 148.434 5.39697 148.264 5.18685 148.083C4.15025 147.19 2.58136 145.835 3.59344 143.435C3.74752 143.067 4.40589 142.257 5.36544 142.3C6.14638 142.326 7.02534 142.918 7.14441 143.876C7.23547 144.603 6.85027 145.347 6.1919 145.727C6.00979 145.828 5.78565 145.759 5.68759 145.575C5.58604 145.391 5.65256 145.159 5.83116 145.058C6.23039 144.827 6.46152 144.393 6.40899 143.974C6.34245 143.428 5.8032 143.078 5.34444 143.063C4.72458 143.049 4.31479 143.649 4.27277 143.739C3.48132 145.615 4.64052 146.616 5.66311 147.498C5.89074 147.697 6.10437 147.877 6.27247 148.054C6.77326 148.571 7.94292 149.778 8.12853 151.557C8.28962 153.107 7.85885 154.426 6.90981 155.272C6.24443 155.861 5.36895 156.172 4.46894 156.172Z" fill="#FF811C"/>
<path d="M244.174 170.207C244.157 170.207 244.143 170.207 244.125 170.207C243.344 170.182 242.465 169.585 242.346 168.631C242.255 167.905 242.637 167.16 243.299 166.781C243.478 166.68 243.705 166.748 243.803 166.933C243.901 167.117 243.838 167.348 243.66 167.449C243.26 167.677 243.029 168.114 243.082 168.534C243.148 169.076 243.688 169.426 244.146 169.444C244.157 169.444 244.164 169.444 244.174 169.444C244.78 169.444 245.176 168.859 245.218 168.769C246.006 166.893 244.85 165.892 243.828 165.01C243.6 164.811 243.386 164.63 243.215 164.453C242.718 163.936 241.548 162.726 241.362 160.951C241.198 159.4 241.632 158.081 242.581 157.236C243.6 156.328 245.116 156.079 246.454 156.603C247.708 157.095 249.035 158.41 248.986 160.131C248.958 161.208 248.387 162.552 247.207 162.964C246.15 163.333 245.239 162.765 245.141 162.7C244.342 162.18 243.901 161.222 243.985 160.199C244.003 159.99 244.185 159.827 244.385 159.852C244.591 159.87 244.742 160.055 244.724 160.268C244.661 161.002 244.973 161.688 245.537 162.053C245.544 162.061 246.23 162.498 246.969 162.241C247.873 161.927 248.23 160.796 248.247 160.109C248.282 158.819 247.239 157.731 246.192 157.319C245.369 156.997 244.055 156.932 243.064 157.814C242.308 158.49 241.961 159.574 242.098 160.868C242.255 162.375 243.26 163.412 243.74 163.911C243.898 164.074 244.094 164.244 244.304 164.424C245.341 165.317 246.906 166.672 245.897 169.072C245.743 169.434 245.102 170.207 244.174 170.207Z" fill="#FF811C"/>
<path d="M245.022 156.172C244.122 156.172 243.246 155.861 242.581 155.272C241.632 154.426 241.198 153.107 241.362 151.557C241.548 149.778 242.718 148.571 243.215 148.054C243.386 147.877 243.597 147.697 243.828 147.498C244.85 146.616 246.006 145.615 245.218 143.739C245.176 143.649 244.78 143.063 244.174 143.063C244.167 143.063 244.157 143.063 244.146 143.063C243.688 143.078 243.148 143.428 243.082 143.974C243.029 144.393 243.26 144.827 243.66 145.058C243.838 145.159 243.901 145.391 243.803 145.575C243.702 145.759 243.478 145.828 243.299 145.727C242.637 145.347 242.255 144.603 242.346 143.876C242.465 142.918 243.344 142.326 244.125 142.3C245.067 142.264 245.743 143.067 245.897 143.435C246.906 145.835 245.341 147.19 244.3 148.083C244.094 148.264 243.898 148.434 243.74 148.596C243.26 149.092 242.255 150.129 242.098 151.64C241.961 152.934 242.308 154.018 243.064 154.694C244.055 155.572 245.369 155.51 246.192 155.189C247.239 154.777 248.282 153.685 248.247 152.399C248.23 151.712 247.873 150.581 246.969 150.266C246.234 150.01 245.544 150.447 245.537 150.451C244.973 150.819 244.661 151.506 244.724 152.24C244.742 152.453 244.591 152.637 244.385 152.655C244.178 152.677 244.003 152.518 243.985 152.308C243.901 151.285 244.342 150.328 245.141 149.807C245.239 149.742 246.153 149.175 247.207 149.543C248.387 149.955 248.958 151.3 248.986 152.377C249.035 154.097 247.708 155.413 246.454 155.904C245.988 156.085 245.502 156.172 245.022 156.172Z" fill="#FF811C"/>
<path d="M245.286 129.035C244.806 129.035 244.319 128.945 243.857 128.764C242.603 128.273 241.273 126.961 241.322 125.237C241.35 124.16 241.92 122.815 243.104 122.403C244.186 122.027 245.132 122.642 245.174 122.671C245.969 123.187 246.41 124.145 246.326 125.168C246.308 125.378 246.13 125.533 245.923 125.515C245.72 125.497 245.57 125.312 245.587 125.103C245.65 124.366 245.338 123.679 244.775 123.314C244.764 123.307 244.085 122.869 243.342 123.126C242.439 123.444 242.082 124.575 242.064 125.258C242.026 126.549 243.069 127.636 244.12 128.048C244.943 128.374 246.253 128.435 247.244 127.553C248.004 126.877 248.347 125.793 248.214 124.499C248.053 122.992 247.051 121.955 246.568 121.456C246.414 121.293 246.217 121.127 246.007 120.943C244.971 120.05 243.402 118.695 244.414 116.295C244.568 115.926 245.265 115.124 246.186 115.16C246.967 115.185 247.846 115.782 247.965 116.736C248.056 117.462 247.671 118.207 247.012 118.586C246.834 118.688 246.606 118.623 246.508 118.438C246.407 118.254 246.473 118.019 246.652 117.918C247.051 117.69 247.282 117.253 247.23 116.834C247.163 116.291 246.624 115.941 246.165 115.926C246.154 115.926 246.144 115.926 246.133 115.926C245.528 115.926 245.132 116.508 245.093 116.599C244.302 118.474 245.461 119.476 246.484 120.357C246.711 120.556 246.921 120.74 247.093 120.914C247.594 121.431 248.763 122.642 248.949 124.416C249.11 125.967 248.679 127.286 247.73 128.132C247.065 128.724 246.186 129.035 245.286 129.035Z" fill="#FF811C"/>
<path d="M246.133 143.066C245.205 143.066 244.564 142.293 244.414 141.935C243.402 139.532 244.971 138.18 246.011 137.284C246.217 137.103 246.413 136.933 246.567 136.774C247.051 136.275 248.052 135.234 248.213 133.731C248.347 132.437 248.003 131.353 247.243 130.677C246.256 129.795 244.943 129.856 244.12 130.178C243.069 130.59 242.025 131.682 242.064 132.968C242.081 133.655 242.439 134.786 243.342 135.101C244.081 135.361 244.767 134.92 244.774 134.916C245.338 134.548 245.65 133.861 245.587 133.127C245.569 132.918 245.72 132.73 245.923 132.712C246.123 132.683 246.308 132.849 246.326 133.062C246.41 134.081 245.969 135.039 245.17 135.56C245.069 135.628 244.158 136.196 243.104 135.827C241.92 135.415 241.349 134.067 241.321 132.99C241.276 131.27 242.603 129.954 243.857 129.466C245.191 128.942 246.711 129.191 247.73 130.095C248.679 130.941 249.11 132.26 248.949 133.81C248.763 135.585 247.594 136.796 247.093 137.313C246.925 137.49 246.711 137.674 246.483 137.869C245.461 138.751 244.302 139.752 245.093 141.628C245.132 141.718 245.527 142.304 246.133 142.304C246.144 142.304 246.154 142.304 246.165 142.304C246.624 142.289 247.163 141.939 247.229 141.397C247.282 140.974 247.051 140.54 246.652 140.312C246.473 140.208 246.406 139.976 246.508 139.792C246.606 139.608 246.834 139.539 247.012 139.644C247.671 140.023 248.056 140.764 247.965 141.494C247.846 142.448 246.967 143.041 246.186 143.066C246.168 143.066 246.151 143.066 246.133 143.066Z" fill="#FF811C"/>
<path d="M244.174 116.211C244.16 116.211 244.143 116.211 244.125 116.207C243.344 116.186 242.465 115.589 242.346 114.635C242.255 113.909 242.637 113.164 243.299 112.785C243.478 112.683 243.702 112.748 243.803 112.933C243.901 113.117 243.838 113.352 243.66 113.453C243.26 113.681 243.029 114.118 243.082 114.538C243.148 115.08 243.688 115.43 244.146 115.445C244.791 115.47 245.176 114.863 245.218 114.772C246.006 112.893 244.85 111.892 243.828 111.01C243.597 110.815 243.386 110.631 243.215 110.457C242.718 109.937 241.548 108.726 241.362 106.955C241.198 105.404 241.632 104.085 242.581 103.239C243.6 102.332 245.123 102.086 246.454 102.607C247.708 103.098 249.035 104.41 248.986 106.134C248.958 107.211 248.387 108.556 247.207 108.968C246.153 109.333 245.239 108.769 245.141 108.704C244.342 108.184 243.901 107.226 243.985 106.203C244.003 105.993 244.185 105.845 244.385 105.856C244.591 105.874 244.742 106.059 244.724 106.268C244.661 107.005 244.973 107.689 245.537 108.057C245.544 108.061 246.227 108.502 246.969 108.242C247.873 107.927 248.23 106.796 248.247 106.113C248.282 104.822 247.239 103.731 246.192 103.323C245.369 103.001 244.055 102.936 243.064 103.818C242.308 104.494 241.961 105.578 242.098 106.872C242.255 108.379 243.26 109.416 243.74 109.915C243.898 110.078 244.094 110.244 244.3 110.425C245.341 111.321 246.909 112.673 245.897 115.076C245.743 115.437 245.106 116.211 244.174 116.211Z" fill="#FF811C"/>
<path d="M245.022 102.18C244.122 102.18 243.246 101.869 242.581 101.276C241.632 100.434 241.198 99.1112 241.362 97.5643C241.548 95.7861 242.718 94.5789 243.215 94.0621C243.386 93.885 243.6 93.7007 243.828 93.5055C244.85 92.62 246.006 91.6225 245.218 89.7431C245.176 89.6527 244.794 89.0492 244.146 89.0709C243.688 89.0853 243.148 89.4359 243.082 89.978C243.029 90.4009 243.26 90.8346 243.66 91.0623C243.838 91.1635 243.901 91.3984 243.803 91.5827C243.702 91.7671 243.478 91.8321 243.299 91.7309C242.637 91.3514 242.255 90.6105 242.346 89.8804C242.465 88.9263 243.344 88.3299 244.125 88.3082C245.067 88.2793 245.74 89.0709 245.897 89.4395C246.906 91.8394 245.341 93.1947 244.3 94.091C244.094 94.2717 243.898 94.438 243.74 94.6006C243.26 95.0994 242.255 96.1367 242.098 97.6438C241.961 98.9377 242.308 100.022 243.064 100.698C244.055 101.58 245.369 101.518 246.192 101.197C247.239 100.785 248.282 99.6931 248.247 98.4028C248.23 97.7197 247.873 96.5885 246.969 96.274C246.227 96.0138 245.544 96.4547 245.537 96.4583C244.973 96.827 244.661 97.5101 244.724 98.2474C244.742 98.457 244.591 98.6413 244.385 98.6594C244.178 98.6703 244.003 98.5221 243.985 98.3125C243.901 97.2896 244.342 96.3318 245.141 95.8114C245.239 95.7463 246.153 95.1825 247.207 95.5476C248.387 95.9596 248.958 97.3041 248.986 98.3811C249.035 100.105 247.708 101.417 246.454 101.909C245.988 102.093 245.502 102.18 245.022 102.18Z" fill="#FF811C"/>
<path d="M245.286 75.0352C244.806 75.0352 244.319 74.9484 243.857 74.7677C242.603 74.2762 241.273 72.9606 241.322 71.2366C241.35 70.1631 241.92 68.8151 243.104 68.403C244.158 68.038 245.069 68.6054 245.17 68.6705C245.969 69.1909 246.41 70.1487 246.326 71.1679C246.308 71.3812 246.13 71.5365 245.923 71.5185C245.72 71.5004 245.57 71.3125 245.587 71.1028C245.65 70.3691 245.338 69.6824 244.775 69.3138C244.768 69.3102 244.081 68.8693 243.342 69.1295C242.439 69.4439 242.082 70.5752 242.064 71.2583C242.026 72.5486 243.069 73.6401 244.12 74.0521C244.943 74.3737 246.256 74.4352 247.244 73.5533C248.004 72.8775 248.347 71.7932 248.214 70.5029C248.053 68.9921 247.051 67.9549 246.568 67.4561C246.414 67.2935 246.217 67.1272 246.007 66.9465C244.971 66.0501 243.402 64.6984 244.414 62.295C244.568 61.9263 245.265 61.1167 246.186 61.1637C246.967 61.189 247.846 61.7817 247.965 62.7395C248.056 63.466 247.671 64.2069 247.012 64.5864C246.834 64.6876 246.606 64.6225 246.508 64.4382C246.407 64.2539 246.473 64.0226 246.652 63.9177C247.051 63.69 247.282 63.2564 247.23 62.8371C247.163 62.2914 246.624 61.9408 246.165 61.9263C246.154 61.9263 246.144 61.9263 246.133 61.9263C245.528 61.9263 245.132 62.5118 245.093 62.6022C244.302 64.478 245.461 65.4791 246.484 66.361C246.711 66.5562 246.921 66.7405 247.093 66.9176C247.594 67.4344 248.763 68.6452 248.949 70.4198C249.11 71.9703 248.679 73.2895 247.73 74.1352C247.065 74.7243 246.186 75.0352 245.286 75.0352Z" fill="#FF811C"/>
<path d="M246.133 89.0703C245.205 89.0703 244.565 88.2969 244.414 87.9354C243.402 85.5356 244.971 84.1802 246.007 83.2839C246.217 83.1032 246.414 82.9369 246.568 82.7743C247.051 82.2755 248.053 81.2382 248.214 79.7311C248.347 78.4372 248.004 77.3529 247.244 76.6771C246.256 75.7952 244.943 75.8566 244.12 76.1819C243.069 76.5903 242.026 77.6818 242.064 78.9721C242.082 79.6552 242.439 80.7901 243.342 81.1045C244.081 81.3611 244.768 80.9202 244.775 80.9166C245.338 80.5479 245.65 79.8648 245.587 79.1275C245.57 78.9179 245.72 78.7336 245.923 78.7155C246.123 78.7011 246.308 78.8529 246.326 79.0625C246.41 80.0853 245.969 81.0431 245.17 81.5635C245.069 81.6286 244.158 82.196 243.104 81.8274C241.92 81.4153 241.35 80.0709 241.322 78.9938C241.273 77.2698 242.603 75.9579 243.857 75.4663C245.191 74.9422 246.711 75.1916 247.73 76.0988C248.679 76.9445 249.11 78.2637 248.949 79.8142C248.763 81.5888 247.594 82.7996 247.093 83.3164C246.921 83.4899 246.711 83.6743 246.484 83.873C245.461 84.7549 244.302 85.7525 245.093 87.6319C245.132 87.7222 245.528 88.3041 246.133 88.3041C246.144 88.3041 246.154 88.3041 246.165 88.3041C246.624 88.2896 247.163 87.9391 247.23 87.3969C247.282 86.9777 247.051 86.5404 246.652 86.3127C246.473 86.2115 246.407 85.9765 246.508 85.7958C246.606 85.6079 246.834 85.5428 247.012 85.644C247.671 86.0235 248.056 86.768 247.965 87.4945C247.846 88.4486 246.967 89.045 246.186 89.0703C246.168 89.0703 246.151 89.0703 246.133 89.0703Z" fill="#FF811C"/>
<path d="M244.174 62.2109C244.16 62.2109 244.143 62.2109 244.125 62.2109C243.344 62.1856 242.465 61.5893 242.346 60.6351C242.255 59.9087 242.637 59.1641 243.299 58.7846C243.478 58.6835 243.702 58.7485 243.803 58.9365C243.901 59.1208 243.838 59.3521 243.66 59.4569C243.26 59.6846 243.029 60.1183 243.082 60.5376C243.148 61.0797 243.688 61.4339 244.146 61.4483C244.745 61.47 245.176 60.8664 245.218 60.7725C246.006 58.8967 244.85 57.8955 243.828 57.0137C243.6 56.8185 243.386 56.6342 243.215 56.4571C242.718 55.9403 241.548 54.7295 241.362 52.9549C241.198 51.4044 241.632 50.0852 242.581 49.2395C243.6 48.3323 245.12 48.0829 246.454 48.607C247.708 49.0985 249.035 50.4141 248.986 52.1345C248.958 53.2115 248.387 54.556 247.207 54.968C246.121 55.3439 245.179 54.7295 245.137 54.7042C244.342 54.1837 243.901 53.226 243.985 52.2031C244.003 51.9935 244.185 51.8489 244.385 51.8562C244.591 51.8742 244.742 52.0585 244.724 52.2718C244.661 53.0055 244.973 53.6922 245.537 54.0572C245.544 54.0645 246.223 54.5018 246.969 54.2452C247.873 53.9307 248.23 52.7995 248.247 52.1128C248.282 50.8261 247.239 49.7346 246.192 49.3226C245.369 49.0009 244.055 48.9395 243.064 49.8177C242.308 50.4936 241.961 51.5779 242.098 52.8718C242.255 54.3789 243.26 55.4198 243.74 55.9186C243.898 56.0776 244.094 56.2474 244.304 56.4282C245.341 57.3245 246.906 58.6762 245.897 61.0797C245.743 61.4375 245.102 62.2109 244.174 62.2109Z" fill="#FF811C"/>
<path d="M245.022 48.1797C244.122 48.1797 243.246 47.8652 242.581 47.2761C241.632 46.4304 241.198 45.1112 241.362 43.5607C241.548 41.7861 242.718 40.5753 243.215 40.0585C243.386 39.8814 243.6 39.7007 243.828 39.5019C244.85 38.62 246.006 37.6189 245.218 35.7431C245.176 35.6527 244.794 35.0455 244.146 35.0708C243.688 35.0853 243.148 35.4359 243.082 35.978C243.029 36.3973 243.26 36.831 243.66 37.0623C243.838 37.1635 243.901 37.3984 243.803 37.5827C243.702 37.7671 243.478 37.8321 243.299 37.7309C242.637 37.3514 242.255 36.6069 242.346 35.8804C242.465 34.9263 243.344 34.3299 244.125 34.3046C245.071 34.2721 245.74 35.0708 245.897 35.4359C246.906 37.8393 245.341 39.1947 244.304 40.0874C244.094 40.2717 243.898 40.438 243.74 40.597C243.26 41.0994 242.255 42.1367 242.098 43.6438C241.961 44.9377 242.308 46.022 243.064 46.6979C244.055 47.5797 245.369 47.5146 246.192 47.193C247.239 46.7809 248.282 45.6931 248.247 44.4028C248.23 43.7161 247.873 42.5849 246.969 42.2704C246.23 42.0138 245.547 42.4511 245.537 42.4583C244.973 42.8234 244.661 43.5101 244.724 44.2474C244.742 44.457 244.591 44.6413 244.385 44.6594C244.178 44.6703 244.003 44.5221 243.985 44.3125C243.901 43.2896 244.342 42.3318 245.141 41.8114C245.176 41.7861 246.128 41.1717 247.207 41.5476C248.387 41.9596 248.958 43.3041 248.986 44.3811C249.035 46.1015 247.708 47.4171 246.454 47.9086C245.988 48.0893 245.502 48.1797 245.022 48.1797Z" fill="#FF811C"/>
<path d="M245.286 21.0391C244.806 21.0391 244.319 20.9487 243.857 20.768C242.603 20.2765 241.273 18.9645 241.322 17.2405C241.35 16.1634 241.92 14.819 243.104 14.4069C244.186 14.0311 245.132 14.6455 245.174 14.6744C245.969 15.1912 246.41 16.149 246.326 17.1718C246.308 17.3815 246.13 17.5369 245.923 17.5188C245.72 17.5007 245.57 17.3164 245.587 17.1067C245.65 16.3694 245.338 15.6864 244.775 15.3177C244.764 15.3105 244.085 14.8732 243.342 15.1298C242.439 15.4478 242.082 16.5791 242.064 17.2622C242.026 18.5525 243.069 19.6439 244.12 20.0523C244.943 20.3776 246.256 20.4391 247.244 19.5572C248.004 18.8814 248.347 17.7971 248.214 16.5032C248.053 14.9961 247.051 13.9588 246.568 13.46C246.414 13.2974 246.217 13.1311 246.007 12.9504C244.971 12.054 243.402 10.6987 244.414 8.29888C244.568 7.93023 245.265 7.13147 246.186 7.164C246.967 7.1893 247.846 7.78563 247.965 8.73979C248.056 9.46625 247.671 10.2108 247.012 10.5903C246.834 10.6915 246.606 10.6264 246.508 10.4421C246.407 10.2578 246.473 10.0229 246.652 9.92165C247.051 9.69395 247.282 9.25663 247.23 8.83738C247.163 8.29525 246.624 7.94468 246.165 7.93022C246.154 7.93022 246.144 7.93022 246.133 7.93022C245.528 7.93022 245.132 8.5121 245.093 8.60246C244.302 10.4819 245.461 11.4794 246.484 12.3613C246.711 12.56 246.921 12.7444 247.093 12.9179C247.594 13.4383 248.763 14.6491 248.949 16.42C249.11 17.9705 248.679 19.2898 247.73 20.1355C247.065 20.7282 246.186 21.0391 245.286 21.0391Z" fill="#FF811C"/>
<path d="M246.133 35.0664C245.205 35.0664 244.564 34.2966 244.414 33.9352C243.402 31.5317 244.971 30.18 246.007 29.2836C246.217 29.1029 246.413 28.9367 246.567 28.774C247.051 28.2753 248.052 27.238 248.213 25.7308C248.347 24.4369 248.003 23.3527 247.243 22.6768C246.256 21.7949 244.943 21.8564 244.12 22.1781C243.069 22.5901 242.025 23.6816 242.064 24.9719C242.081 25.6549 242.439 26.7862 243.342 27.1007C244.085 27.3609 244.767 26.9199 244.771 26.9163C245.338 26.5477 245.65 25.8646 245.587 25.1273C245.569 24.9176 245.72 24.7297 245.923 24.7116C246.123 24.7008 246.308 24.849 246.326 25.0622C246.41 26.085 245.969 27.0428 245.17 27.5597C245.135 27.585 244.183 28.1994 243.104 27.8271C241.92 27.4151 241.349 26.067 241.321 24.9936C241.276 23.2696 242.603 21.9576 243.857 21.466C245.191 20.942 246.711 21.1914 247.73 22.0949C248.679 22.9407 249.11 24.2599 248.949 25.8104C248.763 27.585 247.594 28.7957 247.093 29.3126C246.921 29.4897 246.711 29.674 246.483 29.8691C245.461 30.751 244.302 31.7522 245.093 33.6316C245.132 33.7183 245.527 34.3038 246.133 34.3038C246.144 34.3038 246.154 34.3038 246.165 34.3038C246.624 34.2894 247.163 33.9388 247.229 33.3967C247.282 32.9738 247.051 32.5401 246.652 32.3124C246.473 32.2076 246.406 31.9762 246.508 31.7919C246.606 31.6076 246.834 31.5426 247.012 31.6438C247.671 32.0232 248.056 32.7641 247.965 33.4942C247.846 34.4484 246.967 35.0411 246.186 35.0664C246.168 35.0664 246.151 35.0664 246.133 35.0664Z" fill="#FF811C"/>
</svg>
