<svg width="250" height="178" viewBox="0 0 250 178" fill="none" xmlns="http://www.w3.org/2000/svg">
<path d="M1.7923 1.48027C2.00768 3.02192 2.9589 8.06472 6.45167 11.5695C9.94444 15.0778 14.97 16.0287 16.51 16.2448C16.291 14.7032 15.3434 9.66039 11.847 6.15565C8.34705 2.64371 3.32868 1.69279 1.7923 1.48027ZM16.9444 17.0625C16.9336 17.0625 16.9228 17.0625 16.912 17.0625C16.6428 17.0409 10.2675 16.4754 5.91322 12.1098C1.56251 7.74054 0.998933 1.3434 0.977394 1.07325C0.970215 0.961592 1.00969 0.853521 1.08866 0.774279C1.16763 0.695034 1.28612 0.655409 1.38663 0.662613C1.65586 0.684225 8.03116 1.24974 12.3855 5.61535C16.7362 9.98457 17.2997 16.3817 17.3213 16.6519C17.332 16.7635 17.2926 16.8716 17.21 16.9508C17.1418 17.0229 17.0413 17.0625 16.9444 17.0625Z" fill="#FF811C"/>
<path d="M2.23234 17.1899C3.24104 17.9283 6.15229 19.8337 9.53378 19.8337C12.9224 19.8337 15.83 17.9283 16.8351 17.1899C15.83 16.4479 12.9153 14.5424 9.53378 14.5424C6.15229 14.5424 3.24104 16.4479 2.23234 17.1899ZM9.53378 20.5938C5.07179 20.5938 1.51441 17.6041 1.36724 17.478C1.28108 17.406 1.23438 17.2979 1.23438 17.1899C1.23438 17.0782 1.28108 16.9701 1.36724 16.8981C1.51441 16.772 5.07179 13.7824 9.53378 13.7824C13.9958 13.7824 17.5531 16.772 17.7003 16.8981C17.7865 16.9701 17.8331 17.0782 17.8331 17.1899C17.8331 17.2979 17.7865 17.406 17.7003 17.478C17.5531 17.6041 13.9958 20.5938 9.53378 20.5938Z" fill="#FF811C"/>
<path d="M17.4583 1.91604C16.7189 2.9246 14.8199 5.84942 14.8199 9.2425C14.8199 12.6356 16.7189 15.5568 17.4583 16.5689C18.1978 15.5568 20.0932 12.6356 20.0932 9.2425C20.0932 5.84942 18.1978 2.9246 17.4583 1.91604ZM17.4583 17.5703C17.3471 17.5703 17.2394 17.5235 17.1676 17.437C17.0419 17.2893 14.0625 13.7198 14.0625 9.2425C14.0625 4.76522 17.0419 1.19564 17.1676 1.04796C17.2394 0.961514 17.3471 0.911093 17.4583 0.911093C17.5696 0.911093 17.6737 0.961514 17.7455 1.04796C17.8711 1.19564 20.8506 4.76522 20.8506 9.2425C20.8506 13.7198 17.8711 17.2893 17.7455 17.437C17.6737 17.5235 17.5696 17.5703 17.4583 17.5703Z" fill="#FF811C"/>
<path d="M243.937 11.8396H243.944H243.937ZM248.33 1.48027C246.79 1.69639 241.768 2.64731 238.272 6.15565C234.776 9.66039 233.828 14.7032 233.613 16.2448C235.149 16.0287 240.175 15.0778 243.667 11.5695C247.167 8.05752 248.115 3.02192 248.33 1.48027ZM233.178 17.0625C233.078 17.0625 232.981 17.0229 232.909 16.9508C232.83 16.8716 232.791 16.7635 232.798 16.6519C232.819 16.3817 233.383 9.98457 237.734 5.61535C242.088 1.24974 248.463 0.684225 248.732 0.662613C248.836 0.655409 248.951 0.695034 249.03 0.774279C249.109 0.853521 249.152 0.961592 249.142 1.07325C249.12 1.3434 248.556 7.74054 244.206 12.1098C239.851 16.4754 233.476 17.0409 233.207 17.0625C233.196 17.0625 233.189 17.0625 233.178 17.0625Z" fill="#FF811C"/>
<path d="M232.677 1.91604C231.938 2.9246 230.039 5.84942 230.039 9.2425C230.039 12.6428 231.938 15.5604 232.677 16.5689C233.413 15.5604 235.312 12.6356 235.312 9.2425C235.312 5.84942 233.413 2.9246 232.677 1.91604ZM232.677 17.5703C232.566 17.5703 232.458 17.5235 232.386 17.437C232.261 17.2893 229.281 13.7198 229.281 9.2425C229.281 4.76522 232.261 1.19564 232.386 1.04796C232.53 0.878668 232.821 0.878668 232.964 1.04796C233.09 1.19564 236.069 4.76522 236.069 9.2425C236.069 13.7198 233.09 17.2893 232.964 17.437C232.892 17.5235 232.788 17.5703 232.677 17.5703Z" fill="#FF811C"/>
<path d="M233.295 17.1899C234.304 17.9283 237.215 19.8337 240.596 19.8337C243.978 19.8337 246.893 17.9283 247.898 17.1899C246.893 16.4479 243.978 14.5424 240.596 14.5424C237.215 14.5424 234.304 16.4479 233.295 17.1899ZM240.596 20.5938C236.134 20.5938 232.58 17.6041 232.43 17.478C232.347 17.406 232.297 17.2979 232.297 17.1899C232.297 17.0782 232.347 16.9701 232.43 16.8981C232.58 16.772 236.134 13.7824 240.596 13.7824C245.062 13.7824 248.616 16.772 248.766 16.8981C248.849 16.9701 248.899 17.0782 248.899 17.1899C248.899 17.2979 248.849 17.406 248.766 17.478C248.616 17.6041 245.062 20.5938 240.596 20.5938Z" fill="#FF811C"/>
<path d="M238.272 171.843C241.772 175.351 246.79 176.302 248.33 176.518C248.111 174.973 247.164 169.934 243.667 166.425C240.175 162.921 235.149 161.966 233.613 161.75C233.828 163.295 234.776 168.335 238.272 171.843ZM248.765 177.336C248.754 177.336 248.743 177.336 248.732 177.332C248.463 177.311 242.088 176.749 237.734 172.38C233.383 168.014 232.819 161.617 232.798 161.343C232.791 161.235 232.83 161.123 232.909 161.044C232.988 160.965 233.103 160.929 233.207 160.932C233.476 160.958 239.851 161.52 244.206 165.889C248.556 170.254 249.12 176.652 249.142 176.922C249.152 177.033 249.109 177.145 249.03 177.224C248.959 177.296 248.862 177.336 248.765 177.336Z" fill="#FF811C"/>
<path d="M233.295 160.807C234.304 161.549 237.215 163.451 240.596 163.451C243.978 163.451 246.893 161.549 247.898 160.807C246.893 160.065 243.978 158.163 240.596 158.163C237.211 158.163 234.3 160.065 233.295 160.807ZM240.596 164.215C236.134 164.215 232.58 161.225 232.43 161.096C232.347 161.023 232.297 160.919 232.297 160.807C232.297 160.696 232.347 160.588 232.43 160.516C232.58 160.39 236.134 157.4 240.596 157.4C245.062 157.4 248.616 160.39 248.766 160.516C248.849 160.588 248.899 160.696 248.899 160.807C248.899 160.919 248.849 161.023 248.766 161.096C248.616 161.225 245.062 164.215 240.596 164.215Z" fill="#FF811C"/>
<path d="M232.677 161.428C231.938 162.436 230.039 165.361 230.039 168.754C230.039 172.147 231.938 175.069 232.677 176.077C233.413 175.069 235.312 172.147 235.312 168.754C235.312 165.361 233.413 162.436 232.677 161.428ZM232.677 177.082C232.566 177.082 232.458 177.032 232.386 176.949C232.261 176.797 229.281 173.232 229.281 168.754C229.281 164.273 232.261 160.707 232.386 160.556C232.53 160.387 232.821 160.387 232.964 160.556C233.09 160.707 236.069 164.273 236.069 168.754C236.069 173.232 233.09 176.797 232.964 176.949C232.892 177.032 232.788 177.082 232.677 177.082Z" fill="#FF811C"/>
<path d="M6.45167 166.425C2.95172 169.937 2.00768 174.973 1.7923 176.518C3.32868 176.302 8.35423 175.348 11.847 171.843C15.3434 168.335 16.291 163.295 16.51 161.75C14.97 161.966 9.94444 162.921 6.45167 166.425ZM1.35789 177.336C1.25738 177.336 1.16045 177.296 1.08866 177.224C1.00969 177.145 0.970215 177.033 0.977394 176.922C0.998933 176.652 1.56251 170.254 5.91322 165.889C10.2675 161.52 16.6428 160.958 16.912 160.932C17.0161 160.929 17.131 160.965 17.21 161.044C17.2926 161.123 17.332 161.235 17.3213 161.343C17.2997 161.617 16.7362 168.014 12.3855 172.38C8.03116 176.749 1.65586 177.311 1.38663 177.332C1.37945 177.336 1.36866 177.336 1.35789 177.336Z" fill="#FF811C"/>
<path d="M17.4583 161.428C16.7189 162.436 14.8199 165.361 14.8199 168.754C14.8199 172.147 16.7189 175.069 17.4583 176.077C18.1978 175.069 20.0932 172.147 20.0932 168.754C20.0932 165.354 18.1978 162.436 17.4583 161.428ZM17.4583 177.082C17.3471 177.082 17.2394 177.032 17.1676 176.949C17.0419 176.797 14.0625 173.232 14.0625 168.754C14.0625 164.273 17.0419 160.707 17.1676 160.556C17.2394 160.473 17.3471 160.423 17.4583 160.423C17.5696 160.423 17.6737 160.473 17.7455 160.556C17.8711 160.707 20.8506 164.273 20.8506 168.754C20.8506 173.232 17.8711 176.797 17.7455 176.949C17.6737 177.032 17.5696 177.082 17.4583 177.082Z" fill="#FF811C"/>
<path d="M2.23234 160.807C3.24104 161.549 6.15229 163.451 9.53378 163.451C12.9153 163.451 15.8264 161.549 16.8351 160.807C15.8264 160.065 12.9153 158.163 9.53378 158.163C6.15229 158.163 3.24104 160.065 2.23234 160.807ZM9.53378 164.215C5.07179 164.215 1.51441 161.225 1.36724 161.096C1.28108 161.023 1.23438 160.919 1.23438 160.807C1.23438 160.696 1.28108 160.588 1.36724 160.516C1.51441 160.39 5.07179 157.4 9.53378 157.4C13.9958 157.4 17.5531 160.39 17.7003 160.516C17.7865 160.588 17.8331 160.696 17.8331 160.807C17.8331 160.919 17.7865 161.023 17.7003 161.096C17.5531 161.225 13.9958 164.215 9.53378 164.215Z" fill="#FF811C"/>
<path d="M29.1337 176.415H220.852C221.006 161.352 233.161 149.12 248.158 148.907V28.8418C233.243 28.6293 221.143 16.5338 220.855 1.58192H29.1301C28.843 16.5338 16.7421 28.6293 1.82691 28.8418V148.907C16.8246 149.12 28.9793 161.352 29.1337 176.415ZM221.929 177.496H28.0604V176.704C28.0604 161.968 16.1139 149.984 1.42846 149.984H0.75V27.7648H1.42846C16.1139 27.7648 28.0604 15.7774 28.0604 1.04523V0.504929H221.929V1.04523C221.929 15.7774 233.872 27.7648 248.557 27.7648H249.235V149.984H248.557C233.872 149.984 221.929 161.968 221.929 176.704V177.496Z" fill="#FF811C"/>
<path d="M124.945 5.06892C124.191 5.06892 123.577 5.68126 123.577 6.43768C123.577 7.1941 124.191 7.81003 124.945 7.81003C125.695 7.81003 126.309 7.1941 126.309 6.43768C126.309 5.68126 125.695 5.06892 124.945 5.06892ZM124.945 8.89062C123.595 8.89062 122.5 7.78843 122.5 6.43768C122.5 5.08693 123.595 3.98833 124.945 3.98833C126.291 3.98833 127.386 5.08693 127.386 6.43768C127.386 7.78843 126.291 8.89062 124.945 8.89062Z" fill="#FF811C"/>
<path d="M120.983 5.91337L79.0552 6.02863L56.1136 6.17631L33.1719 6.43927L56.1136 6.70221L79.0552 6.8535L120.983 6.96875V5.91337Z" fill="#FF811C"/>
<path d="M193.768 6.17631L170.826 6.02504L128.898 5.91337V6.96875L170.826 6.8535L193.768 6.70581L216.709 6.43927L193.768 6.17631Z" fill="#FF811C"/>
<path d="M124.945 170.678C124.191 170.678 123.577 171.294 123.577 172.051C123.577 172.807 124.191 173.419 124.945 173.419C125.695 173.419 126.309 172.807 126.309 172.051C126.309 171.294 125.695 170.678 124.945 170.678ZM124.945 174.5C123.595 174.5 122.5 173.401 122.5 172.051C122.5 170.696 123.595 169.598 124.945 169.598C126.291 169.598 127.386 170.696 127.386 172.051C127.386 173.401 126.291 174.5 124.945 174.5Z" fill="#FF811C"/>
<path d="M128.898 172.578L170.826 172.463L193.768 172.315L216.709 172.052L193.768 171.789L170.826 171.638L128.898 171.523V172.578Z" fill="#FF811C"/>
<path d="M56.1136 172.315L79.0552 172.466L120.983 172.578V171.523L79.0552 171.634L56.1136 171.786L33.1719 172.052L56.1136 172.315Z" fill="#FF811C"/>
</svg>
