<svg width="249" height="178" viewBox="0 0 249 178" fill="none" xmlns="http://www.w3.org/2000/svg">
<path d="M13.1053 165.008H236.382V13.1114H13.1053V165.008ZM238.511 167.141H10.9766V10.9827H238.511V167.141Z" fill="#FF811C"/>
<path d="M42.1997 172.098H207.104L242.152 137.049V40.7105L207.466 6.02095H41.8372L7.3396 40.5222V137.238L42.1997 172.098ZM207.545 173.164H41.759L6.27344 137.678V40.0815L41.3965 4.95839H207.907L208.063 5.11118L243.218 40.2699V137.49L243.062 137.646L207.545 173.164Z" fill="#FF811C"/>
<path d="M6.80462 2.63608C4.5017 2.63608 2.63233 4.50545 2.63233 6.80837C2.63233 9.10773 4.5017 10.9806 6.80462 10.9806H10.9769V6.80837C10.9769 4.50545 9.10398 2.63608 6.80462 2.63608ZM13.1056 13.1094H6.80462C3.32891 13.1094 0.5 10.2841 0.5 6.80837C0.5 3.33266 3.32891 0.50375 6.80462 0.50375C10.2803 0.50375 13.1056 3.33266 13.1056 6.80837V13.1094Z" fill="#FF811C"/>
<path d="M238.512 10.9806H242.684C244.987 10.9806 246.856 9.10773 246.856 6.80837C246.856 4.50545 244.987 2.63608 242.684 2.63608C240.384 2.63608 238.512 4.50545 238.512 6.80837V10.9806ZM242.684 13.1094H236.383V6.80837C236.383 3.33266 239.208 0.50375 242.684 0.50375C246.16 0.50375 248.985 3.33266 248.985 6.80837C248.985 10.2841 246.16 13.1094 242.684 13.1094Z" fill="#FF811C"/>
<path d="M238.512 167.019V171.191C238.512 173.494 240.384 175.367 242.684 175.367C244.987 175.367 246.856 173.494 246.856 171.191C246.856 168.892 244.987 167.019 242.684 167.019H238.512ZM242.684 177.496C239.208 177.496 236.383 174.667 236.383 171.191V164.89H242.684C246.16 164.89 248.985 167.719 248.985 171.191C248.985 174.667 246.16 177.496 242.684 177.496Z" fill="#FF811C"/>
<path d="M6.80462 167.019C4.5017 167.019 2.63233 168.892 2.63233 171.191C2.63233 173.494 4.5017 175.367 6.80462 175.367C9.10398 175.367 10.9769 173.494 10.9769 171.191V167.019H6.80462ZM6.80462 177.496C3.32891 177.496 0.5 174.667 0.5 171.191C0.5 167.719 3.32891 164.89 6.80462 164.89H13.1056V171.191C13.1056 174.667 10.2803 177.496 6.80462 177.496Z" fill="#FF811C"/>
</svg>
