<svg width="250" height="178" viewBox="0 0 250 178" fill="none" xmlns="http://www.w3.org/2000/svg">
<path d="M58.7508 1.27043C27.1192 1.27043 1.38555 27.1069 1.38555 58.8612V119.144C1.38555 150.898 27.1192 176.735 58.7508 176.735H190.985C222.616 176.735 248.35 150.898 248.35 119.144V58.8612C248.35 27.1069 222.616 1.27043 190.985 1.27043H58.7508ZM190.985 177.496H58.7508C26.7001 177.496 0.625 151.32 0.625 119.144V58.8612C0.625 26.6847 26.7001 0.509064 58.7508 0.509064H190.985C223.036 0.509064 249.11 26.6847 249.11 58.8612V119.144C249.11 151.32 223.036 177.496 190.985 177.496Z" fill="#FF811C"/>
<path d="M58.7539 5.84724C29.6366 5.84724 5.94841 29.6305 5.94841 58.8625V119.145C5.94841 148.377 29.6366 172.157 58.7539 172.157H190.988C220.106 172.157 243.794 148.377 243.794 119.145V58.8625C243.794 29.6305 220.106 5.84724 190.988 5.84724H58.7539ZM190.988 172.922H58.7539C29.2175 172.922 5.1875 148.796 5.1875 119.145V58.8625C5.1875 29.2083 29.2175 5.08583 58.7539 5.08583H190.988C220.525 5.08583 244.554 29.2083 244.554 58.8625V119.145C244.554 148.796 220.525 172.922 190.988 172.922Z" fill="#FF811C"/>
<path d="M6.40587 20.4453C5.90555 20.4453 5.3948 20.3804 4.8801 20.2324C4.75538 20.1963 1.8307 19.3303 0.912005 16.458C0.224777 14.311 0.740916 11.4098 2.79433 10.2695C4.12314 9.53337 6.21142 9.44677 7.46224 10.7422C8.20374 11.5072 8.61205 12.7196 8.50206 13.8274C8.42658 14.5924 8.10777 15.2023 7.60529 15.5487C6.71426 16.1621 5.51701 15.7796 5.04184 15.5884C4.84703 15.509 4.75322 15.2852 4.83193 15.0904C4.91065 14.8955 5.13278 14.8017 5.32687 14.8811C5.60758 14.993 6.57157 15.3358 7.17541 14.9208C7.48955 14.7043 7.69227 14.2893 7.74547 13.7516C7.83281 12.8712 7.49997 11.8753 6.91698 11.2727C5.92819 10.2515 4.24463 10.3381 3.16239 10.9371C1.45187 11.8861 1.04284 14.3723 1.6359 16.2234C2.43167 18.7133 4.9793 19.4674 5.08749 19.4963C7.46655 20.1711 9.77049 18.8865 11.0015 17.3132C12.3983 15.527 12.3235 13.4666 12.2268 12.6619C12.2017 12.4526 12.3498 12.2614 12.5582 12.2361C12.771 12.2181 12.9561 12.3624 12.9813 12.5717C13.0898 13.4702 13.1721 15.7724 11.5996 17.7859C10.475 19.2221 8.5434 20.4453 6.40587 20.4453Z" fill="#FF811C"/>
<path d="M13.5206 12.9609C13.1611 12.9609 12.8614 12.9357 12.6439 12.9068C12.4354 12.8816 12.287 12.6903 12.3125 12.481C12.338 12.2717 12.5242 12.131 12.7359 12.149C13.5364 12.2501 15.588 12.3222 17.3682 10.9186C18.9364 9.68447 20.2167 7.36784 19.5432 4.98266C19.5126 4.87441 18.7715 2.31963 16.2835 1.51855C14.4367 0.91955 11.9624 1.33093 11.0175 3.04855C10.4187 4.1383 10.3317 5.82705 11.3503 6.81937C11.9509 7.40394 12.9419 7.74314 13.8207 7.64932C14.3544 7.5988 14.7674 7.39311 14.9834 7.07917C15.3971 6.47295 15.0582 5.50589 14.9443 5.22443C14.8659 5.02958 14.9594 4.80586 15.1542 4.72647C15.3483 4.64709 15.5707 4.7409 15.6495 4.93576C15.8414 5.41207 16.221 6.61729 15.6106 7.50857C15.2656 8.01375 14.6564 8.33491 13.8958 8.41068C12.7952 8.52255 11.585 8.11119 10.8205 7.36785C9.53162 6.11211 9.6168 4.0156 10.3518 2.68048C11.4866 0.620056 14.3778 0.100444 16.5157 0.789657C19.3886 1.71703 20.2401 4.65069 20.2749 4.77699C21.0448 7.50137 19.6053 10.1283 17.8377 11.5212C16.3202 12.7156 14.6369 12.9609 13.5206 12.9609Z" fill="#FF811C"/>
<path d="M10.5835 9.36824C10.2801 9.36824 9.9951 9.48731 9.78088 9.70021C9.56594 9.91672 9.44805 10.2018 9.44805 10.5085C9.44805 10.8116 9.56594 11.1003 9.78088 11.3132C10.2233 11.757 10.9433 11.757 11.3865 11.3132C11.6003 11.1003 11.7189 10.8116 11.7189 10.5085C11.7189 10.2018 11.6003 9.91672 11.3865 9.70021H11.3861C11.1715 9.48731 10.8865 9.36824 10.5835 9.36824ZM10.5835 12.4102C10.0979 12.4102 9.61267 12.2225 9.24318 11.8545C8.88483 11.4936 8.6875 11.0173 8.6875 10.5085C8.6875 9.99971 8.88483 9.51979 9.24318 9.16256C9.95808 8.44447 11.2071 8.44447 11.9238 9.16256C12.2818 9.51979 12.4791 9.99971 12.4791 10.5085C12.4791 11.0173 12.2821 11.4936 11.9242 11.8545C11.5543 12.2225 11.0687 12.4102 10.5835 12.4102Z" fill="#FF811C"/>
<path d="M236.21 12.9609C235.093 12.9609 233.41 12.7156 231.892 11.5212C230.124 10.1283 228.685 7.50136 229.455 4.77338C229.49 4.65069 230.348 1.71342 233.214 0.789657C235.352 0.100444 238.243 0.620056 239.378 2.68048C240.112 4.0156 240.198 6.11211 238.909 7.36785C238.145 8.11119 236.941 8.52255 235.833 8.41068C235.073 8.33491 234.464 8.01375 234.119 7.50857C233.507 6.61368 233.888 5.41207 234.081 4.93576C234.16 4.7409 234.381 4.6507 234.576 4.72647C234.771 4.80586 234.864 5.02958 234.785 5.22443C234.671 5.50589 234.332 6.47295 234.747 7.07917C234.963 7.39311 235.375 7.5988 235.909 7.64932C236.781 7.73953 237.779 7.40394 238.379 6.81937C239.398 5.82705 239.311 4.1383 238.712 3.04855C237.767 1.33093 235.293 0.923159 233.446 1.51855C230.964 2.31602 230.217 4.87441 230.186 4.98266C229.513 7.36784 230.793 9.68447 232.361 10.9186C234.142 12.3222 236.194 12.2501 236.994 12.149C237.204 12.131 237.392 12.2717 237.417 12.481C237.443 12.6903 237.295 12.8816 237.086 12.9068C236.869 12.9357 236.568 12.9609 236.21 12.9609Z" fill="#FF811C"/>
<path d="M243.33 20.4453C241.192 20.4453 239.261 19.2221 238.137 17.7859C236.563 15.7724 236.646 13.4666 236.755 12.5717C236.78 12.3624 236.968 12.2181 237.178 12.2361C237.387 12.265 237.535 12.4526 237.509 12.6619C237.412 13.4666 237.336 15.527 238.735 17.3132C239.966 18.8865 242.27 20.1711 244.649 19.4963C244.756 19.4674 247.304 18.7133 248.1 16.2234C248.693 14.3723 248.284 11.8861 246.573 10.9371C245.492 10.3381 243.808 10.2515 242.819 11.2727C242.236 11.8753 241.903 12.8712 241.99 13.7516C242.044 14.2893 242.247 14.7043 242.561 14.9208C243.164 15.3322 244.129 14.993 244.409 14.8811C244.604 14.8017 244.825 14.8955 244.904 15.0904C244.983 15.2852 244.889 15.509 244.694 15.5884C244.22 15.7796 243.022 16.1621 242.131 15.5487C241.628 15.2023 241.31 14.5924 241.234 13.8274C241.124 12.7196 241.532 11.5072 242.274 10.7422C243.525 9.44677 245.613 9.53337 246.941 10.2695C248.994 11.4098 249.511 14.311 248.824 16.458C247.905 19.3303 244.98 20.1963 244.856 20.2324C244.341 20.3768 243.83 20.4453 243.33 20.4453Z" fill="#FF811C"/>
<path d="M240.217 11.5838H240.225H240.217ZM239.146 9.36824C238.843 9.36824 238.558 9.48731 238.343 9.70021C238.129 9.91672 238.01 10.2018 238.01 10.5085C238.01 10.8116 238.129 11.1003 238.343 11.3132C238.786 11.757 239.506 11.757 239.948 11.3132C240.162 11.1003 240.281 10.8116 240.281 10.5085C240.281 10.2018 240.162 9.91672 239.949 9.70021C239.734 9.48731 239.449 9.36824 239.146 9.36824ZM239.146 12.4102C238.66 12.4102 238.175 12.2225 237.805 11.8545C237.447 11.4936 237.25 11.0173 237.25 10.5085C237.25 9.99971 237.447 9.51979 237.805 9.16256C238.521 8.44447 239.77 8.44447 240.486 9.16256C240.844 9.51979 241.041 9.99971 241.041 10.5085C241.041 11.0173 240.844 11.4936 240.486 11.8545H240.486C240.116 12.2225 239.631 12.4102 239.146 12.4102Z" fill="#FF811C"/>
<path d="M244.823 168.262C243.897 168.262 242.959 167.969 242.274 167.259C241.532 166.49 241.124 165.281 241.234 164.17C241.31 163.408 241.628 162.795 242.131 162.452C243.022 161.839 244.221 162.221 244.694 162.412C244.889 162.492 244.983 162.712 244.904 162.907C244.826 163.102 244.604 163.199 244.409 163.12C244.129 163.004 243.164 162.665 242.561 163.08C242.247 163.296 242.044 163.711 241.99 164.246C241.903 165.126 242.236 166.126 242.819 166.728C243.808 167.749 245.491 167.663 246.574 167.064C248.284 166.111 248.693 163.628 248.1 161.774C247.304 159.288 244.756 158.533 244.648 158.501C242.27 157.826 239.965 159.114 238.735 160.688C237.336 162.474 237.412 164.534 237.509 165.335C237.535 165.545 237.387 165.736 237.178 165.761C236.969 165.786 236.78 165.638 236.755 165.429C236.646 164.531 236.563 162.228 238.137 160.215C239.524 158.44 242.14 156.993 244.856 157.768C244.98 157.804 247.905 158.667 248.824 161.543C249.511 163.69 248.995 166.591 246.942 167.731C246.341 168.063 245.586 168.262 244.823 168.262Z" fill="#FF811C"/>
<path d="M235.096 177.496C234.446 177.496 233.802 177.399 233.214 177.207C230.348 176.284 229.49 173.35 229.455 173.224C228.685 170.499 230.124 167.872 231.892 166.48C233.897 164.899 236.192 164.982 237.086 165.09C237.295 165.119 237.443 165.307 237.417 165.516C237.392 165.725 237.203 165.87 236.994 165.852C236.195 165.751 234.143 165.675 232.361 167.079C230.793 168.316 229.513 170.629 230.186 173.014C230.217 173.126 230.964 175.681 233.446 176.482C235.292 177.078 237.767 176.666 238.712 174.949C239.311 173.862 239.398 172.174 238.379 171.181C237.779 170.593 236.784 170.261 235.909 170.348C235.375 170.402 234.963 170.604 234.747 170.922C234.332 171.528 234.671 172.495 234.785 172.776C234.864 172.971 234.771 173.195 234.576 173.274C234.381 173.35 234.16 173.26 234.081 173.061C233.888 172.585 233.507 171.383 234.119 170.488C234.464 169.983 235.073 169.666 235.833 169.59C236.94 169.478 238.145 169.889 238.909 170.633C240.198 171.889 240.112 173.985 239.378 175.32C238.555 176.814 236.809 177.496 235.096 177.496Z" fill="#FF811C"/>
<path d="M239.146 166.357C238.855 166.357 238.564 166.468 238.343 166.688C238.129 166.905 238.01 167.194 238.01 167.497C238.01 167.8 238.129 168.089 238.343 168.301H238.343C238.772 168.734 239.519 168.734 239.948 168.301C240.162 168.089 240.281 167.8 240.281 167.497C240.281 167.194 240.162 166.905 239.948 166.688C239.727 166.468 239.436 166.357 239.146 166.357ZM239.146 169.398C238.64 169.398 238.163 169.2 237.805 168.843C237.447 168.482 237.25 168.006 237.25 167.497C237.25 166.988 237.447 166.512 237.805 166.151C238.544 165.407 239.747 165.407 240.486 166.151C240.844 166.512 241.041 166.988 241.041 167.497C241.041 168.006 240.844 168.482 240.486 168.843C240.128 169.2 239.652 169.398 239.146 169.398Z" fill="#FF811C"/>
<path d="M14.6334 177.496C12.9203 177.496 11.1746 176.814 10.3518 175.32C9.6168 173.985 9.53162 171.889 10.8205 170.633C11.5847 169.889 12.7956 169.478 13.8958 169.59C14.6564 169.666 15.2656 169.983 15.6106 170.488C16.221 171.383 15.8414 172.585 15.6495 173.061C15.5711 173.256 15.3486 173.354 15.1542 173.274C14.9594 173.195 14.8659 172.971 14.9443 172.776C15.0582 172.495 15.3971 171.528 14.9834 170.922C14.7674 170.604 14.3544 170.402 13.8207 170.348C12.9419 170.254 11.9509 170.593 11.3503 171.181C10.3317 172.174 10.4187 173.862 11.0175 174.949C11.9628 176.666 14.436 177.078 16.2835 176.482C18.7715 175.681 19.5126 173.126 19.5432 173.018C20.2167 170.629 18.9364 168.316 17.3682 167.079C15.5873 165.675 13.5357 165.751 12.7359 165.852C12.5253 165.87 12.338 165.725 12.3125 165.516C12.287 165.307 12.4354 165.119 12.6439 165.09C13.5375 164.982 15.8324 164.899 17.8377 166.48C19.6053 167.872 21.0448 170.499 20.2749 173.224C20.2401 173.35 19.3886 176.284 16.5157 177.207C15.928 177.399 15.2828 177.496 14.6334 177.496Z" fill="#FF811C"/>
<path d="M4.91317 168.262C4.1501 168.262 3.3953 168.063 2.79433 167.731C0.740916 166.591 0.224777 163.69 0.912005 161.543C1.8307 158.667 4.75538 157.804 4.87974 157.768C7.59558 156.996 10.2119 158.44 11.5996 160.215C13.1721 162.225 13.0898 164.531 12.9813 165.429C12.9561 165.638 12.7699 165.783 12.5582 165.761C12.3498 165.736 12.2017 165.545 12.2268 165.335C12.3235 164.534 12.3983 162.474 11.0015 160.688C9.77085 159.111 7.46619 157.826 5.08713 158.501C4.9793 158.533 2.43167 159.288 1.6359 161.774C1.04284 163.628 1.45187 166.111 3.16239 167.064C4.24427 167.663 5.92819 167.749 6.91698 166.728C7.49997 166.126 7.83281 165.126 7.74547 164.246C7.69227 163.711 7.48955 163.296 7.17505 163.08C6.57301 162.665 5.60758 163.004 5.32687 163.12C5.13242 163.199 4.91065 163.105 4.83193 162.907C4.75322 162.712 4.84703 162.492 5.04184 162.412C5.51557 162.218 6.71426 161.839 7.60493 162.449C8.10777 162.795 8.42658 163.408 8.50206 164.173C8.61205 165.281 8.20374 166.494 7.46224 167.259C6.77645 167.969 5.83905 168.262 4.91317 168.262Z" fill="#FF811C"/>
<path d="M9.78052 166.688C9.56594 166.905 9.44805 167.194 9.44805 167.497C9.44805 167.8 9.56594 168.089 9.78052 168.301C10.2104 168.734 10.9569 168.734 11.3861 168.301C11.6003 168.089 11.7189 167.8 11.7189 167.497C11.7189 167.194 11.6003 166.905 11.3861 166.688C10.944 166.248 10.2241 166.245 9.78052 166.688ZM10.5835 169.398C10.0767 169.398 9.60081 169.2 9.24282 168.843C8.88482 168.482 8.6875 168.006 8.6875 167.497C8.6875 166.988 8.88482 166.508 9.24282 166.151C9.24318 166.151 9.24318 166.151 9.24318 166.151C9.98216 165.407 11.1844 165.407 11.9238 166.151C12.2821 166.512 12.4791 166.988 12.4791 167.497C12.4791 168.006 12.2818 168.482 11.9238 168.843C11.5658 169.2 11.0899 169.398 10.5835 169.398Z" fill="#FF811C"/>
<path d="M1.38555 176.735H248.35V1.27043H1.38555V176.735ZM248.73 177.496H1.00527C0.795368 177.496 0.625 177.326 0.625 177.114V0.887955C0.625 0.678665 0.795368 0.509064 1.00527 0.509064H248.73C248.94 0.509064 249.11 0.678665 249.11 0.887955V177.114C249.11 177.326 248.94 177.496 248.73 177.496Z" fill="#FF811C"/>
</svg>
