<svg width="250" height="177" viewBox="0 0 250 177" fill="none" xmlns="http://www.w3.org/2000/svg">
<path d="M16.2471 45.1953C15.0625 45.1953 13.8815 45.0045 12.7651 44.6048C12.1979 44.3995 7.19737 42.4695 5.96968 37.1871C4.97174 32.8949 6.84557 28.2715 10.4245 26.1974C12.8799 24.7715 16.7353 24.1737 19.3917 26.2262C20.6409 27.1912 22.7553 29.7226 21.7968 32.3728C21.183 34.0652 19.4061 35.3435 17.4748 35.4803C15.6297 35.6063 14.2835 34.6629 13.7882 34.2488C13.6266 34.1156 13.6051 33.8743 13.7379 33.7123C13.8743 33.5539 14.1148 33.5323 14.2728 33.6655C14.7 34.0184 15.8486 34.8322 17.4245 34.7205C19.065 34.6053 20.5691 33.5323 21.0825 32.1135C21.8902 29.8774 20.0271 27.6774 18.9286 26.8276C16.5486 24.9876 13.0486 25.5565 10.8015 26.8563C7.50608 28.7684 5.78659 33.039 6.70916 37.0143C7.84351 41.9042 12.4922 43.6973 13.0199 43.8882C16.9579 45.2961 21.7071 43.9314 24.5681 40.5683C28.7645 35.6352 26.3199 29.2221 26.2122 28.9521C24.4891 24.5591 20.1455 21.5128 15.145 21.1923C14.9368 21.1779 14.7789 20.9978 14.7933 20.789C14.8041 20.5765 14.9835 20.4218 15.1953 20.4326C20.4866 20.771 25.0886 24.0081 26.9194 28.6748C27.0307 28.9628 29.6369 35.7864 25.1461 41.0616C22.8953 43.7081 19.5461 45.1953 16.2471 45.1953Z" fill="#FF811C"/>
<path d="M3.72024 27.2474C3.48691 27.2474 3.38636 27.3014 3.372 27.323C3.27149 27.5894 4.01459 29.019 5.23151 29.5843C5.81305 29.8544 6.36941 29.8472 6.80377 29.7608C6.63505 29.2387 6.3838 28.7921 6.06072 28.4248C5.38585 27.6578 4.37714 27.251 3.7274 27.2474C3.72381 27.2474 3.72024 27.2474 3.72024 27.2474ZM6.27253 30.5781C5.85612 30.5781 5.39302 30.4953 4.91558 30.2756C3.84943 29.7823 2.98429 28.6805 2.71147 27.8991C2.58224 27.5246 2.57506 27.2114 2.69352 26.9737C2.78686 26.7937 2.99153 26.5632 3.46896 26.502C4.29819 26.3976 5.691 26.8549 6.63151 27.9207C7.10894 28.4644 7.44994 29.1414 7.64378 29.9372C7.69045 30.128 7.58275 30.326 7.39608 30.3873C7.09095 30.4917 6.70689 30.5781 6.27253 30.5781Z" fill="#FF811C"/>
<path d="M3.36159 31.2115C2.74057 31.2115 2.16618 31.3663 1.80721 31.5824C1.60259 31.7048 1.54521 31.8056 1.54162 31.8308C1.59547 32.1117 2.97393 32.9399 4.30572 32.7886C4.93752 32.7166 5.4113 32.4214 5.73797 32.1189C5.32156 31.7624 4.87643 31.5104 4.40977 31.3663C4.06515 31.2583 3.70621 31.2115 3.36159 31.2115ZM3.9898 33.5664C2.938 33.5664 1.84672 33.1343 1.27955 32.6662C0.970829 32.4141 0.805673 32.1513 0.784134 31.8849C0.766186 31.6868 0.823621 31.3807 1.19695 31.0818C1.85029 30.5525 3.27904 30.2177 4.63237 30.639C5.32519 30.8514 5.96771 31.2547 6.54566 31.8308C6.68566 31.9713 6.69649 32.1945 6.56726 32.3457C6.16521 32.8246 5.45797 33.4224 4.39182 33.5448C4.259 33.5592 4.12262 33.5664 3.9898 33.5664Z" fill="#FF811C"/>
<path d="M4.67338 34.8187C4.45082 34.8187 4.23187 34.8403 4.02008 34.8799C3.01854 35.0743 2.16054 35.7405 1.82669 36.3022C1.70464 36.5039 1.6975 36.6191 1.70827 36.6443C1.88776 36.8675 3.49238 36.9504 4.59443 36.187C5.12212 35.8233 5.39853 35.3408 5.54571 34.9195C5.24776 34.8511 4.95697 34.8187 4.67338 34.8187ZM2.48364 37.5625C2.25749 37.5625 2.0493 37.5445 1.86981 37.5085C1.48212 37.4293 1.20928 37.2781 1.06569 37.0512C0.958002 36.882 0.864641 36.5867 1.0549 36.1474C1.38156 35.3732 2.48367 34.401 3.87649 34.1346C4.58725 33.9977 5.34467 34.0445 6.12365 34.2822C6.3139 34.3398 6.42873 34.5342 6.38565 34.7287C6.25642 35.3408 5.91185 36.2014 5.02878 36.8135C4.27852 37.332 3.27338 37.5625 2.48364 37.5625Z" fill="#FF811C"/>
<path d="M6.04399 37.6659C5.52348 37.828 5.07117 38.0692 4.69784 38.3897C3.92246 39.0522 3.5025 40.0569 3.48455 40.7086C3.48096 40.9463 3.53123 41.0507 3.55277 41.0687C3.81123 41.1695 5.25428 40.4529 5.8394 39.2394C6.1194 38.6633 6.12297 38.1052 6.04399 37.6659ZM3.5994 41.832C3.44504 41.832 3.30867 41.7996 3.1938 41.7384C3.01431 41.6448 2.79171 41.4324 2.73786 40.9571C2.64453 40.1181 3.12915 38.7318 4.20608 37.81C4.7553 37.3382 5.43735 37.0105 6.23428 36.8305C6.43171 36.7837 6.62198 36.899 6.67942 37.0862C6.86608 37.6839 6.99171 38.6021 6.52145 39.5744C6.01171 40.6294 4.89889 41.4792 4.11633 41.7384C3.92608 41.7996 3.75375 41.832 3.5994 41.832Z" fill="#FF811C"/>
<path d="M10.4252 20.6837C10.2816 20.6837 10.1416 20.6908 10.0016 20.698C7.88727 20.8385 5.89855 22.0951 5.26675 23.1826C5.1088 23.4526 5.05855 23.6831 5.12316 23.82C5.15188 23.8812 5.28832 24.09 5.85191 24.2772C7.09755 24.6949 9.33392 24.6302 10.9206 23.802C12.1878 23.143 12.8626 22.106 13.218 21.2526C12.2703 20.8745 11.3334 20.6837 10.4252 20.6837ZM7.67187 25.2891C6.88572 25.2891 6.16417 25.1846 5.61135 25.001C5.00469 24.7994 4.61343 24.5113 4.43754 24.1512C4.3119 23.8884 4.24006 23.4383 4.6098 22.7973C5.35647 21.5154 7.557 20.0967 9.95136 19.9383C11.2185 19.8555 12.536 20.1111 13.857 20.698C14.0365 20.7772 14.1262 20.9825 14.0616 21.1698C13.7026 22.2032 12.9308 23.6147 11.2688 24.4789C10.1739 25.0514 8.8529 25.2891 7.67187 25.2891Z" fill="#FF811C"/>
<path d="M21.7933 21.6211C21.7071 21.6211 21.6138 21.5886 21.542 21.5238C19.3056 19.529 17.1122 19.2085 14.9943 18.8952C12.9482 18.5964 10.8338 18.2831 8.85943 16.4467C5.87636 13.6741 5.34149 9.63759 7.62097 7.05581C7.76097 6.89738 8.00148 6.88296 8.15943 7.02339C8.31379 7.16382 8.32816 7.40508 8.19175 7.56351C6.19227 9.82482 6.70201 13.404 9.37637 15.8886C11.1784 17.5629 13.0846 17.8438 15.102 18.1427C17.3348 18.4703 19.643 18.8089 22.0481 20.9549C22.2025 21.0954 22.2169 21.3366 22.0805 21.4951C22.0051 21.5779 21.901 21.6211 21.7933 21.6211Z" fill="#FF811C"/>
<path d="M34.128 27.2383C31.4321 27.2383 29.3644 26.4425 29.21 26.3813C24.5541 24.5448 21.3305 19.9286 20.9931 14.621C20.9787 14.4122 21.1367 14.2321 21.3485 14.2177C21.5495 14.2069 21.7362 14.3617 21.7505 14.5742C22.07 19.5865 25.1069 23.9435 29.4864 25.6719C29.7556 25.78 36.1489 28.2321 41.0669 24.0227C44.4197 21.1529 45.7803 16.389 44.3731 12.4389C44.1864 11.9096 42.3987 7.24655 37.5238 6.10869C33.5608 5.17968 29.3033 6.91167 27.3972 10.2136C26.0977 12.4677 25.5377 15.9785 27.3685 18.3659C28.2156 19.4677 30.4126 21.3365 32.6382 20.5264C34.0526 20.0114 35.1223 18.5027 35.2372 16.8571C35.3485 15.2836 34.5372 14.1241 34.1854 13.6956C34.049 13.5371 34.0705 13.2959 34.2321 13.1591C34.3936 13.0259 34.6341 13.0474 34.7669 13.2095C35.1797 13.7064 36.1238 15.0603 35.9946 16.9111C35.8582 18.8448 34.5838 20.6272 32.8966 21.2429C30.251 22.2007 27.731 20.0835 26.769 18.8304C24.7228 16.1658 25.3187 12.2985 26.7402 9.83194C28.8079 6.24553 33.4136 4.36591 37.6962 5.36694C42.9659 6.59841 44.89 11.6143 45.091 12.1832C46.5987 16.425 45.1449 21.531 41.5587 24.6024C39.15 26.6693 36.411 27.2383 34.128 27.2383Z" fill="#FF811C"/>
<path d="M27.9111 2.74781C27.8859 2.74781 27.8644 2.75144 27.8464 2.75864C27.8357 2.77304 27.7818 2.8739 27.7818 3.11155C27.7854 3.7633 28.1911 4.77512 28.9557 5.45208C29.3218 5.77975 29.7669 6.02818 30.2875 6.19742C30.3736 5.76172 30.3808 5.20362 30.1115 4.62389C29.5803 3.47523 28.2988 2.74781 27.9111 2.74781ZM30.5531 7.05078C30.5244 7.05078 30.4921 7.04722 30.4634 7.04002C29.67 6.84558 28.9952 6.50346 28.4531 6.02455C27.3906 5.08114 26.9311 3.68764 27.0387 2.85225C27.0998 2.37694 27.3295 2.16809 27.509 2.07807C27.7459 1.95565 28.0547 1.96285 28.4316 2.09608C29.2106 2.36974 30.3054 3.23396 30.8008 4.3034C31.2495 5.27922 31.1095 6.19382 30.9121 6.79155C30.8618 6.94999 30.7146 7.05078 30.5531 7.05078Z" fill="#FF811C"/>
<path d="M32.344 0.927437C32.3297 0.931037 32.2291 0.988665 32.107 1.19391C31.7732 1.75204 31.5901 2.82868 31.8917 3.8045C32.0352 4.27261 32.2865 4.71911 32.6419 5.1368C32.9435 4.80913 33.2378 4.33741 33.3096 3.70006C33.464 2.36056 32.6348 0.981449 32.344 0.927437ZM32.624 6.05859C32.5271 6.05859 32.4265 6.0226 32.3547 5.94698C31.7768 5.36725 31.3784 4.72268 31.1666 4.02772C30.7466 2.67022 31.0804 1.24072 31.6081 0.581773C31.9061 0.210889 32.204 0.149675 32.4086 0.167679C32.6742 0.189284 32.9363 0.35495 33.1876 0.664619C33.7117 1.30556 34.1963 2.61623 34.0634 3.7865C33.9414 4.85954 33.3455 5.56528 32.8681 5.96857C32.7963 6.02979 32.7101 6.05859 32.624 6.05859Z" fill="#FF811C"/>
<path d="M37.1327 1.08283C37.1004 1.08283 36.9891 1.10083 36.8097 1.20886C36.2497 1.54373 35.5856 2.40431 35.3917 3.40894C35.2984 3.89505 35.3128 4.40636 35.4313 4.93928C35.8477 4.79525 36.3287 4.51438 36.6948 3.98866C37.4558 2.87961 37.3733 1.27006 37.1435 1.08642C37.1399 1.08642 37.1399 1.08283 37.1327 1.08283ZM35.1584 5.78906C34.9932 5.78906 34.8461 5.68464 34.7958 5.519C34.5589 4.73763 34.5087 3.97787 34.6451 3.26491C34.9143 1.86779 35.88 0.765958 36.6553 0.434683C37.0933 0.247441 37.3876 0.33749 37.5563 0.445514C37.7789 0.589546 37.9332 0.859551 38.0122 1.25204C38.1738 2.06582 37.9835 3.45214 37.3194 4.42075C36.7056 5.31015 35.8512 5.65226 35.2374 5.78189C35.2123 5.78909 35.1871 5.78906 35.1584 5.78906Z" fill="#FF811C"/>
<path d="M38.1659 5.4395C38.6039 5.51872 39.1603 5.51514 39.7347 5.23428C40.9444 4.64735 41.6623 3.20702 41.5511 2.92976C41.5403 2.92256 41.4254 2.87209 41.1992 2.87209C40.5495 2.89009 39.5479 3.31142 38.8874 4.08919C38.5679 4.46368 38.3275 4.91738 38.1659 5.4395ZM38.6541 6.24609C38.2449 6.24609 37.8787 6.17043 37.588 6.07681C37.3977 6.0192 37.2865 5.82481 37.3295 5.63037C37.5126 4.83459 37.8392 4.14683 38.3095 3.59591C39.2285 2.51207 40.6105 2.02954 41.4469 2.12316C41.9208 2.17718 42.1326 2.4004 42.2259 2.58044C42.3479 2.81449 42.3479 3.1278 42.2259 3.50589C41.9674 4.29447 41.1203 5.40712 40.0685 5.91843C39.5695 6.16329 39.0885 6.24609 38.6541 6.24609Z" fill="#FF811C"/>
<path d="M24.2329 4.48746C24.1 4.48746 23.9241 4.5487 23.7303 4.66033C22.6498 5.29407 21.397 7.29252 21.257 9.4134C21.1888 10.4576 21.3754 11.5379 21.8098 12.6361C22.6606 12.2796 23.6944 11.6027 24.3513 10.3316C25.1769 8.74005 25.238 6.4967 24.8252 5.24722C24.6385 4.68189 24.4303 4.5451 24.3692 4.51629C24.3333 4.49829 24.2867 4.48746 24.2329 4.48746ZM21.6051 13.5039C21.458 13.5039 21.318 13.4211 21.257 13.277C20.6718 11.9519 20.417 10.6377 20.4995 9.36297C20.6575 6.96123 22.0718 4.75031 23.3497 4.00494C23.9887 3.63045 24.4375 3.70245 24.6995 3.82848C25.0585 4.00492 25.3421 4.40105 25.5467 5.00599C26.0026 6.3887 25.9775 8.84804 25.0262 10.6809C24.1611 12.348 22.7575 13.1222 21.7272 13.4823C21.6877 13.4967 21.6446 13.5039 21.6051 13.5039Z" fill="#FF811C"/>
<path d="M21.7908 21.6211C21.6867 21.6211 21.5826 21.5779 21.5072 21.4951C19.3677 19.0825 19.0303 16.7672 18.7036 14.5311C18.4056 12.5038 18.1293 10.5918 16.4564 8.7842C13.9831 6.10159 10.4113 5.59028 8.15693 7.59593C7.99898 7.73276 7.75846 7.71834 7.61846 7.56351C7.47846 7.40507 7.49643 7.16382 7.65079 7.02339C10.2246 4.73687 14.2487 5.27339 17.0128 8.26567C18.8436 10.2461 19.1559 12.367 19.4539 14.4195C19.7662 16.5475 20.0856 18.744 22.0779 20.9873C22.2144 21.1457 22.2 21.387 22.0456 21.5238C21.9738 21.5886 21.8805 21.6211 21.7908 21.6211Z" fill="#FF811C"/>
<path d="M215.609 27.2383C213.322 27.2383 210.586 26.6693 208.174 24.6024C204.588 21.531 203.138 16.425 204.645 12.1832C204.846 11.6143 206.771 6.59841 212.037 5.36694C216.316 4.36591 220.925 6.24553 222.996 9.83194C224.414 12.2985 225.014 16.1658 222.967 18.8304C222.002 20.0835 219.482 22.2043 216.836 21.2429C215.153 20.6272 213.878 18.8448 213.738 16.9111C213.609 15.0603 214.553 13.7064 214.966 13.2095C215.102 13.0474 215.339 13.0259 215.501 13.1591C215.662 13.2959 215.684 13.5371 215.551 13.6956C215.196 14.1241 214.388 15.2836 214.496 16.8571C214.614 18.5027 215.684 20.0114 217.098 20.5264C219.324 21.3365 221.517 19.4677 222.364 18.3659C224.199 15.9785 223.635 12.4677 222.336 10.2136C220.433 6.91167 216.176 5.18328 212.209 6.10869C207.334 7.24655 205.546 11.9096 205.36 12.4389C203.956 16.389 205.317 21.1529 208.666 24.0227C213.584 28.2357 219.977 25.78 220.246 25.6719C224.63 23.9435 227.666 19.5865 227.986 14.5742C227.997 14.3617 228.173 14.2069 228.388 14.2177C228.596 14.2321 228.754 14.4122 228.743 14.621C228.406 19.9286 225.179 24.5448 220.526 26.3813C220.368 26.4425 218.304 27.2383 215.609 27.2383Z" fill="#FF811C"/>
<path d="M221.817 2.74422C221.443 2.74422 220.151 3.47157 219.623 4.62023C219.354 5.20356 219.358 5.76172 219.447 6.19742C219.964 6.02818 220.409 5.77975 220.779 5.45208C221.544 4.77512 221.946 3.7633 221.949 3.11155C221.949 2.8739 221.896 2.77306 221.878 2.75505C221.863 2.74785 221.842 2.74422 221.817 2.74422ZM219.178 7.05078C219.02 7.05078 218.873 6.94999 218.819 6.79155C218.622 6.19742 218.482 5.28282 218.934 4.3034C219.426 3.23396 220.521 2.36974 221.303 2.09608C221.677 1.96285 221.985 1.95925 222.226 2.07807C222.405 2.16809 222.631 2.37694 222.692 2.85225C222.8 3.68764 222.344 5.08114 221.282 6.02455C220.74 6.50346 220.061 6.84558 219.271 7.04002C219.239 7.04722 219.21 7.05078 219.178 7.05078Z" fill="#FF811C"/>
<path d="M217.383 0.927437C217.103 0.981449 216.274 2.36056 216.424 3.70006C216.5 4.33741 216.791 4.80913 217.096 5.1368C217.448 4.71911 217.699 4.27261 217.846 3.8045C218.144 2.82868 217.965 1.75204 217.631 1.19391C217.505 0.988665 217.408 0.931037 217.383 0.927437ZM217.11 6.05859C217.024 6.05859 216.938 6.02979 216.866 5.96857C216.389 5.56528 215.793 4.85954 215.671 3.7865C215.538 2.61983 216.022 1.30556 216.547 0.664619C216.798 0.35495 217.06 0.189284 217.326 0.167679C217.537 0.149675 217.828 0.210889 218.13 0.581773C218.654 1.24072 218.988 2.67022 218.571 4.02772C218.356 4.72268 217.957 5.36725 217.379 5.94698C217.308 6.0226 217.211 6.05859 217.11 6.05859Z" fill="#FF811C"/>
<path d="M212.598 1.08642C212.587 1.08642 212.58 1.0864 212.577 1.09C212.354 1.27004 212.272 2.87961 213.036 3.98866C213.399 4.51438 213.88 4.79525 214.3 4.93928C214.418 4.40636 214.429 3.89145 214.336 3.40894C214.142 2.40431 213.478 1.54373 212.921 1.20886C212.753 1.10804 212.645 1.08642 212.598 1.08642ZM214.569 5.78906C214.544 5.78906 214.515 5.78909 214.49 5.78189C213.88 5.65226 213.022 5.31015 212.411 4.42075C211.744 3.45214 211.557 2.06582 211.719 1.25204C211.798 0.863152 211.948 0.589546 212.171 0.445514C212.343 0.33749 212.634 0.247441 213.076 0.434683C213.847 0.765958 214.813 1.86779 215.082 3.26491C215.219 3.97787 215.168 4.73402 214.935 5.519C214.885 5.68464 214.734 5.78906 214.569 5.78906Z" fill="#FF811C"/>
<path d="M208.499 2.87209C208.287 2.87209 208.19 2.92252 208.176 2.94052C208.072 3.20698 208.79 4.64735 209.996 5.23428C210.574 5.51514 211.127 5.51872 211.565 5.4395C211.403 4.92098 211.159 4.46008 210.847 4.08919C210.186 3.31142 209.181 2.89009 208.531 2.87209C208.521 2.87209 208.51 2.87209 208.499 2.87209ZM211.076 6.24609C210.646 6.24609 210.161 6.16329 209.666 5.91843C208.61 5.40712 207.767 4.29447 207.508 3.50589C207.383 3.1278 207.383 2.81449 207.508 2.58044C207.598 2.4004 207.81 2.17718 208.287 2.12316C209.124 2.03314 210.506 2.51207 211.425 3.59591C211.895 4.15044 212.222 4.83459 212.401 5.63037C212.444 5.82481 212.333 6.0192 212.146 6.07681C211.855 6.17043 211.489 6.24609 211.076 6.24609Z" fill="#FF811C"/>
<path d="M225.499 4.48746C225.449 4.48746 225.402 4.49829 225.363 4.51629C225.305 4.5451 225.097 4.68189 224.91 5.24722C224.494 6.4967 224.559 8.74005 225.381 10.3316C226.041 11.6027 227.071 12.2796 227.922 12.6361C228.357 11.5379 228.543 10.4576 228.475 9.4134C228.339 7.28892 227.082 5.29407 226.002 4.66033C225.808 4.5487 225.636 4.48746 225.499 4.48746ZM228.13 13.5039C228.087 13.5039 228.048 13.4967 228.005 13.4823C226.978 13.1258 225.571 12.348 224.706 10.6809C223.755 8.84444 223.729 6.3887 224.189 5.00599C224.39 4.40105 224.674 4.00492 225.033 3.82848C225.298 3.70245 225.747 3.63047 226.382 4.00135C227.66 4.75032 229.078 6.96123 229.233 9.36297C229.319 10.6377 229.064 11.9519 228.479 13.277C228.414 13.4211 228.278 13.5039 228.13 13.5039Z" fill="#FF811C"/>
<path d="M227.935 21.6211C227.845 21.6211 227.755 21.5886 227.683 21.5238C227.525 21.387 227.511 21.1457 227.651 20.9873C229.64 18.744 229.963 16.5439 230.271 14.4195C230.573 12.367 230.882 10.2461 232.712 8.26567C235.477 5.27339 239.501 4.73687 242.075 7.02339C242.232 7.16382 242.247 7.40507 242.107 7.56351C241.967 7.71834 241.73 7.73276 241.572 7.59593C239.314 5.59028 235.746 6.10159 233.269 8.7842C231.6 10.5918 231.32 12.5038 231.025 14.5275C230.699 16.7672 230.358 19.0825 228.218 21.4951C228.143 21.5779 228.039 21.6211 227.935 21.6211Z" fill="#FF811C"/>
<path d="M233.484 45.1953C230.189 45.1953 226.84 43.7081 224.585 41.0616C220.098 35.7864 222.701 28.9628 222.812 28.6748C224.646 24.0081 229.248 20.771 234.536 20.4326C234.733 20.4182 234.927 20.5765 234.942 20.789C234.952 20.9978 234.794 21.1779 234.586 21.1923C229.589 21.5128 225.246 24.5591 223.519 28.9521C223.415 29.2221 220.967 35.6352 225.163 40.5683C228.024 43.9314 232.773 45.2961 236.715 43.8882C237.239 43.6973 241.888 41.9042 243.026 37.0143C243.948 33.039 242.225 28.7684 238.93 26.8564C236.686 25.5565 233.186 24.9912 230.806 26.8276C229.708 27.6774 227.845 29.8774 228.652 32.1135C229.166 33.5323 230.67 34.6053 232.31 34.7205C233.883 34.8286 235.035 34.0184 235.459 33.6655C235.62 33.5323 235.857 33.5539 235.993 33.7123C236.126 33.8743 236.105 34.1156 235.943 34.2488C235.451 34.6629 234.091 35.6063 232.257 35.4803C230.325 35.3435 228.548 34.0652 227.938 32.3728C226.98 29.7226 229.09 27.1912 230.343 26.2262C233 24.1737 236.855 24.7715 239.31 26.1974C242.889 28.2715 244.76 32.8949 243.765 37.1871C242.538 42.4695 237.537 44.3995 236.97 44.6048C235.85 45.0045 234.669 45.1953 233.484 45.1953Z" fill="#FF811C"/>
<path d="M242.937 29.7608C243.371 29.8472 243.927 29.8544 244.509 29.5843C245.726 29.019 246.472 27.5895 246.368 27.3122C246.354 27.3014 246.218 27.2582 246.013 27.2474C245.367 27.251 244.354 27.6578 243.68 28.4248C243.357 28.7921 243.109 29.2387 242.937 29.7608ZM243.471 30.5781C243.033 30.5781 242.649 30.4917 242.348 30.3873C242.161 30.326 242.05 30.128 242.097 29.9372C242.29 29.1414 242.631 28.4644 243.112 27.9207C244.049 26.8549 245.439 26.394 246.275 26.502C246.749 26.5632 246.957 26.7937 247.047 26.9737C247.165 27.2114 247.158 27.5246 247.029 27.8991C246.756 28.6805 245.891 29.7823 244.828 30.2756C244.351 30.4953 243.888 30.5781 243.471 30.5781Z" fill="#FF811C"/>
<path d="M243.992 32.1189C244.315 32.4214 244.789 32.7166 245.424 32.7886C246.763 32.9435 248.134 32.1117 248.188 31.82C248.185 31.8056 248.124 31.7048 247.919 31.5824C247.363 31.2475 246.293 31.0639 245.32 31.3663C244.85 31.5104 244.405 31.7624 243.992 32.1189ZM245.74 33.5664C245.604 33.5664 245.471 33.5592 245.338 33.5448C244.268 33.4224 243.561 32.8246 243.159 32.3457C243.033 32.1945 243.041 31.9713 243.184 31.8308C243.759 31.2547 244.405 30.8514 245.094 30.639C246.447 30.2177 247.876 30.5525 248.529 31.0818C248.903 31.3807 248.96 31.6832 248.946 31.8849C248.924 32.1513 248.755 32.4141 248.45 32.6662C247.883 33.1343 246.792 33.5664 245.74 33.5664Z" fill="#FF811C"/>
<path d="M244.184 34.9195C244.331 35.3408 244.607 35.8233 245.135 36.187C246.241 36.9504 247.845 36.8676 248.028 36.6371C248.032 36.6191 248.025 36.5039 247.903 36.3022C247.572 35.7405 246.711 35.0743 245.709 34.8799C245.228 34.7899 244.719 34.8007 244.184 34.9195ZM247.249 37.5625C246.456 37.5625 245.454 37.332 244.704 36.8135C243.818 36.2014 243.477 35.3408 243.344 34.7287C243.304 34.5342 243.419 34.3398 243.606 34.2822C244.388 34.0445 245.146 33.9977 245.853 34.1346C247.246 34.401 248.348 35.3732 248.678 36.1474C248.865 36.5867 248.775 36.882 248.664 37.0512C248.52 37.2781 248.251 37.4293 247.863 37.5085C247.68 37.5445 247.472 37.5625 247.249 37.5625Z" fill="#FF811C"/>
<path d="M243.689 37.6659C243.61 38.1052 243.614 38.6633 243.89 39.2394C244.475 40.4529 245.911 41.1767 246.188 41.0614C246.199 41.0506 246.252 40.9463 246.245 40.7086C246.231 40.0569 245.811 39.0522 245.032 38.3897C244.662 38.0692 244.21 37.828 243.689 37.6659ZM246.13 41.832C245.976 41.832 245.804 41.7996 245.617 41.7384C244.831 41.4792 243.718 40.6294 243.208 39.5744C242.738 38.6021 242.864 37.6839 243.05 37.0862C243.108 36.899 243.302 36.7837 243.495 36.8305C244.292 37.0105 244.974 37.3382 245.524 37.81C246.604 38.7318 247.089 40.1181 246.995 40.9571C246.942 41.4324 246.719 41.6448 246.54 41.7384C246.421 41.7996 246.285 41.832 246.13 41.832Z" fill="#FF811C"/>
<path d="M236.517 21.2526C236.872 22.106 237.547 23.143 238.814 23.802C240.397 24.6302 242.633 24.6949 243.883 24.2772C244.446 24.09 244.583 23.8812 244.608 23.82C244.676 23.6831 244.622 23.4526 244.468 23.1826C243.832 22.0951 241.844 20.8385 239.729 20.698C238.688 20.6332 237.608 20.8169 236.517 21.2526ZM242.059 25.2891C240.882 25.2891 239.561 25.0514 238.462 24.4789C236.804 23.6147 236.028 22.2032 235.669 21.1698C235.605 20.9825 235.694 20.7772 235.874 20.698C237.195 20.1111 238.505 19.8555 239.78 19.9383C242.174 20.0967 244.378 21.5154 245.121 22.7973C245.494 23.4383 245.419 23.8884 245.293 24.1512C245.121 24.5113 244.726 24.7994 244.12 25.001C243.57 25.1846 242.845 25.2891 242.059 25.2891Z" fill="#FF811C"/>
<path d="M227.935 21.6211C227.83 21.6211 227.726 21.5779 227.651 21.4951C227.511 21.3366 227.525 21.0954 227.683 20.9549C230.088 18.8089 232.393 18.4703 234.626 18.1427C236.643 17.8438 238.553 17.5629 240.355 15.8886C243.029 13.404 243.536 9.82482 241.54 7.56351C241.4 7.40508 241.414 7.16382 241.572 7.02339C241.73 6.88296 241.967 6.89738 242.107 7.05581C244.386 9.63759 243.855 13.6741 240.872 16.4467C238.894 18.2831 236.78 18.5964 234.737 18.8952C232.616 19.2085 230.422 19.529 228.186 21.5238C228.114 21.5886 228.024 21.6211 227.935 21.6211Z" fill="#FF811C"/>
<path d="M234.563 156.727C234.555 156.727 234.548 156.727 234.538 156.727C229.25 156.388 224.648 153.155 222.813 148.484C222.702 148.196 220.096 141.376 224.587 136.098C227.649 132.5 232.739 131.042 236.971 132.554C237.538 132.76 242.539 134.69 243.767 139.972C244.761 144.264 242.891 148.888 239.312 150.962C236.856 152.388 233.001 152.989 230.345 150.933C229.092 149.968 226.981 147.436 227.94 144.786C228.55 143.094 230.327 141.816 232.258 141.679C234.107 141.542 235.449 142.496 235.945 142.91C236.106 143.043 236.128 143.285 235.995 143.447C235.859 143.609 235.622 143.63 235.46 143.494C235.036 143.141 233.87 142.327 232.312 142.439C230.671 142.554 229.167 143.627 228.654 145.046C227.846 147.285 229.709 149.482 230.808 150.332C233.188 152.168 236.688 151.606 238.931 150.303C242.227 148.391 243.95 144.12 243.027 140.145C241.889 135.255 237.241 133.462 236.716 133.274C232.775 131.867 228.026 133.228 225.165 136.591C220.968 141.524 223.416 147.937 223.521 148.207C225.247 152.6 229.591 155.646 234.588 155.967C234.796 155.981 234.954 156.161 234.943 156.37C234.929 156.572 234.764 156.727 234.563 156.727Z" fill="#FF811C"/>
<path d="M242.937 147.399C243.109 147.921 243.357 148.367 243.68 148.738C244.354 149.502 245.367 149.909 246.013 149.912C246.271 149.909 246.354 149.858 246.372 149.84C246.472 149.57 245.726 148.144 244.509 147.575C243.927 147.305 243.371 147.312 242.937 147.399ZM246.02 150.672C245.18 150.672 243.96 150.204 243.112 149.242C242.631 148.695 242.29 148.018 242.097 147.222C242.05 147.031 242.161 146.833 242.348 146.772C242.94 146.574 243.848 146.43 244.828 146.884C245.891 147.381 246.756 148.479 247.029 149.26C247.158 149.638 247.165 149.948 247.047 150.186C246.957 150.366 246.749 150.596 246.275 150.657C246.196 150.668 246.11 150.672 246.02 150.672Z" fill="#FF811C"/>
<path d="M243.992 145.036C244.405 145.393 244.85 145.645 245.32 145.789C246.293 146.091 247.366 145.911 247.919 145.573C248.124 145.45 248.185 145.35 248.188 145.324C248.134 145.043 246.756 144.212 245.424 144.367C244.789 144.439 244.315 144.734 243.992 145.036ZM246.372 146.707C245.955 146.707 245.521 146.649 245.094 146.516C244.405 146.304 243.759 145.9 243.184 145.324C243.041 145.184 243.033 144.961 243.159 144.809C243.561 144.33 244.268 143.733 245.338 143.61C246.505 143.477 247.811 143.963 248.45 144.489C248.755 144.741 248.924 145.004 248.946 145.27C248.96 145.472 248.903 145.774 248.529 146.073C248.081 146.437 247.269 146.707 246.372 146.707Z" fill="#FF811C"/>
<path d="M244.184 142.245C244.719 142.36 245.228 142.375 245.709 142.281C246.711 142.086 247.572 141.42 247.903 140.862C248.025 140.657 248.032 140.542 248.025 140.517C247.845 140.293 246.241 140.21 245.135 140.974C244.607 141.341 244.331 141.824 244.184 142.245ZM245.056 143.105C244.586 143.105 244.101 143.03 243.606 142.879C243.419 142.821 243.304 142.627 243.344 142.436C243.477 141.82 243.818 140.963 244.704 140.347C245.666 139.681 247.052 139.49 247.863 139.652C248.251 139.732 248.52 139.883 248.664 140.11C248.775 140.279 248.865 140.574 248.678 141.017C248.348 141.791 247.246 142.76 245.853 143.026C245.594 143.077 245.329 143.105 245.056 143.105Z" fill="#FF811C"/>
<path d="M246.116 136.084C245.732 136.084 244.44 136.786 243.89 137.92C243.614 138.496 243.61 139.054 243.689 139.494C244.21 139.332 244.659 139.09 245.032 138.77C245.811 138.107 246.231 137.103 246.245 136.451C246.252 136.213 246.199 136.109 246.181 136.091C246.163 136.087 246.141 136.084 246.116 136.084ZM243.413 140.34C243.251 140.34 243.101 140.235 243.05 140.073C242.864 139.476 242.738 138.557 243.208 137.589C243.718 136.53 244.831 135.68 245.617 135.421C245.994 135.299 246.303 135.299 246.54 135.421C246.719 135.515 246.942 135.727 246.995 136.206C247.089 137.042 246.604 138.428 245.524 139.35C244.974 139.821 244.292 140.153 243.495 140.333C243.467 140.336 243.442 140.34 243.413 140.34Z" fill="#FF811C"/>
<path d="M236.517 155.906C237.608 156.341 238.688 156.525 239.729 156.46C241.844 156.32 243.832 155.063 244.468 153.976C244.622 153.709 244.676 153.475 244.608 153.338C244.583 153.277 244.446 153.072 243.883 152.881C242.637 152.467 240.397 152.528 238.814 153.356C237.547 154.019 236.872 155.052 236.517 155.906ZM239.306 157.234C238.186 157.234 237.033 156.975 235.874 156.46C235.694 156.381 235.605 156.176 235.669 155.989C236.028 154.955 236.804 153.547 238.462 152.679C240.293 151.725 242.745 151.7 244.12 152.161C244.726 152.362 245.121 152.647 245.293 153.007C245.419 153.27 245.494 153.72 245.121 154.361C244.378 155.643 242.174 157.062 239.78 157.22C239.622 157.231 239.464 157.234 239.306 157.234Z" fill="#FF811C"/>
<path d="M241.823 170.227C241.734 170.227 241.644 170.198 241.572 170.133C241.414 169.992 241.4 169.751 241.54 169.596C243.536 167.332 243.029 163.752 240.355 161.268C238.553 159.593 236.643 159.312 234.626 159.014C232.393 158.686 230.088 158.347 227.683 156.201C227.525 156.061 227.511 155.82 227.651 155.661C227.791 155.503 228.031 155.492 228.186 155.632C230.422 157.627 232.616 157.948 234.737 158.261C236.78 158.56 238.894 158.873 240.872 160.71C243.855 163.482 244.386 167.519 242.107 170.101C242.031 170.183 241.927 170.227 241.823 170.227Z" fill="#FF811C"/>
<path d="M214.366 172.059C213.591 172.059 212.809 171.972 212.037 171.792C206.771 170.561 204.846 165.545 204.645 164.976C203.138 160.734 204.588 155.628 208.174 152.557C213.437 148.052 220.239 150.663 220.526 150.778C225.179 152.614 228.406 157.23 228.743 162.538C228.754 162.747 228.596 162.931 228.388 162.945C228.173 162.952 227.997 162.797 227.986 162.588C227.666 157.573 224.63 153.216 220.246 151.487C219.977 151.379 213.584 148.923 208.666 153.136C205.317 156.006 203.956 160.77 205.36 164.72C205.546 165.249 207.334 169.913 212.209 171.05C216.172 171.976 220.43 170.247 222.336 166.945C223.635 164.691 224.199 161.181 222.364 158.793C221.517 157.691 219.327 155.823 217.098 156.633C215.684 157.148 214.614 158.656 214.496 160.302C214.388 161.875 215.196 163.035 215.551 163.463C215.684 163.625 215.662 163.863 215.501 164C215.339 164.133 215.102 164.112 214.966 163.95C214.553 163.453 213.609 162.099 213.738 160.248C213.878 158.314 215.153 156.532 216.836 155.916C219.482 154.955 222.002 157.076 222.967 158.329C225.014 160.993 224.414 164.861 222.996 167.327C221.298 170.265 217.899 172.059 214.366 172.059Z" fill="#FF811C"/>
<path d="M219.447 170.962C219.358 171.398 219.354 171.956 219.623 172.539C220.187 173.76 221.619 174.505 221.885 174.401C221.896 174.39 221.949 174.286 221.949 174.048C221.946 173.396 221.544 172.385 220.779 171.708C220.413 171.384 219.964 171.131 219.447 170.962ZM221.835 175.168C221.677 175.168 221.497 175.136 221.303 175.067C220.521 174.793 219.426 173.926 218.934 172.856C218.482 171.877 218.622 170.962 218.819 170.368C218.88 170.181 219.078 170.073 219.271 170.12C220.061 170.314 220.74 170.656 221.282 171.135C222.344 172.078 222.8 173.472 222.692 174.307C222.631 174.786 222.405 174.992 222.226 175.082C222.111 175.139 221.982 175.168 221.835 175.168Z" fill="#FF811C"/>
<path d="M217.096 172.023C216.791 172.351 216.5 172.823 216.424 173.46C216.274 174.8 217.103 176.179 217.39 176.236C217.408 176.229 217.505 176.172 217.631 175.966C217.965 175.408 218.144 174.332 217.842 173.356C217.699 172.888 217.448 172.441 217.096 172.023ZM217.387 176.996C217.365 176.996 217.344 176.996 217.326 176.993C217.06 176.971 216.798 176.805 216.547 176.496C216.022 175.855 215.538 174.544 215.671 173.374C215.793 172.301 216.389 171.595 216.866 171.192C217.017 171.062 217.243 171.073 217.379 171.213C217.957 171.793 218.356 172.437 218.571 173.132C218.988 174.49 218.654 175.919 218.13 176.578C217.857 176.917 217.584 176.996 217.387 176.996Z" fill="#FF811C"/>
<path d="M214.3 172.216C213.88 172.363 213.399 172.641 213.036 173.17C212.272 174.275 212.354 175.885 212.584 176.069C212.605 176.076 212.717 176.069 212.921 175.946C213.478 175.611 214.142 174.751 214.336 173.746C214.429 173.264 214.418 172.752 214.3 172.216ZM212.598 176.832C212.412 176.832 212.272 176.774 212.171 176.71C211.948 176.566 211.798 176.292 211.719 175.903C211.557 175.089 211.744 173.703 212.411 172.734C213.022 171.845 213.88 171.503 214.49 171.373C214.687 171.334 214.874 171.445 214.935 171.636C215.168 172.421 215.219 173.177 215.082 173.89C214.813 175.287 213.847 176.393 213.076 176.72C212.889 176.8 212.731 176.832 212.598 176.832Z" fill="#FF811C"/>
<path d="M211.08 171.673C210.746 171.673 210.376 171.737 209.996 171.921C208.79 172.508 208.072 173.952 208.18 174.226C208.194 174.236 208.294 174.29 208.535 174.283C209.181 174.269 210.186 173.844 210.847 173.066C211.159 172.695 211.403 172.234 211.565 171.716C211.414 171.691 211.252 171.673 211.08 171.673ZM208.499 175.043C208.424 175.043 208.355 175.039 208.287 175.032C207.813 174.978 207.598 174.755 207.508 174.575C207.383 174.341 207.383 174.028 207.508 173.649C207.767 172.865 208.61 171.748 209.666 171.237C210.635 170.765 211.55 170.891 212.146 171.078C212.333 171.136 212.444 171.331 212.401 171.525C212.225 172.31 211.888 173.012 211.425 173.559C210.578 174.553 209.343 175.043 208.499 175.043Z" fill="#FF811C"/>
<path d="M227.922 164.521C227.071 164.878 226.041 165.555 225.381 166.826C224.559 168.417 224.494 170.661 224.91 171.91C225.097 172.475 225.305 172.612 225.363 172.641C225.499 172.706 225.733 172.656 226.002 172.497C227.082 171.863 228.339 169.868 228.475 167.748C228.543 166.703 228.357 165.62 227.922 164.521ZM225.499 173.43C225.309 173.43 225.151 173.386 225.033 173.329C224.674 173.156 224.39 172.76 224.189 172.151C223.729 170.772 223.755 168.313 224.706 166.477C225.571 164.813 226.978 164.035 228.005 163.675C228.192 163.61 228.396 163.7 228.479 163.88C229.064 165.205 229.319 166.523 229.233 167.794C229.078 170.2 227.66 172.407 226.382 173.156C226.03 173.361 225.736 173.43 225.499 173.43Z" fill="#FF811C"/>
<path d="M238.302 171.547C236.37 171.547 234.328 170.636 232.712 168.889C230.882 166.909 230.573 164.788 230.271 162.736C229.963 160.611 229.64 158.411 227.651 156.168C227.511 156.009 227.525 155.768 227.683 155.631C227.838 155.491 228.078 155.502 228.218 155.66C230.358 158.076 230.699 160.388 231.025 162.628C231.32 164.651 231.6 166.563 233.269 168.371C235.749 171.054 239.314 171.565 241.572 169.559C241.73 169.422 241.967 169.437 242.107 169.595C242.247 169.75 242.232 169.991 242.075 170.132C241.005 171.082 239.68 171.547 238.302 171.547Z" fill="#FF811C"/>
<path d="M35.3664 172.059C31.8377 172.059 28.4346 170.265 26.7402 167.327C25.3187 164.861 24.7228 160.993 26.769 158.329C27.731 157.076 30.2474 154.955 32.8966 155.916C34.5838 156.532 35.8582 158.314 35.9946 160.248C36.1238 162.099 35.1797 163.453 34.7669 163.95C34.6341 164.112 34.3936 164.133 34.2321 164C34.0705 163.863 34.049 163.625 34.1854 163.463C34.5372 163.035 35.3485 161.875 35.2372 160.302C35.1223 158.656 34.0526 157.148 32.6382 156.633C30.4054 155.823 28.2156 157.691 27.3685 158.793C25.5377 161.181 26.0977 164.691 27.3972 166.945C29.3033 170.251 33.5608 171.979 37.5238 171.05C42.3987 169.913 44.1864 165.249 44.3731 164.72C45.7803 160.77 44.4197 156.006 41.0669 153.136C36.1489 148.927 29.7556 151.379 29.4864 151.487C25.1069 153.216 22.07 157.573 21.7505 162.588C21.7362 162.797 21.5495 162.952 21.3485 162.945C21.1367 162.931 20.9787 162.747 20.9931 162.538C21.3305 157.23 24.5541 152.614 29.21 150.778C29.4972 150.663 36.2997 148.052 41.5587 152.557C45.1449 155.628 46.5987 160.734 45.091 164.976C44.89 165.545 42.9659 170.561 37.6962 171.792C36.9244 171.972 36.1418 172.059 35.3664 172.059Z" fill="#FF811C"/>
<path d="M30.2875 170.962C29.7669 171.131 29.3218 171.384 28.9557 171.708C28.1911 172.385 27.7854 173.396 27.7818 174.048C27.7818 174.286 27.8356 174.39 27.8536 174.405C28.1085 174.502 29.5444 173.76 30.1115 172.539C30.3808 171.956 30.3736 171.398 30.2875 170.962ZM27.8967 175.168C27.7531 175.168 27.6203 175.139 27.509 175.082C27.3295 174.992 27.0998 174.786 27.0387 174.307C26.9311 173.472 27.3906 172.078 28.4531 171.135C28.9916 170.656 29.67 170.314 30.4634 170.12C30.6572 170.073 30.8511 170.181 30.9121 170.368C31.1095 170.966 31.2495 171.88 30.8008 172.86C30.3054 173.926 29.2106 174.793 28.4316 175.067C28.2342 175.136 28.0582 175.168 27.8967 175.168Z" fill="#FF811C"/>
<path d="M32.6419 172.023C32.2865 172.441 32.0352 172.888 31.8917 173.356C31.5901 174.332 31.7732 175.408 32.107 175.966C32.2291 176.172 32.3296 176.229 32.3547 176.236C32.6347 176.182 33.464 174.8 33.3096 173.46C33.2378 172.823 32.9435 172.351 32.6419 172.023ZM32.3476 176.996C32.1502 176.996 31.8774 176.917 31.6081 176.578C31.0804 175.919 30.7466 174.49 31.1666 173.132C31.3784 172.441 31.7768 171.793 32.3547 171.213C32.4912 171.073 32.7173 171.062 32.8681 171.192C33.3455 171.595 33.9414 172.304 34.0634 173.374C34.1963 174.544 33.7117 175.855 33.1876 176.496C32.9363 176.805 32.6742 176.971 32.4086 176.993C32.3906 176.996 32.3691 176.996 32.3476 176.996Z" fill="#FF811C"/>
<path d="M35.4313 172.216C35.3128 172.749 35.2984 173.264 35.3917 173.746C35.5856 174.751 36.2497 175.611 36.8097 175.946C37.0107 176.069 37.1255 176.072 37.1507 176.065C37.3732 175.885 37.4558 174.275 36.6948 173.17C36.3287 172.641 35.8477 172.363 35.4313 172.216ZM37.1327 176.832C36.9963 176.832 36.8384 176.8 36.6553 176.72C35.88 176.393 34.9143 175.287 34.6451 173.89C34.5087 173.177 34.5589 172.417 34.7958 171.636C34.8533 171.445 35.0435 171.334 35.2374 171.373C35.8512 171.503 36.7056 171.845 37.3194 172.734C37.9835 173.703 38.1738 175.089 38.0122 175.903C37.9332 176.296 37.7789 176.566 37.5563 176.71C37.4594 176.774 37.3194 176.832 37.1327 176.832Z" fill="#FF811C"/>
<path d="M38.1659 171.716C38.3275 172.238 38.5679 172.692 38.8874 173.066C39.5479 173.844 40.5495 174.269 41.1992 174.283C41.4362 174.287 41.5403 174.236 41.5582 174.218C41.6623 173.952 40.9444 172.508 39.7347 171.921C39.1603 171.64 38.6039 171.637 38.1659 171.716ZM41.2316 175.043C40.3916 175.043 39.1531 174.553 38.3095 173.559C37.8392 173.009 37.5126 172.324 37.3295 171.525C37.2865 171.331 37.3977 171.136 37.588 171.078C38.1839 170.891 39.0992 170.765 40.0685 171.237C41.1203 171.748 41.9674 172.865 42.2259 173.649C42.3479 174.028 42.3479 174.341 42.2259 174.575C42.1326 174.755 41.9208 174.978 41.4434 175.032C41.3788 175.039 41.3069 175.043 41.2316 175.043Z" fill="#FF811C"/>
<path d="M21.8098 164.521C21.3754 165.62 21.1888 166.703 21.257 167.748C21.397 169.865 22.6498 171.863 23.7303 172.497C23.9995 172.656 24.2328 172.706 24.3692 172.641C24.4303 172.612 24.6385 172.475 24.8252 171.91C25.238 170.661 25.1769 168.417 24.3513 166.826C23.6944 165.558 22.6606 164.881 21.8098 164.521ZM24.2329 173.43C23.9959 173.43 23.7015 173.361 23.3497 173.156C22.0718 172.407 20.6575 170.196 20.4995 167.794C20.417 166.523 20.6718 165.205 21.257 163.88C21.3359 163.7 21.5405 163.61 21.7272 163.675C22.7575 164.035 24.1646 164.813 25.0262 166.477C25.9775 168.313 26.0026 170.769 25.5467 172.151C25.3421 172.76 25.0585 173.156 24.6995 173.329C24.5811 173.386 24.4267 173.43 24.2329 173.43Z" fill="#FF811C"/>
<path d="M11.4236 171.547C10.0451 171.547 8.72412 171.082 7.65079 170.132C7.49643 169.991 7.47846 169.75 7.61846 169.595C7.75846 169.437 7.99898 169.422 8.15693 169.559C10.4113 171.565 13.9795 171.054 16.4564 168.371C18.1293 166.563 18.4056 164.651 18.7036 162.628C19.0303 160.388 19.3677 158.073 21.5072 155.66C21.6472 155.502 21.8877 155.491 22.0456 155.631C22.2 155.768 22.2144 156.009 22.0779 156.168C20.0856 158.411 19.7662 160.611 19.4539 162.736C19.1559 164.788 18.8436 166.909 17.0128 168.889C15.4011 170.636 13.3585 171.547 11.4236 171.547Z" fill="#FF811C"/>
<path d="M15.1702 156.727C14.9728 156.727 14.8041 156.572 14.7933 156.37C14.7789 156.161 14.9368 155.981 15.145 155.967C20.1455 155.646 24.4891 152.6 26.2122 148.207C26.3199 147.937 28.7681 141.524 24.5681 136.591C21.7071 133.228 16.9579 131.867 13.0199 133.274C12.4922 133.462 7.84351 135.255 6.70916 140.145C5.78659 144.12 7.50608 148.391 10.8015 150.303C13.0486 151.606 16.5486 152.172 18.9286 150.332C20.0271 149.482 21.8902 147.285 21.0825 145.046C20.5691 143.627 19.065 142.554 17.4245 142.439C15.8486 142.323 14.7 143.141 14.2728 143.494C14.1148 143.63 13.8743 143.609 13.7379 143.447C13.6051 143.285 13.6266 143.043 13.7882 142.91C14.2835 142.496 15.6404 141.546 17.4748 141.679C19.4061 141.816 21.183 143.094 21.7968 144.786C22.7517 147.436 20.6409 149.968 19.3917 150.933C16.7353 152.989 12.8799 152.388 10.4245 150.962C6.84557 148.888 4.97174 144.264 5.96968 139.972C7.19737 134.69 12.1979 132.76 12.7651 132.554C16.9938 131.042 22.0841 132.5 25.1461 136.098C29.6369 141.376 27.0307 148.196 26.9194 148.484C25.0886 153.155 20.4866 156.388 15.1953 156.727C15.1881 156.727 15.1774 156.727 15.1702 156.727Z" fill="#FF811C"/>
<path d="M6.27253 147.345C5.95305 147.345 5.59766 147.406 5.23151 147.575C4.01459 148.144 3.27147 149.57 3.37557 149.847C3.38634 149.858 3.52996 149.912 3.7274 149.912C4.37714 149.909 5.38585 149.502 6.06072 148.738C6.3838 148.367 6.63505 147.921 6.80377 147.399C6.64223 147.366 6.46279 147.345 6.27253 147.345ZM3.72024 150.672C3.6305 150.672 3.54794 150.668 3.46896 150.657C2.99153 150.596 2.78686 150.366 2.69352 150.186C2.57506 149.948 2.58224 149.638 2.71147 149.26C2.98429 148.479 3.84943 147.381 4.91558 146.884C5.89199 146.43 6.80377 146.574 7.39608 146.772C7.58275 146.833 7.69045 147.031 7.64378 147.222C7.44994 148.018 7.10894 148.695 6.63151 149.242C5.78074 150.204 4.56024 150.672 3.72024 150.672Z" fill="#FF811C"/>
<path d="M3.97185 144.348C2.75134 144.348 1.58829 145.069 1.54162 145.335C1.54521 145.35 1.60259 145.45 1.80721 145.573C2.36362 145.911 3.43336 146.091 4.40977 145.789C4.87643 145.645 5.32156 145.393 5.73797 145.036C5.4113 144.734 4.93752 144.439 4.30572 144.367C4.19444 144.352 4.08313 144.348 3.97185 144.348ZM3.35802 146.707C2.45699 146.707 1.64567 146.437 1.19695 146.073C0.823621 145.774 0.766186 145.468 0.784134 145.267C0.805673 145.004 0.970829 144.741 1.27955 144.489C1.91852 143.963 3.22157 143.477 4.39182 143.61C5.45797 143.733 6.16521 144.33 6.56726 144.809C6.69649 144.961 6.68566 145.184 6.54566 145.324C5.96771 145.9 5.32519 146.304 4.63237 146.516C4.20519 146.649 3.77084 146.707 3.35802 146.707Z" fill="#FF811C"/>
<path d="M2.48364 140.362C2.078 140.362 1.77643 140.43 1.70105 140.524C1.69746 140.542 1.70464 140.657 1.82669 140.862C2.16054 141.42 3.02213 142.086 4.02008 142.281C4.5011 142.375 5.01443 142.36 5.54571 142.245C5.39853 141.824 5.12212 141.341 4.59443 140.974C3.93392 140.517 3.09031 140.362 2.48364 140.362ZM4.67338 143.105C4.40415 143.105 4.13854 143.077 3.87649 143.026C2.48367 142.76 1.38156 141.791 1.0549 141.017C0.864641 140.574 0.958002 140.279 1.06569 140.11C1.20928 139.883 1.48212 139.732 1.86981 139.652C2.68109 139.49 4.06314 139.681 5.02878 140.347C5.91185 140.963 6.25642 141.82 6.38565 142.436C6.42873 142.627 6.3139 142.821 6.12365 142.879C5.62826 143.03 5.14363 143.105 4.67338 143.105Z" fill="#FF811C"/>
<path d="M3.61383 136.087C3.58512 136.087 3.55999 136.091 3.54204 136.098C3.53127 136.109 3.48103 136.213 3.48462 136.451C3.50257 137.103 3.92252 138.107 4.69791 138.77C5.07124 139.09 5.52355 139.332 6.04406 139.494C6.12303 139.054 6.11947 138.496 5.83947 137.92C5.29383 136.789 4.00511 136.087 3.61383 136.087ZM6.32051 140.34C6.29179 140.34 6.26306 140.336 6.23434 140.333C5.43742 140.153 4.75537 139.821 4.20614 139.35C3.12563 138.428 2.64459 137.042 2.73792 136.206C2.79177 135.727 3.01438 135.515 3.19386 135.421C3.4272 135.299 3.73588 135.299 4.1164 135.421C4.90255 135.68 6.01178 136.53 6.52152 137.589C6.99178 138.557 6.86615 139.476 6.67948 140.073C6.62923 140.235 6.48205 140.34 6.32051 140.34Z" fill="#FF811C"/>
<path d="M7.66108 152.629C6.97185 152.629 6.33652 152.719 5.85191 152.881C5.28832 153.072 5.15188 153.277 5.12316 153.338C5.05855 153.475 5.1088 153.709 5.26675 153.976C5.89855 155.063 7.88727 156.32 10.0016 156.46C11.0391 156.529 12.1231 156.341 13.218 155.906C12.8626 155.052 12.1878 154.019 10.9206 153.356C9.95136 152.852 8.738 152.629 7.66108 152.629ZM10.4252 157.234C10.2672 157.234 10.1093 157.231 9.95136 157.22C7.557 157.062 5.35647 155.643 4.6098 154.361C4.24006 153.72 4.3119 153.27 4.43754 153.007C4.61343 152.647 5.00469 152.362 5.61135 152.161C6.98981 151.7 9.44159 151.725 11.2688 152.679C12.9308 153.547 13.7026 154.955 14.0616 155.989C14.1262 156.176 14.0365 156.381 13.857 156.46C12.7011 156.975 11.5488 157.234 10.4252 157.234Z" fill="#FF811C"/>
<path d="M7.90457 170.227C7.80047 170.227 7.69635 170.183 7.62097 170.101C5.34149 167.519 5.87636 163.482 8.85943 160.71C10.8338 158.873 12.9482 158.56 14.9943 158.261C17.1122 157.948 19.3056 157.627 21.542 155.632C21.6999 155.492 21.9405 155.503 22.0805 155.661C22.2169 155.82 22.2025 156.061 22.0481 156.201C19.643 158.347 17.3348 158.686 15.102 159.014C13.0846 159.312 11.1784 159.593 9.37637 161.268C6.70201 163.752 6.19227 167.332 8.19175 169.596C8.32816 169.751 8.31379 169.992 8.15943 170.133C8.08405 170.198 7.99432 170.227 7.90457 170.227Z" fill="#FF811C"/>
<path d="M201.236 1.08594H48.4062V0.00569379H201.236V1.08594Z" fill="#FF811C"/>
<path d="M249.112 129.008H248.039V47.8743H249.112V129.008Z" fill="#FF811C"/>
<path d="M201.236 176.938H48.4062V175.857H201.236V176.938Z" fill="#FF811C"/>
<path d="M1.70192 129.008H0.625V47.8743H1.70192V129.008Z" fill="#FF811C"/>
<path d="M4.73734 129.008H3.66406V47.8743H4.73734V129.008Z" fill="#FF811C"/>
<path d="M246.077 129.008H245V47.8743H246.077V129.008Z" fill="#FF811C"/>
<path d="M201.236 4.125H48.4062V3.04834H201.236V4.125Z" fill="#FF811C"/>
<path d="M201.236 173.891H48.4062V172.814H201.236V173.891Z" fill="#FF811C"/>
</svg>
