<svg width="250" height="178" viewBox="0 0 250 178" fill="none" xmlns="http://www.w3.org/2000/svg">
<path d="M7.79894 17.6406C4.24314 17.6406 2.13267 14.6538 1.90257 14.3127C1.68685 13.9924 1.49268 13.6478 1.33089 13.2858C0.385316 11.1832 0.601023 8.85425 1.92771 6.89438C3.31192 4.85097 5.63096 3.62914 8.13692 3.62914H117.684C117.892 3.62914 118.065 3.79274 118.065 3.99812C118.065 4.20003 117.892 4.36711 117.684 4.36711H8.13692C5.88983 4.36711 3.80452 5.4637 2.56413 7.29825C1.38126 9.04577 1.18709 11.1205 2.02841 12.9933C2.17222 13.3136 2.34477 13.6234 2.53892 13.9088C2.74745 14.2186 4.65659 16.9618 7.87443 16.9026C9.92378 16.8747 12.3291 15.7991 12.9547 13.794C13.361 12.4886 13.1273 10.3024 11.628 9.59578C10.7687 9.19197 9.81231 9.43212 9.31615 9.60965C9.12201 9.67928 8.89911 9.58531 8.8272 9.39385C8.7517 9.20239 8.85241 8.99006 9.05015 8.92043C9.66136 8.70112 10.8514 8.40872 11.9624 8.93437C13.7421 9.77332 14.2382 12.2205 13.6809 14.0063C12.9511 16.3491 10.2114 17.6093 7.88525 17.6406C7.85648 17.6406 7.82771 17.6406 7.79894 17.6406Z" fill="#FF811C"/>
<path d="M242.105 17.6406C242.08 17.6406 242.051 17.6406 242.022 17.6406C239.696 17.6093 236.957 16.3491 236.227 14.0063C235.666 12.2205 236.166 9.77332 237.945 8.93437C239.056 8.40872 240.246 8.70112 240.858 8.92043C241.052 8.99006 241.152 9.20239 241.08 9.39385C241.005 9.58531 240.786 9.67928 240.591 9.60965C240.095 9.43212 239.139 9.19197 238.28 9.59578C236.781 10.3024 236.547 12.4886 236.953 13.794C237.579 15.7991 239.984 16.8747 242.033 16.9026C242.058 16.9026 242.084 16.9026 242.105 16.9026C245.262 16.9026 247.16 14.2186 247.369 13.9088C247.559 13.6234 247.732 13.3136 247.879 12.9933C248.721 11.1205 248.526 9.04577 247.344 7.29825C246.1 5.4637 244.018 4.36711 241.767 4.36711H132.123C131.911 4.36711 131.742 4.20003 131.742 3.99812C131.742 3.79274 131.911 3.62914 132.123 3.62914H241.767C244.273 3.62914 246.596 4.85097 247.976 6.89438C249.303 8.85425 249.522 11.1832 248.577 13.2858C248.411 13.6478 248.221 13.9924 248.005 14.3127C247.775 14.6538 245.661 17.6406 242.105 17.6406Z" fill="#FF811C"/>
<path d="M241.767 174.684H132.123C131.911 174.684 131.742 174.52 131.742 174.315C131.742 174.113 131.911 173.946 132.123 173.946H241.767C244.018 173.946 246.1 172.853 247.344 171.015C248.526 169.267 248.721 167.192 247.879 165.323C247.732 164.999 247.559 164.689 247.369 164.404C247.16 164.094 245.265 161.41 242.105 161.41C242.084 161.41 242.058 161.41 242.033 161.41C239.984 161.438 237.579 162.514 236.953 164.519C236.547 165.824 236.781 168.01 238.28 168.717C239.139 169.121 240.095 168.881 240.591 168.703C240.786 168.633 241.005 168.727 241.08 168.919C241.152 169.11 241.052 169.323 240.858 169.392C240.246 169.615 239.056 169.904 237.945 169.378C236.166 168.539 235.666 166.092 236.227 164.306C236.957 161.964 239.696 160.703 242.022 160.672C242.051 160.672 242.08 160.672 242.105 160.672C245.665 160.672 247.775 163.659 248.005 164C248.221 164.32 248.411 164.665 248.577 165.027C249.522 167.13 249.303 169.458 247.976 171.418C246.596 173.465 244.273 174.684 241.767 174.684Z" fill="#FF811C"/>
<path d="M117.684 174.684H8.13692C5.63096 174.684 3.31192 173.465 1.92771 171.418C0.601023 169.458 0.385316 167.13 1.33089 165.027C1.49268 164.665 1.68685 164.32 1.90257 164C2.13267 163.659 4.24314 160.672 7.79894 160.672C7.82771 160.672 7.85648 160.672 7.88525 160.672C10.2114 160.703 12.9511 161.964 13.6809 164.306C14.2382 166.092 13.7421 168.539 11.9624 169.378C10.8514 169.904 9.66136 169.615 9.05015 169.392C8.85241 169.323 8.7517 169.11 8.8272 168.919C8.89911 168.727 9.12201 168.633 9.31615 168.703C9.81231 168.881 10.7687 169.121 11.628 168.717C13.1273 168.01 13.361 165.824 12.9547 164.519C12.3291 162.514 9.92378 161.438 7.87443 161.41C4.64581 161.365 2.74745 164.094 2.53892 164.404C2.34477 164.689 2.17222 164.999 2.02841 165.323C1.18709 167.192 1.38126 169.267 2.56413 171.015C3.80452 172.853 5.88983 173.946 8.13692 173.946H117.684C117.892 173.946 118.065 174.113 118.065 174.315C118.065 174.52 117.892 174.684 117.684 174.684Z" fill="#FF811C"/>
<path d="M1.13532 161.043C0.926794 161.043 0.757812 160.879 0.757812 160.674V17.273C0.757812 17.0676 0.926794 16.9039 1.13532 16.9039C1.34745 16.9039 1.51642 17.0676 1.51642 17.273V160.674C1.51642 160.879 1.34745 161.043 1.13532 161.043Z" fill="#FF811C"/>
<path d="M248.85 161.043C248.641 161.043 248.469 160.879 248.469 160.674V17.273C248.469 17.0676 248.641 16.9039 248.85 16.9039C249.062 16.9039 249.231 17.0676 249.231 17.273V160.674C249.231 160.879 249.062 161.043 248.85 161.043Z" fill="#FF811C"/>
<path d="M4.17797 159.207C3.96944 159.207 3.79688 159.04 3.79688 158.838V19.1061C3.79688 18.9042 3.96944 18.7371 4.17797 18.7371C4.3865 18.7371 4.55913 18.9042 4.55913 19.1061V158.838C4.55913 159.04 4.3865 159.207 4.17797 159.207Z" fill="#FF811C"/>
<path d="M245.819 159.207C245.607 159.207 245.438 159.04 245.438 158.838V19.1061C245.438 18.9042 245.607 18.7371 245.819 18.7371C246.027 18.7371 246.196 18.9042 246.196 19.1061V158.838C246.196 159.04 246.027 159.207 245.819 159.207Z" fill="#FF811C"/>
<path d="M124.904 1.23836C123.34 1.23836 122.063 2.47416 122.063 3.98844C122.063 5.50621 123.34 6.73853 124.904 6.73853C126.471 6.73853 127.748 5.50621 127.748 3.98844C127.748 2.47416 126.471 1.23836 124.904 1.23836ZM124.904 7.47656C122.919 7.47656 121.305 5.9135 121.305 3.98844C121.305 2.06687 122.919 0.503862 124.904 0.503862C126.892 0.503862 128.506 2.06687 128.506 3.98844C128.506 5.9135 126.892 7.47656 124.904 7.47656Z" fill="#FF811C"/>
<path d="M124.904 171.258C123.34 171.258 122.063 172.49 122.063 174.008C122.063 175.526 123.34 176.758 124.904 176.758C126.471 176.758 127.748 175.526 127.748 174.008C127.748 172.49 126.471 171.258 124.904 171.258ZM124.904 177.496C122.919 177.496 121.305 175.93 121.305 174.008C121.305 172.086 122.919 170.52 124.904 170.52C126.892 170.52 128.506 172.086 128.506 174.008C128.506 175.93 126.892 177.496 124.904 177.496Z" fill="#FF811C"/>
</svg>
