<svg width="22" height="22" viewBox="0 0 22 22" fill="none" xmlns="http://www.w3.org/2000/svg">
<path fill-rule="evenodd" clip-rule="evenodd" d="M6.69592 12.5618C6.05115 12.5618 5.52734 12.038 5.52734 11.3932C5.52734 10.7504 6.05115 10.2266 6.69592 10.2266C7.34068 10.2266 7.86449 10.7504 7.86449 11.3932C7.86449 12.038 7.34068 12.5618 6.69592 12.5618ZM11.2388 12.5618C10.594 12.5618 10.0702 12.038 10.0702 11.3932C10.0702 10.7504 10.594 10.2266 11.2388 10.2266C11.8835 10.2266 12.4073 10.7504 12.4073 11.3932C12.4073 12.038 11.8835 12.5618 11.2388 12.5618ZM14.6132 11.3932C14.6132 12.038 15.137 12.5618 15.7817 12.5618C16.4265 12.5618 16.9503 12.038 16.9503 11.3932C16.9503 10.7504 16.4265 10.2266 15.7817 10.2266C15.137 10.2266 14.6132 10.7504 14.6132 11.3932Z" fill="#151718"/>
<path fill-rule="evenodd" clip-rule="evenodd" d="M11.02 1.17188C5.21 1.17188 1 5.91799 1 11.1869C1 12.8694 1.49 14.601 2.35 16.1834C2.51 16.4448 2.53 16.7743 2.42 17.0857L1.75 19.3291C1.6 19.8699 2.06 20.2695 2.57 20.1093L4.59 19.5094C5.14 19.3291 5.57 19.5585 6.08 19.8699C7.54 20.7302 9.36 21.1719 11 21.1719C15.96 21.1719 21 17.3361 21 11.1569C21 5.82786 16.7 1.17188 11.02 1.17188Z" stroke="#151718" stroke-width="1.5" stroke-linecap="round" stroke-linejoin="round"/>
</svg>
