<svg width="20" height="20" viewBox="0 0 20 20" fill="none" xmlns="http://www.w3.org/2000/svg">
<path d="M14.0195 8.91431C15.8405 8.91431 17.3165 7.43831 17.3165 5.61731C17.3165 3.79731 15.8405 2.32031 14.0195 2.32031" stroke="#464E5F" stroke-width="1.5" stroke-linecap="round" stroke-linejoin="round"/>
<path d="M15.5352 12.4961C16.0792 12.5331 16.6192 12.6111 17.1522 12.7291C17.8912 12.8761 18.7812 13.1791 19.0972 13.8421C19.2992 14.2671 19.2992 14.7621 19.0972 15.1871C18.7822 15.8501 17.8912 16.1531 17.1522 16.3051" stroke="#464E5F" stroke-width="1.5" stroke-linecap="round" stroke-linejoin="round"/>
<path fill-rule="evenodd" clip-rule="evenodd" d="M7.591 13.207C11.281 13.207 14.433 13.766 14.433 15.999C14.433 18.233 11.301 18.811 7.591 18.811C3.901 18.811 0.75 18.253 0.75 16.019C0.75 13.785 3.881 13.207 7.591 13.207Z" stroke="#464E5F" stroke-width="1.5" stroke-linecap="round" stroke-linejoin="round"/>
<path fill-rule="evenodd" clip-rule="evenodd" d="M7.59103 10.019C5.15703 10.019 3.20703 8.068 3.20703 5.634C3.20703 3.201 5.15703 1.25 7.59103 1.25C10.025 1.25 11.976 3.201 11.976 5.634C11.976 8.068 10.025 10.019 7.59103 10.019Z" stroke="#464E5F" stroke-width="1.5" stroke-linecap="round" stroke-linejoin="round"/>
</svg>
