<svg width="16" height="15" viewBox="0 0 16 15" fill="none" xmlns="http://www.w3.org/2000/svg">
<path fill-rule="evenodd" clip-rule="evenodd" d="M5.81366 13.8554L13.1357 4.86014C13.5336 4.37506 13.6751 3.81423 13.5424 3.2432C13.4275 2.72408 13.0914 2.23049 12.5874 1.85604L11.3582 0.928425C10.2882 0.119956 8.96177 0.205058 8.20127 1.13267L7.37887 2.14624C7.27276 2.27304 7.29929 2.46026 7.43193 2.56238C7.43193 2.56238 9.51003 4.14528 9.55424 4.17932C9.69573 4.30698 9.80185 4.47718 9.82838 4.68142C9.87259 5.0814 9.58077 5.45585 9.14747 5.50691C8.94408 5.53244 8.74953 5.47287 8.60805 5.36224L6.42383 3.71126C6.31771 3.63552 6.15854 3.65169 6.07011 3.75381L0.879282 10.1365C0.543249 10.5364 0.42829 11.0556 0.543249 11.5577L1.20647 14.2894C1.24184 14.4341 1.37449 14.5362 1.53366 14.5362L4.45185 14.5022C4.98242 14.4937 5.47763 14.2639 5.81366 13.8554ZM9.89974 13.0047H14.6581C15.1224 13.0047 15.5 13.368 15.5 13.8148C15.5 14.2625 15.1224 14.625 14.6581 14.625H9.89974C9.43548 14.625 9.05789 14.2625 9.05789 13.8148C9.05789 13.368 9.43548 13.0047 9.89974 13.0047Z" fill="#151718"/>
</svg>
