<svg width="20" height="15" viewBox="0 0 20 15" fill="none" xmlns="http://www.w3.org/2000/svg">
<path fill-rule="evenodd" clip-rule="evenodd" d="M13.464 4.35941C13.464 6.31748 11.903 7.88753 9.95622 7.88753C8.00947 7.88753 6.44848 6.31748 6.44848 4.35941C6.44848 2.40059 8.00947 0.832031 9.95622 0.832031C11.903 0.832031 13.464 2.40059 13.464 4.35941ZM9.95622 14.1654C7.0969 14.1654 4.65544 13.7121 4.65544 11.8988C4.65544 10.0849 7.08123 9.61505 9.95622 9.61505C12.8155 9.61505 15.257 10.0684 15.257 11.8823C15.257 13.6955 12.8312 14.1654 9.95622 14.1654ZM14.9629 4.42305C14.9629 5.42122 14.6652 6.3511 14.1429 7.12412C14.0892 7.20367 14.1369 7.311 14.2317 7.32751C14.3623 7.35002 14.4973 7.36278 14.6346 7.36653C16.0038 7.40256 17.2328 6.51621 17.5723 5.18181C18.0752 3.19973 16.5985 1.42028 14.7182 1.42028C14.5137 1.42028 14.3183 1.44204 14.128 1.48107C14.1019 1.48707 14.0743 1.49908 14.0593 1.52235C14.0414 1.55087 14.0549 1.58914 14.0728 1.61391C14.6376 2.41019 14.9629 3.38135 14.9629 4.42305ZM17.2305 8.75917C18.1506 8.94004 18.7557 9.30929 19.0064 9.8459C19.2183 10.2865 19.2183 10.7975 19.0064 11.2373C18.6229 12.0697 17.3865 12.3368 16.906 12.4059C16.8067 12.4209 16.7269 12.3346 16.7373 12.2348C16.9828 9.92846 15.0301 8.83497 14.5249 8.58355C14.5033 8.5723 14.4988 8.55503 14.5011 8.54453C14.5026 8.53702 14.5115 8.52501 14.5279 8.52276C15.6211 8.5025 16.7963 8.6526 17.2305 8.75917ZM5.36296 7.36646C5.50025 7.36271 5.63456 7.3507 5.76589 7.32743C5.86065 7.31092 5.9084 7.2036 5.85468 7.12405C5.33236 6.35102 5.03464 5.42115 5.03464 4.42298C5.03464 3.38127 5.35997 2.41012 5.92482 1.61383C5.94273 1.58907 5.95541 1.55079 5.93825 1.52227C5.92333 1.49976 5.89497 1.487 5.8696 1.48099C5.67859 1.44197 5.48309 1.4202 5.27864 1.4202C3.39829 1.4202 1.92162 3.19965 2.42529 5.18174C2.7648 6.51614 3.99374 7.40248 5.36296 7.36646ZM5.49615 8.54408C5.49838 8.55534 5.49391 8.57185 5.47302 8.58385C4.96711 8.83527 3.01439 9.92876 3.25988 12.2343C3.27032 12.3349 3.19123 12.4204 3.09199 12.4062C2.61146 12.3371 1.37506 12.07 0.991525 11.2376C0.778867 10.7971 0.778867 10.2868 0.991525 9.8462C1.24224 9.30959 1.84663 8.94034 2.76666 8.75872C3.20168 8.6529 4.37615 8.5028 5.47003 8.52306C5.48645 8.52531 5.49465 8.53732 5.49615 8.54408Z" fill="#151718"/>
</svg>
