<svg width="20" height="20" viewBox="0 0 20 20" fill="none" xmlns="http://www.w3.org/2000/svg">
<path fill-rule="evenodd" clip-rule="evenodd" d="M14.303 0.75H5.654C2.639 0.75 0.75 2.884 0.75 5.904V14.053C0.75 17.073 2.631 19.207 5.654 19.207H14.302C17.326 19.207 19.207 17.073 19.207 14.053V5.904C19.207 2.884 17.326 0.75 14.303 0.75Z" stroke="#7C8DA7" stroke-width="1.5" stroke-linecap="round" stroke-linejoin="round"/>
<path fill-rule="evenodd" clip-rule="evenodd" d="M8.70272 6.7835C8.70272 7.8025 7.87572 8.6295 6.85672 8.6295C5.83872 8.6295 5.01172 7.8025 5.01172 6.7835C5.01172 5.7645 5.83872 4.9375 6.85672 4.9375C7.87572 4.9375 8.70272 5.7645 8.70272 6.7835Z" stroke="#7C8DA7" stroke-width="1.5" stroke-linecap="round" stroke-linejoin="round"/>
<path d="M19.207 12.952C18.213 12.087 17.348 11.046 16.208 10.359C15.066 9.672 13.839 10.096 13.047 11.121C12.282 12.112 11.804 13.445 10.649 14.07C9.226 14.841 8.39 13.598 7.203 13.1C5.878 12.545 4.872 13.543 4.098 14.502C3.323 15.462 2.538 16.412 1.75 17.362" stroke="#7C8DA7" stroke-width="1.5" stroke-linecap="round" stroke-linejoin="round"/>
</svg>
