<svg width="20" height="21" viewBox="0 0 20 21" fill="none" xmlns="http://www.w3.org/2000/svg">
<path fill-rule="evenodd" clip-rule="evenodd" d="M18.3992 7.64928L19.1194 8.36928C19.6897 8.92929 19.9998 9.68928 19.9998 10.4893C20.0098 11.2893 19.6997 12.0503 19.1395 12.6193C19.1328 12.6266 19.1261 12.6331 19.1194 12.6395C19.1161 12.6427 19.1128 12.646 19.1094 12.6493L18.3992 13.3593C18.1191 13.6393 17.959 14.0193 17.959 14.4203V15.4493C17.959 17.1093 16.6085 18.4603 14.9479 18.4603H13.9176C13.5174 18.4603 13.1373 18.6193 12.8572 18.8993L12.1369 19.6193C11.5467 20.2103 10.7764 20.4993 10.0061 20.4993C9.23586 20.4993 8.46558 20.2103 7.87537 19.6303L7.14511 18.8993C6.865 18.6193 6.48487 18.4603 6.08472 18.4603H5.05435C3.39375 18.4603 2.04326 17.1093 2.04326 15.4493V14.4203C2.04326 14.0193 1.8832 13.6393 1.6031 13.3493L0.882836 12.6393C-0.287588 11.4703 -0.297592 9.55928 0.872832 8.38028L1.6031 7.64928C1.8832 7.36928 2.04326 6.98928 2.04326 6.57928V5.55928C2.04326 3.89928 3.39375 2.55028 5.05435 2.55028H6.08472C6.48487 2.55028 6.865 2.38928 7.14511 2.10928L7.86537 1.38928C9.03579 0.210284 10.9465 0.210285 12.1269 1.38028L12.8572 2.10928C13.1373 2.38928 13.5174 2.55028 13.9176 2.55028H14.9479C16.6085 2.55028 17.959 3.89928 17.959 5.55928V6.59028C17.959 6.98928 18.1191 7.36928 18.3992 7.64928ZM9.4275 13.4911L14.1775 8.74109C14.5175 8.40109 14.5175 7.85109 14.1775 7.50109C13.8375 7.16109 13.2775 7.16109 12.9375 7.50109L8.8075 11.6311L7.0575 9.88109C6.7175 9.54109 6.1575 9.54109 5.8175 9.88109C5.4775 10.2211 5.4775 10.7711 5.8175 11.1211L8.1975 13.4911C8.3675 13.6611 8.5875 13.7411 8.8075 13.7411C9.0375 13.7411 9.2575 13.6611 9.4275 13.4911Z" fill="#34D719"/>
</svg>
