<?xml version="1.0" standalone="no"?>
<!DOCTYPE svg PUBLIC "-//W3C//DTD SVG 20010904//EN"
 "http://www.w3.org/TR/2001/REC-SVG-20010904/DTD/svg10.dtd">
<svg version="1.0" xmlns="http://www.w3.org/2000/svg"
 width="20px" height="20px" viewBox="0 0 512.000000 512.000000"
 preserveAspectRatio="xMidYMid meet">

<g transform="translate(0.000000,512.000000) scale(0.100000,-0.100000)"
fill="#FF1C1C" stroke="none">
<path d="M1235 4796 c-318 -53 -591 -194 -813 -418 -372 -376 -506 -917 -356
-1435 170 -587 727 -1308 1522 -1970 362 -303 891 -663 972 -663 82 0 608 359
972 662 797 665 1352 1383 1522 1971 85 291 80 604 -12 877 -125 367 -381 664
-722 835 -199 100 -374 144 -605 152 -135 4 -179 2 -283 -16 -301 -51 -562
-183 -774 -391 l-98 -96 -93 91 c-201 198 -456 333 -737 391 -105 21 -393 27
-495 10z m2660 -666 c313 -100 523 -350 566 -677 18 -132 2 -237 -40 -275 -45
-40 -93 -38 -136 5 l-33 33 1 120 c1 88 -4 135 -17 179 -63 213 -223 368 -436
421 -90 23 -230 15 -331 -19 -87 -29 -116 -26 -155 14 -21 22 -29 40 -29 69 0
68 63 111 210 144 103 23 307 16 400 -14z"/>
</g>
</svg>
