<svg width="20" height="20" viewBox="0 0 20 20" fill="none" xmlns="http://www.w3.org/2000/svg">
<path fill-rule="evenodd" clip-rule="evenodd" d="M4.48311 0.987166C0.811517 2.16925 -0.826136 6.17756 0.40482 10.0014C1.02947 11.802 2.04534 13.4203 3.38004 14.7481C5.21101 16.5264 7.22254 18.0913 9.38488 19.421L9.63044 19.568C9.86561 19.7088 10.1598 19.7063 10.3926 19.5616L10.6218 19.4191C12.7812 18.0913 14.7927 16.5264 16.6174 14.7543C17.9584 13.4203 18.9743 11.802 19.5937 10.017C20.8291 6.17989 19.1847 2.16967 15.512 0.987225L15.2463 0.908106C13.5624 0.444962 11.773 0.673176 10.2645 1.52722L9.99639 1.68617L9.73299 1.52811C8.14194 0.625315 6.2404 0.421906 4.48311 0.987166ZM9.37465 3.02615L9.57138 3.16725C9.83072 3.35299 10.1806 3.3493 10.436 3.15813C11.766 2.16244 13.4873 1.8727 15.0641 2.37856C17.9097 3.29472 19.2047 6.45284 18.2064 9.55386C17.665 11.1136 16.7687 12.5415 15.5916 13.7124L15.0636 14.214C13.641 15.536 12.1026 16.7328 10.4691 17.7875L10.0013 18.0817L10.144 18.1717C8.08049 16.9027 6.15375 15.4038 4.40582 13.7062C3.23505 12.5415 2.33877 11.1136 1.79207 9.53823C0.798077 6.44988 2.08746 3.29399 4.93153 2.37833C6.43331 1.89526 8.07056 2.13477 9.37465 3.02615ZM13.8703 4.65561C13.4855 4.5328 13.0739 4.74491 12.951 5.12936C12.8281 5.51382 13.0404 5.92504 13.4252 6.04785C14.1814 6.28923 14.7206 6.96991 14.7881 7.77283C14.822 8.175 15.1757 8.47362 15.5782 8.43982C15.9807 8.40601 16.2796 8.05258 16.2457 7.6504C16.1288 6.26046 15.1917 5.07739 13.8703 4.65561Z" fill="#fff"/>
</svg>
