<svg width="81" height="80" viewBox="0 0 81 80" fill="none" xmlns="http://www.w3.org/2000/svg">
<path d="M1.63176 75.4375V63.2861H7.32557C8.78374 63.2861 9.89473 63.5754 10.6585 64.154C11.4223 64.7211 11.8042 65.4849 11.8042 66.4455C11.8042 67.0935 11.6538 67.649 11.3529 68.1119C11.052 68.5633 10.647 68.9162 10.1378 69.1708C9.64012 69.4139 9.0962 69.5354 8.50599 69.5354L8.81846 68.9105C9.50125 68.9105 10.1146 69.0378 10.6585 69.2924C11.2024 69.5354 11.6306 69.8941 11.9431 70.3686C12.2671 70.8431 12.4292 71.4333 12.4292 72.1393C12.4292 73.1808 12.0299 73.9909 11.2314 74.5695C10.4329 75.1482 9.24665 75.4375 7.67275 75.4375H1.63176ZM3.88845 73.6669H7.53388C8.37869 73.6669 9.02677 73.528 9.47811 73.2502C9.92944 72.9725 10.1551 72.5269 10.1551 71.9136C10.1551 71.3118 9.92944 70.872 9.47811 70.5943C9.02677 70.305 8.37869 70.1603 7.53388 70.1603H3.71486V68.407H7.08254C7.86949 68.407 8.47127 68.2682 8.88789 67.9904C9.31609 67.7127 9.53018 67.2961 9.53018 66.7406C9.53018 66.1735 9.31609 65.7511 8.88789 65.4733C8.47127 65.1956 7.86949 65.0567 7.08254 65.0567H3.88845V73.6669ZM17.5691 75.4375V70.629L18.0725 72.0177L12.7953 63.2861H15.2083L19.4439 70.3165H18.0899L22.3602 63.2861H24.5822L19.305 72.0177L19.8258 70.629V75.4375H17.5691Z" fill="#393935"/>
<path d="M36.5514 75.6111C35.6024 75.6111 34.7286 75.4549 33.9301 75.1424C33.1316 74.8299 32.4372 74.3959 31.847 73.8405C31.2568 73.2734 30.7997 72.6137 30.4756 71.8615C30.1516 71.0977 29.9896 70.2645 29.9896 69.3618C29.9896 68.4591 30.1516 67.6317 30.4756 66.8794C30.7997 66.1156 31.2568 65.456 31.847 64.9005C32.4372 64.3334 33.1316 63.8937 33.9301 63.5812C34.7286 63.2687 35.5966 63.1125 36.534 63.1125C37.483 63.1125 38.3509 63.2687 39.1379 63.5812C39.9364 63.8937 40.6308 64.3334 41.221 64.9005C41.8112 65.456 42.2683 66.1156 42.5923 66.8794C42.9164 67.6317 43.0784 68.4591 43.0784 69.3618C43.0784 70.2645 42.9164 71.0977 42.5923 71.8615C42.2683 72.6253 41.8112 73.285 41.221 73.8405C40.6308 74.3959 39.9364 74.8299 39.1379 75.1424C38.3509 75.4549 37.4887 75.6111 36.5514 75.6111ZM36.534 73.6321C37.1474 73.6321 37.7144 73.528 38.2352 73.3197C38.756 73.1114 39.2073 72.8163 39.5892 72.4344C39.9711 72.0409 40.2662 71.5896 40.4745 71.0803C40.6944 70.5596 40.8043 69.9867 40.8043 69.3618C40.8043 68.7369 40.6944 68.1698 40.4745 67.6606C40.2662 67.1398 39.9711 66.6885 39.5892 66.3066C39.2073 65.9131 38.756 65.6122 38.2352 65.4039C37.7144 65.1956 37.1474 65.0914 36.534 65.0914C35.9206 65.0914 35.3536 65.1956 34.8328 65.4039C34.3236 65.6122 33.8723 65.9131 33.4788 66.3066C33.0969 66.6885 32.796 67.1398 32.5761 67.6606C32.3678 68.1698 32.2636 68.7369 32.2636 69.3618C32.2636 69.9751 32.3678 70.5422 32.5761 71.063C32.796 71.5838 33.0969 72.0409 33.4788 72.4344C33.8607 72.8163 34.312 73.1114 34.8328 73.3197C35.3536 73.528 35.9206 73.6321 36.534 73.6321ZM47.4841 72.5732L47.3626 69.8999L53.7334 63.2861H56.2678L50.9733 68.9105L49.7234 70.2818L47.4841 72.5732ZM45.4704 75.4375V63.2861H47.7271V75.4375H45.4704ZM53.9417 75.4375L49.2895 69.8999L50.7823 68.2508L56.5803 75.4375H53.9417ZM63.1724 75.6111C61.506 75.6111 60.1982 75.1424 59.2493 74.205C58.3119 73.2676 57.8432 71.9136 57.8432 70.143V63.2861H60.0999V70.0562C60.0999 71.306 60.3661 72.2145 60.8984 72.7815C61.4423 73.3486 62.2061 73.6321 63.1898 73.6321C64.1735 73.6321 64.9315 73.3486 65.4639 72.7815C65.9962 72.2145 66.2624 71.306 66.2624 70.0562V63.2861H68.4844V70.143C68.4844 71.9136 68.0099 73.2676 67.0609 74.205C66.1235 75.1424 64.8274 75.6111 63.1724 75.6111ZM71.6448 75.4375V63.2861H73.9015V73.528H80.255V75.4375H71.6448Z" fill="#FFA114"/>
<g clip-path="url(#clip0_752_4779)">
<path fill-rule="evenodd" clip-rule="evenodd" d="M58.1574 33.2752C58.2889 33.0391 58.1819 32.7412 57.9302 32.6428L36.2582 24.162L44.6027 46.1525C44.7029 46.4166 45.0203 46.5223 45.2588 46.371L49.5029 43.6785C49.9084 43.4213 50.4331 43.4525 50.8053 43.7561L56.1588 48.1228C56.5202 48.4177 57.0478 48.3843 57.3693 48.0463L60.4006 44.859C60.7087 44.535 60.7295 44.0331 60.4492 43.6847L56.1401 38.3294C55.8553 37.9756 55.8136 37.4845 56.0346 37.0877L58.1574 33.2752Z" fill="#393935"/>
<path fill-rule="evenodd" clip-rule="evenodd" d="M38.9727 11.6531L22.4375 40.293L36.266 48.2769C38.7902 49.7342 44.538 44.5045 49.1041 36.5957C53.6702 28.687 55.3254 21.0944 52.8012 19.637L38.9727 11.6531Z" fill="#D77100"/>
<path d="M23.6411 22.1368C23.6718 21.9726 23.7588 21.833 23.8919 21.7321C25.0827 20.8301 31.2448 16.1403 35.964 12.1257C39.9551 8.73056 45.2368 3.26893 47.536 0.849568C47.953 0.410703 48.6889 0.702339 48.6849 1.30775C48.6608 4.92648 48.4991 13.5568 47.5366 18.8071C46.4146 24.9284 44.5933 32.1677 44.2523 33.5079C44.2158 33.6511 44.1366 33.7735 44.0202 33.8645C42.8187 34.8044 35.7306 40.3636 30.9424 44.4369C27.1085 47.6983 22.7434 52.2109 20.6709 54.4044C20.2461 54.8539 19.4896 54.5451 19.5123 53.9271C19.6487 50.2134 20.055 41.5487 21.011 36.3337C22.1207 30.2797 23.3846 23.5094 23.6411 22.1368Z" fill="url(#paint0_linear_752_4779)"/>
<path d="M35.6312 24.5947L43.7942 46.7924L40.8138 32.1575L41.7727 32.8116L42.6738 31.0854C42.7059 31.0238 42.7727 30.9885 42.8417 30.9966L58.2687 32.8116L36.215 24.0263C35.8565 23.8835 35.498 24.2325 35.6312 24.5947Z" fill="url(#paint1_linear_752_4779)"/>
</g>
<defs>
<linearGradient id="paint0_linear_752_4779" x1="23.7805" y1="21.726" x2="44.2889" y2="33.5665" gradientUnits="userSpaceOnUse">
<stop stop-color="#FFAB2E"/>
<stop offset="1" stop-color="#FF9900"/>
</linearGradient>
<linearGradient id="paint1_linear_752_4779" x1="35.3864" y1="23.6207" x2="42.2436" y2="26.1645" gradientUnits="userSpaceOnUse">
<stop stop-color="#CC6B00"/>
<stop offset="1" stop-color="#D77100" stop-opacity="0"/>
</linearGradient>
<clipPath id="clip0_752_4779">
<rect width="41.7118" height="55.4081" fill="white" transform="translate(19.1807)"/>
</clipPath>
</defs>
</svg>
