<svg width="20" height="16" viewBox="0 0 20 16" fill="none" xmlns="http://www.w3.org/2000/svg">
<path d="M0 1.96875C0 1.41647 0.447715 0.96875 1 0.96875H19C19.5523 0.96875 20 1.41647 20 1.96875C20 2.52103 19.5523 2.96875 19 2.96875H1C0.447716 2.96875 0 2.52103 0 1.96875Z" fill="#313131"/>
<path d="M0 8.00098C0 7.44869 0.447715 7.00098 1 7.00098H19C19.5523 7.00098 20 7.44869 20 8.00098C20 8.55326 19.5523 9.00098 19 9.00098H1C0.447716 9.00098 0 8.55326 0 8.00098Z" fill="#313131"/>
<path d="M1 13.0332C0.447715 13.0332 0 13.4809 0 14.0332C0 14.5855 0.447716 15.0332 1 15.0332H19C19.5523 15.0332 20 14.5855 20 14.0332C20 13.4809 19.5523 13.0332 19 13.0332H1Z" fill="#313131"/>
</svg>
