<svg width="21" height="20" viewBox="0 0 21 20" fill="none" xmlns="http://www.w3.org/2000/svg">
<g clip-path="url(#clip0_2501_13597)">
<path d="M20.6016 5.34375H12.8984V10H20.6016V5.34375Z" fill="#21A365"/>
<path d="M20.6016 10H12.8984V14.6563H20.6016V10Z" fill="#107C41"/>
<path d="M12.8984 5.34375H5.21094V10H12.8984V5.34375Z" fill="#107C41"/>
<path d="M12.8984 14.6563V10H5.22656V14.6563V15.3281V18.3906C5.22656 18.8906 5.63281 19.2969 6.13281 19.2969H19.6797C20.1797 19.2969 20.5859 18.8906 20.5859 18.3906V14.6563H12.8984Z" fill="#185B37"/>
<path d="M19.6797 0.703125H12.8828V5.35938H20.6016V1.60938C20.5859 1.10938 20.1797 0.703125 19.6797 0.703125Z" fill="#33C481"/>
<path d="M12.8984 0.703125H6.14844C5.64844 0.703125 5.24219 1.10938 5.24219 1.60938V5.34375H12.9141V0.703125H12.8984Z" fill="#21A365"/>
<path d="M9.89844 15.0781H1.61719C1.07031 15.0781 0.617188 14.625 0.617188 14.0781V5.92188C0.617188 5.375 1.07031 4.92188 1.61719 4.92188H9.89844C10.4453 4.92188 10.8984 5.375 10.8984 5.92188V14.0781C10.8984 14.625 10.4609 15.0781 9.89844 15.0781Z" fill="#17864C"/>
<path d="M6.92969 12.875L6.32031 11.7656C6.07031 11.3281 5.91406 11.0312 5.74219 10.7031H5.72656C5.58594 11.0312 5.44531 11.3281 5.21094 11.7656L4.66406 12.875H3.47656L5.16406 10.0469L3.52344 7.26562H4.72656L5.33594 8.42188C5.52344 8.76563 5.66406 9.04688 5.80469 9.35938H5.83594C5.99219 9.01563 6.10156 8.76563 6.28906 8.42188L6.89844 7.26562H8.08594L6.41406 10L8.14844 12.875H6.92969Z" fill="white"/>
<path opacity="0.2" d="M11.0234 5.82812C11.0234 5.85938 11.0234 5.89063 11.0234 5.92188V14.0781C11.0234 14.625 10.5703 15.0781 10.0234 15.0781H5.35156V15.9687H10.8516C11.3984 15.9687 11.8516 15.5156 11.8516 14.9688V6.8125C11.8672 6.3125 11.4922 5.89062 11.0234 5.82812Z" fill="black"/>
</g>
<defs>
<clipPath id="clip0_2501_13597">
<rect width="20" height="20" fill="white" transform="translate(0.601562)"/>
</clipPath>
</defs>
</svg>
