<svg width="20" height="20" viewBox="0 0 20 20" fill="none" xmlns="http://www.w3.org/2000/svg">
<g clip-path="url(#clip0_2501_13532)">
<path d="M10.9844 19.1094C15.9844 19.1094 20.0469 15.0469 20.0469 10.0469H1.92188C1.92187 15.0625 5.98438 19.1094 10.9844 19.1094Z" fill="#C8421D"/>
<path d="M10.9844 0.984375V10.0469H20.0469C20.0469 5.04688 16 0.984375 10.9844 0.984375Z" fill="#FF8F6A"/>
<path d="M1.9375 10.0469H11V0.984375C6 0.984375 1.9375 5.04688 1.9375 10.0469Z" fill="#ED6B47"/>
<path d="M9.26562 15.0781H0.984375C0.4375 15.0781 -0.015625 14.625 -0.015625 14.0781V5.92188C-0.015625 5.375 0.4375 4.92188 0.984375 4.92188H9.26562C9.8125 4.92188 10.2656 5.375 10.2656 5.92188V14.0781C10.2656 14.625 9.8125 15.0781 9.26562 15.0781Z" fill="#C8421D"/>
<path d="M4.42187 10.7187V12.8594H3.21875V6.95312H5.60938C6.29688 6.95312 6.84375 7.125 7.23438 7.46875C7.625 7.8125 7.82812 8.26562 7.82812 8.84375C7.82812 9.40625 7.625 9.85938 7.23438 10.2031C6.84375 10.5469 6.29688 10.7187 5.60938 10.7187H4.42187ZM4.42187 9.8125H5.60938C5.9375 9.8125 6.20312 9.71875 6.375 9.54687C6.54687 9.35937 6.64062 9.14062 6.64062 8.85938C6.64062 8.57813 6.5625 8.34375 6.39063 8.15625C6.21875 7.96875 5.96875 7.875 5.625 7.875H4.4375V9.8125H4.42187Z" fill="white"/>
<path opacity="0.2" d="M10.2344 5.82812C10.2344 5.85938 10.2344 5.89063 10.2344 5.92188V14.0781C10.2344 14.625 9.78125 15.0781 9.23438 15.0781H3.48438L4.07813 15.9687H10.0625C10.6094 15.9687 11.0625 15.5156 11.0625 14.9688V6.8125C11.0781 6.3125 10.7188 5.89062 10.2344 5.82812Z" fill="black"/>
</g>
<defs>
<clipPath id="clip0_2501_13532">
<rect width="20" height="20" fill="white"/>
</clipPath>
</defs>
</svg>
