<svg width="16" height="16" viewBox="0 0 16 16" fill="none" xmlns="http://www.w3.org/2000/svg">
<path d="M11.4321 0.663312C10.8068 0.0379953 9.74766 0.241969 9.39931 1.0548L7.63992 5.16004C6.19444 4.73175 4.56525 5.0878 3.42364 6.22942L2.0671 7.58596C1.7742 7.87885 1.7742 8.35372 2.0671 8.64662L4.20887 10.7884L0.46967 14.5276C0.176777 14.8205 0.176777 15.2953 0.46967 15.5882C0.762563 15.8811 1.23744 15.8811 1.53033 15.5882L5.26953 11.849L7.41135 13.9909C7.70424 14.2838 8.17912 14.2838 8.47201 13.9909L9.82855 12.6343C10.9702 11.4927 11.3262 9.86351 10.8979 8.41803L15.0032 6.65865C15.816 6.31029 16.02 5.25115 15.3946 4.62583L11.4321 0.663312Z" fill="#7C8DA7"/>
</svg>
