<svg width="1290" height="864" viewBox="0 0 1290 864" fill="none" xmlns="http://www.w3.org/2000/svg">
<g clip-path="url(#clip0_752_4756)">
<rect width="1290" height="871" rx="8" fill="url(#paint0_linear_752_4756)" fill-opacity="0.1"/>
<path d="M1318.22 -77.72L734.207 432.922C539.631 603.054 625.276 922.501 878.864 972.478V972.478C1088.95 1013.88 1277.1 835.668 1247.15 623.651L1138.64 -144.494C1128.11 -218.998 1194.49 -281.486 1268.22 -266.487V-266.487C1356.59 -248.51 1386.1 -137.081 1318.22 -77.72Z" stroke="url(#paint1_linear_752_4756)"/>
<path d="M1362.33 3.54376L611.801 199.833C361.745 265.231 295.804 589.319 500.424 747.229V747.229C669.938 878.046 917.855 802.55 985.684 599.456L1231.43 -136.363C1255.27 -207.732 1342.56 -234.023 1401.85 -187.691V-187.691C1472.9 -132.16 1449.57 -19.2743 1362.33 3.54376Z" stroke="url(#paint2_linear_752_4756)"/>
<path d="M1345.52 -39.1236L660.619 325.198C432.428 446.58 443.12 777.135 678.678 883.518V883.518C873.822 971.648 1097.6 840.935 1116.69 627.666L1185.85 -145.017C1192.56 -219.961 1271.42 -265.702 1339.8 -234.315V-234.315C1421.76 -196.696 1425.14 -81.4749 1345.52 -39.1236Z" stroke="url(#paint3_linear_752_4756)"/>
<path d="M1369.53 50.27L594.024 70.5894C335.647 77.3593 197.675 377.933 360.984 578.27V578.27C496.276 744.235 754.869 727.146 867.142 544.819L1273.91 -115.756C1313.36 -179.828 1404.35 -185.562 1451.53 -126.951V-126.951C1508.09 -56.706 1459.68 47.9079 1369.53 50.27Z" stroke="url(#paint4_linear_752_4756)"/>
<path d="M1333.8 -60.8537L694.391 378.444C481.359 524.806 529.292 852.042 775.352 931.157V931.157C979.196 996.699 1186.79 841.564 1181.69 627.503L1163.2 -148.048C1161.4 -223.271 1234.59 -277.62 1306.08 -254.152V-254.152C1391.77 -226.025 1408.12 -111.921 1333.8 -60.8537Z" stroke="url(#paint5_linear_752_4756)"/>
<path d="M1368.74 25.583L600.482 133.303C344.52 169.192 241.355 483.418 426.232 664.042V664.042C579.391 813.677 834.403 767.509 925.38 573.675L1254.99 -128.59C1286.96 -196.705 1376.72 -212.672 1430.22 -159.762V-159.762C1494.34 -96.3481 1458.05 13.0609 1368.74 25.583Z" stroke="url(#paint6_linear_752_4756)"/>
<path d="M1356.86 -19.1462L634.249 263.095C393.496 357.13 365.693 686.688 587.288 819.729V819.729C770.866 929.945 1008.32 826.13 1052.07 616.525L1210.58 -142.881C1225.95 -216.538 1309.59 -252.802 1373.87 -213.679V-213.679C1450.9 -166.788 1440.86 -51.9559 1356.86 -19.1462Z" stroke="url(#paint7_linear_752_4756)"/>
<path d="M1370.76 73.2061L598.147 3.24552C340.735 -20.0635 168.76 262.436 307.676 480.397V480.397C422.759 660.963 681.585 674.047 814.291 506.007L1295.09 -102.809C1341.72 -161.86 1432.75 -156.98 1472.81 -93.2819V-93.2819C1520.81 -16.9391 1460.57 81.3388 1370.76 73.2061Z" stroke="url(#paint8_linear_752_4756)"/>
<path d="M1324.62 -68.899L713.84 409.397C510.344 568.752 578.58 892.364 829.092 955.99V955.99C1036.63 1008.7 1234.15 840.927 1215.71 627.6L1148.92 -145.291C1142.44 -220.256 1212.1 -279.061 1284.92 -260.094V-260.094C1372.18 -237.362 1395.62 -124.499 1324.62 -68.899Z" stroke="url(#paint9_linear_752_4756)"/>
<path d="M1364.12 14.2987L604.071 169.692C350.843 221.465 267.463 541.51 463.24 710.26V710.26C625.427 850.058 877.065 788.086 955.784 588.959L1240.98 -132.485C1268.65 -202.46 1357.23 -223.99 1413.93 -174.517V-174.517C1481.87 -115.224 1452.47 -3.76538 1364.12 14.2987Z" stroke="url(#paint10_linear_752_4756)"/>
<path d="M1349.75 -29.0746L646.136 297.656C411.712 406.514 404.504 737.164 633.96 856.135V856.135C824.051 954.695 1054.57 836.281 1085.17 624.357L1196.04 -143.451C1206.79 -217.923 1288.01 -259.331 1354.6 -224.289V-224.289C1434.4 -182.291 1431.54 -67.0561 1349.75 -29.0746Z" stroke="url(#paint11_linear_752_4756)"/>
<path d="M1368.83 61.1509L593.36 39.4811C334.995 32.2613 180.962 324.93 333.193 533.809V533.809C459.307 706.851 718.445 703.778 840.419 527.793L1282.33 -109.806C1325.2 -171.648 1416.36 -172.452 1460.3 -111.374V-111.374C1512.97 -38.1715 1458.97 63.67 1368.83 61.1509Z" stroke="url(#paint12_linear_752_4756)"/>
<path d="M1339.14 -51.3508L676.905 352.707C456.266 487.329 486.423 816.679 727.842 908.992V908.992C927.842 985.467 1143.53 841.791 1150.01 627.767L1173.51 -147.648C1175.79 -222.858 1251.81 -273.168 1321.93 -245.865V-245.865C1405.96 -213.143 1416.13 -98.3214 1339.14 -51.3508Z" stroke="url(#paint13_linear_752_4756)"/>
<path d="M1369.28 36.4777L596.319 102.472C338.79 124.46 218.775 432.644 393.609 623.006V623.006C538.447 780.708 795.583 748.406 896.914 559.779L1264.04 -123.624C1299.65 -189.909 1390.14 -200.997 1440.69 -145.269V-145.269C1501.29 -78.4792 1459.13 28.806 1369.28 36.4777Z" stroke="url(#paint14_linear_752_4756)"/>
<path d="M1359.89 -8.6809L623.075 234.05C377.587 314.921 331.993 642.491 546.066 787.327V787.327C723.411 907.315 966.134 816.499 1021.16 609.568L1220.52 -140.149C1239.86 -212.866 1325.34 -244.552 1387.4 -202.008V-202.008C1461.79 -151.019 1445.55 -36.8976 1359.89 -8.6809Z" stroke="url(#paint15_linear_752_4756)"/>
<path d="M1368.81 83.9203L601.115 -27.7407C345.34 -64.9431 158.333 207.837 285.252 432.995V432.995C390.397 619.524 648.136 646.593 789.739 485.979L1302.77 -95.9315C1352.53 -152.373 1443.17 -142.574 1479.72 -76.8024V-76.8024C1523.52 2.02582 1458.05 96.9005 1368.81 83.9203Z" stroke="url(#paint16_linear_752_4756)"/>
</g>
<rect x="1" y="1" width="1288" height="869" rx="7" stroke="white" stroke-width="2"/>
<defs>
<linearGradient id="paint0_linear_752_4756" x1="645" y1="0" x2="645" y2="871" gradientUnits="userSpaceOnUse">
<stop stop-color="#BDBDBD"/>
<stop offset="1" stop-color="white" stop-opacity="0"/>
</linearGradient>
<linearGradient id="paint1_linear_752_4756" x1="1300.4" y1="1061.72" x2="667.859" y2="-39.131" gradientUnits="userSpaceOnUse">
<stop stop-color="#D8D8D8" stop-opacity="0.49"/>
<stop offset="1" stop-color="white" stop-opacity="0"/>
</linearGradient>
<linearGradient id="paint2_linear_752_4756" x1="837.809" y1="1015.23" x2="763.124" y2="-252.204" gradientUnits="userSpaceOnUse">
<stop stop-color="#D8D8D8" stop-opacity="0.49"/>
<stop offset="1" stop-color="white" stop-opacity="0"/>
</linearGradient>
<linearGradient id="paint3_linear_752_4756" x1="1068.84" y1="1066.36" x2="703.45" y2="-149.567" gradientUnits="userSpaceOnUse">
<stop stop-color="#D8D8D8" stop-opacity="0.49"/>
<stop offset="1" stop-color="white" stop-opacity="0"/>
</linearGradient>
<linearGradient id="paint4_linear_752_4756" x1="628.518" y1="916.029" x2="844.258" y2="-335.143" gradientUnits="userSpaceOnUse">
<stop stop-color="#D8D8D8" stop-opacity="0.49"/>
<stop offset="1" stop-color="white" stop-opacity="0"/>
</linearGradient>
<linearGradient id="paint5_linear_752_4756" x1="1183.66" y1="1068.79" x2="683.363" y2="-98.1217" gradientUnits="userSpaceOnUse">
<stop stop-color="#D8D8D8" stop-opacity="0.49"/>
<stop offset="1" stop-color="white" stop-opacity="0"/>
</linearGradient>
<linearGradient id="paint6_linear_752_4756" x1="730.179" y1="969.447" x2="803.323" y2="-298.081" gradientUnits="userSpaceOnUse">
<stop stop-color="#D8D8D8" stop-opacity="0.49"/>
<stop offset="1" stop-color="white" stop-opacity="0"/>
</linearGradient>
<linearGradient id="paint7_linear_752_4756" x1="953.553" y1="1046.68" x2="731.975" y2="-203.473" gradientUnits="userSpaceOnUse">
<stop stop-color="#D8D8D8" stop-opacity="0.49"/>
<stop offset="1" stop-color="white" stop-opacity="0"/>
</linearGradient>
<linearGradient id="paint8_linear_752_4756" x1="534.136" y1="846.964" x2="893.847" y2="-370.65" gradientUnits="userSpaceOnUse">
<stop stop-color="#D8D8D8" stop-opacity="0.49"/>
<stop offset="1" stop-color="white" stop-opacity="0"/>
</linearGradient>
<linearGradient id="paint9_linear_752_4756" x1="1245.18" y1="1067.91" x2="673.13" y2="-65.5547" gradientUnits="userSpaceOnUse">
<stop stop-color="#D8D8D8" stop-opacity="0.49"/>
<stop offset="1" stop-color="white" stop-opacity="0"/>
</linearGradient>
<linearGradient id="paint10_linear_752_4756" x1="785.63" y1="996.127" x2="779.63" y2="-273.495" gradientUnits="userSpaceOnUse">
<stop stop-color="#D8D8D8" stop-opacity="0.49"/>
<stop offset="1" stop-color="white" stop-opacity="0"/>
</linearGradient>
<linearGradient id="paint11_linear_752_4756" x1="1013.66" y1="1059.82" x2="714.592" y2="-174.096" gradientUnits="userSpaceOnUse">
<stop stop-color="#D8D8D8" stop-opacity="0.49"/>
<stop offset="1" stop-color="white" stop-opacity="0"/>
</linearGradient>
<linearGradient id="paint12_linear_752_4756" x1="582.06" y1="885.549" x2="865.18" y2="-352.118" gradientUnits="userSpaceOnUse">
<stop stop-color="#D8D8D8" stop-opacity="0.49"/>
<stop offset="1" stop-color="white" stop-opacity="0"/>
</linearGradient>
<linearGradient id="paint13_linear_752_4756" x1="1128.1" y1="1068.51" x2="691.678" y2="-123.757" gradientUnits="userSpaceOnUse">
<stop stop-color="#D8D8D8" stop-opacity="0.49"/>
<stop offset="1" stop-color="white" stop-opacity="0"/>
</linearGradient>
<linearGradient id="paint14_linear_752_4756" x1="680.585" y1="944.409" x2="822.203" y2="-317.305" gradientUnits="userSpaceOnUse">
<stop stop-color="#D8D8D8" stop-opacity="0.49"/>
<stop offset="1" stop-color="white" stop-opacity="0"/>
</linearGradient>
<linearGradient id="paint15_linear_752_4756" x1="899.514" y1="1033.76" x2="745.902" y2="-226.548" gradientUnits="userSpaceOnUse">
<stop stop-color="#D8D8D8" stop-opacity="0.49"/>
<stop offset="1" stop-color="white" stop-opacity="0"/>
</linearGradient>
<linearGradient id="paint16_linear_752_4756" x1="491.547" y1="811.279" x2="916.611" y2="-385.09" gradientUnits="userSpaceOnUse">
<stop stop-color="#D8D8D8" stop-opacity="0.49"/>
<stop offset="1" stop-color="white" stop-opacity="0"/>
</linearGradient>
<clipPath id="clip0_752_4756">
<rect width="1290" height="871" rx="8" fill="white"/>
</clipPath>
</defs>
</svg>
