<svg width="17" height="20" viewBox="0 0 17 20" fill="none" xmlns="http://www.w3.org/2000/svg">
<path d="M15.8157 5.38C15.7215 5.26082 15.6014 5.16466 15.4645 5.09882C15.3277 5.03298 15.1776 4.99918 15.0257 5H4.02568V4.5C4.02692 4.06468 4.17017 3.64165 4.43367 3.29514C4.69716 2.94862 5.06652 2.69754 5.48568 2.58C5.75496 2.83983 6.11163 2.98963 6.48568 3H7.48568C7.8835 3 8.26503 2.84196 8.54634 2.56066C8.82764 2.27936 8.98568 1.89782 8.98568 1.5C8.98568 1.10218 8.82764 0.720644 8.54634 0.43934C8.26503 0.158035 7.8835 0 7.48568 0H6.48568C6.26024 0.000310252 6.03782 0.0517701 5.83516 0.150504C5.63249 0.249237 5.45487 0.39267 5.31568 0.57C4.39394 0.736247 3.55977 1.22067 2.95855 1.93884C2.35734 2.65702 2.0272 3.56339 2.02568 4.5V5H1.02568C0.873786 4.99918 0.723702 5.03298 0.58682 5.09882C0.449937 5.16466 0.329852 5.26082 0.235679 5.38C0.135503 5.49874 0.0643694 5.63918 0.0279178 5.7902C-0.00853373 5.94121 -0.00930029 6.09864 0.0256791 6.25L0.645679 8.74C0.793717 9.31353 1.10823 9.83041 1.54956 10.2255C1.9909 10.6205 2.53931 10.8761 3.12568 10.96L3.90568 17.96H3.02568C2.76046 17.96 2.50611 18.0654 2.31857 18.2529C2.13104 18.4404 2.02568 18.6948 2.02568 18.96C2.02568 19.2252 2.13104 19.4796 2.31857 19.6671C2.50611 19.8546 2.76046 19.96 3.02568 19.96H13.0257C13.2909 19.96 13.5452 19.8546 13.7328 19.6671C13.9203 19.4796 14.0257 19.2252 14.0257 18.96C14.0257 18.6948 13.9203 18.4404 13.7328 18.2529C13.5452 18.0654 13.2909 17.96 13.0257 17.96H12.1457L12.9257 10.96C13.5079 10.8699 14.0507 10.6104 14.4864 10.2139C14.9221 9.81729 15.2314 9.30121 15.3757 8.73L16.0257 6.25C16.0607 6.09864 16.0599 5.94121 16.0234 5.7902C15.987 5.63918 15.9159 5.49874 15.8157 5.38ZM10.1257 18H5.92568L5.14568 11H10.9057L10.1257 18ZM13.4357 8.25C13.3809 8.47188 13.2518 8.66831 13.0699 8.80659C12.8879 8.94487 12.6641 9.01666 12.4357 9.01H3.58568C3.35724 9.01666 3.13342 8.94487 2.95147 8.80659C2.76953 8.66831 2.64043 8.47188 2.58568 8.25L2.30568 7H13.7457L13.4357 8.25Z" fill="white"/>
</svg>
