<svg width="21" height="21" viewBox="0 0 21 21" fill="none" xmlns="http://www.w3.org/2000/svg">
<path d="M19.1833 0.190004C18.4665 0.0665376 17.7406 0.00298469 17.0133 4.35025e-06C14.5316 -0.00203013 12.1018 0.709578 10.0133 2.05C7.91942 0.727177 5.48992 0.0330352 3.01327 0.0500043C2.28591 0.0529846 1.56007 0.116538 0.843268 0.240004C0.608475 0.280483 0.395849 0.403463 0.243681 0.586797C0.0915139 0.770132 0.00980452 1.00177 0.0132682 1.24V13.24C0.0111266 13.3869 0.0413944 13.5325 0.101918 13.6664C0.162442 13.8004 0.251734 13.9193 0.363441 14.0148C0.475149 14.1102 0.606525 14.1799 0.748224 14.2188C0.889923 14.2578 1.03846 14.265 1.18327 14.24C2.61629 13.9919 4.08447 14.0331 5.50133 14.3611C6.9182 14.6891 8.25509 15.2974 9.43327 16.15L9.55327 16.22H9.66327C9.77417 16.2662 9.89312 16.29 10.0133 16.29C10.1334 16.29 10.2524 16.2662 10.3633 16.22H10.4733L10.5933 16.15C11.7632 15.2783 13.0963 14.6503 14.5134 14.3034C15.9306 13.9564 17.4029 13.8974 18.8433 14.13C18.9881 14.155 19.1366 14.1478 19.2783 14.1088C19.42 14.0699 19.5514 14.0002 19.6631 13.9048C19.7748 13.8093 19.8641 13.6904 19.9246 13.5564C19.9851 13.4225 20.0154 13.2769 20.0133 13.13V1.13C20.0029 0.902158 19.9149 0.684715 19.7639 0.513742C19.6129 0.342769 19.4081 0.228541 19.1833 0.190004ZM9.01327 13.48C7.16315 12.5067 5.10379 11.9987 3.01327 12C2.68327 12 2.35327 12 2.01327 12V2C2.34633 1.98081 2.68021 1.98081 3.01327 2C5.14665 1.99765 7.23348 2.6237 9.01327 3.8V13.48ZM18.0133 12.04C17.6733 12.04 17.3433 12.04 17.0133 12.04C14.9227 12.0387 12.8634 12.5467 11.0133 13.52V3.8C12.7931 2.6237 14.8799 1.99765 17.0133 2C17.3463 1.98081 17.6802 1.98081 18.0133 2V12.04ZM19.1833 16.19C18.4665 16.0665 17.7406 16.003 17.0133 16C14.5316 15.998 12.1018 16.7096 10.0133 18.05C7.92478 16.7096 5.4949 15.998 3.01327 16C2.28591 16.003 1.56007 16.0665 0.843268 16.19C0.713096 16.2107 0.588291 16.2568 0.476031 16.3259C0.36377 16.395 0.266269 16.4855 0.189135 16.5924C0.112 16.6993 0.0567537 16.8204 0.026572 16.9487C-0.00360967 17.077 -0.00813089 17.21 0.0132682 17.34C0.0640869 17.5997 0.215759 17.8286 0.435059 17.9767C0.654359 18.1248 0.923408 18.1799 1.18327 18.13C2.61629 17.8819 4.08447 17.9231 5.50133 18.2511C6.9182 18.5791 8.25509 19.1874 9.43327 20.04C9.60263 20.1606 9.80536 20.2254 10.0133 20.2254C10.2212 20.2254 10.4239 20.1606 10.5933 20.04C11.7714 19.1874 13.1083 18.5791 14.5252 18.2511C15.9421 17.9231 17.4102 17.8819 18.8433 18.13C19.1031 18.1799 19.3722 18.1248 19.5915 17.9767C19.8108 17.8286 19.9624 17.5997 20.0133 17.34C20.0347 17.21 20.0301 17.077 20 16.9487C19.9698 16.8204 19.9145 16.6993 19.8374 16.5924C19.7603 16.4855 19.6628 16.395 19.5505 16.3259C19.4382 16.2568 19.3134 16.2107 19.1833 16.19Z" fill="white"/>
</svg>
