<svg width="21" height="20" viewBox="0 0 21 20" fill="none" xmlns="http://www.w3.org/2000/svg">
<path d="M19.49 2.69397L15 0.133975C14.848 0.0462065 14.6755 0 14.5 0C14.3245 0 14.152 0.0462065 14 0.133975L10 2.41397L6 0.133975C5.84798 0.0462065 5.67554 0 5.5 0C5.32446 0 5.15202 0.0462065 5 0.133975L0.51 2.69397C0.355534 2.7808 0.226912 2.90711 0.1373 3.05998C0.0476888 3.21285 0.000305357 3.38678 0 3.56397V8.68398C0.000305357 8.86117 0.0476888 9.0351 0.1373 9.18797C0.226912 9.34084 0.355534 9.46715 0.51 9.55398L4.51 11.824V16.364C4.51031 16.5412 4.55769 16.7151 4.6473 16.868C4.73691 17.0208 4.86553 17.1471 5.02 17.234L9.52 19.794C9.67202 19.8817 9.84446 19.9279 10.02 19.9279C10.1955 19.9279 10.368 19.8817 10.52 19.794L15 17.234C15.1545 17.1471 15.2831 17.0208 15.3727 16.868C15.4623 16.7151 15.5097 16.5412 15.51 16.364V11.824L19.51 9.55398C19.6645 9.46715 19.7931 9.34084 19.8827 9.18797C19.9723 9.0351 20.0197 8.86117 20.02 8.68398V3.56397C20.0177 3.38477 19.9673 3.20948 19.8741 3.05643C19.7809 2.90337 19.6482 2.77819 19.49 2.69397ZM2 8.10398V4.10397L5.5 2.10397L9 4.10397V8.10398L5.5 10.104L2 8.10398ZM13.5 15.784L10 17.784L6.5 15.784V11.784L10 9.78397L13.5 11.784V15.784ZM18 8.10398L14.5 10.104L11 8.10398V4.10397L14.5 2.10397L18 4.10397V8.10398Z" fill="white"/>
</svg>
