<svg width="25" height="24" viewBox="0 0 25 24" fill="none" xmlns="http://www.w3.org/2000/svg">
<path d="M18.3583 6.14062H19.9297C20.3843 6.14063 20.8204 6.32124 21.1419 6.64273C21.4634 6.96422 21.644 7.40025 21.644 7.85491V17.1406C21.644 17.5953 21.4634 18.0313 21.1419 18.3528C20.8204 18.6743 20.3843 18.8549 19.9297 18.8549H15.9297" stroke="#313131" stroke-linecap="round" stroke-linejoin="round"/>
<path d="M10.2109 15.4297V18.8583" stroke="#313131" stroke-linecap="round" stroke-linejoin="round"/>
<path d="M6.78906 18.8594H13.6462" stroke="#313131" stroke-linecap="round" stroke-linejoin="round"/>
<path fill-rule="evenodd" clip-rule="evenodd" d="M5.07366 5.14062H15.3594C16.3061 5.14062 17.0737 5.90814 17.0737 6.85491V13.7121C17.0737 14.6588 16.3061 15.4263 15.3594 15.4263H5.07366C4.12689 15.4263 3.35938 14.6588 3.35938 13.7121V6.85491C3.35938 5.90814 4.12689 5.14062 5.07366 5.14062ZM10.6148 8.65803C10.5202 8.5572 10.3882 8.5 10.25 8.5C10.1118 8.5 9.97976 8.5572 9.88523 8.65803L8.38523 10.258C8.19637 10.4594 8.20657 10.7759 8.40803 10.9647C8.60948 11.1536 8.9259 11.1434 9.11477 10.9419L9.75 10.2644V12.5C9.75 12.7761 9.97386 13 10.25 13C10.5261 13 10.75 12.7761 10.75 12.5V10.2644L11.3852 10.9419C11.5741 11.1434 11.8905 11.1536 12.092 10.9647C12.2934 10.7759 12.3036 10.4594 12.1148 10.258L10.6148 8.65803Z" fill="#313131"/>
</svg>
