<svg width="20" height="22" viewBox="0 0 20 22" fill="none" xmlns="http://www.w3.org/2000/svg">
<path fill-rule="evenodd" clip-rule="evenodd" d="M18.8074 6.62288L18.185 5.54279C17.6584 4.62887 16.4914 4.31359 15.5763 4.83798V4.83798C15.1406 5.09461 14.6208 5.16742 14.1314 5.04035C13.6421 4.91329 13.2233 4.59678 12.9676 4.16064C12.803 3.88342 12.7146 3.56766 12.7113 3.24531V3.24531C12.7261 2.72849 12.5311 2.22767 12.1708 1.85694C11.8104 1.4862 11.3153 1.27713 10.7982 1.27734H9.54423C9.0377 1.27734 8.55205 1.47918 8.19473 1.83821C7.83742 2.19724 7.63791 2.68386 7.64034 3.19039V3.19039C7.62533 4.23619 6.77321 5.07608 5.7273 5.07597C5.40494 5.07262 5.08919 4.98421 4.81197 4.81968V4.81968C3.89679 4.29528 2.72985 4.61056 2.20327 5.52448L1.53508 6.62288C1.00914 7.53566 1.32013 8.70187 2.23073 9.23158V9.23158C2.82263 9.57331 3.18726 10.2049 3.18726 10.8883C3.18726 11.5718 2.82263 12.2033 2.23073 12.5451V12.5451C1.32129 13.0712 1.00996 14.2346 1.53508 15.1446V15.1446L2.16666 16.2339C2.41338 16.679 2.82734 17.0076 3.31693 17.1467C3.80652 17.2859 4.33137 17.2242 4.77535 16.9753V16.9753C5.21181 16.7206 5.73192 16.6508 6.22007 16.7815C6.70822 16.9121 7.12397 17.2323 7.3749 17.6709C7.53943 17.9482 7.62784 18.2639 7.63119 18.5863V18.5863C7.63119 19.6428 8.48769 20.4993 9.54423 20.4993H10.7982C11.8512 20.4993 12.7062 19.6484 12.7113 18.5954V18.5954C12.7088 18.0873 12.9096 17.5993 13.2689 17.24C13.6282 16.8807 14.1162 16.6799 14.6243 16.6824C14.9459 16.691 15.2604 16.779 15.5397 16.9387V16.9387C16.4524 17.4646 17.6186 17.1536 18.1484 16.243V16.243L18.8074 15.1446C19.0625 14.7068 19.1325 14.1853 19.0019 13.6956C18.8714 13.206 18.551 12.7886 18.1117 12.5359V12.5359C17.6725 12.2832 17.3521 11.8658 17.2215 11.3762C17.091 10.8866 17.161 10.3651 17.4161 9.92723C17.582 9.6376 17.8221 9.39747 18.1117 9.23158V9.23158C19.0169 8.70216 19.3271 7.54276 18.8074 6.63203V6.63203V6.62288Z" stroke="#464E5F" stroke-width="1.5" stroke-linecap="round" stroke-linejoin="round"/>
<circle cx="10.1752" cy="10.8881" r="2.63616" stroke="#464E5F" stroke-width="1.5" stroke-linecap="round" stroke-linejoin="round"/>
</svg>
