<svg width="40" height="40" viewBox="0 0 40 40" fill="none" xmlns="http://www.w3.org/2000/svg">
<path d="M21.0268 38.3811C20.3666 38.635 19.6356 38.635 18.9754 38.3811C13.8115 36.3954 9.37068 32.8914 6.23842 28.3309C3.10615 23.7705 1.42956 18.3679 1.42969 12.8354V5.3668C1.4307 5.05395 1.53238 4.74974 1.71967 4.49916C1.90697 4.24858 2.16994 4.06493 2.46969 3.97537C13.9109 0.581127 26.0914 0.581127 37.5325 3.97537C37.8323 4.06493 38.0953 4.24858 38.2826 4.49916C38.4699 4.74974 38.5715 5.05395 38.5725 5.3668V12.8354C38.5727 18.3679 36.8961 23.7705 33.7638 28.3309C30.6316 32.8914 26.1907 36.3954 21.0268 38.3811Z" fill="#7C8DA7" stroke="#7C8DA7" stroke-width="2.85714" stroke-linecap="round" stroke-linejoin="round"/>
</svg>
