<svg width="16" height="16" viewBox="0 0 16 16" fill="none" xmlns="http://www.w3.org/2000/svg">
<path d="M12.4392 10.3075C12.2449 10.5057 12.1557 10.7922 12.1999 11.0733L12.8667 14.9572C12.9229 15.2864 12.7909 15.6195 12.5292 15.8098C12.2727 16.0071 11.9314 16.0308 11.6517 15.8729L8.32991 14.0494C8.21441 13.9846 8.08616 13.9499 7.95491 13.946H7.75166C7.68116 13.957 7.61216 13.9807 7.54916 14.017L4.22666 15.8493C4.06241 15.9361 3.87641 15.9669 3.69416 15.9361C3.25016 15.8477 2.95391 15.4024 3.02666 14.9327L3.69416 11.0488C3.73841 10.7654 3.64916 10.4772 3.45491 10.2759L0.746657 7.51297C0.520157 7.28167 0.441407 6.93432 0.544907 6.62092C0.645407 6.30831 0.901907 6.08017 1.21166 6.02886L4.93916 5.45968C5.22266 5.4289 5.47166 5.24733 5.59916 4.97893L7.24166 1.43443C7.28066 1.35548 7.33091 1.28286 7.39166 1.22128L7.45916 1.16602C7.49441 1.12497 7.53491 1.09103 7.57991 1.0634L7.66166 1.03182L7.78916 0.976562H8.10491C8.38691 1.00735 8.63516 1.18497 8.76491 1.45022L10.4292 4.97893C10.5492 5.23707 10.7824 5.41627 11.0517 5.45968L14.7792 6.02886C15.0942 6.07622 15.3574 6.30515 15.4617 6.62092C15.5599 6.93748 15.4752 7.28483 15.2442 7.51297L12.4392 10.3075Z" fill="#151718"/>
</svg>
