<svg width="18" height="21" viewBox="0 0 18 21" fill="none" xmlns="http://www.w3.org/2000/svg">
<path fill-rule="evenodd" clip-rule="evenodd" d="M8.6653 16.6309L2.73395 19.8803C2.26037 20.1264 1.67694 19.9522 1.41587 19.4867V19.4867C1.34034 19.3425 1.29959 19.1827 1.29688 19.0199V4.62174C1.29688 1.87574 3.17331 0.777344 5.87353 0.777344H12.2168C14.8346 0.777344 16.7934 1.80252 16.7934 4.43867V19.0199C16.7934 19.2797 16.6903 19.5288 16.5066 19.7125C16.3229 19.8961 16.0738 19.9993 15.814 19.9993C15.6484 19.9967 15.4855 19.956 15.3381 19.8803L9.3701 16.6309C9.15019 16.5121 8.88521 16.5121 8.6653 16.6309Z" stroke="#464E5F" stroke-width="1.5" stroke-linecap="round" stroke-linejoin="round"/>
<path d="M5.36914 7.3229H12.6643" stroke="#464E5F" stroke-width="1.5" stroke-linecap="round" stroke-linejoin="round"/>
</svg>
