<svg width="16" height="16" viewBox="0 0 16 16" fill="none" xmlns="http://www.w3.org/2000/svg">
<path fill-rule="evenodd" clip-rule="evenodd" d="M10.6163 2.13009C10.7239 2.54969 10.7676 2.97018 10.8096 3.37547L10.849 3.74407C10.9995 4.97424 10.9995 11.0177 10.849 12.2568L10.8096 12.6388L10.8089 12.646C10.7715 13.0294 10.7328 13.4261 10.6224 13.8493C10.3293 14.8505 9.5481 15.5 8.661 15.5C8.633 15.5 8.60501 15.5 8.57351 15.4991C8.08359 15.4991 7.55081 15.1985 7.24898 14.9364L4.30685 12.4859H2.79597C1.62979 12.4859 0.775934 11.6422 0.621084 10.3369C0.442614 9.03155 0.477608 6.7922 0.621084 5.60587C0.789931 4.37034 1.68403 3.51414 2.79597 3.51414H4.30685L7.19299 1.09943C7.54118 0.797037 8.15533 0.498219 8.64088 0.500008C9.51136 0.500008 10.3232 1.12627 10.6163 2.13009ZM13.123 3.21532C13.4721 2.97108 13.9498 3.05875 14.1886 3.41215C15.0337 4.65663 15.5 6.28582 15.5 8C15.5 9.71418 15.0337 11.3434 14.1886 12.5879C14.0451 12.7981 13.8107 12.9242 13.5596 12.9242C13.403 12.9242 13.2516 12.8759 13.123 12.7847C12.7766 12.5377 12.6908 12.0493 12.9314 11.695C13.6007 10.7091 13.969 9.39657 13.969 8C13.969 6.60253 13.6007 5.29095 12.9314 4.30502C12.6908 3.95074 12.7766 3.46225 13.123 3.21532Z" fill="#313131"/>
</svg>
