<svg width="21" height="18" viewBox="0 0 21 18" fill="none" xmlns="http://www.w3.org/2000/svg">
<path fill-rule="evenodd" clip-rule="evenodd" d="M15.94 3.2364C15.98 3.30633 16.05 3.35627 16.14 3.35627C18.54 3.35627 20.5 5.3141 20.5 7.71143V13.6448C20.5 16.0422 18.54 18 16.14 18H4.86C2.45 18 0.5 16.0422 0.5 13.6448V7.71143C0.5 5.3141 2.45 3.35627 4.86 3.35627C4.94 3.35627 5.02 3.31632 5.05 3.2364L5.11 3.11654C5.14448 3.04397 5.17987 2.96943 5.21579 2.89376C5.47161 2.35492 5.75463 1.75879 5.93 1.40844C6.39 0.509434 7.17 0.0099889 8.14 0H12.85C13.82 0.0099889 14.61 0.509434 15.07 1.40844C15.2275 1.72308 15.4674 2.2299 15.6987 2.71839C15.7464 2.81921 15.7938 2.91924 15.84 3.01665L15.94 3.2364ZM15.21 7.07214C15.21 7.57159 15.61 7.97114 16.11 7.97114C16.61 7.97114 17.02 7.57159 17.02 7.07214C17.02 6.5727 16.61 6.16315 16.11 6.16315C15.61 6.16315 15.21 6.5727 15.21 7.07214ZM8.77 8.62042C9.24 8.15094 9.85 7.90122 10.5 7.90122C11.15 7.90122 11.76 8.15094 12.22 8.61043C12.68 9.06992 12.93 9.67924 12.93 10.3285C12.92 11.667 11.84 12.7558 10.5 12.7558C9.85 12.7558 9.24 12.5061 8.78 12.0466C8.32 11.5871 8.07 10.9778 8.07 10.3285V10.3185C8.06 9.68923 8.31 9.07991 8.77 8.62042ZM13.27 13.1054C12.56 13.8147 11.58 14.2542 10.5 14.2542C9.45 14.2542 8.47 13.8446 7.72 13.1054C6.98 12.3563 6.57 11.3774 6.57 10.3285C6.56 9.28968 6.97 8.31077 7.71 7.5616C8.46 6.81243 9.45 6.40289 10.5 6.40289C11.55 6.40289 12.54 6.81243 13.28 7.55161C14.02 8.30078 14.43 9.28968 14.43 10.3285C14.42 11.4173 13.98 12.3962 13.27 13.1054Z" fill="#313131"/>
</svg>
