<svg width="10" height="13" viewBox="0 0 10 13" fill="none" xmlns="http://www.w3.org/2000/svg">
<path fill-rule="evenodd" clip-rule="evenodd" d="M4.45125 12.0286C4.4879 12.2948 4.71948 12.5 4.99969 12.5C5.30537 12.5 5.55317 12.2558 5.55317 11.9546L5.55317 2.36644L9.05433 5.83033L9.1163 5.88327C9.33264 6.04213 9.64017 6.02516 9.83708 5.83193C10.0537 5.61938 10.0544 5.27406 9.8387 5.06063L5.39237 0.661114L5.38107 0.651472C5.36862 0.639799 5.35561 0.628692 5.3421 0.618192L5.33021 0.60804C5.11319 0.448818 4.80463 0.466522 4.60797 0.661146L0.162374 5.06066L0.108918 5.12194C-0.0513878 5.3358 -0.0328617 5.63875 0.164061 5.83196C0.380675 6.04449 0.731121 6.04375 0.946805 5.8303L4.4462 2.36714L4.4462 11.9546L4.45125 12.0286Z" fill="white"/>
</svg>
