<svg width="22" height="22" viewBox="0 0 22 22" fill="none" xmlns="http://www.w3.org/2000/svg">
<path fill-rule="evenodd" clip-rule="evenodd" d="M6.69592 12.3899C6.05115 12.3899 5.52734 11.8661 5.52734 11.2214C5.52734 10.5785 6.05115 10.0547 6.69592 10.0547C7.34068 10.0547 7.86449 10.5785 7.86449 11.2214C7.86449 11.8661 7.34068 12.3899 6.69592 12.3899ZM11.2388 12.3899C10.594 12.3899 10.0702 11.8661 10.0702 11.2214C10.0702 10.5785 10.594 10.0547 11.2388 10.0547C11.8835 10.0547 12.4073 10.5785 12.4073 11.2214C12.4073 11.8661 11.8835 12.3899 11.2388 12.3899ZM14.6132 11.2214C14.6132 11.8661 15.137 12.3899 15.7817 12.3899C16.4265 12.3899 16.9503 11.8661 16.9503 11.2214C16.9503 10.5785 16.4265 10.0547 15.7817 10.0547C15.137 10.0547 14.6132 10.5785 14.6132 11.2214Z" fill="#616161"/>
<path fill-rule="evenodd" clip-rule="evenodd" d="M11.02 1C5.21 1 1 5.74612 1 11.015C1 12.6975 1.49 14.4291 2.35 16.0115C2.51 16.2729 2.53 16.6024 2.42 16.9139L1.75 19.1572C1.6 19.698 2.06 20.0976 2.57 19.9374L4.59 19.3375C5.14 19.1572 5.57 19.3866 6.08 19.698C7.54 20.5583 9.36 21 11 21C15.96 21 21 17.1642 21 10.985C21 5.65598 16.7 1 11.02 1Z" stroke="#616161" stroke-width="1.5" stroke-linecap="round" stroke-linejoin="round"/>
</svg>
