<svg width="20" height="20" viewBox="0 0 20 20" fill="none" xmlns="http://www.w3.org/2000/svg">
<path d="M0.804688 13.4766C0.804688 13.4766 0.946687 15.2146 0.979687 15.7626C1.02369 16.4976 1.30769 17.3186 1.78169 17.8886C2.45069 18.6966 3.23869 18.9816 4.29069 18.9836C5.52769 18.9856 14.5227 18.9856 15.7597 18.9836C16.8117 18.9816 17.5997 18.6966 18.2687 17.8886C18.7427 17.3186 19.0267 16.4976 19.0717 15.7626C19.1037 15.2146 19.2457 13.4766 19.2457 13.4766" stroke="#464E5F" stroke-width="1.5" stroke-linecap="round" stroke-linejoin="round"/>
<path d="M6.49609 3.329V2.958C6.49609 1.738 7.48409 0.75 8.70409 0.75H11.2861C12.5051 0.75 13.4941 1.738 13.4941 2.958L13.4951 3.329" stroke="#464E5F" stroke-width="1.5" stroke-linecap="round" stroke-linejoin="round"/>
<path d="M9.99414 14.6768V13.3828" stroke="#464E5F" stroke-width="1.5" stroke-linecap="round" stroke-linejoin="round"/>
<path fill-rule="evenodd" clip-rule="evenodd" d="M0.75 6.38808V9.85508C2.668 11.1201 4.966 12.0061 7.488 12.3571C7.79 11.2561 8.783 10.4491 9.99 10.4491C11.178 10.4491 12.191 11.2561 12.473 12.3671C15.005 12.0161 17.312 11.1301 19.24 9.85508V6.38808C19.24 4.69408 17.877 3.33008 16.183 3.33008H3.817C2.123 3.33008 0.75 4.69408 0.75 6.38808Z" stroke="#464E5F" stroke-width="1.5" stroke-linecap="round" stroke-linejoin="round"/>
</svg>
