<svg width="22" height="23" viewBox="0 0 25 26" fill="none" xmlns="http://www.w3.org/2000/svg">
<path fill-rule="evenodd" clip-rule="evenodd" d="M14.2175 17.2312C15.627 17.2312 16.7743 18.3703 16.7743 19.7705V23.3717C16.7743 23.6726 17.0155 23.9137 17.3246 23.9208H19.556C21.3144 23.9208 22.7439 22.5089 22.7439 20.7738V10.5604C22.7357 9.96331 22.4512 9.40136 21.963 9.0279L14.2444 2.87219C13.2083 2.05151 11.7589 2.05151 10.7193 2.87454L3.05337 9.02556C2.54644 9.41073 2.26195 9.97268 2.2561 10.5803V20.7738C2.2561 22.5089 3.68556 23.9208 5.444 23.9208H7.69649C8.01376 23.9208 8.27132 23.6691 8.27132 23.36C8.27132 23.2921 8.27951 23.2242 8.29356 23.1598V19.7705C8.29356 18.3785 9.43385 17.2406 10.8329 17.2312H14.2175ZM19.556 25.6769H17.3035C16.0134 25.6464 15.0182 24.6337 15.0182 23.3717V19.7705C15.0182 19.3385 14.6588 18.9873 14.2175 18.9873H10.8387C10.4067 18.9897 10.0497 19.342 10.0497 19.7705V23.36C10.0497 23.4478 10.038 23.5321 10.0134 23.6117C9.88693 24.7707 8.89649 25.6769 7.69649 25.6769H5.444C2.71737 25.6769 0.5 23.4771 0.5 20.7738V10.5721C0.511707 9.40839 1.0479 8.34302 1.97395 7.64175L9.62468 1.50127C11.3094 0.166634 13.6567 0.166634 15.3379 1.49893L23.0436 7.64527C23.9486 8.33483 24.4848 9.39785 24.5 10.5475V20.7738C24.5 23.4771 22.2826 25.6769 19.556 25.6769Z" fill="#616161"/>
</svg>
