<svg width="16" height="17" viewBox="0 0 16 17" fill="none" xmlns="http://www.w3.org/2000/svg">
<path d="M11.4321 0.866437C10.8068 0.24112 9.74766 0.445094 9.39931 1.25792L7.63992 5.36316C6.19444 4.93488 4.56525 5.29093 3.42364 6.43254L2.0671 7.78908C1.7742 8.08198 1.7742 8.55685 2.0671 8.84974L4.20887 10.9915L0.46967 14.7307C0.176777 15.0236 0.176777 15.4985 0.46967 15.7914C0.762563 16.0843 1.23744 16.0843 1.53033 15.7914L5.26953 12.0522L7.41135 14.194C7.70424 14.4869 8.17912 14.4869 8.47201 14.194L9.82855 12.8375C10.9702 11.6958 11.3262 10.0666 10.8979 8.62115L15.0032 6.86177C15.816 6.51342 16.02 5.45427 15.3946 4.82896L11.4321 0.866437Z" fill="#7C8DA7"/>
</svg>
