<svg width="19" height="20" viewBox="0 0 19 20" fill="none" xmlns="http://www.w3.org/2000/svg">
<path d="M9.04874 9C8.85096 9 8.65762 9.05865 8.49317 9.16853C8.32872 9.27841 8.20055 9.43459 8.12486 9.61732C8.04917 9.80004 8.02937 10.0011 8.06795 10.1951C8.10654 10.3891 8.20178 10.5673 8.34163 10.7071C8.48148 10.847 8.65967 10.9422 8.85365 10.9808C9.04763 11.0194 9.2487 10.9996 9.43142 10.9239C9.61415 10.8482 9.77033 10.72 9.88021 10.5556C9.99009 10.3911 10.0487 10.1978 10.0487 10C10.0487 9.73478 9.94338 9.48043 9.75585 9.29289C9.56831 9.10536 9.31396 9 9.04874 9ZM16.6687 10L16.7787 9.86C18.1287 8 18.4487 6.29 17.7087 5C16.9687 3.71 15.3087 3.14 13.0487 3.37H12.8687C11.9587 1.3 10.6087 0 9.04874 0C7.48874 0 6.13874 1.3 5.23874 3.4L5.04874 3.37C2.78874 3.14 1.12874 3.71 0.388738 5C-0.351262 6.29 -0.0312617 8 1.31874 9.86L1.42874 10L1.31874 10.14C-0.0312617 12 -0.351262 13.71 0.388738 15C1.04874 16.1 2.31874 16.68 4.04874 16.68C4.35874 16.68 4.67874 16.68 5.04874 16.63H5.22874C6.13874 18.7 7.48874 20 9.04874 20C10.6087 20 11.9587 18.7 12.8587 16.6H13.0387C13.3787 16.6 13.6987 16.65 14.0387 16.65C15.8087 16.65 17.1087 16.07 17.7387 14.97C18.4787 13.68 18.1587 11.97 16.8087 10.11L16.6687 10ZM2.11874 6C2.36874 5.56 3.11874 5.32 4.11874 5.32H4.60874C4.45203 5.93517 4.33512 6.5598 4.25874 7.19C3.74928 7.57537 3.26496 7.99288 2.80874 8.44C2.04874 7.44 1.82874 6.5 2.11874 6ZM2.11874 14C1.82874 13.5 2.11874 12.56 2.78874 11.53C3.24496 11.9771 3.72928 12.3946 4.23874 12.78C4.31514 13.4135 4.43204 14.0415 4.58874 14.66C3.34874 14.74 2.40874 14.5 2.11874 14ZM9.04874 2C9.60874 2 10.2787 2.66 10.8487 3.83C10.2378 4.00731 9.63691 4.21762 9.04874 4.46C8.46057 4.21762 7.85968 4.00731 7.24874 3.83C7.81874 2.66 8.48874 2 9.04874 2ZM9.04874 18C8.48874 18 7.81874 17.34 7.24874 16.17C7.85968 15.9927 8.46057 15.7824 9.04874 15.54C9.63691 15.7824 10.2378 15.9927 10.8487 16.17C10.2787 17.34 9.60874 18 9.04874 18ZM11.9787 11.69C11.5187 12.01 11.0487 12.31 10.5487 12.6C10.0487 12.89 9.54874 13.15 9.04874 13.38C8.54874 13.1467 8.04874 12.8867 7.54874 12.6C7.04874 12.31 6.54874 12.01 6.11874 11.69C6.04874 11.15 6.04874 10.59 6.04874 10C6.04874 9.41 6.04874 8.85 6.11874 8.31C6.57874 7.99 7.04874 7.69 7.54874 7.4C8.04874 7.11 8.54874 6.85 9.04874 6.62C9.54874 6.85333 10.0487 7.11333 10.5487 7.4C11.0487 7.69 11.5487 7.99 11.9787 8.31C11.9787 8.85 12.0487 9.41 12.0487 10C12.0487 10.59 12.0487 11.15 11.9787 11.69ZM15.9787 14C15.6887 14.5 14.7487 14.75 13.5087 14.66C13.6654 14.0415 13.7823 13.4135 13.8587 12.78C14.3682 12.3946 14.8525 11.9771 15.3087 11.53C16.0487 12.56 16.2687 13.5 15.9787 14ZM15.3087 8.47C14.8525 8.02288 14.3682 7.60537 13.8587 7.22C13.7824 6.5898 13.6654 5.96517 13.5087 5.35H13.9987C14.9987 5.35 15.7287 5.59 15.9987 6.03C16.2687 6.47 16.0487 7.44 15.3087 8.47Z" fill="white"/>
</svg>
