<svg width="21" height="20" viewBox="0 0 21 20" fill="none" xmlns="http://www.w3.org/2000/svg">
<path d="M20.0317 8.98211C20.0345 8.27727 19.851 7.58421 19.4998 6.97309C19.1486 6.36198 18.6421 5.85453 18.0317 5.50211C18.0468 5.3291 18.0468 5.15512 18.0317 4.98211C18.0317 4.18646 17.7157 3.4234 17.153 2.86079C16.5904 2.29818 15.8274 1.98211 15.0317 1.98211H14.8517C14.6852 1.52042 14.4079 1.10664 14.0443 0.777057C13.6806 0.447471 13.2416 0.212145 12.7658 0.0917146C12.29 -0.0287154 11.7919 -0.030571 11.3152 0.0863111C10.8386 0.203193 10.3978 0.435243 10.0317 0.76211C9.6656 0.435243 9.22488 0.203193 8.7482 0.0863111C8.27151 -0.030571 7.77344 -0.0287154 7.29764 0.0917146C6.82184 0.212145 6.38286 0.447471 6.01918 0.777057C5.65551 1.10664 5.37825 1.52042 5.21172 1.98211H5.03172C4.23607 1.98211 3.47301 2.29818 2.9104 2.86079C2.34779 3.4234 2.03172 4.18646 2.03172 4.98211C2.01667 5.15512 2.01667 5.3291 2.03172 5.50211C1.46418 5.8229 0.983653 6.27755 0.631963 6.82648C0.280272 7.37541 0.0680808 8.00198 0.0138596 8.65165C-0.0403616 9.30132 0.0650308 9.9544 0.320863 10.554C0.576694 11.1537 0.975211 11.6817 1.48172 12.0921C1.15399 12.7034 0.990837 13.3894 1.00827 14.0827C1.0257 14.7761 1.22312 15.453 1.58115 16.047C1.93917 16.641 2.44551 17.1318 3.05045 17.471C3.6554 17.8103 4.33816 17.9864 5.03172 17.9821H5.21172C5.37825 18.4438 5.65551 18.8576 6.01918 19.1872C6.38286 19.5168 6.82184 19.7521 7.29764 19.8725C7.77344 19.9929 8.27151 19.9948 8.7482 19.8779C9.22488 19.761 9.6656 19.529 10.0317 19.2021C10.3978 19.529 10.8386 19.761 11.3152 19.8779C11.7919 19.9948 12.29 19.9929 12.7658 19.8725C13.2416 19.7521 13.6806 19.5168 14.0443 19.1872C14.4079 18.8576 14.6852 18.4438 14.8517 17.9821H15.0317C15.7211 17.9778 16.3976 17.7953 16.9956 17.4525C17.5937 17.1097 18.093 16.6182 18.4451 16.0256C18.7973 15.433 18.9903 14.7594 19.0055 14.0702C19.0206 13.381 18.8575 12.6996 18.5317 12.0921C18.9982 11.7187 19.375 11.2455 19.6346 10.7073C19.8941 10.1691 20.0299 9.57962 20.0317 8.98211ZM9.03172 6.53211C8.81392 6.40754 8.58653 6.30053 8.35172 6.21211C8.09977 6.12724 7.82442 6.14594 7.58625 6.26409C7.34807 6.38223 7.16659 6.59015 7.08172 6.84211C6.99685 7.09407 7.01555 7.36942 7.1337 7.60759C7.25184 7.84576 7.45977 8.02724 7.71172 8.11211C8.09666 8.25127 8.42964 8.5052 8.66569 8.83961C8.90174 9.17401 9.0295 9.57279 9.03172 9.98211V11.5321C8.81392 11.4075 8.58653 11.3005 8.35172 11.2121C8.09977 11.1272 7.82442 11.1459 7.58625 11.2641C7.34807 11.3822 7.16659 11.5902 7.08172 11.8421C6.99685 12.0941 7.01555 12.3694 7.1337 12.6076C7.25184 12.8458 7.45977 13.0272 7.71172 13.1121C8.09666 13.2513 8.42964 13.5052 8.66569 13.8396C8.90174 14.174 9.0295 14.5728 9.03172 14.9821V16.9821C9.03172 17.2473 8.92637 17.5017 8.73883 17.6892C8.55129 17.8768 8.29694 17.9821 8.03172 17.9821C7.83826 17.9808 7.64931 17.9235 7.48779 17.817C7.32627 17.7105 7.19911 17.5594 7.12172 17.3821C7.2894 17.2837 7.44981 17.1734 7.60172 17.0521C7.70284 16.9681 7.78641 16.8649 7.84767 16.7486C7.90893 16.6322 7.94667 16.505 7.95874 16.374C7.97082 16.2431 7.95698 16.1111 7.91803 15.9855C7.87908 15.8599 7.81577 15.7432 7.73172 15.6421C7.64768 15.541 7.54454 15.4574 7.42819 15.3962C7.31185 15.3349 7.18458 15.2972 7.05365 15.2851C6.92272 15.273 6.79069 15.2869 6.66511 15.3258C6.53952 15.3648 6.42284 15.4281 6.32172 15.5121C5.96065 15.8161 5.50371 15.9826 5.03172 15.9821C4.50129 15.9821 3.99258 15.7714 3.61751 15.3963C3.24244 15.0213 3.03172 14.5125 3.03172 13.9821C3.03651 13.6057 3.14743 13.2383 3.35172 12.9221C3.57614 12.9624 3.80372 12.9824 4.03172 12.9821C4.29694 12.9821 4.55129 12.8768 4.73883 12.6892C4.92637 12.5017 5.03172 12.2473 5.03172 11.9821C5.03172 11.7169 4.92637 11.4625 4.73883 11.275C4.55129 11.0875 4.29694 10.9821 4.03172 10.9821C3.79551 10.9835 3.56125 10.9393 3.34172 10.8521C2.98207 10.7224 2.66713 10.4923 2.43421 10.1891C2.2013 9.88592 2.06017 9.52231 2.02755 9.14138C1.99493 8.76044 2.07218 8.37813 2.25015 8.03975C2.42812 7.70137 2.69936 7.42108 3.03172 7.23211C3.17382 7.36285 3.32782 7.48002 3.49172 7.58211C3.72246 7.71472 3.99643 7.75024 4.25335 7.68085C4.51028 7.61146 4.72911 7.44285 4.86172 7.21211C4.99433 6.98137 5.02985 6.70741 4.96046 6.45048C4.89107 6.19356 4.72246 5.97472 4.49172 5.84211C4.35095 5.76445 4.23355 5.6505 4.15172 5.51211C4.05927 5.35156 4.01744 5.16683 4.03172 4.98211C4.03172 4.71689 4.13708 4.46254 4.32462 4.275C4.51215 4.08747 4.76651 3.98211 5.03172 3.98211C5.10139 3.97239 5.17206 3.97239 5.24172 3.98211C5.29466 4.14278 5.35813 4.29979 5.43172 4.45211C5.49705 4.5667 5.58441 4.66723 5.68875 4.74791C5.7931 4.8286 5.91238 4.88784 6.03972 4.92223C6.16706 4.95662 6.29995 4.96548 6.43072 4.9483C6.5615 4.93112 6.68759 4.88823 6.80172 4.82211C7.02343 4.68872 7.1848 4.47458 7.25193 4.2247C7.31906 3.97482 7.28673 3.70865 7.16172 3.48211C7.07782 3.32872 7.03316 3.15695 7.03172 2.98211C7.03172 2.71689 7.13708 2.46254 7.32462 2.275C7.51215 2.08747 7.76651 1.98211 8.03172 1.98211C8.29694 1.98211 8.55129 2.08747 8.73883 2.275C8.92637 2.46254 9.03172 2.71689 9.03172 2.98211V6.53211ZM16.7217 10.8521C16.5022 10.9393 16.2679 10.9835 16.0317 10.9821C15.7665 10.9821 15.5122 11.0875 15.3246 11.275C15.1371 11.4625 15.0317 11.7169 15.0317 11.9821C15.0317 12.2473 15.1371 12.5017 15.3246 12.6892C15.5122 12.8768 15.7665 12.9821 16.0317 12.9821C16.2597 12.9824 16.4873 12.9624 16.7117 12.9221C16.916 13.2383 17.0269 13.6057 17.0317 13.9821C17.0317 14.5125 16.821 15.0213 16.4459 15.3963C16.0709 15.7714 15.5622 15.9821 15.0317 15.9821C14.5597 15.9826 14.1028 15.8161 13.7417 15.5121C13.5375 15.3424 13.2742 15.2607 13.0098 15.2851C12.7454 15.3095 12.5015 15.4379 12.3317 15.6421C12.162 15.8463 12.0803 16.1096 12.1047 16.374C12.1291 16.6385 12.2575 16.8824 12.4617 17.0521C12.6136 17.1734 12.774 17.2837 12.9417 17.3821C12.8643 17.5594 12.7372 17.7105 12.5757 17.817C12.4141 17.9235 12.2252 17.9808 12.0317 17.9821C11.7665 17.9821 11.5122 17.8768 11.3246 17.6892C11.1371 17.5017 11.0317 17.2473 11.0317 16.9821V14.9821C11.0339 14.5728 11.1617 14.174 11.3978 13.8396C11.6338 13.5052 11.9668 13.2513 12.3517 13.1121C12.6037 13.0272 12.8116 12.8458 12.9297 12.6076C13.0479 12.3694 13.0666 12.0941 12.9817 11.8421C12.8969 11.5902 12.7154 11.3822 12.4772 11.2641C12.239 11.1459 11.9637 11.1272 11.7117 11.2121C11.4769 11.3005 11.2495 11.4075 11.0317 11.5321V9.98211C11.0339 9.57279 11.1617 9.17401 11.3978 8.83961C11.6338 8.5052 11.9668 8.25127 12.3517 8.11211C12.6037 8.02724 12.8116 7.84576 12.9297 7.60759C13.0479 7.36942 13.0666 7.09407 12.9817 6.84211C12.8969 6.59015 12.7154 6.38223 12.4772 6.26409C12.239 6.14594 11.9637 6.12724 11.7117 6.21211C11.4769 6.30053 11.2495 6.40754 11.0317 6.53211V2.98211C11.0317 2.71689 11.1371 2.46254 11.3246 2.275C11.5122 2.08747 11.7665 1.98211 12.0317 1.98211C12.2969 1.98211 12.5513 2.08747 12.7388 2.275C12.9264 2.46254 13.0317 2.71689 13.0317 2.98211C13.0303 3.15695 12.9856 3.32872 12.9017 3.48211C12.8352 3.59565 12.7917 3.7212 12.7738 3.85157C12.7559 3.98194 12.7639 4.11457 12.7973 4.24184C12.8308 4.36911 12.889 4.48854 12.9687 4.59326C13.0484 4.69798 13.148 4.78595 13.2617 4.85211C13.3759 4.91823 13.5019 4.96112 13.6327 4.9783C13.7635 4.99548 13.8964 4.98662 14.0237 4.95223C14.1511 4.91784 14.2703 4.8586 14.3747 4.77791C14.479 4.69723 14.5664 4.5967 14.6317 4.48211C14.7066 4.32005 14.7701 4.15298 14.8217 3.98211C14.8914 3.97239 14.9621 3.97239 15.0317 3.98211C15.2969 3.98211 15.5513 4.08747 15.7388 4.275C15.9264 4.46254 16.0317 4.71689 16.0317 4.98211C16.0302 5.17814 15.9711 5.3694 15.8617 5.53211C15.7799 5.66188 15.6663 5.76859 15.5317 5.84211C15.301 5.97472 15.1324 6.19356 15.063 6.45048C14.9936 6.70741 15.0291 6.98137 15.1617 7.21211C15.2943 7.44285 15.5132 7.61146 15.7701 7.68085C16.027 7.75024 16.301 7.71472 16.5317 7.58211C16.7113 7.48501 16.879 7.36757 17.0317 7.23211C17.3652 7.41775 17.6386 7.69493 17.8197 8.03095C18.0007 8.36696 18.0819 8.74776 18.0535 9.12839C18.0251 9.50901 17.8884 9.87357 17.6595 10.179C17.4306 10.4844 17.1191 10.718 16.7617 10.8521H16.7217Z" fill="white"/>
</svg>
