<svg width="14" height="22" viewBox="0 0 14 22" fill="none" xmlns="http://www.w3.org/2000/svg">
<path d="M6.99123 0C5.61466 0.00172601 4.26915 0.409289 3.123 1.17171C1.97686 1.93413 1.08095 3.01757 0.547331 4.28651C0.0137156 5.55544 -0.133915 6.95355 0.122905 8.30595C0.379725 9.65835 1.02959 10.905 1.99123 11.89V21C1.99174 21.1705 2.03583 21.338 2.11929 21.4866C2.20275 21.6352 2.32283 21.7601 2.46811 21.8492C2.61339 21.9384 2.77905 21.989 2.94937 21.9961C3.11968 22.0032 3.289 21.9667 3.44123 21.89L6.99123 20.12L10.5412 21.89C10.6805 21.9614 10.8347 21.9991 10.9912 22C11.1785 22.0006 11.3621 21.9486 11.5212 21.85C11.6653 21.7599 11.7841 21.6346 11.8664 21.4859C11.9486 21.3372 11.9916 21.1699 11.9912 21V11.89C12.9529 10.905 13.6027 9.65835 13.8595 8.30595C14.1164 6.95355 13.9687 5.55544 13.4351 4.28651C12.9015 3.01757 12.0056 1.93413 10.8594 1.17171C9.7133 0.409289 8.36779 0.00172601 6.99123 0ZM9.99123 19.38L7.44123 18.11C7.30165 18.0397 7.14752 18.003 6.99123 18.003C6.83493 18.003 6.68081 18.0397 6.54123 18.11L3.99123 19.38V13.32C4.62415 13.6189 5.29831 13.8211 5.99123 13.92V15C5.99123 15.2652 6.09658 15.5196 6.28412 15.7071C6.47166 15.8946 6.72601 16 6.99123 16C7.25644 16 7.5108 15.8946 7.69833 15.7071C7.88587 15.5196 7.99123 15.2652 7.99123 15V13.92C8.68414 13.8211 9.35831 13.6189 9.99123 13.32V19.38ZM6.99123 12C6.00232 12 5.03562 11.7068 4.21338 11.1573C3.39113 10.6079 2.75027 9.82705 2.37183 8.91342C1.99339 7.99979 1.89437 6.99445 2.0873 6.02455C2.28023 5.05464 2.75643 4.16373 3.45569 3.46447C4.15495 2.7652 5.04587 2.289 6.01577 2.09607C6.98568 1.90315 7.99101 2.00216 8.90464 2.3806C9.81827 2.75904 10.5992 3.3999 11.1486 4.22215C11.698 5.04439 11.9912 6.01109 11.9912 7C11.9912 8.32608 11.4644 9.59785 10.5268 10.5355C9.58908 11.4732 8.31731 12 6.99123 12Z" fill="white"/>
</svg>
