<svg width="19" height="20" viewBox="0 0 19 20" fill="none" xmlns="http://www.w3.org/2000/svg">
<path d="M17.874 15L15.164 10.32C15.7185 9.30151 16.0074 8.15967 16.004 7C16.004 5.14348 15.2665 3.36301 13.9537 2.05025C12.641 0.737498 10.8605 0 9.00398 0C7.14746 0 5.36699 0.737498 4.05423 2.05025C2.74148 3.36301 2.00398 5.14348 2.00398 7C2.00054 8.15967 2.28943 9.30151 2.84398 10.32L0.133979 15C0.0460405 15.1523 -0.000173265 15.3251 4.8815e-07 15.501C0.000174242 15.6769 0.0467292 15.8496 0.134969 16.0017C0.223208 16.1539 0.350011 16.28 0.502585 16.3675C0.655159 16.455 0.828106 16.5007 1.00398 16.5H3.87398L5.33398 18.96C5.3832 19.0415 5.44381 19.1156 5.51398 19.18C5.69936 19.3587 5.94651 19.459 6.20398 19.46H6.34398C6.49495 19.4393 6.6392 19.3845 6.76572 19.2995C6.89224 19.2146 6.99767 19.1019 7.07398 18.97L9.00398 15.65L10.934 19C11.0114 19.13 11.1173 19.2408 11.2438 19.3239C11.3702 19.4071 11.5139 19.4604 11.664 19.48H11.804C12.0649 19.4816 12.3161 19.3811 12.504 19.2C12.5712 19.1393 12.6286 19.0684 12.674 18.99L14.134 16.53H17.004C17.1802 16.5307 17.3535 16.4848 17.5062 16.397C17.659 16.3092 17.7859 16.1826 17.874 16.03C17.9674 15.8745 18.0168 15.6964 18.0168 15.515C18.0168 15.3336 17.9674 15.1555 17.874 15ZM6.19398 16.53L5.30398 15.04C5.21634 14.8922 5.09209 14.7694 4.9432 14.6836C4.79432 14.5978 4.62582 14.5518 4.45398 14.55H2.72398L4.15398 12.07C5.1387 13.0189 6.3798 13.6585 7.72398 13.91L6.19398 16.53ZM9.00398 12C8.01507 12 7.04837 11.7068 6.22613 11.1573C5.40388 10.6079 4.76302 9.82705 4.38458 8.91342C4.00614 7.99979 3.90713 6.99445 4.10005 6.02455C4.29298 5.05464 4.76918 4.16373 5.46845 3.46447C6.16771 2.7652 7.05862 2.289 8.02853 2.09607C8.99843 1.90315 10.0038 2.00216 10.9174 2.3806C11.831 2.75904 12.6119 3.3999 13.1613 4.22215C13.7107 5.04439 14.004 6.01109 14.004 7C14.004 8.32608 13.4772 9.59785 12.5395 10.5355C11.6018 11.4732 10.3301 12 9.00398 12ZM13.554 14.55C13.3821 14.5518 13.2136 14.5978 13.0648 14.6836C12.9159 14.7694 12.7916 14.8922 12.704 15.04L11.814 16.53L10.294 13.88C11.6335 13.6234 12.8699 12.9843 13.854 12.04L15.284 14.52L13.554 14.55Z" fill="white"/>
</svg>
